<svg xmlns="http://www.w3.org/2000/svg" viewBox="0 0 750 500"><g id="freepik--background-complete--inject-8"><path d="M637.24,89.06a22.64,22.64,0,0,1,5.45-2.37l1.12-5.39,9.11-.16,1.31,5.35a22.31,22.31,0,0,1,5.53,2.17l4.6-3L670.91,92l-2.85,4.71a22.3,22.3,0,0,1,2.37,5.45l5.39,1.12.16,9.11-5.35,1.31a22.8,22.8,0,0,1-2.17,5.52l3,4.61-6.32,6.55-4.71-2.85a22.43,22.43,0,0,1-5.45,2.36l-1.12,5.39-9.11.16-1.31-5.35a22.09,22.09,0,0,1-5.52-2.17l-4.61,3-6.55-6.33,2.85-4.71a22,22,0,0,1-2.36-5.44l-5.39-1.12-.16-9.11,5.34-1.31a22.34,22.34,0,0,1,2.18-5.53l-3-4.6,6.33-6.55,4.7,2.85Zm4.86,12.13a9.77,9.77,0,1,0,13.82-.24A9.78,9.78,0,0,0,642.1,101.19Z" style="fill:#ebebeb"></path><path d="M339.35,110.72a18,18,0,0,1,4.39-1.91l.9-4.34,7.35-.13,1.05,4.31a18.06,18.06,0,0,1,4.46,1.75l3.71-2.43,5.28,5.1-2.3,3.8a17.61,17.61,0,0,1,1.91,4.39l4.35.9.13,7.35-4.31,1.05a18.09,18.09,0,0,1-1.76,4.46l2.44,3.71L361.84,144l-3.79-2.3a17.94,17.94,0,0,1-4.39,1.91l-.91,4.35-7.34.13-1.06-4.31A17.87,17.87,0,0,1,339.9,142l-3.72,2.44-5.28-5.11,2.3-3.79a18.33,18.33,0,0,1-1.91-4.39l-4.34-.91-.13-7.34,4.31-1.06a17.84,17.84,0,0,1,1.75-4.45l-2.43-3.72,5.1-5.28,3.8,2.3Zm3.91,9.78a7.88,7.88,0,1,0,11.14-.19A7.89,7.89,0,0,0,343.26,120.5Z" style="fill:#f5f5f5"></path><path d="M343.26,120.5a5.81,5.81,0,0,1,1.47-1.28,7.84,7.84,0,0,1,5.14-1.22,8,8,0,0,1,6.32,4.43,7.63,7.63,0,0,1,.71,2.21,7.26,7.26,0,0,1,.05,2.42A8,8,0,0,1,350.3,134a7.36,7.36,0,0,1-2.43,0,7.45,7.45,0,0,1-2.23-.63,8.14,8.14,0,0,1-3.29-2.72A8,8,0,0,1,341,127.2a7.79,7.79,0,0,1,1-5.18,5.94,5.94,0,0,1,1.23-1.52s-.47.52-1.08,1.6a7.91,7.91,0,0,0-.87,5.05,7.68,7.68,0,0,0,4.5,5.83,7.68,7.68,0,0,0,4.41.54,7.64,7.64,0,0,0,6.29-6.52,7.32,7.32,0,0,0,0-2.29,7.07,7.07,0,0,0-.67-2.1,7.69,7.69,0,0,0-6-4.29,7.87,7.87,0,0,0-5,1.05C343.76,120,343.3,120.55,343.26,120.5Z" style="fill:#f5f5f5"></path><path d="M339.35,110.72a1.34,1.34,0,0,1-.25-.13l-.73-.42-2.86-1.69h.09l-5.07,5.31,0-.14,2.44,3.7.05.07,0,.07a18.25,18.25,0,0,0-1.73,4.43l0,.08-.08,0-4.31,1.07.12-.16q.06,3.46.14,7.34l-.14-.17,4.35.89.11,0,0,.11a18.39,18.39,0,0,0,1.9,4.34l.06.1-.06.1-2.3,3.8,0-.25c1.66,1.6,3.45,3.33,5.29,5.09l-.26,0,3.71-2.44.11-.07.11.06a17.7,17.7,0,0,0,4.4,1.73l.13,0,0,.13c.34,1.35.7,2.83,1.06,4.31l-.21-.16,7.34-.14-.22.18c.29-1.37.6-2.85.91-4.34l0-.14.14,0a18,18,0,0,0,4.33-1.89h0l.12-.07.12.07,3.79,2.3-.28,0,5.1-5.28,0,.27-2.43-3.71-.08-.11.07-.12a17.59,17.59,0,0,0,1.73-4.4l0-.13.12,0,4.32-1-.17.21q-.06-3.76-.12-7.34l.17.2-4.35-.91-.12,0,0-.12A17.76,17.76,0,0,0,364,117l-.06-.1.06-.11,2.3-3.79,0,.24-5.27-5.12.22,0-3.72,2.43-.08,0-.09,0a18.49,18.49,0,0,0-4.41-1.75l-.09,0,0-.09c-.38-1.56-.72-3-1-4.31l.13.1-7.35.1.1-.08c-.37,1.73-.68,3.15-.93,4.34v0h0a19,19,0,0,0-3.36,1.29l-.79.42a1.12,1.12,0,0,1-.26.13l.24-.17c.17-.1.42-.25.78-.44a17.54,17.54,0,0,1,3.35-1.37l-.05.06c.24-1.19.52-2.62.87-4.35l0-.08h.08l7.34-.17h.11l0,.11,1.07,4.3-.11-.1a18.25,18.25,0,0,1,4.5,1.75h-.17c1.18-.78,2.4-1.59,3.71-2.44l.11-.08.1.1,5.29,5.09.11.1-.08.13-2.29,3.8v-.21a18.62,18.62,0,0,1,1.94,4.44l-.16-.14,4.35.9.16,0v.17c0,2.39.09,4.84.13,7.34v.17l-.17.05-4.31,1.06.16-.16a18.63,18.63,0,0,1-1.77,4.51v-.23l2.43,3.71.1.15-.12.13-5.1,5.28-.13.13-.15-.09-3.8-2.3h.23a18.35,18.35,0,0,1-4.44,1.93l.16-.17c-.31,1.49-.62,3-.91,4.34l0,.18h-.18l-7.35.13h-.17l-.05-.17c-.36-1.49-.72-3-1.05-4.31l.16.16a18.45,18.45,0,0,1-4.51-1.78H340l-3.71,2.43-.14.09-.12-.11-5.28-5.11-.11-.11.08-.14,2.3-3.79v.2a18.54,18.54,0,0,1-1.92-4.44l.15.13-4.35-.91-.14,0v-.14c0-2.58-.08-5-.11-7.35v-.13l.13,0,4.31-1-.1.11a18.06,18.06,0,0,1,1.78-4.49v.14l-2.42-3.72-.05-.08.07-.06,5.13-5.26,0,0,0,0,2.79,1.74c.31.19.55.34.72.46Z" style="fill:#f5f5f5"></path><path d="M133.91,85.2a10.72,10.72,0,0,1-.27-2.37,20.77,20.77,0,0,0-.32-2.85,26.59,26.59,0,0,0-.75-3.82,35.58,35.58,0,0,0-4-9.84,37,37,0,0,0-9.15-10.54,36.48,36.48,0,0,0-34.37-5.91,34.36,34.36,0,0,0-9.3,4.74A40.81,40.81,0,0,0,71.59,58a40,40,0,0,0-3.65,4.13,36.14,36.14,0,0,0-1,42.87,42.71,42.71,0,0,0,3.45,4.3,40.17,40.17,0,0,0,4,3.61,34.37,34.37,0,0,0,9,5.19,36.72,36.72,0,0,0,44.27-14.32,36.17,36.17,0,0,0,4.45-9.63,28.75,28.75,0,0,0,.93-3.79,19.79,19.79,0,0,0,.45-2.83,10.86,10.86,0,0,1,.39-2.35,10.37,10.37,0,0,1,0,2.39,16.65,16.65,0,0,1-.27,2.89,25.41,25.41,0,0,1-.77,3.9,34.91,34.91,0,0,1-4.24,10,37.8,37.8,0,0,1-25.9,17.51,38.15,38.15,0,0,1-20-2,36,36,0,0,1-9.58-5.41,43.15,43.15,0,0,1-4.26-3.78,42.16,42.16,0,0,1-3.65-4.52,38,38,0,0,1,1.1-45.25,42.19,42.19,0,0,1,3.87-4.34A42.83,42.83,0,0,1,74.66,53a35.93,35.93,0,0,1,9.82-4.93A38.2,38.2,0,0,1,104.57,47a37.84,37.84,0,0,1,25,18.74A35.08,35.08,0,0,1,133.35,76a27.5,27.5,0,0,1,.58,3.93,16.9,16.9,0,0,1,.12,2.9A10.29,10.29,0,0,1,133.91,85.2Z" style="fill:#ebebeb"></path><path d="M126.45,61.9c.08.12-.59.7-1.89,1.67l-2.4,1.72c-.48.33-1,.7-1.53,1l-1.83,1a42,42,0,0,1-21.92,5.52l-3.32-.14-3.19-.5c-.52-.09-1-.16-1.55-.26l-1.48-.4c-1-.27-2-.5-2.87-.79a48.37,48.37,0,0,1-9.3-4.29c-5-3-7.43-5.77-7.24-6s2.92,2.07,7.95,4.69A55.91,55.91,0,0,0,85,68.91c.89.26,1.82.46,2.76.7l1.43.35,1.48.23,3.05.45,3.16.12A45.39,45.39,0,0,0,118.15,66l1.85-.81c.57-.29,1.08-.61,1.58-.89l2.54-1.4C125.54,62.15,126.37,61.79,126.45,61.9Z" style="fill:#ebebeb"></path><path d="M66.8,107.24c-.09-.12.59-.7,1.88-1.67l2.4-1.72c.48-.32,1-.69,1.53-1l1.84-1a42.07,42.07,0,0,1,21.92-5.52l3.32.15,3.18.5c.52.09,1,.15,1.55.26l1.48.39c1,.27,1.95.5,2.87.8a48.39,48.39,0,0,1,9.3,4.28c5,3,7.43,5.77,7.24,6s-2.92-2.07-8-4.68a56.11,56.11,0,0,0-9.15-3.75c-.9-.26-1.83-.45-2.77-.7L104,99.18,102.53,99l-3-.45-3.17-.13a45.43,45.43,0,0,0-21.22,4.77l-1.86.8c-.57.3-1.08.62-1.57.89l-2.55,1.4C67.71,107,66.88,107.36,66.8,107.24Z" style="fill:#ebebeb"></path><path d="M133.89,86.07c0,.56-16.72.62-37.31.12s-37.27-1.37-37.25-1.93,16.71-.62,37.3-.12S133.9,85.5,133.89,86.07Z" style="fill:#ebebeb"></path><path d="M94.89,121.54c-.57,0-.62-16.71-.12-37.29S96.13,47,96.7,47s.62,16.7.12,37.29S95.45,121.55,94.89,121.54Z" style="fill:#ebebeb"></path><path d="M94.89,121.48c-.14.22-4.25-2.56-9-8.87a50.28,50.28,0,0,1-6.66-12.1A45.09,45.09,0,0,1,76.35,83.8a42.8,42.8,0,0,1,3.77-16.54A51.25,51.25,0,0,1,87.4,55.54c5-6.07,9.16-8.76,9.3-8.54s-3.55,3.28-8.16,9.43A56.14,56.14,0,0,0,81.85,68,43,43,0,0,0,78.4,83.84a45.41,45.41,0,0,0,2.61,16,53.87,53.87,0,0,0,6.07,11.91C91.4,118.13,95.1,121.26,94.89,121.48Z" style="fill:#ebebeb"></path><path d="M97.53,47c.14-.22,4.25,2.57,9,8.87A49.94,49.94,0,0,1,113.19,68a44.89,44.89,0,0,1,2.88,16.71,42.8,42.8,0,0,1-3.76,16.54A52,52,0,0,1,105,113c-5,6.07-9.17,8.76-9.31,8.54s3.55-3.28,8.16-9.43a56.14,56.14,0,0,0,6.69-11.58A42.77,42.77,0,0,0,114,84.66a45.19,45.19,0,0,0-2.61-16,53.87,53.87,0,0,0-6.07-11.91C101,50.37,97.33,47.24,97.53,47Z" style="fill:#ebebeb"></path><path d="M178.67,123.86a40.81,40.81,0,0,1,9.91-4.31l2-9.8,16.56-.29,2.38,9.73a40.33,40.33,0,0,1,10.05,4l8.37-5.49,11.92,11.51-5.19,8.56a40.74,40.74,0,0,1,4.31,9.9l9.8,2,.29,16.56-9.73,2.39a40.49,40.49,0,0,1-3.95,10l5.49,8.37L229.41,199l-8.56-5.19a40.71,40.71,0,0,1-9.9,4.3l-2,9.8-16.56.3L190,198.43a40.88,40.88,0,0,1-10.05-4L171.54,200l-11.92-11.5,5.19-8.56a40.39,40.39,0,0,1-4.3-9.91l-9.8-2-.3-16.56,9.73-2.38a40.33,40.33,0,0,1,4-10l-5.48-8.37,11.5-11.92,8.56,5.19Zm8.83,22.06a17.77,17.77,0,1,0,25.13-.44A17.77,17.77,0,0,0,187.5,145.92Z" style="fill:#e0e0e0"></path><path d="M187.5,145.92a13.39,13.39,0,0,1,3.31-2.9,17.64,17.64,0,0,1,11.59-2.74,17.85,17.85,0,0,1,7.88,2.8,18.09,18.09,0,0,1,6.37,7.18,16.73,16.73,0,0,1,1.62,5,17,17,0,0,1,.1,5.48,18.12,18.12,0,0,1-15,15.53,17.06,17.06,0,0,1-5.47.1,17.24,17.24,0,0,1-5-1.44,18.21,18.21,0,0,1-7.4-6.12,18,18,0,0,1-3.08-7.78,17.63,17.63,0,0,1,2.34-11.68,13.39,13.39,0,0,1,2.78-3.41c.1.08-1.07,1.17-2.44,3.61a17.7,17.7,0,0,0-2,11.37,17.41,17.41,0,0,0,10.15,13.15,17.39,17.39,0,0,0,10,1.22,17.24,17.24,0,0,0,14.18-14.69,16.06,16.06,0,0,0-.07-5.18,16.35,16.35,0,0,0-1.5-4.73A17.35,17.35,0,0,0,202.32,141a17.7,17.7,0,0,0-11.3,2.37C188.63,144.81,187.59,146,187.5,145.92Z" style="fill:#e0e0e0"></path><path d="M178.67,123.86s-.18-.09-.55-.29l-1.64-.95L170,118.81l.2,0-11.44,12,0-.32,5.52,8.34.1.15-.09.16a40.92,40.92,0,0,0-3.89,10l0,.19-.2.05-9.72,2.41.28-.35c.1,5.21.21,10.75.33,16.56l-.32-.39,9.8,2,.25,0,.07.25a40.3,40.3,0,0,0,4.28,9.79l.14.23-.14.23c-1.61,2.65-3.38,5.58-5.18,8.56l-.07-.56,11.93,11.49-.59-.05,8.37-5.5.24-.16.26.14a40.23,40.23,0,0,0,9.93,3.9l.29.07.07.29c.75,3.05,1.57,6.37,2.39,9.73l-.49-.38,16.56-.3-.49.4c.65-3.1,1.34-6.44,2-9.8l.06-.3.3-.09a40.32,40.32,0,0,0,9.77-4.24h0l.27-.16.26.16,8.55,5.19-.62.08,11.5-11.91-.06.63L235,178.93l-.16-.25.14-.27a39.86,39.86,0,0,0,3.91-9.92l.08-.29.29-.07,9.72-2.38-.37.48q-.13-8.47-.27-16.56l.37.45-9.8-2.05-.27-.06-.07-.26a40.28,40.28,0,0,0-4.25-9.81l-.13-.23.13-.22,5.21-8.55.07.52-11.9-11.53.49,0-8.39,5.46-.18.13-.2-.11a40.19,40.19,0,0,0-10-3.95l-.2-.05,0-.2c-.86-3.53-1.63-6.72-2.35-9.73l.29.23-16.56.22.22-.18c-.84,3.91-1.53,7.12-2.1,9.79l0,.1-.09,0a41.12,41.12,0,0,0-7.57,2.92l-1.79.93a4.49,4.49,0,0,1-.59.3s.19-.14.55-.38,1-.58,1.75-1a38.26,38.26,0,0,1,7.56-3.08l-.11.12c.53-2.68,1.18-5.89,2-9.82l0-.17h.18l16.56-.36h.24l.06.24c.75,3,1.54,6.18,2.42,9.72l-.25-.25a41,41,0,0,1,10.15,4h-.38l8.36-5.5.26-.18.22.22,11.94,11.48.25.24-.18.29-5.17,8.56v-.45a40.87,40.87,0,0,1,4.36,10l-.34-.33,9.8,2,.37.08v.37q.15,8.08.3,16.57v.38l-.38.1-9.72,2.39.36-.36a41,41,0,0,1-4,10.17l0-.52q2.72,4.16,5.49,8.37l.22.34-.28.29-11.5,11.92-.28.29-.35-.21-8.56-5.19h.52a41.21,41.21,0,0,1-10,4.35l.36-.38c-.71,3.36-1.4,6.7-2,9.8l-.08.39h-.4l-16.57.28H192l-.1-.39c-.82-3.35-1.63-6.68-2.38-9.72l.36.36a41.57,41.57,0,0,1-10.16-4l.5,0-8.38,5.48-.32.21-.27-.27-11.9-11.52-.26-.25.19-.31c1.81-3,3.58-5.9,5.2-8.55v.46a41.18,41.18,0,0,1-4.34-10l.32.3-9.8-2.06-.31-.07V168c-.08-5.81-.17-11.35-.25-16.56v-.29l.28-.07,9.73-2.36-.24.25a41,41,0,0,1,4-10.12v.31l-5.45-8.39-.11-.18.14-.14L170,118.56l.1-.1.11.07,6.3,3.92,1.62,1A3.91,3.91,0,0,1,178.67,123.86Z" style="fill:#e0e0e0"></path><path d="M266.57,57.6A30.4,30.4,0,0,1,274,54.37L275.54,47,288,46.79l1.79,7.3a30.65,30.65,0,0,1,7.55,3l6.28-4.12,8.95,8.64L308.66,68a30.4,30.4,0,0,1,3.23,7.44L319.25,77l.22,12.44-7.3,1.79a31,31,0,0,1-3,7.55l4.12,6.28L304.68,114l-6.43-3.89a30.4,30.4,0,0,1-7.44,3.23l-1.53,7.36-12.44.22-1.79-7.3a31,31,0,0,1-7.55-3l-6.28,4.12-9-8.64,3.89-6.43a30.4,30.4,0,0,1-3.23-7.44l-7.36-1.53-.22-12.44,7.3-1.79a30.65,30.65,0,0,1,3-7.55l-4.12-6.28,8.64-8.95,6.43,3.89Zm6.63,16.57a13.35,13.35,0,1,0,18.87-.33A13.35,13.35,0,0,0,273.2,74.17Z" style="fill:#ebebeb"></path><path d="M124,391.39a5.17,5.17,0,0,1,.76-.86l2.18-2.19c1.85-1.83,4.44-4.34,7.32-7.09l.07-.06v.37c-2.9-2.69-5.51-5.15-7.38-6.95l-2.19-2.15a5.44,5.44,0,0,1-.76-.83,4.29,4.29,0,0,1,.89.69l2.31,2c1.93,1.73,4.57,4.14,7.47,6.84l.2.18-.2.19-.06.06c-2.88,2.75-5.51,5.21-7.43,7l-2.29,2.08A5.06,5.06,0,0,1,124,391.39Z" style="fill:#e0e0e0"></path><path d="M101.63,371.63a6,6,0,0,1-.76.85l-2.18,2.19c-1.85,1.83-4.44,4.34-7.32,7.09l-.07.06v-.37c2.9,2.7,5.51,5.15,7.38,6.95l2.19,2.15a4.71,4.71,0,0,1,.76.84,5.24,5.24,0,0,1-.89-.7c-.63-.55-1.4-1.22-2.31-2-1.93-1.72-4.57-4.14-7.47-6.84l-.2-.18.2-.19.06-.06c2.88-2.75,5.51-5.21,7.43-7l2.29-2.07A4.51,4.51,0,0,1,101.63,371.63Z" style="fill:#e0e0e0"></path><path d="M107.37,396c-.13-.05,2.22-6.66,5.25-14.76s5.6-14.63,5.73-14.58-2.22,6.66-5.25,14.76S107.51,396.09,107.37,396Z" style="fill:#e0e0e0"></path><path d="M149.48,410.18s0-.38,0-1.11,0-1.79,0-3.17c0-2.8,0-6.86-.06-12,0-10.37-.06-25.18-.1-43.05l.21.22-72.85,0h0l.25-.26c0,21.47,0,41.73,0,59.37l-.23-.23,52.61.12,14.91.06,4,0,1,0h0l-1,0-3.92,0-14.86.06-52.75.12h-.23v-.23c0-17.64,0-37.9,0-59.37v-.25h.26l72.85,0h.21v.21c-.05,17.92-.09,32.78-.11,43.18,0,5.16,0,9.21-.06,12,0,1.36,0,2.41,0,3.14S149.48,410.18,149.48,410.18Z" style="fill:#e0e0e0"></path><path d="M150.05,359.62c0,.14-16.45.26-36.73.26s-36.73-.12-36.73-.26,16.44-.25,36.73-.25S150.05,359.48,150.05,359.62Z" style="fill:#e0e0e0"></path><path d="M82.57,355.29a1,1,0,1,1-2,0,1,1,0,0,1,2,0Z" style="fill:#e0e0e0"></path><ellipse cx="85.16" cy="355.29" rx="0.98" ry="0.98" style="fill:#e0e0e0"></ellipse><path d="M89.72,355.29a1,1,0,1,1-1-1A1,1,0,0,1,89.72,355.29Z" style="fill:#e0e0e0"></path></g><g id="freepik--Floor--inject-8"><path d="M729,449.07c0,.15-152.49.26-340.55.26s-340.57-.11-340.57-.26,152.45-.26,340.57-.26S729,448.93,729,449.07Z" style="fill:#263238"></path></g><g id="freepik--Server--inject-8"><rect x="623.72" y="205.49" width="78.95" height="241.86" transform="translate(1326.39 652.84) rotate(180)" style="fill:#ebebeb"></rect><polygon points="561.43 447.35 623.72 447.35 623.83 205.49 561.43 205.49 561.43 447.35" style="fill:#e0e0e0"></polygon><rect x="631.33" y="244.2" width="66.97" height="18.86" transform="translate(1329.63 507.25) rotate(180)" style="fill:#263238"></rect><rect x="692.68" y="246.57" width="3.75" height="14.43" transform="translate(1389.11 507.57) rotate(180)" style="fill:#455a64"></rect><path d="M688.26,249.6a1.2,1.2,0,1,0,1.19-1.19A1.2,1.2,0,0,0,688.26,249.6Z" style="fill:#fff"></path><path d="M688.26,254.7a1.2,1.2,0,1,0,1.19-1.19A1.19,1.19,0,0,0,688.26,254.7Z" style="fill:#fff"></path><rect x="679.81" y="248.41" width="3.69" height="11.09" transform="translate(1363.31 507.91) rotate(180)" style="fill:#455a64"></rect><rect x="674.49" y="248.41" width="3.69" height="11.09" transform="translate(1352.66 507.91) rotate(180)" style="fill:#455a64"></rect><rect x="669.17" y="248.41" width="3.69" height="11.09" transform="translate(1342.02 507.91) rotate(180)" style="fill:#455a64"></rect><rect x="663.84" y="248.41" width="3.69" height="11.09" transform="translate(1331.37 507.91) rotate(180)" style="fill:#455a64"></rect><rect x="658.52" y="248.41" width="3.69" height="11.09" transform="translate(1320.72 507.91) rotate(180)" style="fill:#455a64"></rect><rect x="653.2" y="248.41" width="3.69" height="11.09" transform="translate(1310.08 507.91) rotate(180)" style="fill:#455a64"></rect><rect x="647.87" y="248.41" width="3.69" height="11.09" transform="translate(1299.43 507.91) rotate(180)" style="fill:#455a64"></rect><rect x="642.55" y="248.41" width="3.69" height="11.09" transform="translate(1288.78 507.91) rotate(180)" style="fill:#455a64"></rect><rect x="637.23" y="248.41" width="3.69" height="11.09" transform="translate(1278.14 507.91) rotate(180)" style="fill:#455a64"></rect><rect x="631.9" y="248.41" width="3.69" height="11.09" transform="translate(1267.49 507.91) rotate(180)" style="fill:#455a64"></rect><rect x="631.33" y="271.29" width="66.97" height="18.86" transform="translate(1329.63 561.43) rotate(180)" style="fill:#263238"></rect><rect x="692.68" y="273.66" width="3.75" height="14.43" transform="translate(1389.11 561.74) rotate(180)" style="fill:#455a64"></rect><path d="M688.26,276.69a1.2,1.2,0,1,0,1.19-1.19A1.19,1.19,0,0,0,688.26,276.69Z" style="fill:#fff"></path><path d="M688.26,281.79a1.2,1.2,0,1,0,1.19-1.19A1.19,1.19,0,0,0,688.26,281.79Z" style="fill:#fff"></path><rect x="679.81" y="275.5" width="3.69" height="11.08" transform="translate(1363.31 562.08) rotate(180)" style="fill:#455a64"></rect><rect x="674.49" y="275.5" width="3.69" height="11.08" transform="translate(1352.66 562.08) rotate(180)" style="fill:#455a64"></rect><rect x="669.17" y="275.5" width="3.69" height="11.08" transform="translate(1342.02 562.08) rotate(180)" style="fill:#455a64"></rect><rect x="663.84" y="275.5" width="3.69" height="11.08" transform="translate(1331.37 562.08) rotate(180)" style="fill:#455a64"></rect><rect x="658.52" y="275.5" width="3.69" height="11.08" transform="translate(1320.72 562.08) rotate(180)" style="fill:#455a64"></rect><rect x="653.2" y="275.5" width="3.69" height="11.08" transform="translate(1310.08 562.08) rotate(180)" style="fill:#455a64"></rect><rect x="647.87" y="275.5" width="3.69" height="11.08" transform="translate(1299.43 562.08) rotate(180)" style="fill:#455a64"></rect><rect x="642.55" y="275.5" width="3.69" height="11.08" transform="translate(1288.78 562.08) rotate(180)" style="fill:#455a64"></rect><rect x="637.23" y="275.5" width="3.69" height="11.08" transform="translate(1278.14 562.08) rotate(180)" style="fill:#455a64"></rect><rect x="631.9" y="275.5" width="3.69" height="11.08" transform="translate(1267.49 562.08) rotate(180)" style="fill:#455a64"></rect><rect x="631.33" y="298.59" width="66.97" height="18.86" transform="translate(1329.63 616.04) rotate(180)" style="fill:#263238"></rect><rect x="692.68" y="300.96" width="3.75" height="14.43" transform="translate(1389.11 616.35) rotate(180)" style="fill:#455a64"></rect><path d="M688.26,304a1.2,1.2,0,1,0,1.19-1.2A1.2,1.2,0,0,0,688.26,304Z" style="fill:#fff"></path><path d="M688.26,309.09a1.2,1.2,0,1,0,1.19-1.19A1.2,1.2,0,0,0,688.26,309.09Z" style="fill:#fff"></path><rect x="679.81" y="302.8" width="3.69" height="11.08" transform="translate(1363.31 616.69) rotate(180)" style="fill:#455a64"></rect><rect x="674.49" y="302.8" width="3.69" height="11.08" transform="translate(1352.66 616.69) rotate(180)" style="fill:#455a64"></rect><rect x="669.17" y="302.8" width="3.69" height="11.08" transform="translate(1342.02 616.69) rotate(180)" style="fill:#455a64"></rect><rect x="663.84" y="302.8" width="3.69" height="11.08" transform="translate(1331.37 616.69) rotate(180)" style="fill:#455a64"></rect><rect x="658.52" y="302.8" width="3.69" height="11.08" transform="translate(1320.72 616.69) rotate(180)" style="fill:#455a64"></rect><rect x="653.2" y="302.8" width="3.69" height="11.08" transform="translate(1310.08 616.69) rotate(180)" style="fill:#455a64"></rect><rect x="647.87" y="302.8" width="3.69" height="11.08" transform="translate(1299.43 616.69) rotate(180)" style="fill:#455a64"></rect><rect x="642.55" y="302.8" width="3.69" height="11.08" transform="translate(1288.78 616.69) rotate(180)" style="fill:#455a64"></rect><rect x="637.23" y="302.8" width="3.69" height="11.08" transform="translate(1278.14 616.69) rotate(180)" style="fill:#455a64"></rect><rect x="631.9" y="302.8" width="3.69" height="11.08" transform="translate(1267.49 616.69) rotate(180)" style="fill:#455a64"></rect><rect x="631.33" y="328.09" width="66.97" height="18.86" transform="translate(1329.63 675.03) rotate(180)" style="fill:#263238"></rect><rect x="692.68" y="330.46" width="3.75" height="14.43" transform="translate(1389.11 675.34) rotate(180)" style="fill:#455a64"></rect><path d="M688.26,333.49a1.2,1.2,0,1,0,1.19-1.19A1.19,1.19,0,0,0,688.26,333.49Z" style="fill:#fff"></path><path d="M688.26,338.59a1.2,1.2,0,1,0,1.19-1.19A1.19,1.19,0,0,0,688.26,338.59Z" style="fill:#fff"></path><rect x="679.81" y="332.3" width="3.69" height="11.08" transform="translate(1363.31 675.68) rotate(180)" style="fill:#455a64"></rect><rect x="674.49" y="332.3" width="3.69" height="11.08" transform="translate(1352.66 675.68) rotate(180)" style="fill:#455a64"></rect><rect x="669.17" y="332.3" width="3.69" height="11.08" transform="translate(1342.02 675.68) rotate(180)" style="fill:#455a64"></rect><rect x="663.84" y="332.3" width="3.69" height="11.08" transform="translate(1331.37 675.68) rotate(180)" style="fill:#455a64"></rect><rect x="658.52" y="332.3" width="3.69" height="11.08" transform="translate(1320.72 675.68) rotate(180)" style="fill:#455a64"></rect><rect x="653.2" y="332.3" width="3.69" height="11.08" transform="translate(1310.08 675.68) rotate(180)" style="fill:#455a64"></rect><rect x="647.87" y="332.3" width="3.69" height="11.08" transform="translate(1299.43 675.68) rotate(180)" style="fill:#455a64"></rect><rect x="642.55" y="332.3" width="3.69" height="11.08" transform="translate(1288.78 675.68) rotate(180)" style="fill:#455a64"></rect><rect x="637.23" y="332.3" width="3.69" height="11.08" transform="translate(1278.14 675.68) rotate(180)" style="fill:#455a64"></rect><rect x="631.9" y="332.3" width="3.69" height="11.08" transform="translate(1267.49 675.68) rotate(180)" style="fill:#455a64"></rect><rect x="631.33" y="357.87" width="66.97" height="18.86" transform="translate(1329.63 734.6) rotate(180)" style="fill:#263238"></rect><rect x="692.68" y="360.24" width="3.75" height="14.43" transform="translate(1389.11 734.92) rotate(180)" style="fill:#455a64"></rect><path d="M688.26,363.28a1.2,1.2,0,1,0,1.19-1.19A1.19,1.19,0,0,0,688.26,363.28Z" style="fill:#fff"></path><path d="M688.26,368.38a1.2,1.2,0,1,0,1.19-1.19A1.19,1.19,0,0,0,688.26,368.38Z" style="fill:#fff"></path><rect x="679.81" y="362.09" width="3.69" height="11.08" transform="translate(1363.31 735.26) rotate(180)" style="fill:#455a64"></rect><rect x="674.49" y="362.09" width="3.69" height="11.08" transform="translate(1352.66 735.26) rotate(180)" style="fill:#455a64"></rect><rect x="669.17" y="362.09" width="3.69" height="11.08" transform="translate(1342.02 735.26) rotate(180)" style="fill:#455a64"></rect><rect x="663.84" y="362.09" width="3.69" height="11.08" transform="translate(1331.37 735.26) rotate(180)" style="fill:#455a64"></rect><rect x="658.52" y="362.09" width="3.69" height="11.08" transform="translate(1320.72 735.26) rotate(180)" style="fill:#455a64"></rect><rect x="653.2" y="362.09" width="3.69" height="11.08" transform="translate(1310.08 735.26) rotate(180)" style="fill:#455a64"></rect><rect x="647.87" y="362.09" width="3.69" height="11.08" transform="translate(1299.43 735.26) rotate(180)" style="fill:#455a64"></rect><rect x="642.55" y="362.09" width="3.69" height="11.08" transform="translate(1288.78 735.26) rotate(180)" style="fill:#455a64"></rect><rect x="637.23" y="362.09" width="3.69" height="11.08" transform="translate(1278.14 735.26) rotate(180)" style="fill:#455a64"></rect><rect x="631.9" y="362.09" width="3.69" height="11.08" transform="translate(1267.49 735.26) rotate(180)" style="fill:#455a64"></rect><rect x="631.33" y="417.16" width="66.97" height="18.86" transform="translate(1329.63 853.17) rotate(180)" style="fill:#263238"></rect><rect x="692.68" y="419.53" width="3.75" height="14.43" transform="translate(1389.11 853.48) rotate(180)" style="fill:#455a64"></rect><path d="M688.26,422.56a1.2,1.2,0,1,0,1.19-1.19A1.19,1.19,0,0,0,688.26,422.56Z" style="fill:#fff"></path><path d="M688.26,427.66a1.2,1.2,0,1,0,1.19-1.19A1.19,1.19,0,0,0,688.26,427.66Z" style="fill:#fff"></path><rect x="679.81" y="421.37" width="3.69" height="11.08" transform="translate(1363.31 853.82) rotate(180)" style="fill:#455a64"></rect><rect x="674.49" y="421.37" width="3.69" height="11.08" transform="translate(1352.66 853.82) rotate(180)" style="fill:#455a64"></rect><rect x="669.17" y="421.37" width="3.69" height="11.08" transform="translate(1342.02 853.82) rotate(180)" style="fill:#455a64"></rect><rect x="663.84" y="421.37" width="3.69" height="11.08" transform="translate(1331.37 853.82) rotate(180)" style="fill:#455a64"></rect><rect x="658.52" y="421.37" width="3.69" height="11.08" transform="translate(1320.72 853.82) rotate(180)" style="fill:#455a64"></rect><rect x="653.2" y="421.37" width="3.69" height="11.08" transform="translate(1310.08 853.82) rotate(180)" style="fill:#455a64"></rect><rect x="647.87" y="421.37" width="3.69" height="11.08" transform="translate(1299.43 853.82) rotate(180)" style="fill:#455a64"></rect><rect x="642.55" y="421.37" width="3.69" height="11.08" transform="translate(1288.78 853.82) rotate(180)" style="fill:#455a64"></rect><rect x="637.23" y="421.37" width="3.69" height="11.08" transform="translate(1278.14 853.82) rotate(180)" style="fill:#455a64"></rect><rect x="631.9" y="421.37" width="3.69" height="11.08" transform="translate(1267.49 853.82) rotate(180)" style="fill:#455a64"></rect><rect x="631.33" y="387.54" width="66.97" height="18.86" transform="translate(1329.63 793.94) rotate(180)" style="fill:#263238"></rect><rect x="692.68" y="389.91" width="3.75" height="14.43" transform="translate(1389.11 794.25) rotate(180)" style="fill:#455a64"></rect><path d="M688.26,393a1.2,1.2,0,1,0,1.19-1.2A1.2,1.2,0,0,0,688.26,393Z" style="fill:#fff"></path><path d="M688.26,398a1.2,1.2,0,1,0,1.19-1.19A1.2,1.2,0,0,0,688.26,398Z" style="fill:#fff"></path><rect x="679.81" y="391.75" width="3.69" height="11.08" transform="translate(1363.31 794.59) rotate(180)" style="fill:#455a64"></rect><rect x="674.49" y="391.75" width="3.69" height="11.08" transform="translate(1352.66 794.59) rotate(180)" style="fill:#455a64"></rect><rect x="669.17" y="391.75" width="3.69" height="11.08" transform="translate(1342.02 794.59) rotate(180)" style="fill:#455a64"></rect><rect x="663.84" y="391.75" width="3.69" height="11.08" transform="translate(1331.37 794.59) rotate(180)" style="fill:#455a64"></rect><rect x="658.52" y="391.75" width="3.69" height="11.08" transform="translate(1320.72 794.59) rotate(180)" style="fill:#455a64"></rect><rect x="653.2" y="391.75" width="3.69" height="11.08" transform="translate(1310.08 794.59) rotate(180)" style="fill:#455a64"></rect><rect x="647.87" y="391.75" width="3.69" height="11.08" transform="translate(1299.43 794.59) rotate(180)" style="fill:#455a64"></rect><rect x="642.55" y="391.75" width="3.69" height="11.08" transform="translate(1288.78 794.59) rotate(180)" style="fill:#455a64"></rect><rect x="637.23" y="391.75" width="3.69" height="11.08" transform="translate(1278.14 794.59) rotate(180)" style="fill:#455a64"></rect><rect x="631.9" y="391.75" width="3.69" height="11.08" transform="translate(1267.49 794.59) rotate(180)" style="fill:#455a64"></rect><path d="M656.88,244.2a2.45,2.45,0,0,0,.07-.58q0-.59.06-1.68c0-.73,0-1.62.09-2.65a16.77,16.77,0,0,1,.45-3.44,12.67,12.67,0,0,1,1.79-3.77,8.45,8.45,0,0,1,3.67-3,17.93,17.93,0,0,1,5.21-1.06l5.77-.5c7.9-.68,15.07-1.12,20.27-1.22,2.6,0,4.7,0,6.15,0l1.68,0a2.59,2.59,0,0,0,.58,0l-.58-.06-1.67-.1c-1.46-.06-3.56-.12-6.17-.11-5.2,0-12.39.41-20.3,1.1l-5.77.51a17.74,17.74,0,0,0-5.32,1.11,8.62,8.62,0,0,0-3.81,3.11,12.58,12.58,0,0,0-1.79,3.9,16.57,16.57,0,0,0-.4,3.51c0,1,0,1.92,0,2.65s0,1.25,0,1.67A3.79,3.79,0,0,0,656.88,244.2Z" style="fill:#263238"></path><path d="M677.2,244.2a3,3,0,0,0,0-.55c0-.41,0-.93,0-1.58s0-1.52.07-2.48a7.58,7.58,0,0,1,.83-3.11,6,6,0,0,1,3-2.33,8.46,8.46,0,0,1,4.42-.45,7.65,7.65,0,0,1,2.27.78,4.26,4.26,0,0,1,1.77,1.67,2.41,2.41,0,0,1,0,2.37,3.17,3.17,0,0,1-2,1.51,2.55,2.55,0,0,1-2.35-.68,3.37,3.37,0,0,1-.36-4.53,5,5,0,0,1,1.78-1.56,6.44,6.44,0,0,1,2.21-.57c.76-.12,1.49-.22,2.2-.29,1.43-.16,2.76-.26,4-.31,2.44-.09,4.42-.05,5.79-.05h1.57a3.93,3.93,0,0,0,.55,0,1.8,1.8,0,0,0-.54-.06l-1.58-.08c-1.36-.05-3.35-.13-5.8-.08-1.22,0-2.57.11-4,.25-.72.08-1.46.17-2.22.28-.39.06-.76.1-1.16.18a4.47,4.47,0,0,0-1.18.41,5.35,5.35,0,0,0-1.93,1.68,3.79,3.79,0,0,0,.4,5.07,3,3,0,0,0,2.73.78,3.55,3.55,0,0,0,2.29-1.72,2.82,2.82,0,0,0,0-2.76,4.76,4.76,0,0,0-1.94-1.84,7.69,7.69,0,0,0-2.41-.8,8.73,8.73,0,0,0-4.61.5,6.23,6.23,0,0,0-3.16,2.51,7.8,7.8,0,0,0-.79,3.24c-.06,1,0,1.82,0,2.5s0,1.17.06,1.58A2.39,2.39,0,0,0,677.2,244.2Z" style="fill:#263238"></path><path d="M651.41,244.2a3.53,3.53,0,0,0,.14-.63c.07-.41.19-1,.35-1.79a35.63,35.63,0,0,1,2-6.39,18.7,18.7,0,0,1,5.83-7.82,10.94,10.94,0,0,1,5.35-2,55.23,55.23,0,0,1,6.28-.34c8.65-.17,16.5-.13,22.17-.35,2.84-.1,5.13-.23,6.72-.34l1.82-.16a3.25,3.25,0,0,0,.63-.08,5.18,5.18,0,0,0-.64,0l-1.82.07c-1.59.06-3.88.15-6.72.21-5.67.14-13.51.06-22.17.22a54.44,54.44,0,0,0-6.33.35,11.29,11.29,0,0,0-5.52,2.14,17.06,17.06,0,0,0-3.69,3.89,22.37,22.37,0,0,0-2.18,4.13,32.23,32.23,0,0,0-1.86,6.47c-.14.78-.23,1.39-.28,1.81A6.07,6.07,0,0,0,651.41,244.2Z" style="fill:#263238"></path><rect x="632.25" y="208.5" width="65.13" height="9.45" transform="translate(1329.63 426.45) rotate(180)" style="fill:#263238"></rect><rect x="647.59" y="213.22" width="35.46" height="4.73" transform="translate(1330.65 431.18) rotate(180)" style="fill:#455a64"></rect><path d="M605.67,404.59c0,.05.72.12,2,.48a17.15,17.15,0,0,1,4.92,2.41,13.78,13.78,0,0,1,2.77,2.57,10.09,10.09,0,0,1,1.13,1.75,11.52,11.52,0,0,1,.71,2.1c.75,3,.52,6.41.37,10s.09,7.11,1.49,10a11.11,11.11,0,0,0,2.66,3.55,12.34,12.34,0,0,0,3.26,2.07,13.08,13.08,0,0,0,3.06.92,11.35,11.35,0,0,0,2.4.1,8.22,8.22,0,0,0,1.49-.24,2.5,2.5,0,0,0,.51-.15c0-.05-.71.17-2,.22a11.41,11.41,0,0,1-2.35-.17,12.84,12.84,0,0,1-3-.95,12.7,12.7,0,0,1-3.15-2.06,10.65,10.65,0,0,1-2.54-3.46c-1.34-2.77-1.57-6.23-1.42-9.77s.37-7-.42-10.08a11.82,11.82,0,0,0-.75-2.17,9.81,9.81,0,0,0-1.2-1.81,13.92,13.92,0,0,0-2.86-2.59,16.21,16.21,0,0,0-5-2.33,11.64,11.64,0,0,0-1.49-.28A2.94,2.94,0,0,0,605.67,404.59Z" style="fill:#263238"></path><rect x="630.35" y="437.16" width="5.35" height="6.5" transform="translate(1266.05 880.81) rotate(180)" style="fill:#263238"></rect><rect x="575.69" y="388.17" width="29.98" height="32.85" transform="translate(1181.37 809.18) rotate(180)" style="fill:#455a64"></rect><circle cx="590.68" cy="404.72" r="9.87" transform="translate(-8.3 797.05) rotate(-67.64)" style="fill:#263238"></circle><path d="M585.75,404.72a4.94,4.94,0,1,0,4.93-4.93A4.94,4.94,0,0,0,585.75,404.72Z" style="fill:#455a64"></path><path d="M600.7,393.27a.92.92,0,1,0,.92-.92A.92.92,0,0,0,600.7,393.27Z" style="fill:#263238"></path><circle cx="580.28" cy="393.27" r="0.92" style="fill:#263238"></circle><circle cx="580.08" cy="417.52" r="0.92" style="fill:#263238"></circle><path d="M600.7,417.9a.92.92,0,1,0,.92-.92A.92.92,0,0,0,600.7,417.9Z" style="fill:#263238"></path><rect x="573.27" y="388.17" width="2.42" height="32.85" transform="translate(1148.96 809.18) rotate(180)" style="fill:#263238"></rect></g><g id="freepik--Device--inject-8"><path d="M138.91,161.3H553.77a6.74,6.74,0,0,1,6.74,6.74V430.66a14.57,14.57,0,0,1-14.57,14.57H145.73a14.57,14.57,0,0,1-14.57-14.57V169.05A7.75,7.75,0,0,1,138.91,161.3Z" style="fill:#455a64"></path><path d="M113.21,424.23H578.38a0,0,0,0,1,0,0v11.12a13.72,13.72,0,0,1-13.72,13.72H126.93a13.72,13.72,0,0,1-13.72-13.72V424.23A0,0,0,0,1,113.21,424.23Z" style="fill:#455a64"></path><rect x="142.69" y="172.58" width="405.1" height="239.77" style="fill:#e0e0e0"></rect><polygon points="303.51 424.23 309.29 433.41 390.51 433.41 395.87 424.23 303.51 424.23" style="fill:#263238"></polygon><rect x="154.71" y="186.47" width="382.04" height="225.88" style="fill:#263238"></rect><path d="M184,405.73c-.2,0-.36-48.11-.36-107.44s.16-107.45.36-107.45.36,48.1.36,107.45S184.22,405.73,184,405.73Z" style="fill:#e0e0e0"></path><path d="M176.31,210.32c0,.19-2.78.35-6.2.35s-6.21-.16-6.21-.35,2.78-.36,6.21-.36S176.31,210.12,176.31,210.32Z" style="fill:#e0e0e0"></path><path d="M176.79,198.12c0,.2-2.78.36-6.21.36s-6.2-.16-6.2-.36,2.78-.36,6.2-.36S176.79,197.92,176.79,198.12Z" style="fill:#e0e0e0"></path><path d="M176.31,223.46c0,.2-2.78.36-6.2.36s-6.21-.16-6.21-.36,2.78-.36,6.21-.36S176.31,223.26,176.31,223.46Z" style="fill:#e0e0e0"></path><path d="M176.31,236.6c0,.2-2.78.36-6.2.36s-6.21-.16-6.21-.36,2.78-.36,6.21-.36S176.31,236.4,176.31,236.6Z" style="fill:#e0e0e0"></path><path d="M176.31,249.74c0,.2-2.78.36-6.2.36s-6.21-.16-6.21-.36,2.78-.35,6.21-.35S176.31,249.55,176.31,249.74Z" style="fill:#e0e0e0"></path><path d="M176.31,262.89c0,.2-2.78.36-6.2.36s-6.21-.16-6.21-.36,2.78-.36,6.21-.36S176.31,262.69,176.31,262.89Z" style="fill:#e0e0e0"></path><path d="M176.31,276c0,.2-2.78.36-6.2.36s-6.21-.16-6.21-.36,2.78-.36,6.21-.36S176.31,275.83,176.31,276Z" style="fill:#e0e0e0"></path><path d="M176.31,289.17c0,.2-2.78.36-6.2.36s-6.21-.16-6.21-.36,2.78-.35,6.21-.35S176.31,289,176.31,289.17Z" style="fill:#e0e0e0"></path><path d="M176.31,302.32c0,.19-2.78.35-6.2.35s-6.21-.16-6.21-.35,2.78-.36,6.21-.36S176.31,302.12,176.31,302.32Z" style="fill:#e0e0e0"></path><path d="M176.31,315.46c0,.2-2.78.36-6.2.36s-6.21-.16-6.21-.36,2.78-.36,6.21-.36S176.31,315.26,176.31,315.46Z" style="fill:#e0e0e0"></path><path d="M176.31,328.6c0,.2-2.78.36-6.2.36s-6.21-.16-6.21-.36,2.78-.36,6.21-.36S176.31,328.4,176.31,328.6Z" style="fill:#e0e0e0"></path><path d="M176.31,341.75c0,.19-2.78.35-6.2.35s-6.21-.16-6.21-.35,2.78-.36,6.21-.36S176.31,341.55,176.31,341.75Z" style="fill:#e0e0e0"></path><path d="M176.31,354.89c0,.2-2.78.36-6.2.36s-6.21-.16-6.21-.36,2.78-.36,6.21-.36S176.31,354.69,176.31,354.89Z" style="fill:#e0e0e0"></path><path d="M176.31,368c0,.2-2.78.36-6.2.36s-6.21-.16-6.21-.36,2.78-.36,6.21-.36S176.31,367.83,176.31,368Z" style="fill:#e0e0e0"></path><path d="M176.31,381.17c0,.2-2.78.36-6.2.36s-6.21-.16-6.21-.36,2.78-.35,6.21-.35S176.31,381,176.31,381.17Z" style="fill:#e0e0e0"></path><path d="M176.31,394.32c0,.2-2.78.36-6.2.36s-6.21-.16-6.21-.36,2.78-.36,6.21-.36S176.31,394.12,176.31,394.32Z" style="fill:#e0e0e0"></path><path d="M226.06,394.32c0,.2-7.21.36-16.11.36s-16.1-.16-16.1-.36,7.21-.36,16.1-.36S226.06,394.12,226.06,394.32Z" style="fill:#FFAB00"></path><path d="M237.19,208.35c0,.2-7.21.36-16.1.36s-16.11-.16-16.11-.36,7.21-.36,16.11-.36S237.19,208.15,237.19,208.35Z" style="fill:#FFAB00"></path><path d="M270.92,236.6c0,.2-13.5.36-30.13.36s-30.14-.16-30.14-.36,13.49-.36,30.14-.36S270.92,236.4,270.92,236.6Z" style="fill:#FFAB00"></path><path d="M340.6,236.6c0,.2-13.49.36-30.13.36s-30.13-.16-30.13-.36,13.49-.36,30.13-.36S340.6,236.4,340.6,236.6Z" style="fill:#e0e0e0"></path><path d="M314,249.74c0,.2-19.88.36-44.41.36s-44.41-.16-44.41-.36,19.88-.35,44.41-.35S314,249.55,314,249.74Z" style="fill:#e0e0e0"></path><path d="M314,262.89c0,.2-19.88.36-44.41.36s-44.41-.16-44.41-.36,19.88-.36,44.41-.36S314,262.69,314,262.89Z" style="fill:#e0e0e0"></path><path d="M375.11,302.32c0,.19-19.89.35-44.41.35s-44.41-.16-44.41-.35,19.88-.36,44.41-.36S375.11,302.12,375.11,302.32Z" style="fill:#e0e0e0"></path><path d="M348.73,276c0,.2-19.89.36-44.41.36s-44.41-.16-44.41-.36,19.88-.36,44.41-.36S348.73,275.83,348.73,276Z" style="fill:#e0e0e0"></path><path d="M457.26,276c0,.2-19.88.36-44.41.36s-44.41-.16-44.41-.36,19.88-.36,44.41-.36S457.26,275.83,457.26,276Z" style="fill:#e0e0e0"></path><path d="M419.52,249.74c0,.2-19.89.36-44.41.36s-44.41-.16-44.41-.36,19.88-.35,44.41-.35S419.52,249.55,419.52,249.74Z" style="fill:#fafafa"></path><path d="M480.87,302.32c0,.19-19.89.35-44.41.35s-44.41-.16-44.41-.35,19.88-.36,44.41-.36S480.87,302.12,480.87,302.32Z" style="fill:#fafafa"></path><path d="M468.62,262.89c0,.2-30.88.36-69,.36s-69-.16-69-.36,30.87-.36,69-.36S468.62,262.69,468.62,262.89Z" style="fill:#455a64"></path><path d="M226.06,381.17c0,.2-7.21.36-16.11.36s-16.1-.16-16.1-.36,7.21-.35,16.1-.35S226.06,381,226.06,381.17Z" style="fill:#fafafa"></path><path d="M242,276c0,.2-7.21.36-16.11.36s-16.1-.16-16.1-.36,7.21-.36,16.1-.36S242,275.83,242,276Z" style="fill:#fafafa"></path><path d="M500.17,276c0,.2-7.21.36-16.1.36S468,276.23,468,276s7.21-.36,16.11-.36S500.17,275.83,500.17,276Z" style="fill:#FFAB00"></path><path d="M270.92,328.53c0,.19-13.5.35-30.13.35s-30.14-.16-30.14-.35,13.49-.36,30.14-.36S270.92,328.33,270.92,328.53Z" style="fill:#FFAB00"></path><path d="M340.6,328.53c0,.19-13.49.35-30.13.35s-30.13-.16-30.13-.35,13.49-.36,30.13-.36S340.6,328.33,340.6,328.53Z" style="fill:#e0e0e0"></path><path d="M314,341.67c0,.2-19.88.36-44.41.36s-44.41-.16-44.41-.36,19.88-.36,44.41-.36S314,341.47,314,341.67Z" style="fill:#e0e0e0"></path><path d="M314,354.81c0,.2-19.88.36-44.41.36s-44.41-.16-44.41-.36,19.88-.36,44.41-.36S314,354.61,314,354.81Z" style="fill:#e0e0e0"></path><path d="M348.73,368c0,.2-19.89.36-44.41.36s-44.41-.16-44.41-.36,19.88-.35,44.41-.35S348.73,367.76,348.73,368Z" style="fill:#e0e0e0"></path><path d="M457.26,368c0,.2-19.88.36-44.41.36s-44.41-.16-44.41-.36,19.88-.35,44.41-.35S457.26,367.76,457.26,368Z" style="fill:#e0e0e0"></path><path d="M329.92,380.84c0,.2-19.88.36-44.4.36s-44.42-.16-44.42-.36,19.88-.36,44.42-.36S329.92,380.64,329.92,380.84Z" style="fill:#e0e0e0"></path><path d="M299.19,220c0,.2-19.89.36-44.41.36s-44.41-.16-44.41-.36,19.88-.36,44.41-.36S299.19,219.83,299.19,220Z" style="fill:#e0e0e0"></path><path d="M419.52,341.67c0,.2-19.89.36-44.41.36s-44.41-.16-44.41-.36,19.88-.36,44.41-.36S419.52,341.47,419.52,341.67Z" style="fill:#fafafa"></path><path d="M468.62,354.81c0,.2-30.88.36-69,.36s-69-.16-69-.36,30.87-.36,69-.36S468.62,354.61,468.62,354.81Z" style="fill:#455a64"></path><path d="M242,368c0,.2-7.21.36-16.11.36s-16.1-.16-16.1-.36,7.21-.35,16.1-.35S242,367.76,242,368Z" style="fill:#fafafa"></path><path d="M500.17,368c0,.2-7.21.36-16.1.36S468,368.15,468,368s7.21-.35,16.11-.35S500.17,367.76,500.17,368Z" style="fill:#FFAB00"></path></g><g id="freepik--Window--inject-8"><path d="M377.93,123.52s0-.32,0-1,0-1.6,0-2.84,0-2.8,0-4.62a7.2,7.2,0,0,1,.5-2.92,6.52,6.52,0,0,1,2.06-2.66,6.33,6.33,0,0,1,3.51-1.33c1.33,0,2.7,0,4.15,0l9.39,0,22.88,0L552.86,108l73,0H644.2a10.43,10.43,0,0,1,2,.12,6.62,6.62,0,0,1,5.31,5.32,10.59,10.59,0,0,1,.12,1.93v1.88c0,10,0,19.25,0,27.74,0,17-.06,30.66-.08,40.16,0,4.73,0,8.41,0,10.92,0,1.24,0,2.19,0,2.84s0,1,0,1,0-.33,0-1,0-1.6,0-2.84c0-2.51,0-6.19-.05-10.92,0-9.5,0-23.21-.08-40.16,0-8.49,0-17.77,0-27.74v-1.88a9.39,9.39,0,0,0-.11-1.85,6.19,6.19,0,0,0-5-5,10.12,10.12,0,0,0-1.92-.11H625.83l-73,0-132.52-.08-22.88,0-9.39,0c-1.44,0-2.83,0-4.13,0a6.24,6.24,0,0,0-3.41,1.27,6.42,6.42,0,0,0-2,2.57,7.13,7.13,0,0,0-.5,2.85q0,2.73,0,4.62c0,1.24,0,2.18,0,2.84S377.93,123.52,377.93,123.52Z" style="fill:#263238"></path><path d="M654,199.93a2.57,2.57,0,1,1-2.57-2.57A2.57,2.57,0,0,1,654,199.93Z" style="fill:#263238"></path><path d="M380.5,123.52a2.57,2.57,0,1,1-2.57-2.56A2.57,2.57,0,0,1,380.5,123.52Z" style="fill:#263238"></path><polygon points="245.51 134.43 245.51 354.22 443.03 354.22 467.6 354.22 609.62 354.22 609.62 134.43 245.51 134.43" style="fill:#fafafa"></polygon><rect x="245.51" y="134.43" width="364.11" height="16.25" style="fill:#e0e0e0"></rect><circle cx="254.85" cy="142.84" r="2.11" style="fill:#263238"></circle><path d="M264.81,142.84a2.11,2.11,0,1,1-2.11-2.11A2.11,2.11,0,0,1,264.81,142.84Z" style="fill:#263238"></path><circle cx="270.55" cy="142.84" r="2.11" style="fill:#263238"></circle><path d="M422,169.4c0,.12-7.43.22-16.59.22s-16.6-.1-16.6-.22,7.43-.22,16.6-.22S422,169.28,422,169.4Z" style="fill:#263238"></path><path d="M466.15,169.4c0,.12-7.43.22-16.6.22s-16.59-.1-16.59-.22,7.43-.22,16.59-.22S466.15,169.28,466.15,169.4Z" style="fill:#FFAB00"></path><path d="M510.29,169.4c0,.12-7.43.22-16.59.22s-16.59-.1-16.59-.22,7.42-.22,16.59-.22S510.29,169.28,510.29,169.4Z" style="fill:#263238"></path><path d="M554.83,169.4c0,.12-7.43.22-16.59.22s-16.6-.1-16.6-.22,7.43-.22,16.6-.22S554.83,169.28,554.83,169.4Z" style="fill:#263238"></path><path d="M593.52,174.68s.28,0,.79-.14a3.65,3.65,0,0,0,1.91-1.17A3.58,3.58,0,0,0,597,172a7.23,7.23,0,0,0,.12-2c-.09-1.39.33-3.2-.93-4.52a3.56,3.56,0,0,0-2.36-1.16c-1,0-2,0-3,0l-6.76,0H568.52a3.53,3.53,0,0,0-3.1,1.9,3.7,3.7,0,0,0-.38,1.83v2a6.63,6.63,0,0,0,.12,1.86,3.4,3.4,0,0,0,.87,1.53,3.51,3.51,0,0,0,1.47.9,5.79,5.79,0,0,0,1.73.15l12.64.05,8.53.07,2.31,0,.61,0a.55.55,0,0,1,.2,0l-.2,0-.61,0-2.31,0-8.53.07-12.64,0a5.92,5.92,0,0,1-1.85-.17,3.91,3.91,0,0,1-1.65-1,3.94,3.94,0,0,1-1.12-2.71c0-.32,0-.65,0-1v-2a4.16,4.16,0,0,1,.43-2,4,4,0,0,1,3.49-2.14l15.48,0,6.76,0c1.06,0,2.06,0,3.07,0a3.82,3.82,0,0,1,2.57,1.3,3.73,3.73,0,0,1,1,2.43c0,.81,0,1.58,0,2.29a7.26,7.26,0,0,1-.16,2,3.76,3.76,0,0,1-.83,1.49,3.69,3.69,0,0,1-2,1.14A2.92,2.92,0,0,1,593.52,174.68Z" style="fill:#263238"></path><rect x="274.81" y="163.5" width="52.57" height="13.8" rx="6.9" style="fill:#e0e0e0"></rect><rect x="276.4" y="209.27" width="77.44" height="74.92" style="fill:#FFAB00"></rect><g style="opacity:0.30000000000000004"><polygon points="282.41 277.78 303.83 239.22 321.36 263.87 332 250.78 347.84 277.78 282.41 277.78"></polygon></g><g style="opacity:0.30000000000000004"><path d="M328.82,231.72a5.58,5.58,0,1,1-5.57-5.57A5.58,5.58,0,0,1,328.82,231.72Z"></path></g><path d="M347.84,215.15l-65.42-.05-.38.38V232.3q0,8.26,0,16.15c0,10.49,0,20.41,0,29.54v.32h.32l47.52-.17,13.27-.08,3.47,0,.89,0h.28a1.14,1.14,0,0,0-.32,0l-.92,0-3.54,0-13.34-.08-47-.16c0-9,0-18.85,0-29.22V232.3q0-4.12,0-8.34v-8.12l64.75-.05c.06,18.57.12,34,.16,44.92,0,5.46.06,9.75.08,12.72,0,1.45,0,2.58,0,3.38,0,.36,0,.64,0,.87s0,.3,0,.31a1.45,1.45,0,0,0,0-.28c0-.21,0-.49,0-.84,0-.78,0-1.88,0-3.31,0-2.95,0-7.22.09-12.65,0-11,.09-26.64.16-45.44v-.32Z" style="opacity:0.30000000000000004"></path><path d="M344.14,295.7c0,.14-13,.26-29.08.26S286,295.84,286,295.7s13-.26,29.08-.26S344.14,295.55,344.14,295.7Z" style="fill:#263238"></path><path d="M355.79,304.37c0,.15-17.77.27-39.68.27s-39.67-.12-39.67-.27,17.76-.26,39.67-.26S355.79,304.23,355.79,304.37Z" style="fill:#263238"></path><path d="M355.79,312.78c0,.14-17.77.26-39.68.26s-39.67-.12-39.67-.26,17.76-.26,39.67-.26S355.79,312.63,355.79,312.78Z" style="fill:#263238"></path><path d="M355.79,321.18c0,.14-17.77.26-39.68.26s-39.67-.12-39.67-.26,17.76-.26,39.67-.26S355.79,321,355.79,321.18Z" style="fill:#263238"></path><path d="M309.19,329.58c0,.14-7.34.26-16.38.26s-16.37-.12-16.37-.26,7.33-.26,16.37-.26S309.19,329.43,309.19,329.58Z" style="fill:#263238"></path><rect x="389.07" y="209.27" width="77.44" height="74.92" style="fill:#FFAB00"></rect><g style="opacity:0.30000000000000004"><polygon points="395.08 277.78 416.5 239.22 434.02 263.87 444.67 250.78 460.51 277.78 395.08 277.78"></polygon></g><g style="opacity:0.30000000000000004"><path d="M441.49,231.72a5.58,5.58,0,1,1-5.57-5.57A5.58,5.58,0,0,1,441.49,231.72Z"></path></g><path d="M460.51,215.15l-65.42-.05-.38.38V232.3q0,8.26,0,16.15c0,10.49,0,20.41,0,29.54v.32h.32l47.52-.17,13.27-.08,3.47,0,.89,0h.28a1.14,1.14,0,0,0-.32,0l-.92,0-3.54,0-13.34-.08-47-.16c0-9,0-18.85,0-29.22V232.3q0-4.12,0-8.34v-8.12l64.75-.05c.06,18.57.12,34,.16,44.92,0,5.46.06,9.75.08,12.72,0,1.45,0,2.58,0,3.38,0,.36,0,.64,0,.87s0,.3,0,.31a1.45,1.45,0,0,0,0-.28c0-.21,0-.49,0-.84,0-.78,0-1.88,0-3.31,0-2.95.05-7.22.09-12.65,0-11,.09-26.64.16-45.44v-.32Z" style="opacity:0.30000000000000004"></path><path d="M456.81,295.7c0,.14-13,.26-29.08.26s-29.08-.12-29.08-.26,13-.26,29.08-.26S456.81,295.55,456.81,295.7Z" style="fill:#263238"></path><path d="M468.46,304.37c0,.15-17.77.27-39.68.27s-39.67-.12-39.67-.27,17.76-.26,39.67-.26S468.46,304.23,468.46,304.37Z" style="fill:#263238"></path><path d="M468.46,312.78c0,.14-17.77.26-39.68.26s-39.67-.12-39.67-.26,17.76-.26,39.67-.26S468.46,312.63,468.46,312.78Z" style="fill:#263238"></path><path d="M468.46,321.18c0,.14-17.77.26-39.68.26s-39.67-.12-39.67-.26,17.76-.26,39.67-.26S468.46,321,468.46,321.18Z" style="fill:#263238"></path><path d="M421.86,329.58c0,.14-7.34.26-16.38.26s-16.37-.12-16.37-.26,7.33-.26,16.37-.26S421.86,329.43,421.86,329.58Z" style="fill:#263238"></path><rect x="499.65" y="209.27" width="77.44" height="74.92" style="fill:#FFAB00"></rect><g style="opacity:0.30000000000000004"><polygon points="505.65 277.78 527.08 239.22 544.6 263.87 555.25 250.78 571.09 277.78 505.65 277.78"></polygon></g><g style="opacity:0.30000000000000004"><path d="M552.06,231.72a5.57,5.57,0,1,1-5.57-5.57A5.57,5.57,0,0,1,552.06,231.72Z"></path></g><path d="M571.09,215.15l-65.43-.05-.37.38V232.3q0,8.26,0,16.15c0,10.49,0,20.41,0,29.54v.32h.32l47.52-.17,13.27-.08,3.48,0,.88,0h.29a1.27,1.27,0,0,0-.32,0l-.92,0-3.54,0L553,277.83l-47-.16c0-9,0-18.85,0-29.22q0-7.87,0-16.15V215.84l64.75-.05c.07,18.57.12,34,.16,44.92,0,5.46.07,9.75.09,12.72,0,1.45,0,2.58,0,3.38,0,.36,0,.64,0,.87a2.08,2.08,0,0,0,0,.31s0-.09,0-.28,0-.49,0-.84c0-.78,0-1.88,0-3.31,0-2.95.05-7.22.08-12.65,0-11,.1-26.64.17-45.44v-.32Z" style="opacity:0.30000000000000004"></path><path d="M567.38,295.7c0,.14-13,.26-29.07.26s-29.08-.12-29.08-.26,13-.26,29.08-.26S567.38,295.55,567.38,295.7Z" style="fill:#263238"></path><path d="M579,304.37c0,.15-17.76.27-39.67.27s-39.67-.12-39.67-.27,17.76-.26,39.67-.26S579,304.23,579,304.37Z" style="fill:#263238"></path><path d="M579,312.78c0,.14-17.76.26-39.67.26s-39.67-.12-39.67-.26,17.76-.26,39.67-.26S579,312.63,579,312.78Z" style="fill:#263238"></path><path d="M579,321.18c0,.14-17.76.26-39.67.26s-39.67-.12-39.67-.26,17.76-.26,39.67-.26S579,321,579,321.18Z" style="fill:#263238"></path><path d="M532.43,329.58c0,.14-7.33.26-16.37.26s-16.37-.12-16.37-.26,7.32-.26,16.37-.26S532.43,329.43,532.43,329.58Z" style="fill:#263238"></path><path d="M609.62,186.7c0,.14-81.45.26-181.89.26s-181.91-.12-181.91-.26,81.43-.26,181.91-.26S609.62,186.56,609.62,186.7Z" style="fill:#e0e0e0"></path><path d="M245.51,134.43l364.11-.25h.24v.25c0,67.61,0,141.91,0,219.76v.29h-.26l-364.11-.06h-.2v-.2c.12-134.65.2-218.15.2-219.79,0,1.64.08,85.14.21,219.79l-.21-.21L609.62,354l-.26.26v0c0-77.85,0-152.15,0-219.76l.24.24Z" style="fill:#263238"></path></g><g id="freepik--Documents--inject-8"><path d="M87.07,247H40.79A5.79,5.79,0,0,1,35,241.17V177.11a5.79,5.79,0,0,1,5.79-5.79H70.14l22.72,23.42v46.43A5.79,5.79,0,0,1,87.07,247Z" style="fill:#FFAB00"></path><g style="opacity:0.2"><path d="M35,224H92.86a0,0,0,0,1,0,0v13.93a9,9,0,0,1-9,9H44.15A9.15,9.15,0,0,1,35,237.81V224a0,0,0,0,1,0,0Z"></path></g><g style="opacity:0.2"><path d="M70.14,171.32v18a5.39,5.39,0,0,0,5.39,5.39H92.86Z" style="fill:#fff"></path></g><g style="opacity:0.2"><path d="M70.38,190.93s-.23,4.37,4.75,5.81a3.9,3.9,0,0,0,.57.13c2.26.4,17.16,3.06,17.16,2.71v-4.84H75.53S71.2,194.59,70.38,190.93Z"></path></g><path d="M51.57,234A5,5,0,0,1,60.15,231l-1.33,1.23a2.93,2.93,0,0,0-2.27-1.05,2.88,2.88,0,0,0,0,5.76,2.88,2.88,0,0,0,2.27-1.07l1.33,1.24A4.95,4.95,0,0,1,51.57,234Z" style="fill:#fafafa"></path><path d="M60.77,237.62l.7-1.57a5.24,5.24,0,0,0,3,.94c1.24,0,1.74-.41,1.74-1,0-1.69-5.23-.53-5.23-3.87,0-1.53,1.23-2.8,3.79-2.8a6.08,6.08,0,0,1,3.12.79l-.64,1.58a5.15,5.15,0,0,0-2.49-.7c-1.24,0-1.71.46-1.71,1,0,1.65,5.23.51,5.23,3.81,0,1.51-1.25,2.79-3.82,2.79A6.35,6.35,0,0,1,60.77,237.62Z" style="fill:#fafafa"></path><path d="M69,237.62l.71-1.57a5.24,5.24,0,0,0,3,.94c1.24,0,1.74-.41,1.74-1,0-1.69-5.24-.53-5.24-3.87,0-1.53,1.24-2.8,3.8-2.8a6.1,6.1,0,0,1,3.12.79l-.64,1.58a5.16,5.16,0,0,0-2.5-.7c-1.23,0-1.71.46-1.71,1,0,1.65,5.24.51,5.24,3.81,0,1.51-1.25,2.79-3.82,2.79A6.41,6.41,0,0,1,69,237.62Z" style="fill:#fafafa"></path><path d="M54.5,204.89c1,.29,1.39.88,1.39,2.31v3.31A1.36,1.36,0,0,0,57.4,212h.37v2.52h-1.2c-2.58,0-3.91-1.32-3.91-3.7v-3.74c0-.66-.35-1-.9-1h-.69v-2.53h.69c.55,0,.9-.31.9-1v-3.74c0-2.38,1.33-3.7,3.91-3.7h1.2v2.52H57.4a1.36,1.36,0,0,0-1.51,1.53v3.31C55.89,204,55.46,204.6,54.5,204.89Z" style="fill:#fafafa"></path><path d="M76.79,203.62v2.53h-.68a.85.85,0,0,0-.91,1v3.74c0,2.38-1.32,3.7-3.91,3.7h-1.2V212h.38A1.36,1.36,0,0,0,72,210.51V207.2c0-1.43.43-2,1.38-2.31-1-.29-1.38-.89-1.38-2.32v-3.31a1.36,1.36,0,0,0-1.51-1.53h-.38v-2.52h1.2c2.59,0,3.91,1.32,3.91,3.7v3.74a.85.85,0,0,0,.91,1Z" style="fill:#fafafa"></path><path d="M123.23,261.79a4.49,4.49,0,0,1-1,.07l-2.83.05-10.25.09H109v-.22c0-5.67,0-12.72,0-20.36,0-4.75,0-9.28,0-13.41,0-2.05,0-4,0-5.85a2.64,2.64,0,0,0-.88-2.21,2.89,2.89,0,0,0-2.15-.66l-7.38-.08-2-.05a2.93,2.93,0,0,1-.7,0,2.93,2.93,0,0,1,.7-.05l2,0,7.38-.08a3.26,3.26,0,0,1,2.42.71,3.1,3.1,0,0,1,1,2.52c0,1.84,0,3.8,0,5.85,0,4.13,0,8.66,0,13.41,0,7.64,0,14.69,0,20.36l-.21-.21,10.25.09,2.83.06A6.34,6.34,0,0,1,123.23,261.79Z" style="fill:#263238"></path><path d="M95.06,303.84a1.88,1.88,0,0,1,.56,0l1.6-.05,5.9-.08c1.24-.08,2.67.21,3.88-.52a3.85,3.85,0,0,0,1.89-3.74c0-3.3,0-6.92,0-10.71,0-7.57.06-14.42.08-19.46,0-2.44.06-4.44.08-5.9,0-.65,0-1.18,0-1.6a3.48,3.48,0,0,1,0-.56,2.05,2.05,0,0,1,.06.56c0,.42,0,.95,0,1.6,0,1.46,0,3.46.08,5.9,0,5,.05,11.89.07,19.46,0,3.79,0,7.41,0,10.71a6,6,0,0,1-.08,1.26,4,4,0,0,1-.42,1.17,4.16,4.16,0,0,1-3.79,2.21l-2,0-5.9-.08-1.6-.05A1.88,1.88,0,0,1,95.06,303.84Z" style="fill:#263238"></path><path d="M127.31,261.79a2,2,0,1,1-2-2A2,2,0,0,1,127.31,261.79Z" style="fill:#263238"></path><path d="M86.92,340.47H42.1a5.61,5.61,0,0,1-5.61-5.61v-62a5.61,5.61,0,0,1,5.61-5.61H70.52l22,22.68v45A5.61,5.61,0,0,1,86.92,340.47Z" style="fill:#FFAB00"></path><g style="opacity:0.2"><path d="M36.49,318.24h56a0,0,0,0,1,0,0v14a8.21,8.21,0,0,1-8.21,8.21H44.58a8.09,8.09,0,0,1-8.09-8.09V318.24A0,0,0,0,1,36.49,318.24Z"></path></g><path d="M56.35,332.58l1.41-1.69a2.5,2.5,0,0,0,2,1.2c1,0,1.56-.61,1.56-1.81v-5.22H57.49v-2h6.38v7.11c0,2.71-1.37,4.05-3.95,4.05A4.43,4.43,0,0,1,56.35,332.58Z" style="fill:#fafafa"></path><path d="M65.38,333.2l.82-1.75a5.71,5.71,0,0,0,2.93.82c1.13,0,1.55-.3,1.55-.77,0-1.38-5.09,0-5.09-3.34,0-1.6,1.44-2.73,3.9-2.73a6.92,6.92,0,0,1,3.24.74l-.81,1.74a4.84,4.84,0,0,0-2.43-.63c-1.1,0-1.57.35-1.57.79,0,1.44,5.09,0,5.09,3.36,0,1.57-1.45,2.68-4,2.68A7.24,7.24,0,0,1,65.38,333.2Z" style="fill:#fafafa"></path><path d="M48.36,306.57l1.76-2.06A5.27,5.27,0,0,0,54.54,307c2.39,0,3.64-1.46,3.64-4.3V290.82H50.51v-2.64H61.17v14.4c0,4.72-2.3,7.05-6.63,7.05A7.39,7.39,0,0,1,48.36,306.57Z" style="fill:#fafafa"></path><path d="M64.9,307.69l1.22-2.3a10.29,10.29,0,0,0,5.63,1.67c2.7,0,3.82-.82,3.82-2.18,0-3.61-10.15-.49-10.15-6.88,0-2.88,2.57-4.82,6.69-4.82A11.68,11.68,0,0,1,78,294.64l-1.24,2.3a8.37,8.37,0,0,0-4.64-1.27c-2.54,0-3.78.94-3.78,2.21,0,3.79,10.18.7,10.18,6.94,0,2.91-2.67,4.75-6.94,4.75A11.54,11.54,0,0,1,64.9,307.69Z" style="fill:#fafafa"></path><g style="opacity:0.30000000000000004"><path d="M70.52,267.21v17.46a5.22,5.22,0,0,0,5.22,5.22H92.53Z" style="fill:#fff"></path></g><g style="opacity:0.2"><path d="M70.75,286.2a5.8,5.8,0,0,0,4.6,5.63l.55.13c2.19.39,16.63,3,16.63,2.62v-4.69H75.74S71.55,289.75,70.75,286.2Z"></path></g></g></svg>