<?xml version="1.0" ?><svg height="204px" version="1.1" viewBox="0 0 216 204" width="216px" xmlns="http://www.w3.org/2000/svg" xmlns:sketch="http://www.bohemiancoding.com/sketch/ns" xmlns:xlink="http://www.w3.org/1999/xlink"><title/><desc/><defs><path d="M0,0 L216,0 L216,204 L0,204" id="path-1"/></defs><g fill="none" fill-rule="evenodd" id="Page-1" stroke="none" stroke-width="1"><g id="star-wars-copy" transform="translate(-985.000000, -865.000000)"><g id="obiwan-kenobi" transform="translate(985.000000, 865.000000)"><path d="M48,204 L168,204 L168,126 L48,126 L48,204 Z" fill="#503C1D" id="Fill-1"/><path d="M108,18 C74.862,18 48,41.346 48,70.14 L48,156 L90,186 L126,186 L168,156 L168,70.14 C168,41.346 141.138,18 108,18" fill="#F0B496" id="Fill-2"/><path d="M48,120 L48,120 C41.4,120 36,114.6 36,108 L36,90 C36,83.4 41.4,78 48,78 L48,78 C54.6,78 60,83.4 60,90 L60,108 C60,114.6 54.6,120 48,120" fill="#F0B496" id="Fill-4"/><path d="M168,120 L168,120 C161.4,120 156,114.6 156,108 L156,90 C156,83.4 161.4,78 168,78 L168,78 C174.6,78 180,83.4 180,90 L180,108 C180,114.6 174.6,120 168,120" fill="#F0B496" id="Fill-6"/><path d="M84,89.706 C80.682,89.706 78,92.388 78,95.706 C78,99.024 80.682,101.706 84,101.706 C87.318,101.706 90,99.024 90,95.706 C90,92.388 87.318,89.706 84,89.706" fill="#323232" id="Fill-8"/><path d="M132,89.706 C128.682,89.706 126,92.388 126,95.706 C126,99.024 128.682,101.706 132,101.706 C135.318,101.706 138,99.024 138,95.706 C138,92.388 135.318,89.706 132,89.706" fill="#323232" id="Fill-10"/><path d="M101.9994,117 L101.9994,92.712 C101.9994,91.056 103.3434,89.712 104.9994,89.712 L104.9994,89.712 C106.6554,89.712 107.9994,91.056 107.9994,92.712 L107.9994,117 C107.9994,118.656 106.6554,120 104.9994,120 L104.9994,120 C103.3434,120 101.9994,118.656 101.9994,117" fill="#E99977" id="Fill-12"/><path d="M132,168 L84,168 L90,138 L126,138 L132,168 Z M168,66 L156,156 L150,156 L132,132 L84,132 L66,156 L60,156 L48,66 L42.828,148.71 C42.312,156.978 46.098,164.928 52.836,169.74 L77.742,187.53 C81.81,190.44 86.688,192 91.692,192 L124.308,192 C129.312,192 134.19,190.44 138.258,187.53 L163.164,169.74 C169.902,164.928 173.688,156.978 173.172,148.71 L168,66 Z" fill="#ECECEC" id="Fill-14"/><g id="Group-18"><mask fill="white" id="mask-2"><use xlink:href="#path-1"/></mask><g id="Clip-17"/><path d="M6.4536,204 L68.9736,204 C48.3936,173.922 49.4616,120.222 49.4616,119.61 C49.4616,86.58 75.6696,59.802 107.9976,59.802 C140.3316,59.802 166.5396,86.58 166.5396,119.61 C166.5396,120.222 167.6016,173.922 147.0276,204 L209.5476,204 C215.0916,204 217.9536,197.274 214.4976,192.702 C183.2616,151.398 186.0516,82.308 186.0516,82.308 C186.0516,38.544 149.4996,0 107.9976,0 C66.5016,0 29.9436,38.544 29.9436,82.308 C29.9436,82.308 32.7336,151.398 1.5036,192.702 C-1.9524,197.274 0.9096,204 6.4536,204" fill="#8C5A3C" id="Fill-16" mask="url(#mask-2)"/></g></g></g></g></svg>