<svg version="1.2" xmlns="http://www.w3.org/2000/svg" viewBox="0 0 2369 3106" width="100" height="131"><style>.a{fill:#fff}.b{fill:#440203}.c{fill:#000072}.d{fill:#33aef1}.e{fill:#24d6ff}.f{fill:#b0401e}.g{fill:#fe914a}.h{fill:#ffc669}.i{fill:#fe3a65}</style><path class="a" d="m1980.8 2199.7c-28.7 391.8-136.9 578.9-205.1 659.5-28.6 33.9-77.4 42.4-116.2 20.9l-87.8-48.9q-0.1-0.1-0.1-0.1l61.1-1250.1c115.8-7.8 215.9 10.4 276.2 25.7 36.3 9.2 62.8 40.5 65.8 77.8 16.5 202.2 16.6 372.3 6.1 515.2z"/><path fill-rule="evenodd" class="b" d="m1704.9 2909.3c-18.4 0-36.9-4.5-53.9-14l-87.9-48.9c-5.8-3.3-9.3-9.5-9-16.2l61.1-1250.1c0.4-8.8 7.4-15.9 16.3-16.5 116.6-7.9 217.5 9.9 281.7 26.1 43.6 11 75.3 48.6 79 93.4 61.1 751.6-101 1066.5-203.1 1187.4-21.4 25.4-52.5 38.8-84.2 38.8zm-115.3-88.2l78.4 43.7c31.6 17.6 71.3 10.5 94.4-16.9 45.3-53.6 108.8-155.9 153.8-337.8 54-218.4 67.8-495.7 41.1-824.2-2.4-29.9-23.6-54.9-52.7-62.3-58.8-14.9-149.9-31.1-255.3-26.1z"/><g style="opacity:.3"><path class="b" d="m1980.8 2199.7c-30.5 19.7-56.2 34.6-73.5 44.3-14.9 8.3-24.9 23.3-27.1 40.2-22.2 176.6-79.5 456.8-151.7 508.1-74.4 52.9-153.3 39.5-156.8 38.9q-0.1-0.1-0.1-0.1l61.1-1250.1c115.8-7.8 215.9 10.4 276.2 25.7 36.3 9.2 62.8 40.5 65.8 77.8 16.5 202.2 16.6 372.3 6.1 515.2z"/></g><path class="a" d="m699 1987.8l-14.1 26.6c-39.1 73.5-128.6 104.8-204.5 70.6-268.4-120.9-376.7-362.8-363.1-506 3.3-36.2 14.5-66 32.9-86 102.7-111.8 230.5-6.4 286.1 99.5 31.9 60.8 114.7 125.5 189.9 175.2 6.3 4.1 12.5 8.2 18.6 12.1 69.5 44.5 93 135.1 54.2 208z"/><g style="opacity:.3"><path class="b" d="m699 1987.8l-14.1 26.6c-39.1 73.5-128.6 104.8-204.5 70.6-268.4-120.9-376.7-362.8-363.1-506 20.5 173.6 139.7 270.1 238.4 321 60.9 31.4 136.5 12.7 173.8-44.8 33.1-51.1 77.8-77.9 96.7-87.5 6.3 4.1 12.5 8.2 18.6 12.1 69.5 44.5 93 135.1 54.2 208z"/></g><path fill-rule="evenodd" class="b" d="m544.4 2116.3c-23.9 0-48.1-4.9-71.2-15.3-227.3-102.5-338.5-286.8-366.8-425.1-17.2-83.7-5.9-154.7 30.9-194.8 37.1-40.3 81.5-58.3 128.5-52.2 82.7 10.8 151.9 90.5 186 155.5 26.4 50.3 96.4 112.8 202.4 180.7 76.6 49 103 150.4 60.3 230.9l-14.2 26.6c-31.5 59.3-92.7 93.7-155.9 93.7zm-296.5-653.6c-30.6 0-59.1 14.1-84.8 42.1-28.7 31.2-37.1 92.6-22.5 164.1 26.6 129.9 131.7 303.2 347 400.2 67.1 30.3 147 2.6 181.8-62.9l14.2-26.6c34.3-64.5 13.1-145.8-48.2-185.1-112.7-72.2-184.9-137.4-214.6-193.8-32.6-62.2-94.6-128.7-159.5-137.1q-6.8-0.9-13.4-0.9z"/><path class="b" d="m230.6 1903.1l-7.2-29c197-48.9 240.4-219.5 242.1-226.8l29.2 7c-1.9 7.9-48.9 195.5-264.1 248.8z"/><path class="a" d="m2342.1 1755.5c-122.7 323.2-566.5 488.4-566.5 488.4-32.7 638.3-404.8 718.1-404.8 718.1-21 46-46.6 77.1-74.7 96.9-22.3 15.7-46.2 24.2-70.7 27.5-134.6 17.8-286.5-124.4-286.5-124.4-143.1-22-330.2-100.9-330.2-100.9-353.7 132.8-601.4-153.8-590.3-317.7 2.1-30.8 13.3-57.2 34.6-75.7 135.3-117.8 211.8 78.9 211.8 78.9-49.5-346.7 257.7-366 277.9-565.9 11-109.1 47.7-169.9 78.7-202.6 25.9-27.1 47.8-34.9 47.8-34.9 553.1-195.4 1088.5 22 1088.5 22 23.7-5 49.4-15.3 75.9-29.1 99.1-51.6 209-151.4 259.7-200.2 32.7-31.4 78.7-46 123-36.5 18.2 3.9 34.3 11.3 48.3 20.9 52.9 36.3 69.9 105.6 81.7 151.1 7.2 27.9 5.9 57.3-4.2 84.1z"/><g style="opacity:.3"><path class="b" d="m2350.9 1755.5c-122.6 323.2-575.3 488.4-575.3 488.4-32.7 638.3-404.8 718.1-404.8 718.1-21 46-46.6 77.1-74.7 96.9-24.3 9.5-47.9 18.7-70.7 27.5-134.6 17.8-286.5-124.4-286.5-124.4-159.6-168.8-97.2-289.8-97.2-289.8 66 372.3 431 297.1 464 275.1 19.5-13 19-47.8 15.3-74.1-2-14.1 10.9-25.9 24.7-22.7 84.5 19.4 146.2-19.9 190.3-76 74.8-95.4 83-226.3 26.5-333.6-35.1-66.5-58.1-136.7-73.2-200.3-28.1-118-136-199.5-257.2-196.3-26.3 0.7-43.2 0.6-43.2 0.6-487.3-12.8-566.4-257.7-566.4-257.7l-1.1-9.1c25.9-27.1 47.8-34.9 47.8-34.9 553.1-195.4 1088.5 22 1088.5 22 23.7-5 49.4-15.3 75.9-29.1-1.5 4.6-3.1 9.4-4.7 14.3-35.7 104.8-51.6 191.3-58 256.1-6.4 65 60.7 111.7 119.4 83.1 525.5-256.6 374.3-569.3 374.3-569.3 52.9 36.3 78.7 105.6 90.6 151.1 7.1 27.9 5.9 57.3-4.3 84.1z"/></g><g style="opacity:.3"><path class="c" d="m1090.1 2584.4l13.7-52.9c198 140.5 157 260.8 157 260.8-45-155-170.7-207.9-170.7-207.9z"/></g><g style="opacity:.3"><path class="b" d="m1469.9 2482.2c0 0-96.3-146.6-260-87.4 0 0-100.7 51.4-119.8 189.6 0 0-198.5-91.1-256.5 113 0 0-32.3 136.2 105.3 264.6-143.1-22-330.2-100.9-330.2-100.9-353.7 132.8-601.4-153.8-590.3-317.7 43.4 87 135.5 220.4 300.5 245.3 33 4.9 58.1-29.1 44-59.4 0 0-60.5-175.9-32.3-323.6 0 0-10.9 193.5 221.1 300.2 87.5 40.2 190.6 7 239.7-75.8 41.7-70.2 120.8-137.8 268.9-113.2 0 0 59.4-172.9 177.1-185 147.2-15.1 217.3 58.5 232.5 150.3z"/></g><path fill-rule="evenodd" class="b" d="m1201.3 3105.4c-122.2 0-246.1-105.2-270.3-127-129.5-20.9-288.5-84.5-322.6-98.5-120 43.5-239.8 43.6-346.9 0.3-89.4-36.1-168.3-103.1-216.3-183.6-58.5-98.1-60-193.1-3.7-242.1 40.7-35.4 81.3-48.5 120.5-38.8 33.8 8.3 60.4 32.3 79.9 57 0.4-163 87.8-244.4 166.1-317.3 58.9-54.8 109.8-102.1 117.3-176.4 21.1-208.6 133.4-250.6 138.1-252.3q0 0 0 0c289.1-102.1 572.9-90.6 760-63 183 26.9 308.9 72.9 335.7 83.3 107.6-26 260.6-164.6 322.1-223.7 37.6-36.2 89.5-51.5 138.7-41 43.3 9.3 79.8 36.4 108.4 80.6 51.4 79.6 54.1 182.1 7 267.7-142.7 258.9-477 399.9-542.9 425.6-19.1 327.9-129.3 506.2-218.9 598.3-83.6 85.9-164.2 114.7-190.3 122.3-34.3 70.8-82.7 112.9-144 125-12.5 2.5-25.2 3.6-37.9 3.6zm-592.6-261.8c2.3 0 4.7 0.5 6.8 1.4 1.9 0.8 186.8 78.3 326 99.7 3.5 0.5 6.8 2.1 9.3 4.5 1.6 1.5 155.2 143.4 281.7 118.3 51.8-10.3 93-48.2 122.4-112.8 2.3-5 6.9-8.6 12.3-9.8 0.8-0.2 90.6-20.8 183-116.6 85.7-88.9 191.4-262.6 207.9-585.3 0.4-7 4.9-13.1 11.5-15.5 3.8-1.4 386.2-143.7 535-413.8 40.9-74.2 38.7-163.1-5.7-231.8-23.3-36.2-52.4-58.2-86.3-65.4-37.8-8.1-77.9 3.9-107.2 32-64.6 62.1-227.4 209.2-344 233.8-3.5 0.7-7 0.4-10.2-0.9-1.4-0.5-135-54.1-333.9-83.3-183-26.9-460.2-38-742.1 61.5-4.5 1.7-96.5 38.7-115.1 222.9-8.8 87.4-66.8 141.4-128.2 198.5-87.5 81.5-178 165.7-149.8 363.1 1.3 8.8-4.2 17.1-12.8 19.4-8.6 2.2-17.5-2.3-20.8-10.6-0.3-0.9-35.4-88.7-94.9-103.3-27.6-6.8-57.6 3.8-89.1 31.3-42.3 36.7-37.9 116.2 10.7 197.8 88.3 148.1 285.7 256.8 527.4 166 2-0.7 4.1-1.1 6.1-1.1zm66.4-1083.9q0 0 0 0z"/><path class="b" d="m604.7 2872.9c-8.6-2.9-16.6-6.1-24.8-9.4-8.1-3.2-16.2-6.7-24.1-10.4-16-7.2-31.7-15-47-23.6-7.7-4.3-15.3-8.7-22.8-13.3-3.7-2.4-7.5-4.6-11.1-7l-10.9-7.6c-14.2-10.4-27.7-22-38.7-35.9 15.5 8.6 30.6 16.5 45.9 24.2 15.2 7.8 30.7 15 46.3 21.9 15.7 6.8 31.6 13.2 47.5 19.5 15.9 6.2 32 12.3 47.8 18z"/><path class="b" d="m279.5 2543.6c0.5 2.3 1.3 5.9 2 9 0.8 3.2 1.5 6.5 2.4 9.7 1.7 6.6 3.5 13.2 5.6 19.8 2.1 6.6 4.5 13.2 6.9 19.9 2.2 6.8 4.5 13.7 6 21.6-7-3.8-12.9-8.6-18.2-14.1-5.2-5.5-9.6-11.6-14.1-17.8q-6.4-9.4-11.5-19.8-2.6-5.2-4.7-10.6c-1.5-3.8-2.7-7.1-3.8-11.8z"/><path class="b" d="m930.5 2970.9c-7.6-7-14.1-13.7-20.7-20.9-6.5-7.1-12.8-14.4-18.8-22-12-15.1-23.2-30.9-33.1-47.7-19.6-33.4-35.4-70.1-41.7-109.8-7.6-39.4-1.9-82.7 16.3-119.5 9.2-18.4 21.4-35.2 35.7-49.8 14.5-14.5 31.2-26.8 49.4-36.3 18.3-9.3 38.1-15.7 58.4-18.7 20.4-2.8 41.2-2.2 61.3 1.7 20.2 3.8 39.5 11.9 56.7 21.4 17.2 9.7 33.2 20.5 48.6 32.2 15.2 11.9 29.5 24.9 43 38.8 13.3 14 25.4 29.2 36.2 45.2 21.1 32.3 35.9 69.1 39 106.8-11.6-35.9-30.4-68-53.9-95.8-23.4-27.8-51-51.8-80.9-72.4-14.8-10.4-30.4-20-46.2-28-15.8-8.1-31.6-14.3-48.4-17.1-16.7-2.9-33.8-3-50.4-0.4-16.7 2.9-32.9 8.4-48 16.1-14.9 8-28.7 18.2-40.6 30.3-11.9 12.1-21.6 26.2-29.3 41.2-15.2 30.3-20.1 65-14.2 99.2l0.8 6.5c0.3 2.2 0.9 4.3 1.4 6.4l2.8 12.9c1.1 4.3 2.6 8.5 3.8 12.7 1.3 4.3 2.5 8.5 4.2 12.6l4.7 12.5 5.5 12.3 2.7 6.1 3 6c2.1 4 4 8.1 6.3 12 8.7 15.8 18.5 31 29 45.8 5.3 7.4 10.9 14.6 16.6 21.6 5.6 7.1 11.8 14.1 17.6 20.3z"/><path class="b" d="m1077.7 2582.5c2.1-11.9 4.7-22.7 7.8-33.8q4.6-16.5 10.6-32.5c8.1-21.4 17.9-42.3 30.6-61.8 6.3-9.7 13.2-19.1 21-27.9 3.8-4.5 8.1-8.6 12.2-12.8 4.4-3.9 8.7-8.1 13.5-11.6 18.6-14.9 41-25.4 64.4-30.8 11.6-2.2 23.8-3.9 35.3-3.7l17.4-0.2c5.8 0 11.5 0.9 17.3 1.3 11.7 0.4 23.1 3.2 34.6 5.3 11.3 3.3 22.6 6.5 33.2 11.6 21.3 9.8 40.8 23.4 57 39.8 16 16.5 29.7 35.5 37.3 56.8-14.9-16.8-31.3-31.1-48.8-43.3-17.4-12.2-36.2-21.9-55.6-29.3-9.6-4-19.7-6.5-29.6-9.7-10.2-1.8-20.3-4.9-30.8-5.6-5.2-0.5-10.4-1.4-15.7-1.5l-15.8-0.2c-2.6 0.1-5.3-0.1-7.8 0.1l-7.6 0.7c-2.6 0.1-5.1 0.5-7.6 1l-7.5 1.3c-19.7 4.6-38.3 13.2-54.3 26-4.1 3-7.8 6.7-11.6 10-3.6 3.7-7.4 7.3-10.7 11.3-6.9 7.7-13.2 16.1-18.8 25-11.5 17.6-20.7 37-28.2 56.9-3.8 10-7.1 20.2-10 30.5-2.8 10.2-5.4 21-7.1 30.9z"/><path class="b" d="m1463.6 2914.6c-20.1-140.2-86-247.6-195.7-319.2-82.3-53.7-159.8-66-160.6-66.2l3.7-24.7c3.4 0.6 82.9 13.1 169.6 69.4 80.2 52 181.3 152.7 207.7 337.2z"/><path class="b" d="m1358.7 2963.5c0.2-6.7 0-14-0.4-21.1q-0.6-10.6-1.8-21.3c-1.9-14.2-4.6-28.5-9.1-42.3 3.9 6.1 7.6 12.5 10.9 19.1 3.4 6.5 6.6 13.2 9.4 20.1q4.4 10.2 8.3 20.8c2.5 7.1 4.8 14 7 21.7z"/><path class="b" d="m566.3 2857.8c-200.3-146.3-245.5-315-248.2-430.7-2.9-125.5 41.2-215 43.1-218.8l22.3 11.2-11.1-5.6 11.1 5.6c-0.4 0.9-43.4 88.6-40.4 208.1 4.1 159.7 84.1 297.7 238 410.1z"/><path class="b" d="m2216.4 1967c-203.3-102.3-259.1-309.8-261.4-318.6l29-7.5c0.5 2 55 203.3 245.9 299.4z"/><path class="b" d="m1778.8 2255.7c-3.9 1.2-7.9 1.9-12 2.5-4.1 0.5-8.2 0.8-12.4 1q-6.2 0.3-12.6-0.1c-4.4-0.4-8.7-1-13.3-2.3 3.2-3.6 6.7-6.2 10.3-8.8q5.3-3.6 10.8-6.5c3.7-2 7.4-3.8 11.2-5.4 3.8-1.6 7.6-3.1 11.6-4z"/><path class="a" d="m1216.7 2264.6l-147.6 241.4c-12.9 21-38.4 30.5-61.9 22.9-97.9-31.6-354.7-112.7-522.2-148.4-28.9-6.1-47.5-34.5-41-63.3 6.4-29.2 19.7-69.2 46.6-117.9 24.9-45.1 61.5-97.5 115.1-155.6 10.4-11.3 25-17.4 40.3-17 74.6 1.8 310 18.5 535.1 153.6q9.2 5.5 18.4 11.3c24.7 15.5 32.4 48.1 17.2 73z"/><g style="opacity:.3"><path class="b" d="m1216.7 2264.6l-147.6 241.4c-12.9 21-38.4 30.5-61.9 22.9-97.9-31.6-354.7-112.7-522.2-148.4-28.9-6.1-47.5-34.5-41-63.3 6.4-29.2 19.7-69.2 46.6-117.9 0.3 28.1 9 88.5 74.7 118.9 84.4 38.9 499.9 182.2 615.8-137.9q9.2 5.5 18.4 11.3c24.7 15.5 32.4 48.1 17.2 73z"/></g><path fill-rule="evenodd" class="b" d="m1023.7 2546.5c-7 0-14.1-1-21.1-3.3-101.3-32.7-354.8-112.7-520.7-148-18-3.9-33.5-14.5-43.4-30-9.9-15.3-13.1-33.5-9.2-51.3 13.6-60.8 53.2-158.9 165.4-280.4 13.2-14.3 32-22.3 51.6-21.8 72.2 1.7 325.9 18.9 561.1 167.2 31.6 19.9 41.4 61.8 22.1 93.5l-147.6 241.4c-12.7 20.8-34.9 32.7-58.2 32.7zm-379-504.9c-10.6 0-20.8 4.4-28 12.2-107.6 116.6-145.4 209.4-158.1 266.6-2.2 9.9-0.4 20.1 5.1 28.6 5.6 8.7 14.3 14.7 24.4 16.9 167.3 35.6 422 115.9 523.7 148.8 16.9 5.5 35.2-1.3 44.5-16.5l147.6-241.4c10.9-17.8 5.3-41.4-12.4-52.6-228.8-144.2-475.7-160.9-545.9-162.6q-0.4 0-0.9 0z"/><path class="b" d="m602.8 2408.6l-24.3-5.8c17.2-72.1 66.2-148.2 88.6-180.5l-49.1-10.2c-4.1-0.8-7.5-3.7-9.1-7.6-1.6-3.9-1-8.3 1.4-11.8l116.3-166.6 20.5 14.3-105.5 151.1 49.4 10.2c4.2 0.9 7.7 3.8 9.2 7.8 1.5 4.1 0.9 8.6-1.7 12-0.8 1-74.8 99.4-95.7 187.1z"/><path class="d" d="m1043.9 2283.4c0 54.7-44.4 99-99.1 99-54.7 0-99-44.3-99-99 0-54.7 44.3-99.1 99-99.1 54.7 0 99.1 44.4 99.1 99.1z"/><g style="opacity:.6"><path class="a" d="m868.3 2351.3c-14-17.2-22.5-39.1-22.5-62.9 0-54.7 44.3-99.1 99-99.1 41.3 0 76.6 25.3 91.5 61.1-18.1-22-45.7-36.1-76.5-36.1-54.7 0-99 44.3-99 99 0 13.5 2.7 26.3 7.5 38z"/></g><g style="opacity:.3"><path class="b" d="m1043.9 2283.4c0 54.7-44.4 99-99.1 99-40 0-74.5-23.8-90.1-58 16.3 11.7 36.2 18.6 57.7 18.6 54.7 0 99.1-44.4 99.1-99.1 0-14.6-3.2-28.5-8.9-41 25 18 41.3 47.3 41.3 80.5z"/></g><path fill-rule="evenodd" class="b" d="m944.8 2394.9c-61.5 0-111.5-50-111.5-111.5 0-61.5 50-111.6 111.5-111.6 61.5 0 111.6 50.1 111.6 111.6 0 61.5-50.1 111.5-111.6 111.5zm0-198.1c-47.7 0-86.5 38.8-86.5 86.6 0 47.7 38.8 86.5 86.5 86.5 47.8 0 86.6-38.8 86.6-86.5 0-47.8-38.8-86.6-86.6-86.6z"/><path class="a" d="m1828.9 1750.4c-70.8 100.6-223 389-57.3 841.7 2.4 6.4 0.8 12.5-2.9 16.7-5.5 6.6-15.9 9.1-24 2.3-83.7-69.5-245.6-259.5-201.6-667.3q1.6-15.6 3.7-31.7c0 0 84.6-103.1 190.2-147.1 33.9-14.1 58.8-24.8 76.9-32.8 11.3-5 22.1 8.1 15 18.2z"/><g style="opacity:.3"><path class="b" d="m1828.9 1750.4c-70.8 100.6-223 389-57.3 841.7 2.4 6.4 0.8 12.5-2.9 16.7-48.3-56.7-147.2-216.2-139.9-567.4 1-49.8-36.2-92.2-85.7-97.6q1.6-15.6 3.7-31.7c0 0 84.6-103.1 190.2-147.1 33.9-14.1 58.8-24.8 76.9-32.8 11.3-5 22.1 8.1 15 18.2z"/></g><path fill-rule="evenodd" class="b" d="m1754.9 2629.5c-7.3 0-14.6-2.6-20.7-7.6-45.6-38.1-109.8-107.5-156-221.4-55.4-136.4-70.9-301.4-46.2-490.4 0.3-2.8 1.5-5.4 3.3-7.6 3.5-4.3 88.1-106.4 196-151.3 30-12.5 55.8-23.5 76.6-32.7 11.3-5 24.2-1.9 32 7.6 7.8 9.6 8.3 22.8 1.2 32.9-70.8 100.7-217.9 382.9-55.8 826.9 5.1 14 0.4 29.1-11.8 37.6-5.7 4-12.2 6-18.6 6zm-193.8-711.1c-54 424 116.4 617.1 192.3 680.5q0 0 0 0c0.6 0.4 1.4 1.1 2.9 0.1 1.5-1.1 1.1-2.2 0.9-2.8-162.9-446-21.4-735.3 53.8-846.4-19.2 8.5-42.1 18.2-68.2 29.1-90.6 37.7-166.6 122-181.7 139.5z"/><path class="a" d="m1737 1644.7c0 0 28.4 97.1 18.8 142.5-9.7 45.4-208 208.2-566.7 208.2-358.7 0-557-162.8-566.6-208.2-9.6-45.4 18.8-142.5 18.8-142.5 0 0 204.5 208.3 549.6 208.3 345 0 546.1-208.3 546.1-208.3z"/><g style="opacity:.3"><path class="c" d="m1755.8 1787.2c-9.7 45.4-208 208.2-566.7 208.2-358.7 0-557-162.8-566.6-208.2q-0.4-1.8-0.7-3.7c88.9 62.2 229.2 127.3 422.1 150.7 356.1 43.2 572.6-94.5 587.6-138.4 6.3-18.5 7-46.7 5.8-73.4 65.1-41.9 99.7-77.7 99.7-77.7 0 0 28.4 97.1 18.8 142.5z"/></g><path fill-rule="evenodd" class="b" d="m1189.1 2007.6c-196.3 0-336.5-48-419.5-88.3-96.3-46.6-152.9-100.5-159.1-129.5-10.2-47.9 17.8-144.5 19-148.6 1.2-4.1 4.6-7.4 8.8-8.4 4.2-1.1 8.7 0.2 11.7 3.3 2 2 205.3 204.6 540.9 204.6 335.4 0 535.3-202.5 537.3-204.6 3-3.1 7.5-4.4 11.7-3.3 4.3 1 7.6 4.2 8.9 8.4 1.1 4.1 29.1 100.7 19 148.6-6.2 29-62.8 82.9-159.1 129.5-83.1 40.3-223.3 88.3-419.6 88.3zm-541.2-340.2c-8.4 33.7-19.4 89-13.4 117.3 3.4 16.3 49.7 66 145.8 112.6 80.7 39.1 217.2 85.8 408.8 85.8 191.7 0 328.2-46.7 408.9-85.8 96-46.6 142.3-96.3 145.8-112.6 6-28.2-5-83.4-13.4-117.2-53.9 47.7-246.8 197.7-539.5 197.7-293.2 0-488.7-150.4-543-197.8z"/><path class="e" d="m2106.8 937.1c0 505.8-410.1 915.9-915.9 915.9-505.9 0-915.9-410.1-915.9-915.9 0-505.9 410-915.9 915.9-915.9 505.8 0 915.9 410 915.9 915.9z"/><path fill-rule="evenodd" class="b" d="m1190.9 1855.5c-506.5 0-918.4-412-918.4-918.4 0-506.4 411.9-918.4 918.4-918.4 506.4 0 918.4 412 918.4 918.4 0 506.4-412 918.4-918.4 918.4zm0-1831.8c-503.7 0-913.5 409.7-913.5 913.4 0 503.6 409.8 913.4 913.5 913.4 503.6 0 913.4-409.8 913.4-913.4 0-503.7-409.8-913.4-913.4-913.4z"/><path class="b" d="m1771.7 1631.5c-155.2 137.4-359.1 221-582.7 221.5-223.5-0.5-427.4-84.1-582.6-221.5v-0.1c0 0 68.5-107.8 582.6-107.8 514.1 0 582.6 107.8 582.6 107.8z"/><g style="opacity:.5"><path class="a" d="m1992 591.3c-121-221.1-365.2-430.3-635.8-483.2-160.5-31.3-310.3-21.8-443.5 19.9 55.4-4.3 105.3 10.7 130.1 64.4 25.6 55.4 5 125.3-40.5 165.8-32.2 28.6-73.8 43.8-111 65.5-86.9 50.7-147.4 135.3-210.8 213.5-23.9 29.6-50.3 59.7-86.1 72.7-45.6 16.5-101.3-1.2-128.9-41.1-32-46.1-24.6-108.7-7.5-162.1q9.5-29.7 22.4-57.9c-71.3 102.6-122.3 222.4-148.5 352.9-33.3 166.2 0.7 342.3 59.7 490.3-93.2-170.4-129.3-371.3-88.6-574.1 93.6-465.8 557.4-764.5 1035.9-667.2 307.8 62.6 546.7 273.9 653.1 540.6z"/></g><g style="opacity:.5"><path class="a" d="m1395.9 225.6c0 39.8-47 72.1-104.9 72.1-58 0-104.9-32.3-104.9-72.1 0-39.8 46.9-72.1 104.9-72.1 57.9 0 104.9 32.3 104.9 72.1z"/></g><path fill-rule="evenodd" class="b" d="m1190.9 1874.2c-516.8 0-937.2-420.4-937.2-937.1 0-516.8 420.4-937.2 937.2-937.2 516.7 0 937.1 420.4 937.1 937.2 0 516.7-420.4 937.1-937.1 937.1zm0-1831.8c-493.4 0-894.7 401.4-894.7 894.7 0 493.3 401.3 894.6 894.7 894.6 493.3 0 894.6-401.3 894.6-894.6 0-493.3-401.3-894.7-894.6-894.7z"/><path class="f" d="m707 1170.4l-44.9 248.6c-81 56.2-192.3 36.1-248.5-44.9-5.2-7.5-9.8-15.3-13.7-23.3-38.3-77.9-14.9-174.2 58.6-225.2 44.1-30.7 97.2-38.7 145.4-26.5 40.4 10.2 77.5 34.4 103.1 71.3z"/><path fill-rule="evenodd" class="b" d="m560.7 1452.9c-10.8 0-21.7-0.9-32.5-2.9-47.5-8.6-88.8-35.1-116.3-74.7-5.3-7.7-9.9-15.6-13.8-23.6-39-79.4-13.6-177.3 59.2-227.8 42.9-29.8 96.6-39.5 147.1-26.7 42.3 10.6 79.3 36.2 104.2 72.1l0.5 0.7-45.1 250.2-0.7 0.4c-30.6 21.3-66.2 32.3-102.6 32.3zm-0.5-357.2c-35.6 0-70.7 10.8-100.6 31.5-71.1 49.4-96 145.1-57.9 222.7 3.8 7.8 8.4 15.6 13.5 23.1 26.9 38.7 67.3 64.7 113.7 73 46.2 8.4 92.8-1.7 131.4-28.2l44.6-246.9c-24.4-34.7-60.4-59.5-101.4-69.8-14.3-3.6-28.8-5.4-43.3-5.4z"/><g style="opacity:.6"><path class="a" d="m682.1 1146.7c-15.5-9.5-32.2-16.4-49.5-20.8-48.3-12.2-101.4-4.2-145.5 26.4-73.5 51-96.9 147.3-58.6 225.3 3.9 8 8.5 15.8 13.7 23.3 7 10.1 14.9 19.2 23.4 27.4-20.6-12.5-39-29.5-53.6-50.6-5.2-7.5-9.8-15.3-13.7-23.3-38.3-78-14.9-174.3 58.6-225.3 44.1-30.6 97.2-38.6 145.5-26.4 29.3 7.4 57 22.3 79.7 44z"/></g><path class="b" d="m560.7 1465.8c-11.5 0-23.2-1-34.8-3.1-50.8-9.2-95.1-37.6-124.6-80.1-29.4-42.4-40.6-93.8-31.4-144.7 9.2-50.9 37.6-95.1 80.1-124.6 87.6-60.8 208.4-39 269.3 48.6 4.7 6.8 3 16.1-3.8 20.8-6.7 4.7-16 3-20.7-3.7-25-36-62.4-60-105.4-67.8-43-7.8-86.5 1.7-122.4 26.6-35.9 25-60 62.4-67.8 105.4-7.7 43 1.7 86.5 26.6 122.4 51.5 74.2 153.7 92.6 227.8 41.1 6.8-4.7 16.1-3 20.8 3.8 4.7 6.8 3 16.1-3.8 20.8-32.7 22.7-70.8 34.5-109.9 34.5z"/><path class="g" d="m604.2 1212.1c33.8 29.7 37.1 81.2 7.3 115-29.7 33.7-81.2 37-115 7.3-33.7-29.8-37-81.2-7.3-115 29.8-33.8 81.3-37.1 115-7.3z"/><path fill-rule="evenodd" class="b" d="m550.3 1356.7c-20.3 0-39.7-7.3-55.1-20.8-16.7-14.7-26.7-35.1-28.1-57.4-1.5-22.2 5.9-43.7 20.6-60.5 14.8-16.7 35.1-26.7 57.4-28.1 22.3-1.4 43.7 5.9 60.5 20.6 16.7 14.8 26.7 35.2 28.1 57.4 1.4 22.3-5.9 43.8-20.6 60.5-14.8 16.7-35.2 26.7-57.4 28.2q-2.7 0.1-5.4 0.1zm0.2-163q-2.6 0-5.2 0.2c-21.1 1.4-40.5 10.9-54.6 26.8-14 15.9-21 36.4-19.6 57.6 1.3 21.2 10.8 40.5 26.8 54.6 15.9 14 36.4 21 57.5 19.6 21.2-1.3 40.6-10.8 54.6-26.8 14.1-15.9 21-36.3 19.7-57.5-1.3-21.2-10.9-40.6-26.8-54.6-14.6-12.9-33.1-19.9-52.4-19.9z"/><g style="opacity:.2"><path class="b" d="m707 1170.4l-44.9 248.6c-81 56.2-192.3 36.1-248.5-44.9-5.2-7.5-9.8-15.3-13.7-23.3 72.2-12.5 231.4-56.4 204-251.7 40.4 10.2 77.5 34.4 103.1 71.3z"/></g><path fill-rule="evenodd" class="b" d="m550.3 1369.6c-23.5 0-45.9-8.4-63.6-24-19.3-17-30.9-40.6-32.5-66.3-1.7-25.7 6.8-50.5 23.8-69.8 17-19.3 40.6-30.9 66.3-32.5 25.7-1.7 50.5 6.8 69.8 23.9 19.3 17 30.9 40.5 32.5 66.2 1.6 25.7-6.8 50.5-23.9 69.8-17 19.4-40.5 30.9-66.2 32.5q-3.1 0.2-6.2 0.2zm0.2-163q-2.2 0-4.3 0.2c-17.8 1.1-34 9.1-45.8 22.4-11.7 13.4-17.6 30.5-16.4 48.2 1.1 17.8 9.1 34 22.4 45.8 13.3 11.7 30.5 17.6 48.2 16.5 17.8-1.2 34-9.1 45.7-22.5 11.8-13.3 17.6-30.5 16.5-48.2-1.1-17.8-9.1-34-22.4-45.7-12.3-10.8-27.7-16.7-43.9-16.7zm-61.3 12.8h0.1z"/><path class="f" d="m1774.9 1009.3c16.1 50.2 26.1 104.2 29.5 161.6 1.9 33.9-1 70-8.1 106.9-28 144.8-120 300.4-228.7 370.8-62.7 40.7-144.6 81.1-241 108.1-30.1 8.4-61.5 15.5-94.2 20.9 0 0-0.1 0-0.1 0 0 0-0.1 0-0.1 0-18.7 3.1-37.7 5.6-57.1 7.4-56.8 5.5-116.8 5.6-179.4-1.6-234.7-26.9-328.4-121.6-377.1-216.4-15.4-30.2-25.2-61-30.8-91.1q0 0 0-0.1c-0.1-0.1-0.1-0.4-0.2-0.8 0-0.2-0.1-0.5-0.1-0.8-6.1-33.4-7.2-65.9-5.5-95.5 4.5-80.6 29.6-140 29.6-140-23.3-92.3-18.1-169.3 2.1-232.7 57.6-180.1 237.4-250.5 237.4-250.5-8.8-105.8 151.7-97.3 184.6-94.5-23.1-2.7-106.8-17.4-98.7-82.4 9.4-75.2 125.5-80.3 208.5-62.6 83 17.8 216.1 111.6 216.1 111.6 197.9 48.7 350.9 186.1 413.3 381.7z"/><path fill-rule="evenodd" class="b" d="m1093 1791c-32.6 0-65.2-1.9-97.5-5.6-254.3-29.1-337.9-138.1-378.7-217.5-14.4-28.2-24.8-58.9-31-91.3l-0.1-0.3 0.1-0.6c-0.1 0.2-0.1-0.1-0.2-0.4 0-0.4-0.1-0.7-0.1-1-5.6-30.2-7.4-62.5-5.6-95.7 4.3-75.6 26.9-133.4 29.5-140.1-21-83.9-20.2-162.4 2.4-233.1 54.6-170.6 220.3-244.1 237.2-251.2-1.7-24.1 5.3-44.1 20.7-59.4 32.9-32.8 96.7-37.7 137.3-37.2-20.9-5.4-45.7-15.6-60.3-34.3-9.9-12.7-13.9-27.8-11.7-44.9 2.5-19.9 12.4-36.1 29.4-48.2 43.9-31.2 125.2-28.2 181.5-16.1 80.5 17.2 209.3 106.5 216.6 111.6 201.5 49.8 352.5 189.4 414.4 383 16.3 51 26.2 105.5 29.5 162.1 1.9 33.2-0.8 69.4-8.2 107.3-29 150.4-123.4 303.4-229.5 372.2-50.4 32.7-133.2 78-241.6 108.4-30.8 8.6-62.5 15.6-94 20.8l-0.2 0.1h-0.4c-19.1 3.1-38.3 5.6-57.3 7.4-27.2 2.7-54.7 4-82.2 4zm-503.3-315.7l0.1 0.2c6 32.2 16.3 62.6 30.6 90.6 40.3 78.5 123.1 186.4 375.6 215.3 59.3 6.8 119.5 7.4 178.9 1.6 18.7-1.8 37.8-4.2 56.6-7.3l0.4-0.1h0.4c31.4-5.2 63-12.2 93.7-20.8 107.9-30.2 190.4-75.3 240.5-107.9 105.3-68.2 199-220.2 227.8-369.5 7.3-37.7 10-73.5 8.1-106.4-3.3-56.2-13.2-110.4-29.4-161.1-61.4-192.4-211.5-331-411.8-380.4l-0.7-0.3c-1.3-0.9-133.8-93.7-215.4-111.2-55.5-11.9-135.6-15-178.4 15.5-16.1 11.4-25.4 26.7-27.7 45.4-2 16 1.6 30.1 10.8 41.9 22.4 28.6 71.6 36.5 86.2 38.2l-0.4 4.1c-27.8-2.4-121.5-6.9-163 34.5-14.9 14.8-21.4 34.3-19.5 57.8l0.1 1.5-1.4 0.5c-1.7 0.7-179.5 72.2-236.2 249.3-22.4 70.1-23.1 148-2.1 231.5l0.2 0.6-0.3 0.7c-0.2 0.5-24.9 60-29.4 139.3-1.9 32.9 0 64.9 5.5 95.1l-1.9 0.8 2-0.3-1.9 1.2 1.9-0.6 0.1 0.2z"/><g style="opacity:.2"><path class="b" d="m851.3 737.8c0 0 49.7 43.6 158.8-5.9 109.2-49.6 122.8-25.4 99.6-9.7-23.2 15.7-147.7 101.8-213.3 82.9-65.6-18.8-45.1-67.3-45.1-67.3z"/></g><g style="opacity:.2"><path class="b" d="m1796.3 1277.8c-28 144.8-120 300.4-228.7 370.8-62.7 40.7-144.6 81.1-241 108.1-30.1 8.4-61.5 15.5-94.2 20.9 0 0-0.1 0-0.1 0 0 0-0.1 0-0.1 0-18.7 3.1-37.7 5.6-57.1 7.4-56.8 5.5-116.8 5.6-179.4-1.6-234.7-26.9-328.4-121.6-377.1-216.4-15.4-30.2-25.2-61-30.8-91.1q0 0 0-0.1c-0.1-0.1-0.1-0.4-0.2-0.8 0-0.2-0.1-0.5-0.1-0.8-6.1-33.4-7.2-65.9-5.5-95.5 45.3 137.1 128.8 393.4 630.2 330.1 307.8-38.8 484.1-250.1 584.1-431z"/></g><g style="opacity:.6"><path class="a" d="m1035.7 661c0 0-52.3 23.5-113.7 40.7-61.5 17.3-58.1 84.4-58.1 84.4-126.5 60.4-206.1 153.5-250.2 219.9 57.6-180.1 237.4-250.5 237.4-250.5-8.8-105.8 151.7-97.3 184.6-94.5z"/></g><g style="opacity:.6"><path class="a" d="m1774.9 1009.3l-29.1 8.5c-146.4-332.6-414.6-347-414.6-347-20.7-18.3-41.9-34.6-63.3-48.8-12.7 14.2-52.6 15-95.8 0.9-48.4-15.8-82.5-44.4-76.1-63.8 0.9-2.9 2.7-5.4 5.2-7.6-46.9-8.2-85.9-3.6-108.9 13.2-56.6 41.4 43.4 96.3 43.4 96.3-23.1-2.7-106.8-17.4-98.7-82.4 9.4-75.2 125.5-80.3 208.5-62.6 83 17.8 216.1 111.6 216.1 111.6 197.9 48.7 350.9 186.1 413.3 381.7z"/></g><path fill-rule="evenodd" class="b" d="m1093 1803.9c-33.1 0-66.1-1.9-99-5.6-198.2-22.8-321.7-94.1-388.6-224.5-15.1-29.4-26-61.4-32.3-95.1q0-0.2 0-0.3-0.1-0.6-0.3-1.3c-20.9-114.3 14.3-216.4 23.1-239.5-45.3-187 24.3-311.7 91.1-383.6 58.8-63.3 124.4-97 148.8-108.1 0.3-23.9 8.6-44.2 24.8-60.3 23-22.9 59-33.5 93.2-37.9-6.5-4.7-12.4-10.2-17.3-16.5-12.1-15.5-16.9-33.8-14.3-54.4 2.9-23.7 14.6-42.9 34.7-57.1 47.2-33.6 130-31.5 191.7-18.3 79.9 17.1 200.6 99.3 219.3 112.4 262.4 65.8 435.3 278.7 451.4 556.2q0 0 0 0c4.7 82.2-19 182.7-65.2 275.9-46.9 94.6-110.2 171.1-178.4 215.2-51.1 33.2-135.2 79.2-245.1 110-31.4 8.8-63.6 15.9-95.7 21.2q-0.1 0-0.2 0-0.1 0-0.1 0c-19.4 3.2-38.9 5.7-58.1 7.6-27.7 2.7-55.6 4-83.5 4zm-490.5-330.3c5.8 30.7 15.7 59.9 29.4 86.6 39 75.9 119.3 180.2 365.5 208.4 58.5 6.7 117.7 7.2 176.2 1.6 18.5-1.8 37.3-4.2 56-7.3q0.1 0 0.2 0 0.3-0.1 0.5-0.1c31-5.1 62-12 92.2-20.5 106.4-29.7 187.6-74.1 237-106.2 131.9-85.5 239.4-302.5 230-464.4-15.4-264.9-180.7-467.8-431.4-529.6-1.8-0.5-3.5-1.2-5-2.3-1.4-0.9-131.7-92.3-210.7-109.2-57.2-12.2-131.3-12.8-168.2 13.4-13.2 9.3-20.5 21.3-22.4 36.5-1.6 12.6 1.1 23.2 8.2 32.3 19.3 24.7 64.2 31.8 77.5 33.4 8.1 1 13.9 8.3 13.1 16.4-0.8 8.1-8 14.1-16.1 13.3-54.3-4.6-122.9 1-152.8 30.8-12.2 12.2-17.4 27.8-15.7 47.6 0.5 6.6-3.3 12.7-9.4 15.1-0.8 0.3-80.7 32.3-148.5 105.8-90 97.4-117.6 218.5-82.1 359.8 0.8 3.2 0.6 6.5-0.7 9.5-0.4 1-44.8 108.9-23.1 227 0 0.1 0.1 0.5 0.1 0.6v0.5q0.1 0.5 0.2 1z"/><path class="h" d="m1502.9 1287.6c-11.3 26.2-21.4 42.3-21.4 42.3q0 0 0.1 0c1.4 0.2 27 3.9 54.5 17.8 27.8 14 57.4 38.5 66 80.3q1.8 8.6 2.5 18c1.9 25.1-2.1 53.5-12.6 83-1.7 4.5-3.5 9.2-5.4 13.8-15.9 37.9-42.4 77-80.6 112.5-43.8 40.9-103.1 77-179.4 101.4-28.6 9.1-59.9 16.2-94.2 20.9 0 0-0.1 0-0.1 0 0 0-0.1 0-0.1 0-19 2.5-38 5-57.1 7.4-56.8 5.5-116.8 5.6-179.4-1.6-234.7-26.9-328.4-121.6-377.1-216.4-15.4-30.2-25.2-61-30.8-91.1q0 0 0-0.1c-0.1-0.1-0.1-0.4-0.2-0.8 0-0.2-0.1-0.5-0.1-0.8-0.1-0.2-0.1-0.4-0.1-0.6q-0.2-1.1-0.4-2.1c0-0.4-0.1-0.7-0.1-1-0.8-5-1.8-13.2-2.6-23.3-1.2-16.2-1.8-37.5 0.9-58.7 1.7-12.9 4.5-25.8 9-37.4 12.6-32.3 38.3-56 88.8-47.3 0 0-34.6-86.4-28.4-166.9 0-0.1 0-0.1 0-0.2 0.1-1.9 0.2-3.7 0.5-5.6 3.7-36.1 16-70.6 43.8-95 108.3-94.8 182.8 20.1 290.9 26.5 108.2 6.4 273.3-227.8 454.3-91.2 69.4 52.3 90.3 118.5 89.9 179.7-0.3 53.5-16.7 103.2-31.1 136.5z"/><path fill-rule="evenodd" class="b" d="m1093 1791c-32.6 0-65.2-1.9-97.5-5.6-254.3-29.1-337.9-138.1-378.7-217.5-14.4-28.2-24.8-58.9-31-91.3l-0.1-0.3 0.1-0.6c-0.1 0.1-0.1-0.1-0.2-0.4 0-0.4-0.1-0.7-0.1-1l-0.5-2.5c0-0.5-0.1-0.8-0.1-1.2-0.6-3.7-1.7-12-2.6-23.3-1.6-21.5-1.3-41.4 0.9-59 1.8-14.3 4.9-27.1 9.2-38 15-38.8 44.5-55.3 87.5-49.1-6.2-16.6-32.7-93.1-27.3-164.3l-0.1-0.3 0.1-0.2c0.1-1.9 0.3-3.7 0.5-5.5 4.2-41.7 19.2-74.2 44.5-96.3 70.8-62 127.5-35.5 187.6-7.5 32.8 15.4 66.7 31.2 104.7 33.5 37.3 2.2 81.3-24.5 132.1-55.5 91.3-55.6 204.8-124.8 323.4-35.3 60.6 45.7 91.1 106.7 90.6 181.4-0.3 54.2-17.2 104.5-31.2 137.2-8.7 20.1-16.8 34.4-20 40 7.3 1.2 28.9 5.8 52.2 17.5 25.6 12.9 58 37.6 67.1 81.7 1.2 5.8 2 12 2.5 18.2 2 26-2.5 55-12.8 83.8-1.7 5-3.5 9.6-5.4 14-17 40.5-45 79.7-81 113.1-48 44.8-108.6 79.1-180.2 101.9-29.3 9.4-60.9 16.4-94.2 20.9l-0.1 0.1h-0.4-0.1c-18.9 2.5-37.9 5-57.1 7.4-27.3 2.7-54.8 4-82.3 4zm-503.3-315.7l0.1 0.2c6 32.2 16.3 62.6 30.6 90.6 40.3 78.5 123.1 186.4 375.6 215.3 59.3 6.8 119.5 7.4 178.9 1.6 18.9-2.3 37.9-4.8 56.7-7.3l0.3-0.1h0.4c33-4.5 64.6-11.5 93.6-20.8 71.1-22.7 131.2-56.7 178.8-101 35.6-33.1 63.2-71.8 80-111.8 1.9-4.3 3.6-8.8 5.4-13.7 10.1-28.4 14.4-56.8 12.5-82.2-0.5-6.1-1.3-12-2.4-17.7-8.8-42.5-40.2-66.4-65-78.9-27.6-14-53.6-17.6-53.9-17.6l-2.4-0.8 0.9-2.3c0.1-0.2 10.1-16.3 21.3-42 13.9-32.3 30.6-82.1 30.9-135.7 0.4-73.2-29.5-133.2-89.1-178.1-116.3-87.8-223.9-22.3-318.8 35.5-51.4 31.3-95.8 58.4-134.4 56.1-38.8-2.3-73.1-18.3-106.2-33.8-58.9-27.5-114.4-53.5-183.2 6.8-24.6 21.5-39.1 53-43.2 93.7-0.2 1.9-0.4 3.6-0.5 5.4l0.1 0.4-0.1 0.2c-6 79 27.9 164.9 28.3 165.7l1.3 3.4-3.5-0.7c-42.8-7.3-71.9 8.2-86.6 46.1-4.1 10.6-7.1 23-8.9 37-2.2 17.4-2.5 37-0.9 58.2 0.9 11.2 2 19.3 2.6 23.2 0 0.4 0 0.5 0.1 0.7l0.4 2.3-1.9 0.9 2-0.4 0.1 0.7-1.9 1.2 1.9-0.6 0.1 0.2z"/><path class="b" d="m904 1271c7.9 51.3-15 97.4-51.1 102.9-36.2 5.6-71.9-31.4-79.8-82.7-7.9-51.3 15-97.4 51.2-103 36.1-5.6 71.8 31.5 79.7 82.8z"/><path class="a" d="m872.8 1260.8c2.7 17.2-4 32.6-15 34.3-10.9 1.6-21.9-11-24.5-28.2-2.7-17.2 4-32.5 14.9-34.2 11-1.7 22 10.9 24.6 28.1z"/><path class="b" d="m1341.3 1189.4c-12 6.2-24.1 13-35.1 20.4-11.1 7.5-21.3 15.6-30.6 24.3-4.8 4.3-9 9-13.4 13.6l-5.9 7.3c-0.9 1.2-2 2.4-2.9 3.6l-2.7 3.9c-7.5 10-12.8 21.3-18 32.8l-27.7-21.5c1-0.7 1.7-1.1 2.5-1.5q1.1-0.8 2.2-1.3c1.4-0.8 2.9-1.6 4.3-2.3 2.9-1.4 5.7-2.7 8.6-3.9 5.8-2.5 11.7-4.4 17.6-6.1 11.9-3.3 24.3-5.1 36.6-5.1 12.2 0 24.5 1.3 36.1 4.8 11.7 2.9 22.6 8.3 32.6 14.3 3 1.8 3.9 5.6 2.1 8.6-1.3 2.2-3.7 3.4-6.1 3.1l-0.8-0.1c-5.4-0.7-10.6-1.9-15.8-2.4-5.3-0.4-10.4-1.2-15.5-1.1-10.3-0.3-20.3 0.6-30.1 2.3-9.8 1.7-19.4 4.5-28.5 8.1-4.6 1.7-9 3.8-13.3 6-2.1 1.1-4.3 2.2-6.3 3.4-1 0.6-2 1.2-2.9 1.8q-0.8 0.5-1.4 0.9l-0.9 0.6-0.4 0.3c-8.3 5.7-19.7 3.6-25.4-4.8-3.5-5.1-4-11.5-1.9-16.9 5.6-14.7 12.3-29.3 22-41.9 4.4-6.7 10.1-12.2 15.3-18.1 5.9-5.3 11.5-10.8 18-15.2 12.5-9.3 26.2-16.6 40.6-21.8 14.5-5 29-8.3 44.7-8.4 3.5-0.1 6.4 2.8 6.4 6.3 0 2.4-1.4 4.6-3.4 5.7z"/><g style="opacity:.2"><path class="b" d="m1602.1 1428q1.8 8.6 2.5 18c1.9 25.1-2.1 53.5-12.6 83-1.7 4.5-3.5 9.2-5.4 13.8-15.9 37.9-42.4 77-80.6 112.5-43.8 40.9-103.1 77-179.4 101.4-30.1 8.4-61.5 15.5-94.2 20.9 0 0-0.1 0-0.1 0 0 0-0.1 0-0.1 0-18.7 3.1-37.7 5.6-57.1 7.4-56.8 5.5-116.8 5.6-179.4-1.6-234.7-26.9-328.4-121.6-377.1-216.4-15.4-30.2-25.2-61-30.8-91.1q0 0 0-0.1c-0.1-0.1-0.1-0.4-0.2-0.8 0-0.2-0.1-0.5-0.1-0.8-0.1-0.2-0.1-0.4-0.1-0.6q-0.2-1.1-0.4-2.1c0-0.4-0.1-0.7-0.1-1-5.6-32.1-6.6-63.3-4.9-91.8 1 3.2 2.1 6.5 3.2 9.8 46.3 139.2 137.4 382.1 627 320.3q16-2 31.5-4.6c0 0 0.1 0 0.1 0 216-39.5 301-153.5 318.4-236.6 15.4-73.9-26.1-119.9-26.1-119.9 27.8 14 57.4 38.5 66 80.3z"/></g><g style="opacity:.2"><path class="b" d="m971.3 1494.1c24.2 54 49.5 202.2 49.5 202.2-25.2-67.5-144-240.8-144-240.8 29.5 50.4 94.5 38.6 94.5 38.6z"/></g><g style="opacity:.6"><path class="a" d="m654.6 1136.9c-2.7 54.6 31.7 137.9 53.4 184.4 5.1 11-5.1 22.7-16.6 19.2-56.1-17.2-97.2 10.6-97.2 10.6 12.6-32.3 38.3-56 88.8-47.3 0 0-34.6-86.4-28.4-166.9z"/></g><g style="opacity:.6"><path class="a" d="m1534 1151.1c-71.4-192.3-207.9-200.2-284.1-171-32.3 12.3-116.4 71.3-159.2 95.3-62.5 35.1-151.3 40.2-210.4-0.4-142.5-98-217.1-7.9-225.2 56.1 3.7-36.1 16-70.6 43.8-95 108.3-94.8 182.8 20.1 290.9 26.5 108.2 6.4 273.3-227.8 454.3-91.2 69.4 52.3 90.3 118.5 89.9 179.7z"/></g><path fill-rule="evenodd" class="b" d="m1092.9 1803.9c-33.1 0-66.1-1.9-98.9-5.6-198.2-22.8-321.7-94.1-388.6-224.5-15.1-29.4-26-61.4-32.3-95.1q0-0.2 0-0.3-0.1-0.6-0.3-1.3c-3.2-19.1-17.7-119.2 29.5-166.4 15.3-15.4 35.1-23.3 59-23.7-17.5-54.2-51.6-192.6 27.8-262.2 77.2-67.5 140.4-37.9 201.5-9.4 31.7 14.9 64.5 30.2 100.1 32.3 33.4 2 77.6-25 124.6-53.6 94.6-57.7 212.3-129.4 337.8-34.6 77.4 58.3 108.8 142.7 91 244-8.9 50.6-28 93.1-39.8 116.1 33.8 9.2 98.1 35.7 112.4 105.4 11.5 55.7-7.9 125.4-51.8 186.3-36.4 50.4-106.4 119-233.8 159.6-30 9.6-62.5 16.8-96.6 21.4q-0.2 0.1-0.4 0.1c-18.9 2.5-38 5-57.2 7.4-28 2.7-56 4.1-84 4.1zm-490.4-330.3c5.8 30.7 15.7 59.9 29.4 86.6 39 75.9 119.3 180.2 365.5 208.4 58.5 6.7 117.8 7.2 176.2 1.6 18.6-2.3 37.5-4.8 56.3-7.3q0.3-0.1 0.7-0.1c32.3-4.4 63.1-11.2 91.4-20.3 211-67.3 283.2-225.7 265.5-311.5-14.9-72.7-107-86.2-108-86.3-5-0.7-9.3-3.9-11.5-8.5-2.1-4.6-1.8-9.9 0.9-14.2 0.3-0.6 33.9-55.2 45.9-124.6 15.7-90.3-11.1-162.4-79.7-214.1-109.3-82.5-212.9-19.4-304.3 36.2-53.3 32.5-99.3 60.5-141.9 58-41.2-2.5-76.7-19-110.9-35-59.6-27.9-106.7-49.9-169.2 4.8-82.3 72-12.6 249.1-11.9 250.9 2 5 1.1 10.7-2.3 14.9-3.4 4.2-8.8 6.3-14.1 5.4-25.2-4.3-43.9 0-57.1 13.3-38.2 38.2-21.8 136.5-21.1 140.7 0.1 0.3 0.2 0.7 0.2 1.1z"/><path class="f" d="m2006.7 1175.1c3.7 14.3 5.8 29 6.5 43.6 0 0 0 0.1 0 0.1q0.1 0.7 0.1 1.4c3 68.2-25.9 136.8-83.6 182.2-85.6 67.3-205.5 60.9-283.4-10-8.9-8.1-17.3-17-25-26.9l7.5-63.2 22.9-190.9 6.3-52.9 0.1-1.3q9.3-7.3 18.9-13.3c0.2-0.1 0.3-0.2 0.4-0.3 93.9-58.9 219.1-38.7 289.1 50.4 19.5 24.8 32.8 52.4 40.2 81.1z"/><g style="opacity:.6"><path class="a" d="m2008.7 1169.8c3.7 14.3 5.9 28.9 6.5 43.6-2.6-20.2-48.2-133.3-177.9-164.4-91.8-22-153.3 33.6-183.6 57.1-10.6 8.2-18 11.6-23 4.5-12.1-17.3 10.8-41.8 29.3-57.5 8.6-7.3 16.3-12.6 19-14.5 0.2-0.1 0.3-0.2 0.4-0.3 93.9-58.9 219.1-38.7 289.1 50.4 19.5 24.8 32.8 52.4 40.2 81.1z"/></g><g style="opacity:.2"><path class="b" d="m2006.7 1175.1c20.9 81.7-6.5 171.8-77 227.3-85.6 67.3-205.5 60.9-283.4-10q0 0 0 0c0 0-12.7-11.6-25-26.9-17.3-21.5-34-50.4-14.3-65.4 6.3-4.9 13.5-3.3 21.8 2.2 36.1 23.6 95.1 118.4 213.8 78.1 86.7-29.4 137.3-129 164.1-205.3z"/></g><path class="b" d="m1655.1 1053.2c12.9-19.3 32.2-33.3 53.4-42.4 21.2-9.1 44.2-14 67.3-15.3 23-0.9 46.1 0.6 68.6 5.3 22.5 5.1 44.1 13.5 64.3 24.5 20.1 11.3 38.2 25.8 54.4 42.1 15.7 16.9 29.2 35.7 39.9 56.1 10.1 20.7 17.7 42.6 21.8 65.3 3.7 22.8 4.4 45.9 2 68.8-3.1 22.8-9.2 45.2-18.1 66.4-9.4 21.1-22 40.6-36.7 58.3-15.1 17.4-32.7 32.4-51.9 45.1-19.6 12.1-40.6 21.9-62.8 28.2-22.3 5.9-45.2 8.9-68.3 8.6-23-0.8-45.8-4.6-67.8-11.5l-16.2-6-4-1.5-3.9-1.9-7.8-3.8-7.8-3.7c-2.6-1.3-5-2.8-7.5-4.2-5-2.9-10.2-5.6-15-8.8-4.7-3.3-9.3-6.8-13.7-10.6l-3.3-2.8-3-3.2c-1.9-2.1-3.9-4.2-5.7-6.5-3.8-4.4-7.3-9-9.7-14.4-2.6-5.3-4.9-10.7-6.2-16.7-0.7-3 1.2-5.9 4.2-6.6 1.1-0.2 2.1-0.1 3.1 0.3l0.5 0.2c11.5 4.3 19.3 10.7 28 16.2 4.2 2.8 7.8 6.3 12.1 9 4.1 2.8 8.1 5.9 12 9 4 3 8.2 5.7 12.3 8.6 2.1 1.3 4.1 2.8 6.3 4.1l6.7 3.3 6.8 3.4 3.4 1.6 3.5 1.4 14.1 5.2c19.2 6 39.2 9.4 59.3 10.1 20.1 0.2 40.1-2.4 59.5-7.6 19.4-5.5 37.7-14.1 54.8-24.5 16.8-11.2 32.2-24.3 45.4-39.4 12.8-15.5 23.8-32.5 31.9-50.9 7.8-18.5 13.2-38 15.9-57.9 2-20 1.4-40.2-1.8-60.1-3.6-19.8-10.2-38.9-19-56.9-9.3-17.8-21.2-34.2-34.8-49-14.2-14.2-30-26.9-47.5-36.8-17.6-9.5-36.5-16.8-56.1-21.4-19.7-4-39.9-5.6-59.9-3.7-20 2.3-39.2 7.5-58.4 13.4-19 6.7-36.9 14.9-58.5 21.5h-0.3c-2.7 0.9-5.7-0.7-6.5-3.4-0.5-1.6-0.2-3.2 0.7-4.5z"/><path class="g" d="m1896.5 1193.2c22.8 50.4 0.4 109.8-50 132.6-50.5 22.7-109.8 0.3-132.6-50.1-22.8-50.4-0.4-109.8 50.1-132.6 50.4-22.7 109.8-0.3 132.5 50.1z"/><path fill-rule="evenodd" class="b" d="m1805.4 1336.7c-39 0-76.3-22.4-93.3-60.2-11.3-24.9-12.1-52.6-2.5-78.2 9.6-25.5 28.7-45.8 53.5-57 24.9-11.2 52.7-12.1 78.2-2.5 25.6 9.7 45.8 28.7 57.1 53.6 23.2 51.3 0.3 112-51.1 135.2-13.6 6.2-27.9 9.1-41.9 9.1zm-0.2-200.5c-13.8 0-27.5 2.9-40.4 8.8-23.9 10.8-42.2 30.2-51.4 54.8-9.3 24.5-8.5 51.2 2.3 75.1 10.8 23.9 30.3 42.1 54.8 51.4 24.6 9.3 51.2 8.4 75.1-2.4 49.4-22.3 71.4-80.5 49.1-129.9-10.8-23.9-30.2-42.1-54.8-51.4-11.3-4.3-23-6.4-34.7-6.4z"/><path fill-rule="evenodd" class="b" d="m1805.3 1349.6c-13.8 0-27.5-2.5-40.8-7.5-28.7-10.8-51.5-32.2-64.2-60.3-12.7-28-13.6-59.3-2.8-88 10.9-28.8 32.3-51.6 60.3-64.3 28.1-12.6 59.3-13.6 88.1-2.7 28.8 10.8 51.6 32.2 64.2 60.3 26.2 57.8 0.4 126.1-57.5 152.3-15.1 6.8-31.2 10.2-47.3 10.2zm-0.1-200.5c-12 0-23.9 2.6-35.1 7.6-20.7 9.4-36.6 26.3-44.7 47.6-8 21.3-7.3 44.5 2.1 65.3 19.4 42.8 70 61.9 112.8 42.6 42.9-19.4 62-70 42.6-112.9-9.3-20.7-26.2-36.6-47.5-44.6-9.8-3.7-20-5.6-30.2-5.6z"/><path class="b" d="m866 754.6c0-0.3 0 0.4 0.1 0.7q0.1 0.5 0.2 1.2c0.1 0.8 0.4 1.7 0.5 2.6 0.5 1.8 1 3.6 1.7 5.3 1.3 3.4 3 6.6 4.9 9.5 4 5.9 9.4 10.2 15.9 13.3 13.2 6 30.8 6 48 2.6l6.5-1.3 6.5-1.7c4.4-1.1 8.7-2.6 13-4.1 8.6-3.1 16.9-7.1 25.5-10.6 17.3-6.9 34.8-13.5 55.5-15.8l0.1-0.1c3-0.3 5.6 1.8 6 4.8 0.1 1.4-0.3 2.8-1.1 3.9-13 16.6-29.7 27.8-47.9 36.4-9.2 4.1-18.9 7.2-28.6 10.1-5 1.4-9.8 3-14.8 4.2l-7.5 2-7.7 1.5c-10.3 1.9-21 3.2-32.1 2.7-11.1-0.4-22.7-2.4-33.8-7.5-11-5-21.1-13.3-28-23.4-3.5-5.1-6.3-10.5-8.4-16.1-1-2.8-1.9-5.7-2.6-8.6-0.4-1.5-0.7-2.9-1-4.5-0.3-1.6-0.5-2.8-0.7-5.2-0.5-8.2 5.7-15.3 13.9-15.9 8.3-0.5 15.4 5.7 15.9 14z"/><path class="b" d="m1018.5 1423.2c0 0-76.3-16.3-59.4-50 16.5-33.2 57.9 25.4 57.9 25.4 0 0 53-55.6 65.1-19 8.7 26.2-63.6 43.6-63.6 43.6z"/><path class="b" d="m1217.4 1390.8c4.7 13 4.1 26.2 1.1 38.7-1.6 6.2-3.9 12.3-6.9 18.1-2.9 5.9-6.4 11.6-10.2 17.1-7.7 11-17.9 20.8-29.7 28.3-11.9 7.5-25.4 12.3-39 14.1l-10.2 1.1-10.2-0.1-5-0.1c-1.7-0.1-3.5-0.4-5.2-0.6-3.3-0.6-6.8-1-10.1-1.6-13.5-3.1-26.3-8.7-37.6-16.2-11.3-7.4-21-16.8-29.2-27-2.1-2.5-4-5.2-5.9-7.8-1.8-2.7-3.7-5.4-5.4-8.2-1.7-2.8-3.3-5.6-4.8-8.5-1.6-3-2.9-5.7-4.5-9.5l28.8-3.9c-0.5 3.5-0.9 6-1.5 8.9-0.6 2.8-1.2 5.6-1.9 8.3-1.5 5.5-3.4 10.9-5.5 16.2-4.4 10.7-10.5 21-18.8 30.1-8.3 9.1-19.2 16.3-31.1 20.7-11.8 4.2-24.3 5.7-36.1 4.8q-4.5-0.4-8.9-1c-3-0.2-5.9-1-8.8-1.8-3-0.9-5.9-1.7-8.8-2.7l-8.4-4c-10.7-6-20.4-14.4-26.8-24.4-6.7-9.8-10.9-20.7-13.2-31.5-2.1-10.9-2.8-21.7-0.8-32.5 0.3-1.3 1.5-2.2 2.8-1.9 0.8 0.1 1.4 0.6 1.7 1.3l0.1 0.2c8.1 18.7 18 35.5 30.3 47.2 12.5 11.6 26.7 17.3 43.4 19.5 8.3 1.3 16.5 0.7 23.7-1.6 7.2-2.5 13.6-6.7 19-12.6 5.4-5.8 9.8-13.1 13.1-21.2 1.6-4 3.1-8.2 4.2-12.5 0.6-2.1 1.1-4.3 1.6-6.5 0.4-2 0.8-4.5 1-5.9 1-8.3 8.5-14.1 16.7-13.1 5.5 0.7 9.9 4.2 12 9v0.1c0.7 1.6 1.9 4.3 3.1 6.4 1.2 2.3 2.5 4.6 3.9 6.8 1.3 2.3 2.8 4.4 4.3 6.6l4.7 6.1c6.6 8.1 14.2 15.1 22.7 20.2 8.4 5.2 17.6 8.7 27.2 10.5 2.4 0.4 4.8 0.5 7.2 0.8l3.7 0.4 3.7-0.2 7.4-0.1 7.3-1c19.4-3.1 35.8-13.2 48.7-28.7 6.6-7.7 11.4-16.9 17-26.1 5.6-9.4 11.5-19 19.5-29.2l0.2-0.2c0.9-1.1 2.5-1.3 3.6-0.4 0.4 0.3 0.6 0.7 0.8 1.1z"/><path class="b" d="m1207.2 1421.1c12.6 54.7 14.4 99 9.2 134.8-18.4 126.5-124.9 145.8-155.9 135.1-13.7-4.6-24.2-12-32.3-22.3-14.2-17.7-21.6-43.9-27-79.8-5.1-34.3-19.1-69.3-29.9-94.8 41.8-15.8 47.2-70.9 47.2-70.9 0 0 28.7 73.6 102.9 68.5 51.5-3.5 75.3-42.1 85.8-70.6z"/><path class="i" d="m1216.4 1555.9c-18.4 126.5-124.9 145.8-155.9 135.1-13.7-4.6-24.2-12-32.3-22.3 0.5-44.4 30.2-89 78.6-110.9 37.5-16.9 77.7-16.4 109.6-1.9z"/><path fill-rule="evenodd" class="b" d="m1078.8 1695.6c-7.5 0-13.9-0.9-19-2.7-13.8-4.7-24.7-12.2-33.2-22.9l-0.4-0.6v-0.7c0.5-46.8 31.8-91 79.8-112.7 36.8-16.6 77.4-17.4 111.2-2l1.4 0.7-0.2 1.5c-9.9 68.1-44.7 102.5-72.2 119.2-23.1 14.1-48.4 20.2-67.4 20.2zm-48.6-27.6c8 9.8 18.1 16.7 30.9 21.1 13.7 4.7 48.2 4.1 83-17.1 26.5-16.2 60.1-49.3 70.1-114.9-32.5-14.3-71.3-13.4-106.5 2.6-46.3 20.9-76.7 63.4-77.5 108.3z"/><path fill-rule="evenodd" class="b" d="m1078.8 1708.4c-9 0-16.9-1.1-23.1-3.3-16.3-5.5-29.1-14.4-39.2-27.1-14.6-18.3-23.6-44.3-30-86.9-4.6-30.5-16.6-61.8-28.9-91.2-1.6-3.7-1.6-7.9 0-11.7 1.6-3.7 4.7-6.6 8.5-8 32.2-12.2 37.5-58 37.6-58.4 0.6-6.9 5.9-12.4 12.8-13.4 6.8-0.9 13.4 3 15.9 9.4 1 2.5 26 63.2 88 59 42.6-2.8 63.1-34.7 72.8-60.9 2.3-6.2 8.3-10.2 15-9.7 6.5 0.4 12.1 5.1 13.5 11.5 12.2 52.7 15.3 99.9 9.5 140.3-10.7 73.2-48.4 110.2-78.3 128.4-25.2 15.5-52.7 22-74.1 22zm-88.4-207.2c11.1 27.4 21.3 56.4 25.6 85.5 5.5 37 12.7 58.8 23.8 72.7 6.6 8.2 14.7 13.8 25.5 17.5 11.9 4.1 43 1.8 72.1-15.9 24.3-14.9 55.3-45.6 64.2-107.3 3.9-26.3 3.4-56.1-1.3-88.8-19.4 25-46.1 39.6-77.9 41.7-46.3 3.2-79.2-21.1-99-46-6.3 14.4-16.5 30.1-33 40.6z"/></svg>