<svg xmlns="http://www.w3.org/2000/svg" viewBox="0 0 500 500"><g id="freepik--background-complete--inject-117"><path d="M408.39,272.24s-4.81,3.63-4.81,8.44v24.6h35.87v-25.7s-.5-6.31-4.72-7.34Z" style="fill:#f5f5f5"></path><path d="M406.3,303.94a67.58,67.58,0,0,1-.52-7.56,6,6,0,0,1,4.2-5.57c1.89-.52,3.87.17,5.8.49a15.4,15.4,0,0,0,9.28-1.38c2.43-1.21,4.64-3.09,7.33-3.33,1.76-.17,3.8.66,4.29,2.36a5.81,5.81,0,0,1-.05,2.49c-.57,3.8.17,8.51.17,12.15-10,.47-20.45.13-30.5.35" style="fill:#e0e0e0"></path><polyline points="401.31 308.75 406.71 305.28 439.45 305.28 444.7 308.75 401.31 308.75" style="fill:#e0e0e0"></polyline><path d="M400.3,228.74v36.62h44.4v43.39H401.31v10.41h74.86V228.74a7.8,7.8,0,0,0-7.8-7.79H408.09A7.79,7.79,0,0,0,400.3,228.74Z" style="fill:#f5f5f5"></path><path d="M476.17,229.58c0,.17-17,.32-37.94.32s-37.93-.15-37.93-.32,17-.32,37.93-.32S476.17,229.4,476.17,229.58Z" style="fill:#e0e0e0"></path><path d="M455.11,319.16c-.18,0-.32-21.93-.32-49s.14-49,.32-49,.32,21.93.32,49S455.29,319.16,455.11,319.16Z" style="fill:#e0e0e0"></path><path d="M396.28,293.41l-.45-11.09a15,15,0,0,1,2.41-9.05c1.43-2.09,3.54-4,6.54-4h30v2.93h-29.4s-5.29.55-6,7.8a72.29,72.29,0,0,0,0,13.37Z" style="fill:#e0e0e0"></path><rect x="414.99" y="448.53" width="11.94" height="21.53" style="fill:#e0e0e0"></rect><rect x="467.76" y="448.53" width="11.94" height="21.53" style="fill:#e0e0e0"></rect><rect x="388.75" y="319.46" width="98.91" height="129.07" style="fill:#e0e0e0"></rect><rect x="370.63" y="319.46" width="96.34" height="129.07" style="fill:#f5f5f5"></rect><rect x="379.14" y="448.53" width="11.94" height="21.53" style="fill:#f5f5f5"></rect><rect x="447.81" y="448.53" width="11.94" height="21.53" style="fill:#f5f5f5"></rect><path d="M459.3,433.79s0-.2,0-.57,0-.94,0-1.65c0-1.46,0-3.59,0-6.33,0-5.49,0-13.44-.07-23.31l.13.13-82.67.06h0l.2-.19c0,11.13,0,21.89,0,31.86l-.19-.19,59.23.09,17.22.05,4.62,0h1.2l.41,0h-1.56l-4.58,0-17.18.06-59.36.08h-.19V401.73h.2l82.67.06h.14v.14c0,9.91-.06,17.88-.07,23.39,0,2.73,0,4.85,0,6.3,0,.7,0,1.25,0,1.62S459.3,433.79,459.3,433.79Z" style="fill:#e0e0e0"></path><path d="M420.46,417.86s0-.23-.15-.6a2.5,2.5,0,0,0-.92-1.28,2.38,2.38,0,0,0-2.22-.3,2.33,2.33,0,1,0,2.22,4.05,2.5,2.5,0,0,0,.92-1.28c.11-.37.11-.6.15-.59a1.06,1.06,0,0,1,0,.62,2.44,2.44,0,0,1-.89,1.47,2.65,2.65,0,0,1-2.51.42,2.67,2.67,0,0,1,0-5,2.65,2.65,0,0,1,2.51.42,2.47,2.47,0,0,1,.89,1.47A1.12,1.12,0,0,1,420.46,417.86Z" style="fill:#e0e0e0"></path><path d="M459.3,395.63s0-.2,0-.57,0-.93,0-1.65c0-1.45,0-3.58,0-6.32,0-5.5,0-13.44-.07-23.32l.13.14-82.67.06h0l.2-.2c0,11.14,0,21.9,0,31.86l-.19-.19,59.23.09,17.22.05,4.62,0h.05l-4.58,0-17.18.05-59.36.09h-.19V363.58h.2l82.67.06h.14v.13c0,9.91-.06,17.89-.07,23.4,0,2.73,0,4.85,0,6.29,0,.71,0,1.25,0,1.63S459.3,395.63,459.3,395.63Z" style="fill:#e0e0e0"></path><path d="M420.46,379.7s0-.22-.15-.59a2.46,2.46,0,0,0-.92-1.28,2.38,2.38,0,0,0-2.22-.31,2.33,2.33,0,0,0,0,4.36,2.38,2.38,0,0,0,2.22-.3,2.52,2.52,0,0,0,.92-1.29c.11-.37.11-.59.15-.59a1.1,1.1,0,0,1,0,.63,2.47,2.47,0,0,1-.89,1.47,2.65,2.65,0,0,1-2.51.42,2.67,2.67,0,0,1,0-5,2.62,2.62,0,0,1,2.51.42,2.45,2.45,0,0,1,.89,1.46A1.1,1.1,0,0,1,420.46,379.7Z" style="fill:#e0e0e0"></path><path d="M459.3,358s0-.2,0-.57,0-.93,0-1.65c0-1.45,0-3.58,0-6.32,0-5.5,0-13.44-.07-23.32l.13.14-82.67.06h0l.2-.2c0,11.14,0,21.9,0,31.86l-.19-.19,59.23.09,17.22.05,4.62,0h1.22l-1.17,0-4.58,0-17.18,0-59.36.09h-.19V325.94h.2l82.67.06h.14v.13c0,9.91-.06,17.89-.07,23.4,0,2.73,0,4.85,0,6.29,0,.71,0,1.25,0,1.63S459.3,358,459.3,358Z" style="fill:#e0e0e0"></path><path d="M420.46,342.06s0-.22-.15-.59a2.46,2.46,0,0,0-.92-1.28,2.35,2.35,0,0,0-2.22-.3,2.32,2.32,0,0,0,0,4.35,2.38,2.38,0,0,0,2.22-.3,2.48,2.48,0,0,0,.92-1.29c.11-.37.11-.59.15-.59a1.12,1.12,0,0,1,0,.63,2.47,2.47,0,0,1-.89,1.47,2.65,2.65,0,0,1-2.51.42,2.67,2.67,0,0,1,0-5,2.62,2.62,0,0,1,2.51.42,2.45,2.45,0,0,1,.89,1.46A1.1,1.1,0,0,1,420.46,342.06Z" style="fill:#e0e0e0"></path><path d="M468.49,319.15c0,.2-18,.36-40.26.36s-40.25-.16-40.25-.36,18-.35,40.25-.35S468.49,319,468.49,319.15Z" style="fill:#e0e0e0"></path><rect x="33.38" y="412.31" width="75.18" height="5.83" style="fill:#ebebeb"></rect><rect x="87.91" y="412.31" width="20.64" height="5.83" style="fill:#e0e0e0"></rect><path d="M23.83,418.15v26.26H19.71v2.86h4.12v17.58h77v-16h-5.7v-3.49h5.7v-5.22h2.53v-2.38h-3V418.15Z" style="fill:#f5f5f5"></path><polygon points="80.37 418.22 80.37 464.55 100.81 464.55 100.81 448.56 95.11 448.56 95.11 445.36 100.81 445.36 100.81 440.14 103.34 440.14 103.34 437.47 100.33 437.47 100.33 418.14 80.37 418.22" style="fill:#e0e0e0"></polygon><path d="M81.82,446.89c0,.16-13.93.29-31.1.29s-31.12-.13-31.12-.29,13.93-.29,31.12-.29S81.82,446.73,81.82,446.89Z" style="fill:#e0e0e0"></path><path d="M81.82,444.22c0,.16-13.93.29-31.1.29s-31.12-.13-31.12-.29,13.93-.29,31.12-.29S81.82,444.06,81.82,444.22Z" style="fill:#e0e0e0"></path><path d="M85.82,437c0,.16-13.93.29-31.11.29S23.6,437.2,23.6,437s13.93-.29,31.11-.29S85.82,436.88,85.82,437Z" style="fill:#e0e0e0"></path><path d="M86.2,456.61c0,.16-13.93.29-31.1.29S24,456.77,24,456.61s13.93-.29,31.12-.29S86.2,456.45,86.2,456.61Z" style="fill:#e0e0e0"></path><path d="M31.45,365.61v26.27H27.33v2.85h4.12v17.58h77v-16h-5.7v-3.49h5.7V387.6H111v-2.37h-3V365.61Z" style="fill:#f5f5f5"></path><polygon points="87.98 365.69 87.98 412.02 108.42 412.02 108.42 396.02 102.72 396.02 102.72 392.83 108.42 392.94 108.42 387.71 111.01 387.71 110.96 385.01 107.95 384.94 107.95 365.61 87.98 365.69" style="fill:#e0e0e0"></polygon><path d="M89.44,394.35c0,.16-13.93.3-31.11.3s-31.11-.14-31.11-.3,13.93-.29,31.11-.29S89.44,394.19,89.44,394.35Z" style="fill:#e0e0e0"></path><path d="M89.44,391.69c0,.16-13.93.29-31.11.29s-31.11-.13-31.11-.29,13.93-.3,31.11-.3S89.44,391.53,89.44,391.69Z" style="fill:#e0e0e0"></path><path d="M93.43,384.5c0,.17-13.92.3-31.1.3s-31.12-.13-31.12-.3,13.93-.29,31.12-.29S93.43,384.34,93.43,384.5Z" style="fill:#e0e0e0"></path><path d="M93.82,404.07c0,.16-13.93.29-31.11.29s-31.11-.13-31.11-.29,13.93-.29,31.11-.29S93.82,403.91,93.82,404.07Z" style="fill:#e0e0e0"></path><rect x="28.34" y="464.58" width="75.18" height="5.83" style="fill:#ebebeb"></rect><rect x="82.87" y="464.58" width="20.64" height="5.83" style="fill:#e0e0e0"></rect><path d="M53.19,245.79v24H49.42v2.61h3.77v16.08h70.42V273.88h-5.22v-3.19h5.22v-4.78h2.32v-2.18h-2.76V245.79Z" style="fill:#f5f5f5"></path><polygon points="104.91 245.86 104.91 288.25 123.61 288.25 123.61 273.61 118.39 273.61 118.39 270.69 123.61 270.79 123.61 266.01 125.97 266.01 125.93 263.54 123.17 263.47 123.17 245.79 104.91 245.86" style="fill:#e0e0e0"></polygon><path d="M106.24,272.08c0,.15-12.74.27-28.46.27s-28.46-.12-28.46-.27,12.74-.26,28.46-.26S106.24,271.94,106.24,272.08Z" style="fill:#e0e0e0"></path><path d="M106.24,269.64c0,.15-12.74.27-28.46.27s-28.46-.12-28.46-.27,12.74-.26,28.46-.26S106.24,269.49,106.24,269.64Z" style="fill:#e0e0e0"></path><path d="M109.9,263.07c0,.15-12.75.27-28.46.27S53,263.22,53,263.07s12.74-.26,28.47-.26S109.9,262.92,109.9,263.07Z" style="fill:#e0e0e0"></path><path d="M110.25,281c0,.15-12.75.27-28.46.27s-28.46-.12-28.46-.27,12.74-.26,28.46-.26S110.25,280.83,110.25,281Z" style="fill:#e0e0e0"></path><rect x="167.86" y="89.97" width="102.04" height="91.29" style="fill:#fafafa"></rect><path d="M269.9,181.27s0-.59,0-1.7,0-2.75,0-4.89c0-4.28,0-10.55-.06-18.53,0-16-.07-38.74-.12-66.18l.23.23-102,0h0l.27-.28c0,33.22,0,64.47,0,91.3l-.24-.24,73.81.12,20.81.06,5.51,0h1.42l.49,0h-.46l-1.39,0-5.47,0-20.76.07-74,.12h-.24v-.24c0-26.83,0-58.08,0-91.3V89.7h.28l102,0h.24V90c-.05,27.5-.09,50.34-.12,66.33,0,7.95,0,14.2-.06,18.48,0,2.11,0,3.73,0,4.84S269.9,181.27,269.9,181.27Z" style="fill:#e0e0e0"></path><path d="M207,106.19c0,.16-5.37.28-12,.28s-12-.12-12-.28,5.37-.27,12-.27S207,106,207,106.19Z" style="fill:#e0e0e0"></path><path d="M250.23,113.05c0,.15-14.76.27-33,.27s-33-.12-33-.27,14.76-.27,33-.27S250.23,112.9,250.23,113.05Z" style="fill:#e0e0e0"></path><rect x="183.17" y="124.66" width="4.3" height="4.3" style="fill:#e0e0e0"></rect><rect x="193.75" y="124.66" width="4.3" height="4.3" style="fill:#e0e0e0"></rect><rect x="204.53" y="124.47" width="4.3" height="4.3" style="fill:#e0e0e0"></rect><rect x="214.92" y="124.66" width="4.3" height="4.3" style="fill:#e0e0e0"></rect><rect x="225.5" y="124.66" width="4.3" height="4.3" style="fill:#e0e0e0"></rect><rect x="236.08" y="124.66" width="4.3" height="4.3" style="fill:#e0e0e0"></rect><rect x="246.67" y="124.66" width="4.3" height="4.3" style="fill:#ebebeb"></rect><rect x="183.17" y="133.8" width="4.3" height="4.3" style="fill:#ebebeb"></rect><rect x="193.75" y="133.8" width="4.3" height="4.3" style="fill:#e0e0e0"></rect><rect x="204.34" y="133.8" width="4.3" height="4.3" style="fill:#ebebeb"></rect><rect x="214.92" y="133.8" width="4.3" height="4.3" style="fill:#e0e0e0"></rect><rect x="225.5" y="133.8" width="4.3" height="4.3" style="fill:#e0e0e0"></rect><rect x="236.28" y="133.61" width="4.3" height="4.3" style="fill:#e0e0e0"></rect><rect x="246.67" y="133.8" width="4.3" height="4.3" style="fill:#e0e0e0"></rect><rect x="183.17" y="142.94" width="4.3" height="4.3" style="fill:#e0e0e0"></rect><rect x="193.95" y="142.74" width="4.3" height="4.3" style="fill:#e0e0e0"></rect><rect x="204.34" y="142.94" width="4.3" height="4.3" style="fill:#e0e0e0"></rect><rect x="214.92" y="142.94" width="4.3" height="4.3" style="fill:#ebebeb"></rect><rect x="225.5" y="142.94" width="4.3" height="4.3" style="fill:#e0e0e0"></rect><rect x="236.08" y="142.94" width="4.3" height="4.3" style="fill:#e0e0e0"></rect><rect x="246.67" y="142.94" width="4.3" height="4.3" style="fill:#e0e0e0"></rect><rect x="183.17" y="152.08" width="4.3" height="4.3" style="fill:#e0e0e0"></rect><rect x="193.75" y="152.08" width="4.3" height="4.3" style="fill:#e0e0e0"></rect><rect x="204.34" y="152.08" width="4.3" height="4.3" style="fill:#e0e0e0"></rect><rect x="215.11" y="151.88" width="4.3" height="4.3" style="fill:#e0e0e0"></rect><rect x="225.5" y="152.08" width="4.3" height="4.3" style="fill:#e0e0e0"></rect><rect x="236.08" y="152.08" width="4.3" height="4.3" style="fill:#ebebeb"></rect><rect x="246.67" y="152.08" width="4.3" height="4.3" style="fill:#e0e0e0"></rect><rect x="183.17" y="161.22" width="4.3" height="4.3" style="fill:#e0e0e0"></rect><rect x="193.75" y="161.22" width="4.3" height="4.3" style="fill:#ebebeb"></rect><rect x="204.34" y="161.22" width="4.3" height="4.3" style="fill:#e0e0e0"></rect><rect x="214.92" y="161.22" width="4.3" height="4.3" style="fill:#e0e0e0"></rect><rect x="225.5" y="161.22" width="4.3" height="4.3" style="fill:#e0e0e0"></rect><rect x="236.28" y="161.02" width="4.3" height="4.3" style="fill:#e0e0e0"></rect><rect x="246.67" y="161.22" width="4.3" height="4.3" style="fill:#e0e0e0"></rect><rect x="406.59" y="79.15" width="17.97" height="30.96" transform="translate(831.14 189.25) rotate(180)" style="fill:#ebebeb"></rect><rect x="356.47" y="71.95" width="14.19" height="38.65" transform="translate(727.12 182.55) rotate(180)" style="fill:#ebebeb"></rect><path d="M356.3,74.74a119.41,119.41,0,0,1,14.49,0,60.11,60.11,0,0,1-7.24.22A60.35,60.35,0,0,1,356.3,74.74Z" style="fill:#fafafa"></path><path d="M357.09,76.57a111.83,111.83,0,0,1,13.7,0,106.75,106.75,0,0,1-13.7,0Z" style="fill:#fafafa"></path><path d="M363.15,103c-.11,0-.21-5.12-.21-11.44s.1-11.43.21-11.43.22,5.12.22,11.43S363.27,103,363.15,103Z" style="fill:#fafafa"></path><path d="M356.47,106.52a109.73,109.73,0,0,1,13.89,0,114.95,114.95,0,0,1-13.89,0Z" style="fill:#fafafa"></path><path d="M356.47,108.17a120.81,120.81,0,0,1,14.24,0,115.32,115.32,0,0,1-14.24,0Z" style="fill:#fafafa"></path><rect x="370.64" y="67.77" width="11.4" height="42.83" transform="translate(752.69 178.37) rotate(180)" style="fill:#e0e0e0"></rect><path d="M370.57,87.44a10.81,10.81,0,0,1,1.77,1.22l4.11,3.12,4.1,3.13a10.83,10.83,0,0,1,1.65,1.37,10.24,10.24,0,0,1-1.82-1.12c-1.1-.75-2.58-1.81-4.19-3s-3-2.37-4-3.22A11,11,0,0,1,370.57,87.44Z" style="fill:#fafafa"></path><path d="M370.52,80.73a64.94,64.94,0,0,1,5.84,4.72,66.72,66.72,0,0,1,5.55,5,64.94,64.94,0,0,1-5.84-4.72A66.72,66.72,0,0,1,370.52,80.73Z" style="fill:#fafafa"></path><rect x="321.11" y="69.83" width="5.45" height="40.8" transform="translate(647.68 180.46) rotate(180)" style="fill:#ebebeb"></rect><path d="M321.34,75.39a6.67,6.67,0,0,0,2.55.25,6.74,6.74,0,0,0,2.56-.25,6.4,6.4,0,0,0-2.56-.26A6.33,6.33,0,0,0,321.34,75.39Z" style="fill:#fafafa"></path><ellipse cx="323.78" cy="74.5" rx="2.55" ry="0.26" style="fill:#fafafa"></ellipse><path d="M321.34,107.48a6.67,6.67,0,0,0,2.55.25,6.74,6.74,0,0,0,2.56-.25,6.4,6.4,0,0,0-2.56-.26A6.33,6.33,0,0,0,321.34,107.48Z" style="fill:#fafafa"></path><path d="M321.23,106.59a6.67,6.67,0,0,0,2.55.25,6.74,6.74,0,0,0,2.56-.25,6.62,6.62,0,0,0-2.56-.26A6.55,6.55,0,0,0,321.23,106.59Z" style="fill:#fafafa"></path><path d="M324,101.26a102.84,102.84,0,0,0,.26-10.44A102.84,102.84,0,0,0,324,80.38c-.14,0-.25,4.68-.25,10.44S323.86,101.26,324,101.26Z" style="fill:#fafafa"></path><rect x="345.54" y="69.57" width="10.9" height="40.8" transform="translate(701.99 179.94) rotate(180)" style="fill:#e0e0e0"></rect><path d="M353.38,110.89s.05-.07.12-.22.19-.38.32-.68a12.53,12.53,0,0,0,.79-2.76,7.24,7.24,0,0,0-.64-4.49A6,6,0,0,0,352,100.6a4.54,4.54,0,0,0-3.14-.74,3.38,3.38,0,0,0-1.63.75,2.16,2.16,0,0,0-.78,1.72,2.46,2.46,0,0,0,.93,1.73,3.42,3.42,0,0,0,1.86.79,5,5,0,0,0,3.87-1.4,6.23,6.23,0,0,0,1.91-3.93A10.45,10.45,0,0,0,354.5,95a8.44,8.44,0,0,0-2.67-4,4.41,4.41,0,0,0-2.36-.92,3,3,0,0,0-2.45.87,2,2,0,0,0-.56,1.27,2.41,2.41,0,0,0,.38,1.34,3.55,3.55,0,0,0,2.2,1.5,5.13,5.13,0,0,0,4.8-1.61,8,8,0,0,0,1.87-4.59,11.41,11.41,0,0,0-.47-4.77,6.59,6.59,0,0,0-2.81-3.62A4.8,4.8,0,0,0,348.1,80a2.26,2.26,0,0,0-1.41,1.66,2.63,2.63,0,0,0,.49,2.06,3.42,3.42,0,0,0,3.68,1,6.34,6.34,0,0,0,2.89-2.06,9.25,9.25,0,0,0,2.18-5.59,9.06,9.06,0,0,0-1-4.44,8.89,8.89,0,0,0-1.71-2.31,7.13,7.13,0,0,0-.57-.49,1.11,1.11,0,0,0-.21-.14,10.36,10.36,0,0,1,2.31,3,8.81,8.81,0,0,1,.9,4.33,9,9,0,0,1-2.16,5.38,6,6,0,0,1-2.74,1.91,3,3,0,0,1-3.22-.85,2.22,2.22,0,0,1-.4-1.72,1.82,1.82,0,0,1,1.16-1.33,4.36,4.36,0,0,1,3.9.45,6.06,6.06,0,0,1,2.6,3.37,10.84,10.84,0,0,1,.43,4.55,7.53,7.53,0,0,1-1.75,4.31,4.63,4.63,0,0,1-4.31,1.45,3.08,3.08,0,0,1-1.88-1.27,1.57,1.57,0,0,1,.13-2,2.53,2.53,0,0,1,2-.72,3.88,3.88,0,0,1,2.08.83A7.9,7.9,0,0,1,354,95.13a9.88,9.88,0,0,1,.55,4.34,5.74,5.74,0,0,1-1.75,3.65,4.55,4.55,0,0,1-3.51,1.31,2.59,2.59,0,0,1-2.44-2.12,1.73,1.73,0,0,1,.64-1.41,2.88,2.88,0,0,1,1.43-.68,4.14,4.14,0,0,1,2.9.66,5.76,5.76,0,0,1,1.86,2,7.12,7.12,0,0,1,.69,4.33,13.32,13.32,0,0,1-.69,2.75C353.5,110.57,353.36,110.88,353.38,110.89Z" style="fill:#fafafa"></path><rect x="326.48" y="73.23" width="18.92" height="37.16" transform="translate(671.87 183.61) rotate(180)" style="fill:#fafafa"></rect><path d="M327.13,79.4a81.8,81.8,0,0,0,9.15.26,81.91,81.91,0,0,0,9.16-.26,83.53,83.53,0,0,0-9.16-.25A83.41,83.41,0,0,0,327.13,79.4Z" style="fill:#e0e0e0"></path><path d="M326.89,82.22a79.84,79.84,0,0,0,9,.26,79.84,79.84,0,0,0,9-.26,79.84,79.84,0,0,0-9-.26A79.84,79.84,0,0,0,326.89,82.22Z" style="fill:#e0e0e0"></path><path d="M326.28,106.19a90.34,90.34,0,0,0,9.52.25,90.19,90.19,0,0,0,9.52-.25,85.44,85.44,0,0,0-9.52-.26A85.58,85.58,0,0,0,326.28,106.19Z" style="fill:#e0e0e0"></path><path d="M326.54,102.88a85.55,85.55,0,0,0,9.27.25,85.55,85.55,0,0,0,9.27-.25,81,81,0,0,0-9.27-.26A81,81,0,0,0,326.54,102.88Z" style="fill:#e0e0e0"></path><rect x="382.03" y="69.3" width="10.9" height="40.8" transform="translate(774.97 179.41) rotate(180)" style="fill:#ebebeb"></rect><path d="M389.87,110.63s.05-.07.13-.22.18-.38.31-.68a12.65,12.65,0,0,0,.79-2.77,7.25,7.25,0,0,0-.64-4.49,6.07,6.07,0,0,0-1.93-2.13,4.54,4.54,0,0,0-3.14-.74,3.38,3.38,0,0,0-1.63.75,2.16,2.16,0,0,0-.78,1.72,2.49,2.49,0,0,0,.94,1.73,3.36,3.36,0,0,0,1.85.79,5,5,0,0,0,3.87-1.41,6.24,6.24,0,0,0,1.92-3.92,10.61,10.61,0,0,0-.57-4.55,8.44,8.44,0,0,0-2.67-4,4.41,4.41,0,0,0-2.36-.92,3.07,3.07,0,0,0-2.45.86A2,2,0,0,0,383,92a2.41,2.41,0,0,0,.38,1.34,3.55,3.55,0,0,0,2.2,1.5,5.16,5.16,0,0,0,4.8-1.61,8,8,0,0,0,1.87-4.6,11.22,11.22,0,0,0-.47-4.76,6.55,6.55,0,0,0-2.81-3.62,4.84,4.84,0,0,0-4.33-.46,2.26,2.26,0,0,0-1.41,1.67,2.6,2.6,0,0,0,.49,2,3.41,3.41,0,0,0,3.68,1,6.41,6.41,0,0,0,2.89-2.06,9.26,9.26,0,0,0,2.18-5.6,9,9,0,0,0-1-4.43A8.89,8.89,0,0,0,389.7,70a5.5,5.5,0,0,0-.57-.49.82.82,0,0,0-.21-.14,10.17,10.17,0,0,1,2.31,3,8.81,8.81,0,0,1,.9,4.33A9,9,0,0,1,390,82.14a6,6,0,0,1-2.74,1.92,3,3,0,0,1-3.22-.85,2.22,2.22,0,0,1-.4-1.72,1.82,1.82,0,0,1,1.16-1.33,4.36,4.36,0,0,1,3.9.44,6.12,6.12,0,0,1,2.6,3.38,10.84,10.84,0,0,1,.43,4.55,7.5,7.5,0,0,1-1.75,4.3,4.63,4.63,0,0,1-4.3,1.46A3,3,0,0,1,383.77,93a1.55,1.55,0,0,1,.12-2,2.55,2.55,0,0,1,2-.71,3.87,3.87,0,0,1,2.08.82,8,8,0,0,1,2.52,3.74,10,10,0,0,1,.56,4.34,5.75,5.75,0,0,1-1.76,3.64,4.55,4.55,0,0,1-3.51,1.32,2.6,2.6,0,0,1-2.44-2.12,1.76,1.76,0,0,1,.64-1.42,3,3,0,0,1,1.43-.67,4.14,4.14,0,0,1,2.9.66,5.76,5.76,0,0,1,1.86,2,7.12,7.12,0,0,1,.69,4.33,12.71,12.71,0,0,1-.69,2.75C390,110.31,389.85,110.62,389.87,110.63Z" style="fill:#fafafa"></path><rect x="305.96" y="67.24" width="15.15" height="42.86" transform="translate(627.08 177.35) rotate(180)" style="fill:#e0e0e0"></rect><rect x="392.93" y="71.95" width="14.17" height="38.16" transform="translate(800.04 182.06) rotate(180)" style="fill:#e0e0e0"></rect><path d="M407.46,91a11.52,11.52,0,0,0,2.25,1.6,7.85,7.85,0,0,0,2.85.79,7.28,7.28,0,0,0,3.54-.61c1.2-.51,2.29-1.17,3.4-1.55a5.38,5.38,0,0,1,3.09-.29A3.33,3.33,0,0,1,424.38,92a1.33,1.33,0,0,1,.35.68s-.14-.23-.48-.57a3.36,3.36,0,0,0-1.73-.9,5.21,5.21,0,0,0-2.88.36c-1.06.39-2.13,1-3.37,1.57a7.62,7.62,0,0,1-3.74.62,7.71,7.71,0,0,1-3-.92,6.51,6.51,0,0,1-1.65-1.26A2,2,0,0,1,407.46,91Z" style="fill:#fafafa"></path><path d="M407.14,94.76a12.51,12.51,0,0,0,2.25,1.6,7.85,7.85,0,0,0,2.85.79,7.41,7.41,0,0,0,3.54-.62c1.2-.51,2.29-1.16,3.4-1.55a5.37,5.37,0,0,1,3.09-.28,3.33,3.33,0,0,1,1.79,1.09c.32.39.37.67.35.68s-.14-.24-.47-.57a3.3,3.3,0,0,0-1.74-.9,5.13,5.13,0,0,0-2.88.36c-1.06.38-2.13,1-3.37,1.57a7.48,7.48,0,0,1-3.74.61,7.59,7.59,0,0,1-3-.91,6.5,6.5,0,0,1-1.65-1.27A2,2,0,0,1,407.14,94.76Z" style="fill:#fafafa"></path><path d="M407.38,82.53c0-.12,3.9-.21,8.71-.21s8.71.09,8.71.21a86.94,86.94,0,0,1-8.71.22A86.94,86.94,0,0,1,407.38,82.53Z" style="fill:#fafafa"></path><path d="M401,78.1a2,2,0,0,0-1.24-.11,1.51,1.51,0,0,0-1,.8,1.24,1.24,0,0,0,.36,1.38,1.26,1.26,0,0,0,1.39.31,1.48,1.48,0,0,0,.76-1,2.07,2.07,0,0,0-.15-1.23s.14.06.27.27a1.57,1.57,0,0,1,.18,1,1.77,1.77,0,0,1-.88,1.29,1.63,1.63,0,0,1-1.87-.36,1.65,1.65,0,0,1-.43-1.85,1.73,1.73,0,0,1,1.25-.93,1.51,1.51,0,0,1,1,.14C400.9,78,401,78.08,401,78.1Z" style="fill:#fafafa"></path><path d="M400,106.29c-.12,0-.22-5.35-.22-12s.1-11.94.22-11.94.22,5.34.22,11.94S400.16,106.29,400,106.29Z" style="fill:#fafafa"></path><rect x="292.71" y="109.89" width="146.65" height="8.37" style="fill:#ebebeb"></rect><rect x="426.55" y="109.89" width="12.8" height="8.37" style="fill:#e0e0e0"></rect></g><g id="freepik--Character--inject-117"><path d="M391.43,245.94c7-8.35,11.05-10.65,16.14-16.31,4.28-4.78,8.64-9.68,11.16-15.59s2.89-13.12-.66-18.47a165,165,0,0,0-19.62-2.75c-8.37-.46-12.26-.39-12.26-.39l-4.64,14,8.38,3.42-17.16,15.53-13.55,15.76L366,260.69l9.12.84Z" style="fill:#ffbe9d"></path><path d="M403.42,196.93a20.58,20.58,0,0,1-2.22,2.31l-5.5,5.4c-2.16,2.11-4.14,4-5.62,5.31a17.83,17.83,0,0,1-2.47,2,22.33,22.33,0,0,1,2.22-2.3l5.5-5.41c2.16-2.11,4.14-4,5.62-5.3A18.5,18.5,0,0,1,403.42,196.93Z" style="fill:#eb996e"></path><path d="M415.83,200.63c-.07.06-.47-.38-1.27-.85a5.84,5.84,0,0,0-3.42-.81,6,6,0,0,0-3.24,1.39c-.7.6-1,1.11-1.09,1.07s.15-.62.84-1.34a5.45,5.45,0,0,1,7.12-.62C415.57,200.05,415.87,200.6,415.83,200.63Z" style="fill:#eb996e"></path><path d="M385.31,199a5.71,5.71,0,0,0,3.49-7.46,22.57,22.57,0,0,0-2.49-3.56,12.46,12.46,0,0,1-1.18-2.19l-1.38-4.24c-.93-3.56-1.7-7.16-4.47-9.41-2.51-2-6-2.34-8.88-3.79-2.11-1.05-3.88-2.69-5.95-3.82s-4.72-1.68-6.73-.44c-1.17.73-2,2-3.14,2.69-2.45,1.48-5.95.38-8.19,2.15-1.82,1.45-2,4.14-3.3,6.06-1.42,2.08-2.29,4-4.55,5.16a6.4,6.4,0,0,0-3.6,5.82c0,2.22-.32,3.23-.38,5.45a13.67,13.67,0,0,1-1.54,4.74c-.64,1.48-1.85,7.26-.53,8.2l15.08,6.79c4.77,4.68,9.7,9.48,15.88,12l1.19,1.6c-1.42.18,15.09-1.47,17.85-11.4a9.83,9.83,0,0,1,1.72-3.84,17.84,17.84,0,0,0,2.61-3.41A6.12,6.12,0,0,0,385.31,199Z" style="fill:#263238"></path><path d="M369.38,215.73A81.92,81.92,0,0,0,378,204.26a29,29,0,0,0,4.34-13.55c0-.72-.23-5.77-.92-6-.5-.15-.89,4.3-1.31,4.61a24.72,24.72,0,0,0-8,12.24,65.41,65.41,0,0,0-2.71,14.15" style="fill:#263238"></path><path d="M339.56,246.53c6.93,2.68,20.9-9.13,20.9-9.13L376.77,199c4.93-11,2.66-23-8.43-27.59l-1-.36a21.47,21.47,0,0,0-26.74,11.57c-4.22,9.52-8.76,20.1-10.54,25.38-3.67,10.93,6.62,16.44,6.62,16.44s-.95,2.49-2.21,5.64c-2.81,7.06,2.29,15.56,5.14,16.45Z" style="fill:#ffbe9d"></path><path d="M336.63,224.44a27.85,27.85,0,0,0,15.64.76s-6.22,6.71-16.74,1.93Z" style="fill:#eb996e"></path><path d="M339.23,192.27c.13.27,1.61-.19,3.28.4s2.6,1.85,2.86,1.71.05-.49-.35-1.07a4.54,4.54,0,0,0-2.2-1.62,4.36,4.36,0,0,0-2.69-.07C339.47,191.84,339.17,192.14,339.23,192.27Z" style="fill:#263238"></path><path d="M355.67,197.31c.12.27,1.6-.19,3.27.4s2.61,1.86,2.86,1.72.05-.5-.35-1.07a4.5,4.5,0,0,0-2.2-1.63,4.35,4.35,0,0,0-2.69-.06C355.91,196.88,355.6,197.19,355.67,197.31Z" style="fill:#263238"></path><path d="M346.94,205.11a12,12,0,0,0-2.54-1.44c-.41-.19-.79-.42-.76-.73a2.34,2.34,0,0,1,.73-1.17l2.4-2.81c3.38-4,6-7.38,5.81-7.51s-3,3-6.4,7l-2.35,2.84a2.57,2.57,0,0,0-.81,1.6,1.12,1.12,0,0,0,.48.87,3.29,3.29,0,0,0,.69.36A11.07,11.07,0,0,0,346.94,205.11Z" style="fill:#263238"></path><path d="M351.46,208c-.27-.11-.9,1.71-2.91,2.45s-3.87-.13-4,.12.31.5,1.12.81a4.81,4.81,0,0,0,3.28,0,4.16,4.16,0,0,0,2.32-2.1C351.63,208.55,351.59,208,351.46,208Z" style="fill:#263238"></path><path d="M359.91,187.61c0,.51,1.75.88,3.63,1.8s3.28,2,3.68,1.7c.19-.16.06-.68-.43-1.35a6.69,6.69,0,0,0-2.47-2,6.79,6.79,0,0,0-3.1-.69C360.4,187.13,359.91,187.36,359.91,187.61Z" style="fill:#263238"></path><path d="M343.93,182.63c.16.49,1.45.49,2.84,1s2.47,1.15,2.88.85c.19-.15.14-.6-.25-1.14a4.13,4.13,0,0,0-2.09-1.42,4.08,4.08,0,0,0-2.52,0C344.16,182.07,343.86,182.4,343.93,182.63Z" style="fill:#263238"></path><path d="M373.06,206.75c.22,0,8.26.41,5.42,7.77s-9.65,3-9.58,2.77S373.06,206.75,373.06,206.75Z" style="fill:#ffbe9d"></path><path d="M372.23,215.37s.09.14.27.32a1.34,1.34,0,0,0,.95.39c.89,0,2-1,2.57-2.28a4.51,4.51,0,0,0,.34-2,1.58,1.58,0,0,0-.58-1.36.7.7,0,0,0-.89.06c-.18.17-.19.33-.23.33s-.11-.18.06-.47a.87.87,0,0,1,.47-.34,1,1,0,0,1,.78.08,2,2,0,0,1,.9,1.66,4.64,4.64,0,0,1-.35,2.22c-.62,1.47-1.91,2.56-3.09,2.46a1.48,1.48,0,0,1-1.1-.65C372.17,215.55,372.2,215.37,372.23,215.37Z" style="fill:#eb996e"></path><path d="M350.11,172.35c-.93-1.12,4.15-3.56,7.59-3.72,5.2-.26,12.42,1.18,16,3.94,4.34,3.33,7.44,7.38,8.14,12.8a31.12,31.12,0,0,1-2.6,16,9.37,9.37,0,0,1-2.81,4.07c-1.67,1.22-4,1.46-4.84,3.73a3.31,3.31,0,0,1-1.65,1.94c-1.9.89-3-1.1-3.24-2.74-.47-3.51.71-7,1.87-10.36a23.2,23.2,0,0,1,3.23-6.79c.84-1.08,1.88-2,2.66-3.13a4.76,4.76,0,0,0,.93-3.87,5.49,5.49,0,0,0-.36-.84,8.21,8.21,0,0,0-7-4.45c-4.71-.17-12.63-.79-13.91-2.92-1.85-3.06-2-4.63-2-4.63Z" style="fill:#263238"></path><path d="M373.74,171.43a17.26,17.26,0,0,0-12.66-4.23,9,9,0,0,0-6.35,3.11c-1.47,1.93-1.6,5,.15,6.65l.11.15c2.71,2.29,4.91,2.68,8.46,2.83,3,.14,6-.56,8.94-.41a16,16,0,0,1,8.83,3.2A26.11,26.11,0,0,0,373.74,171.43Z" style="fill:#263238"></path><path d="M384.31,187.23a6.57,6.57,0,0,1-1.41,1.85,16.18,16.18,0,0,1-4.56,3.3,16.4,16.4,0,0,1-5.4,1.57,7.09,7.09,0,0,1-2.33,0,20.38,20.38,0,0,0,13.7-6.7Z" style="fill:#455a64"></path><path d="M386.79,189.63a2.41,2.41,0,0,1-.31.84,13.69,13.69,0,0,1-1.24,2.11,16.53,16.53,0,0,1-6.09,5.24,16.79,16.79,0,0,1-7.86,1.74,14.84,14.84,0,0,1-2.43-.28A2.85,2.85,0,0,1,368,199c0-.1,1.26.18,3.3.15a17.55,17.55,0,0,0,7.61-1.83,17.78,17.78,0,0,0,6-5C386.18,190.75,386.71,189.58,386.79,189.63Z" style="fill:#455a64"></path><path d="M289.71,271l-35.4-37-7.61,12,9.39,17.94s10.23,16.76,15.5,22.66,5.65,4.63,5.65,4.63Z" style="fill:#ffbe9d"></path><path d="M241.23,223.3c-.12-.08-6.32-1-8.79-1.35a2.59,2.59,0,0,0-1.82.4l-3.72,2.47-3.05,6.47.91.61-.93,5.84a1.85,1.85,0,0,0,3-.22,25.7,25.7,0,0,0,2.7-4.38l4-.07-.18.37-4.13,1.05L227.84,238l1.23,3.63,2.78,2.54,1.2-.05,2.26,1.36s2.29-2,.35-4c0,0,1.87,1.84,2.9,1.12l8.4,3.82,6.61-6.38,1.79-5.08s-10.53-10.32-11.17-10.81A11,11,0,0,0,241.23,223.3Z" style="fill:#ffbe9d"></path><path d="M235.7,241.42c-.08,0,0-.51-.07-1.27a3.93,3.93,0,0,0-1.41-2.51l-.15-.12-.15-.11.05-.18a5.33,5.33,0,0,0,.11-2.83,9.5,9.5,0,0,1-.32-1.19c.05,0,.39.33.66,1.09a4.91,4.91,0,0,1,.05,3.09l-.1-.29.17.13a3.83,3.83,0,0,1,1.45,2.89C236,241,235.75,241.44,235.7,241.42Z" style="fill:#eb996e"></path><path d="M232.71,244.12a3.74,3.74,0,0,0,.72-1.22,3.71,3.71,0,0,0-.88-3.17c-.22-.31-.46-.6-.69-.89l-.09-.11,0-.14a2.43,2.43,0,0,0-.45-2.44c-.44-.5-.86-.65-.83-.72s.48,0,1.07.49a2.7,2.7,0,0,1,.69,2.85l-.05-.25q.36.42.72.9a5.15,5.15,0,0,1,.91,1.87,2.92,2.92,0,0,1-.1,1.73C233.4,244,232.71,244.18,232.71,244.12Z" style="fill:#eb996e"></path><path d="M233.92,237.45c.08.12-.29.49-.82.82s-1,.51-1.09.38.29-.49.82-.82S233.84,237.33,233.92,237.45Z" style="fill:#eb996e"></path><path d="M235.25,242c-.15,0-.37-.71-1-1.42s-1.25-1.08-1.2-1.22.93.06,1.61.89S235.39,242,235.25,242Z" style="fill:#eb996e"></path><path d="M237.83,242c-.14-.07.68-1.92,1-4.37s0-4.44.14-4.46a8.71,8.71,0,0,1,.38,4.53A8.81,8.81,0,0,1,237.83,242Z" style="fill:#eb996e"></path><path d="M229.28,227.69c.07,0,0,.39-.21.95a6.54,6.54,0,0,1-1.18,2.05,3.52,3.52,0,0,1-2.09,1.18c-.64.08-1-.11-1-.17s.38,0,.91-.19a4,4,0,0,0,1.79-1.17,11.1,11.1,0,0,0,1.23-1.85C229,228,229.22,227.66,229.28,227.69Z" style="fill:#eb996e"></path><path d="M233.69,232.33c-.09-.11.12-.42.34-.79s.41-.69.56-.66.17.48-.11.94S233.77,232.45,233.69,232.33Z" style="fill:#eb996e"></path><path d="M207.81,221.94l.1,15.15c0,5.09,20.5,4.92,20.24-.14,0-.3-.1-15.15-.1-15.15Z" style="fill:#455a64"></path><path d="M227.55,224.46a11.46,11.46,0,0,1,3.65,0,3.5,3.5,0,0,1,2.31,1.19,4,4,0,0,1,.55,2,7.79,7.79,0,0,1-.39,3.93A5.06,5.06,0,0,1,231,234a8.12,8.12,0,0,1-3.59.52c0-.77,0-1.54,0-2.31a9.68,9.68,0,0,0,2.15-.13,3.32,3.32,0,0,0,1.88-1,4.58,4.58,0,0,0,.79-3.39,2.46,2.46,0,0,0-.38-1.34,2.16,2.16,0,0,0-1.76-.66,6.52,6.52,0,0,0-2.5.5" style="fill:#455a64"></path><path d="M220.54,191.05a.77.77,0,0,1-.43.18,1.42,1.42,0,0,1-1.2-.57,1.82,1.82,0,0,1-.41-.91,1.33,1.33,0,0,1,.37-1.14,2.24,2.24,0,0,1,2.74-.26,3.08,3.08,0,0,1,1.23,3.13,7.14,7.14,0,0,1-1.81,3.45,12,12,0,0,0-2.3,3.4,3.92,3.92,0,0,0,.76,4c1,1.13,2.34,1.88,3.4,3a3.88,3.88,0,0,1,1.07,2,3.36,3.36,0,0,1-.35,2.15,7.86,7.86,0,0,1-2.75,2.75,12,12,0,0,0-2.53,2.07,7.2,7.2,0,0,0-1.63,4.34,16,16,0,0,0,.11,1.75,1.53,1.53,0,0,1-.15-.44,6,6,0,0,1-.16-1.31,7.11,7.11,0,0,1,1.55-4.57,11.31,11.31,0,0,1,2.56-2.19,7.56,7.56,0,0,0,2.57-2.61,2.83,2.83,0,0,0,.29-1.85,3.38,3.38,0,0,0-.95-1.74c-1-1-2.35-1.76-3.43-3a4.45,4.45,0,0,1-.85-4.49,12.21,12.21,0,0,1,2.43-3.53,6.76,6.76,0,0,0,1.74-3.21,2.68,2.68,0,0,0-1-2.75,1.94,1.94,0,0,0-2.34.14,1.28,1.28,0,0,0,0,1.72,1.31,1.31,0,0,0,1,.59C220.39,191.11,220.52,191,220.54,191.05Z" style="fill:#263238"></path><path d="M229,225.79l8-.38,9.08,2.58,11.33,9.67s-8.65,6.42-11.45,3.62-6.07-9-6.07-9l-3.22-1.36S226.1,230.89,229,225.79Z" style="fill:#ffbe9d"></path><path d="M252.2,233.2a2.54,2.54,0,0,1-.45-.32l-1.25-1L246,228.14l.07,0-9.1-2.53H237l-8,.39.22-.13-.07.12a2.2,2.2,0,0,0,0,2.51,4.79,4.79,0,0,0,2.31,1.36,19.66,19.66,0,0,0,5.21.76h.05l0,0,3.21,1.38.07,0,0,.07a63.92,63.92,0,0,0,4.07,6.76c.54.77,1,1.35,1.32,1.74a4,4,0,0,1,.49.61,3.82,3.82,0,0,1-.58-.52,20.93,20.93,0,0,1-1.43-1.69,54.79,54.79,0,0,1-4.25-6.71l.11.1-3.23-1.34.09,0a19.46,19.46,0,0,1-5.37-.75,5.27,5.27,0,0,1-2.56-1.52,2.3,2.3,0,0,1-.5-1.54,3.62,3.62,0,0,1,.48-1.53l.06-.14.07-.12H229l8-.36h.08l9.06,2.63,0,0,0,0,4.41,3.87c.47.43.86.79,1.18,1.07S252.22,233.18,252.2,233.2Z" style="fill:#eb996e"></path><path d="M228,237.58s-.22.19-.68.46a6.64,6.64,0,0,1-.85.43,10.56,10.56,0,0,1-1.18.49,20.69,20.69,0,0,1-7.26,1.17,22.64,22.64,0,0,1-7.24-1.25,15.66,15.66,0,0,1-2.05-.87c-.47-.24-.72-.39-.7-.43s1.09.42,2.86.95a26.15,26.15,0,0,0,7.14,1.08,23.16,23.16,0,0,0,7.13-1C226.9,238.06,227.92,237.5,228,237.58Z" style="fill:#263238"></path><path d="M228.11,237.45a56.5,56.5,0,0,1-.29-7.82,57.25,57.25,0,0,1,.23-7.83,60.52,60.52,0,0,1,.29,7.82A61.24,61.24,0,0,1,228.11,237.45Z" style="fill:#263238"></path><path d="M218.07,220.85s-.07-.07-.17-.25a3.56,3.56,0,0,1-.26-.83,5,5,0,0,1,.6-3.11,11.82,11.82,0,0,1,3.17-3.47A10.65,10.65,0,0,0,225,209a3.91,3.91,0,0,0,.1-2.71,5.74,5.74,0,0,0-1.49-2.14c-1.23-1.18-2.55-2.21-3.12-3.5a3.26,3.26,0,0,1,.13-3.14,1.88,1.88,0,0,1,.63-.6c.18-.1.28-.13.29-.11a3.37,3.37,0,0,0-.75.82,3.09,3.09,0,0,0,0,2.87c.57,1.17,1.83,2.11,3.13,3.32a6.15,6.15,0,0,1,1.63,2.31,4.36,4.36,0,0,1-.09,3.06,10.81,10.81,0,0,1-3.73,4.38,11.84,11.84,0,0,0-3.15,3.27,5.06,5.06,0,0,0-.73,2.92C217.91,220.47,218.12,220.83,218.07,220.85Z" style="fill:#263238"></path><path d="M86.5,231.18,67,216.45s8.43-24.75,5.1-27.82L42.19,225.38,71.6,249.57Z" style="fill:#FFAB00"></path><g style="opacity:0.30000000000000004"><path d="M86.5,231.18,67,216.45s8.43-24.75,5.1-27.82L42.19,225.38,71.6,249.57Z"></path></g><path d="M59.36,229.11a1.94,1.94,0,0,1-2.56-.36,1.85,1.85,0,0,1,.33-2.53,2,2,0,0,1,2.71.39,1.93,1.93,0,0,1-.64,2.6" style="fill:#e0e0e0"></path><g style="opacity:0.6000000000000001"><path d="M42.19,225.38l3.06,2.32,27.54-36.1s.62-2.22-.68-3Z" style="fill:#fff"></path></g><path d="M67.69,216c-.19-.14-1,.69-2.3,1.1s-2.43.27-2.49.49,1.19.8,2.75.28S67.88,216.1,67.69,216Z" style="fill:#263238"></path><path d="M69.23,210.85c-.14-.18-1.08.35-2.33.34s-2.2-.48-2.34-.3S65.34,212,66.9,212,69.4,211,69.23,210.85Z" style="fill:#263238"></path><path d="M66.4,204.91c-.17.13.52,1.11,1.88,1.45s2.43-.18,2.34-.38-1-.1-2.14-.4S66.56,204.75,66.4,204.91Z" style="fill:#263238"></path><path d="M71.75,219.86c-.22-.06-.64,1-1.54,1.92s-1.86,1.49-1.78,1.71,1.34,0,2.38-1.16S72,219.88,71.75,219.86Z" style="fill:#263238"></path><path d="M96.07,216.9l-17.53-17S90,176.36,87,172.9L52.81,205.7,79,233.32Z" style="fill:#FFAB00"></path><path d="M69.39,211.51a1.94,1.94,0,0,1-2.5-.67,1.87,1.87,0,0,1,.64-2.48,2,2,0,0,1,2.64.73,1.94,1.94,0,0,1-1,2.5" style="fill:#e0e0e0"></path><g style="opacity:0.6000000000000001"><path d="M52.81,205.7l2.75,2.68,31.77-32.45s.89-2.12-.31-3Z" style="fill:#fff"></path></g><path d="M79.26,199.53c-.16-.16-1.07.56-2.41.81s-2.44,0-2.53.19,1.08.94,2.69.6S79.45,199.65,79.26,199.53Z" style="fill:#263238"></path><path d="M81.43,194.61c-.12-.2-1.11.21-2.36,0s-2.12-.76-2.28-.59.64,1.21,2.19,1.39S81.58,194.77,81.43,194.61Z" style="fill:#263238"></path><path d="M79.35,188.36c-.19.11.38,1.17,1.69,1.67s2.43.12,2.37-.09-1-.23-2.08-.66S79.53,188.22,79.35,188.36Z" style="fill:#263238"></path><path d="M82.83,203.85c-.22-.08-.76.88-1.77,1.72s-2,1.25-2,1.48,1.33.14,2.5-.87S83,203.9,82.83,203.85Z" style="fill:#263238"></path><path d="M88.42,208.27s52.6,41.55,62.47,42.78l11.2,1.82,22.51,9.69,69.49,36.59,21.79,15.22,11.19,21.14.95,12.7s-50.27,6.12-57.67,1.6-70.83-51.89-74.12-55.59-63.1-28.78-86.94-69.84Z" style="fill:#263238"></path><path d="M61.32,248.1s38.15,35.43,64.88,45.71a326.6,326.6,0,0,1,48.1,23.43l44.83,24.41,57.59-26-11.37-20.39-93.51-22L76.89,225.13S61.73,240.7,61.32,248.1Z" style="fill:#263238"></path><path d="M250.9,326.42a23.85,23.85,0,0,1,22.26-12" style="fill:#263238"></path><path d="M256,305.66a13.15,13.15,0,0,1-4.17,14.08" style="fill:#263238"></path><path d="M222.93,282.2a5.43,5.43,0,0,1,1.07.46c.67.33,1.63.82,2.81,1.45,2.36,1.25,5.57,3.06,9,5.19s6.55,4.17,8.73,5.71c1.09.76,2,1.39,2.56,1.85a5,5,0,0,1,.9.74,5.06,5.06,0,0,1-1-.58l-2.65-1.71c-2.24-1.45-5.33-3.44-8.8-5.57s-6.64-4-9-5.31l-2.73-1.59A4.39,4.39,0,0,1,222.93,282.2Z" style="fill:#455a64"></path><path d="M233,348.65l-.45-.28-1.29-.88-5-3.43-18.16-12.67-26.9-18.85-15.88-11.15-8.39-5.9q-4.23-3-8.76-5.88c-6.05-3.76-12.13-7.19-17.78-10.85s-11-7.31-16.09-10.87-9.85-6.95-14.25-10.25a140.14,140.14,0,0,1-11.76-9.81,108.75,108.75,0,0,1-14.59-16.65c-.76-1.06-1.41-2-2-2.87s-1-1.55-1.38-2.13-.63-1-.83-1.33-.27-.47-.27-.47.12.15.31.44l.87,1.3c.38.58.85,1.28,1.43,2.11s1.23,1.78,2,2.83a112.11,112.11,0,0,0,14.67,16.5,145.4,145.4,0,0,0,11.76,9.73c4.41,3.28,9.23,6.64,14.28,10.21s10.41,7.21,16.08,10.83,11.72,7.07,17.78,10.84c3,1.89,6,3.87,8.79,5.9l8.39,5.9,15.86,11.17,26.83,18.95,18.07,12.81,4.9,3.5,1.26.92A5.07,5.07,0,0,1,233,348.65Z" style="fill:#455a64"></path><path d="M334.2,230.11s-18.31,9.89-21.73,14c-3.18,3.84-38.62,39.3-38.62,39.3s-22.93,6.82-22,8.73c1.63,3.49,8.06,9.76,11.5,13a32,32,0,0,1,4.12,4.65c2.9,4,8.57,11.83,13.25,18.36A43.64,43.64,0,0,1,288,348.21l16.17-8.89c8.25-3.33,12.75-12.35,21.82-17L353.23,293l8.3-16.95,2.76-41.71-3.93.28-15.23,2S331.94,235.18,334.2,230.11Z" style="fill:#FFAB00"></path><path d="M348.86,241.08l12.53-5.54a110.51,110.51,0,0,1,10-8.56s-15.63,19.47-1.91,26S394.3,242.3,394.3,242.3a85.83,85.83,0,0,0-4.36,7.57c-1.6,3.32-9.74,13.91-9.74,13.91a19,19,0,0,1-4.92,10.6c-4.68,5.35-9.94,14.21-14.12,16.48s-13.52,6.43-13.52,6.43a118.94,118.94,0,0,1-1.71-30.7C347.3,250.55,348.86,241.08,348.86,241.08Z" style="fill:#FFAB00"></path><path d="M368.31,256.77a5.71,5.71,0,0,1-1.06-.77,20.94,20.94,0,0,1-2.58-2.5,10.22,10.22,0,0,1-2.34-4.79,16.64,16.64,0,0,1,.39-6.53,33.62,33.62,0,0,1,4.85-10.74c.83-1.26,1.56-2.24,2.08-2.91a6.45,6.45,0,0,1,.86-1,5.82,5.82,0,0,1-.69,1.11c-.47.7-1.15,1.71-1.94,3a36,36,0,0,0-4.65,10.66,16.67,16.67,0,0,0-.43,6.32,10.11,10.11,0,0,0,2.16,4.65C366.87,255.56,368.39,256.69,368.31,256.77Z" style="fill:#263238"></path><path d="M366.44,271.92a2.81,2.81,0,0,1-.48.23c-.32.13-.8.33-1.43.56a18.07,18.07,0,0,1-5.56,1.06,8.37,8.37,0,0,1-3.84-.88A7.16,7.16,0,0,1,352,269.6c-1.42-2.93-1.58-6.55-1.28-10.16a40.26,40.26,0,0,1,2.11-10.06,35.59,35.59,0,0,1,4-7.39c1.35-2,2.54-3.49,3.37-4.53.4-.47.72-.86,1-1.18s.35-.4.37-.39a2.45,2.45,0,0,1-.29.45l-.89,1.25c-.79,1.07-1.93,2.62-3.23,4.6a36.44,36.44,0,0,0-3.82,7.36,41.55,41.55,0,0,0-2.05,9.93c-.29,3.57-.13,7.12,1.2,9.91a6.8,6.8,0,0,0,2.88,3.12,8.14,8.14,0,0,0,3.65.89,19.68,19.68,0,0,0,5.49-.88l1.45-.47A2.12,2.12,0,0,1,366.44,271.92Z" style="fill:#263238"></path><path d="M361.37,235.05a25.09,25.09,0,0,1-2.21,1.8,42.85,42.85,0,0,0-4.93,4.72,43.84,43.84,0,0,0-4.1,5.46,24.46,24.46,0,0,1-1.52,2.4,11,11,0,0,1,1.21-2.59,32.94,32.94,0,0,1,4-5.62,33.32,33.32,0,0,1,5.1-4.66A11.53,11.53,0,0,1,361.37,235.05Z" style="fill:#263238"></path><g style="opacity:0.30000000000000004"><path d="M362.17,235.05h0a45.6,45.6,0,0,0-13.59,30.4c0,1,.27,2.33,1.27,2.35a1.34,1.34,0,0,0,1.22-1.15,6.45,6.45,0,0,0-.15-1.8c-.38-4.81.67-10.49,2.34-15.58S359,239.34,362.17,235.05Z"></path></g><g style="opacity:0.30000000000000004"><path d="M369.26,228.7c-3.41,3.81-6.6,7.93-8.32,12.74s-1.8,10.4.81,14.79c.72,1.21,2.17,2.43,3.39,1.72a2.19,2.19,0,0,0,.7-2.59,10.9,10.9,0,0,0-1.54-2.46c-2.37-3.45-2.45-8.06-1.21-12.06s3.63-7.51,6-11"></path></g><g style="opacity:0.30000000000000004"><path d="M261.56,303.46a53.28,53.28,0,0,0,19.14,7.48c5.76.9,11.63-.11,17.39-1,15-2.42,30.29-4.61,45.39-6.44H261.56"></path></g><path d="M316.06,348.21a2.67,2.67,0,0,1,.88-.25,9.24,9.24,0,0,1,2.47-.09,12.27,12.27,0,0,1,7.31,3.46,13.05,13.05,0,0,1,2.7,3.61,8.8,8.8,0,0,1,.91,3.58,9.26,9.26,0,0,1-.25,2.47,2.89,2.89,0,0,1-.31.85,19,19,0,0,0,.2-3.3,8.86,8.86,0,0,0-1-3.38,13.17,13.17,0,0,0-2.63-3.46,12.7,12.7,0,0,0-7-3.47A19.66,19.66,0,0,0,316.06,348.21Z" style="fill:#263238"></path><rect x="214.22" y="348.21" width="115.82" height="22.41" rx="10.33" style="fill:#455a64"></rect><rect x="343.12" y="240.98" width="17.79" height="139.28" rx="8.2" transform="translate(230.18 -142.76) rotate(33.53)" style="fill:#455a64"></rect><path d="M261.86,325c.2,0,7,6.65,8.6,11.15s3.69,15.49,4.65,19.67c1.33,5.73,3.45,11.25,11.28,11.61l29.65.12a5.36,5.36,0,0,0,4.52-2.45L346.51,325H338.4l-22.65,33.74H290.07a5.79,5.79,0,0,1-4.63-2.2,4.24,4.24,0,0,1-.78-1.56c-.58-2.32-2.61-14.34-5.07-19.56A96.23,96.23,0,0,0,273.65,325Z" style="fill:#263238"></path><path d="M288.89,363.15a1.83,1.83,0,1,1-1.82-1.82A1.82,1.82,0,0,1,288.89,363.15Z" style="fill:#455a64"></path><path d="M317.57,363.15a1.83,1.83,0,1,1-1.82-1.82A1.83,1.83,0,0,1,317.57,363.15Z" style="fill:#455a64"></path><rect x="252.61" y="319.52" width="101.74" height="5.51" rx="2.54" style="fill:#263238"></rect><path d="M294.88,319.52l-.26,0-.74,0-2.9.06-10.84.13c-4.63,0-10.2.09-16.49.07l-4.86,0c-1.64,0-3.44-.33-4.87.52a1.85,1.85,0,0,0-.9,2,2.48,2.48,0,0,0,1.59,1.75,12.44,12.44,0,0,0,5.33.71H279.6l50.71.08,15.37.08,4.18.05,1.08,0a1.7,1.7,0,0,1,.37,0l-.37,0-1.08,0-4.18.05-15.37.08-50.71.08H260a12.5,12.5,0,0,1-5.57-.76,2.94,2.94,0,0,1-1.86-2.1c0-.24-.06-.47-.05-.73a2.42,2.42,0,0,1,.2-.71,2.55,2.55,0,0,1,1-1.06,5.27,5.27,0,0,1,2.6-.64c.88,0,1.7.06,2.53.07l4.85.07,16.49,0H291l2.9,0h.74Z" style="fill:#455a64"></path><path d="M273.85,350a4.91,4.91,0,0,1-.34-1.05c-.21-.79-.46-1.76-.75-2.9a87.07,87.07,0,0,0-2.76-9.48,34.06,34.06,0,0,0-2.3-4.88,28.35,28.35,0,0,0-2.57-3.58c-1.65-1.91-2.87-2.9-2.8-3a5.63,5.63,0,0,1,.89.66,18.35,18.35,0,0,1,2.18,2.08,24,24,0,0,1,2.71,3.57,31.2,31.2,0,0,1,2.38,4.95,66.72,66.72,0,0,1,2.63,9.57c.26,1.24.46,2.25.59,2.95A4.43,4.43,0,0,1,273.85,350Z" style="fill:#455a64"></path><rect x="270.87" y="370.62" width="6.45" height="81.29" style="fill:#263238"></rect><polygon points="276.01 438.88 343.04 452.07 343.04 459.07 276.01 448.98 276.01 438.88" style="fill:#263238"></polygon><circle cx="337.1" cy="464.12" r="5.94" style="fill:#263238"></circle><polygon points="274.28 438.88 220.05 452.12 220.05 459.12 274.28 448.34 274.28 438.88" style="fill:#263238"></polygon><circle cx="225.99" cy="464.12" r="5.94" style="fill:#263238"></circle><circle cx="274.11" cy="464.12" r="5.94" style="fill:#263238"></circle><polygon points="280.87 458.18 267.42 458.18 267.55 407.33 281.01 407.33 280.87 458.18" style="fill:#263238"></polygon><path d="M280.51,407.44a39.72,39.72,0,0,1-6.37.26,39.64,39.64,0,0,1-6.36-.26,39.64,39.64,0,0,1,6.36-.26A39.72,39.72,0,0,1,280.51,407.44Z" style="fill:#455a64"></path><path d="M280.09,449.57a39.72,39.72,0,0,1-6.37.26,39.72,39.72,0,0,1-6.37-.26,39.72,39.72,0,0,1,6.37-.26A39.72,39.72,0,0,1,280.09,449.57Z" style="fill:#455a64"></path></g><g id="freepik--Table--inject-117"><rect x="48.05" y="289.53" width="318.56" height="13.93" style="fill:#455a64"></rect><path d="M115.53,289.73s0,.06-.1.15-.18.24-.33.42a6.57,6.57,0,0,1-1.6,1.28,9.11,9.11,0,0,1-3.08,1,21.69,21.69,0,0,1-4.29.18,40.79,40.79,0,0,1-5.17-.59,45.7,45.7,0,0,0-5.89-.7,36.38,36.38,0,0,0-13.24,2.57C77.28,295.7,73,297.55,69,298.67a35.73,35.73,0,0,1-5.86,1.17,25.13,25.13,0,0,1-5.21,0,17.7,17.7,0,0,1-7.14-2.29,11,11,0,0,1-2.21-1.65s.06,0,.16.1l.42.31a14.73,14.73,0,0,0,1.71,1.11,18,18,0,0,0,7.09,2.14,24.73,24.73,0,0,0,5.15,0,35.56,35.56,0,0,0,5.8-1.18c4-1.14,8.25-3,12.82-4.62a36.27,36.27,0,0,1,13.39-2.56,45.34,45.34,0,0,1,5.92.74,43.22,43.22,0,0,0,5.13.64,22.14,22.14,0,0,0,4.24-.13,9.16,9.16,0,0,0,3-.95A7.93,7.93,0,0,0,115.53,289.73Z" style="fill:#263238"></path><path d="M80.68,289.94a6,6,0,0,1-1,.83,21.37,21.37,0,0,1-2.91,1.87,25.39,25.39,0,0,1-4.75,1.93,25.73,25.73,0,0,1-6.21,1,23.63,23.63,0,0,1-11.1-2.29,6.93,6.93,0,0,1-2.68-2.19,3.82,3.82,0,0,1-.44-.84c-.07-.2-.1-.31-.08-.32a8.43,8.43,0,0,0,.64,1.07,7.21,7.21,0,0,0,2.68,2,24.51,24.51,0,0,0,11,2.15,25.84,25.84,0,0,0,10.85-2.76,27.34,27.34,0,0,0,2.94-1.75A8.65,8.65,0,0,1,80.68,289.94Z" style="fill:#263238"></path><path d="M155.43,298.77a5.16,5.16,0,0,1,.5.18,8.77,8.77,0,0,0,7-.48l0,.18A13.28,13.28,0,0,0,156,296a13.47,13.47,0,0,0-9,2.34,1.45,1.45,0,0,0-.7.9,1,1,0,0,0,.6.9,4.15,4.15,0,0,0,1.24.44l1.35.3c1.83.41,3.71.81,5.66,1.1a34,34,0,0,0,6,.41,23.08,23.08,0,0,0,3.09-.3c.51-.09,1-.19,1.54-.32a7.53,7.53,0,0,0,1.48-.48,4.89,4.89,0,0,0,1.93-1.4,2.17,2.17,0,0,0,.37-2.14,3.62,3.62,0,0,0-1.51-1.69,11.54,11.54,0,0,0-2.12-1,28.74,28.74,0,0,0-8.84-1.84A36.83,36.83,0,0,0,142,295.48a37.55,37.55,0,0,0-9.09,5c-1,.75-1.72,1.34-2.2,1.78l-.56.48c-.12.11-.19.16-.2.15l.18-.18.53-.51c.46-.45,1.2-1.07,2.16-1.84a36.22,36.22,0,0,1,9.09-5.11,36.66,36.66,0,0,1,15.22-2.44,29.11,29.11,0,0,1,9,1.84,12.56,12.56,0,0,1,2.18,1.07,4,4,0,0,1,1.67,1.88,2.56,2.56,0,0,1-.43,2.51,5.22,5.22,0,0,1-2.08,1.52,8,8,0,0,1-1.55.5c-.52.14-1,.24-1.57.33a23.66,23.66,0,0,1-3.14.3,33.76,33.76,0,0,1-6.08-.43c-2-.29-3.85-.7-5.68-1.11l-1.35-.31a4.78,4.78,0,0,1-1.34-.48,1.74,1.74,0,0,1-.56-.49,1.11,1.11,0,0,1-.2-.75,1.75,1.75,0,0,1,.84-1.15,13.69,13.69,0,0,1,9.22-2.34,13.42,13.42,0,0,1,7,2.81l.13.1-.15.08a8.64,8.64,0,0,1-5.69.79A6.28,6.28,0,0,1,155.43,298.77Z" style="fill:#263238"></path><path d="M196.42,290.09a2,2,0,0,1,.32.71,5.35,5.35,0,0,1,.21,2.09,10.38,10.38,0,0,1-3.1,6.08,15.81,15.81,0,0,1-2.9,2.46,13.42,13.42,0,0,1-2.8,1.36,13,13,0,0,1-2,.5,3.27,3.27,0,0,1-.76.07c0-.07,1.07-.22,2.7-.84a13.87,13.87,0,0,0,2.69-1.39,16.33,16.33,0,0,0,2.81-2.43,10.52,10.52,0,0,0,3.11-5.84A7.29,7.29,0,0,0,196.42,290.09Z" style="fill:#263238"></path><path d="M253.63,302.72s-.45-.58-1.46-1.42a10.37,10.37,0,0,0-5-2.24,11.09,11.09,0,0,0-3.79.1,15.83,15.83,0,0,1-4.44.41,8.84,8.84,0,0,1-4.43-2.17,15,15,0,0,0-4.45-2.63,16.3,16.3,0,0,0-9.88-.16,23.41,23.41,0,0,0-7.3,3.7,40.4,40.4,0,0,0-4.24,3.62L207.57,303a3.42,3.42,0,0,1-.39.36,2.56,2.56,0,0,1,.33-.42c.23-.26.57-.64,1-1.12a35.71,35.71,0,0,1,4.18-3.73,23.37,23.37,0,0,1,7.37-3.83,16.5,16.5,0,0,1,10.11.14,15.07,15.07,0,0,1,4.55,2.7,8.6,8.6,0,0,0,4.24,2.11,15.93,15.93,0,0,0,4.35-.37,11.35,11.35,0,0,1,3.89-.06,10.2,10.2,0,0,1,5,2.41A7,7,0,0,1,253.63,302.72Z" style="fill:#263238"></path><path d="M304.7,289.66a3.54,3.54,0,0,1-.35.48c-.24.29-.57.76-1.08,1.29a29.67,29.67,0,0,1-4.65,4.13,37,37,0,0,1-8.07,4.47,31.77,31.77,0,0,1-5.21,1.66,26.79,26.79,0,0,1-5.82.75,28.68,28.68,0,0,1-11-2.29,36.86,36.86,0,0,1-8-4.56,31.53,31.53,0,0,1-4.61-4.16,15.85,15.85,0,0,1-1.09-1.3,3.2,3.2,0,0,1-.35-.47,3.7,3.7,0,0,1,.41.42c.26.28.61.73,1.14,1.24a33.63,33.63,0,0,0,4.67,4.05,37.05,37.05,0,0,0,8,4.44,28.63,28.63,0,0,0,10.9,2.24,26.92,26.92,0,0,0,5.74-.73,33.73,33.73,0,0,0,5.15-1.62,38.12,38.12,0,0,0,8-4.36,32,32,0,0,0,4.7-4c.53-.51.88-1,1.14-1.24A3.43,3.43,0,0,1,304.7,289.66Z" style="fill:#263238"></path><path d="M297.41,289.53a2.14,2.14,0,0,1-.28.22c-.18.13-.45.33-.82.56a33.06,33.06,0,0,1-3.19,1.8,34.06,34.06,0,0,1-5,2.05,22.14,22.14,0,0,1-6.58,1.13,27.14,27.14,0,0,1-11.68-3,26.27,26.27,0,0,1-3.16-1.86c-.36-.24-.62-.45-.81-.59s-.27-.22-.26-.23a10,10,0,0,1,1.15.69,32.22,32.22,0,0,0,3.2,1.74,28.16,28.16,0,0,0,11.56,2.81,23,23,0,0,0,6.47-1.08,36.05,36.05,0,0,0,5-2c1.39-.66,2.48-1.25,3.23-1.69A9.76,9.76,0,0,1,297.41,289.53Z" style="fill:#263238"></path><path d="M353.12,291a2.84,2.84,0,0,1-.64,0l-1.79-.07-1.3-.06h-1.54c-1.11,0-2.37,0-3.76,0l-2.19.07-2.35.16c-1.64.08-3.35.31-5.17.48-3.6.46-7.5,1.1-11.47,2a108.19,108.19,0,0,0-10.75,3.07c-1.54.58-3.06,1.09-4.36,1.67l-1.93.8-1.7.8c-1.11.49-2,1-2.84,1.43l-1.15.6-.9.54-1.27.75a2.84,2.84,0,0,1-.48.24s.11-.11.37-.3l1.19-.79.86-.57,1.12-.63c.8-.45,1.7-1,2.79-1.48l1.69-.83,1.92-.83c1.3-.59,2.82-1.12,4.37-1.71a106.83,106.83,0,0,1,10.82-3.13c4-.9,8-1.53,11.6-2,1.84-.17,3.57-.38,5.22-.45l2.38-.14,2.21-.05c1.4,0,2.67,0,3.79,0l1.55,0,1.3.09,1.79.14A3.77,3.77,0,0,1,353.12,291Z" style="fill:#263238"></path><path d="M259.35,302.44a14.54,14.54,0,0,0-1.75-2.08,16.3,16.3,0,0,0-6.42-3.59,34.2,34.2,0,0,0-5-1.1c-1.83-.29-3.79-.52-5.86-.88A48.85,48.85,0,0,1,234,293.2a42,42,0,0,0-6.78-1.64A28.21,28.21,0,0,0,214,293.39a48,48,0,0,0-5.38,2.41c-1.65.85-3.16,1.68-4.53,2.45-2.74,1.55-4.92,2.88-6.43,3.79l-1.73,1.06-.45.28-.16.08s0,0,.14-.12l.43-.3c.38-.27.95-.65,1.69-1.13,1.48-1,3.65-2.31,6.37-3.9,1.37-.79,2.88-1.64,4.52-2.5a49.38,49.38,0,0,1,5.4-2.46,28.35,28.35,0,0,1,13.4-1.88,41.44,41.44,0,0,1,6.84,1.66,50.58,50.58,0,0,0,6.32,1.61c2,.36,4,.6,5.84.91a34.09,34.09,0,0,1,5,1.16,16,16,0,0,1,6.45,3.74A8.06,8.06,0,0,1,259.35,302.44Z" style="fill:#263238"></path><path d="M187.6,289.73a3,3,0,0,1,0,.89,9.68,9.68,0,0,1-.62,2.35,13.49,13.49,0,0,1-4.89,6.27,33,33,0,0,1-7.26,3.34c-1,.32-1.77.55-2.32.7a4.33,4.33,0,0,1-.87.18,3.78,3.78,0,0,1,.83-.33l2.27-.81a37.54,37.54,0,0,0,7.13-3.41,14,14,0,0,0,4.85-6A18.07,18.07,0,0,0,187.6,289.73Z" style="fill:#263238"></path><path d="M113.65,303.46a5.45,5.45,0,0,1,.77-.75c.52-.46,1.29-1.1,2.27-1.85a64.51,64.51,0,0,1,8.13-5.24c3.31-1.82,6.4-3.27,8.64-4.31,1.13-.51,2-.92,2.68-1.19a6.62,6.62,0,0,1,1-.39,5.27,5.27,0,0,1-.94.53l-2.62,1.31c-2.21,1.09-5.28,2.58-8.57,4.39a79.75,79.75,0,0,0-8.15,5.12c-1,.72-1.8,1.32-2.34,1.75A5.82,5.82,0,0,1,113.65,303.46Z" style="fill:#263238"></path><path d="M128.66,290.3c0,.05-.74-.09-2.06,0a14.53,14.53,0,0,0-5.31,1.61,48.52,48.52,0,0,0-6.91,4.64,35.74,35.74,0,0,1-4.15,2.69,23,23,0,0,1-5,1.91,45.75,45.75,0,0,1-10.17,1.23c-3.15.09-6,0-8.35.12a42.47,42.47,0,0,0-5.59.55c-.65.12-1.15.22-1.49.3a2.92,2.92,0,0,1-.53.1,2,2,0,0,1,.51-.18c.33-.1.83-.22,1.49-.37a36.25,36.25,0,0,1,5.6-.67c2.38-.14,5.21-.1,8.35-.21a47.33,47.33,0,0,0,10.09-1.24,23.49,23.49,0,0,0,4.89-1.88,34.25,34.25,0,0,0,4.12-2.65,47,47,0,0,1,7-4.58,13.93,13.93,0,0,1,5.42-1.52,8.57,8.57,0,0,1,1.54,0Z" style="fill:#263238"></path><polygon points="77.36 470.41 72.83 470.41 70.25 302.38 79.93 302.38 77.36 470.41" style="fill:#455a64"></polygon><polygon points="369.2 470.06 364.68 470.06 366.94 302.86 376.62 302.86 369.2 470.06" style="fill:#263238"></polygon><rect x="351.42" y="289.52" width="40.39" height="13.93" style="fill:#263238"></rect></g><g id="freepik--Plants--inject-117"><g id="freepik--plants--inject-117"><polygon points="100.72 265.64 104.38 289.69 125.64 289.69 130.57 265.99 100.72 265.64" style="fill:#FFAB00"></polygon><path d="M127.6,281.05c0,.07-5.45.13-12.17.13s-12.16-.06-12.16-.13,5.44-.12,12.16-.12S127.6,281,127.6,281.05Z" style="fill:#fafafa"></path><path d="M127.68,279.87c0,.07-5.48.13-12.25.13s-12.25-.06-12.25-.13,5.49-.12,12.25-.12S127.68,279.8,127.68,279.87Z" style="fill:#fafafa"></path><path d="M127.64,278.53c0,.07-5.48.13-12.25.13s-12.25-.06-12.25-.13,5.49-.12,12.25-.12S127.64,278.47,127.64,278.53Z" style="fill:#fafafa"></path><path d="M106.82,288.32a19.12,19.12,0,0,1-.65-3,19.58,19.58,0,0,1-.41-3.07,18.8,18.8,0,0,1,.65,3A18.25,18.25,0,0,1,106.82,288.32Z" style="fill:#fafafa"></path><path d="M108.27,288.06a24.61,24.61,0,0,1-.27-2.95,23.7,23.7,0,0,1-.14-3,14,14,0,0,1,.39,2.95A15.36,15.36,0,0,1,108.27,288.06Z" style="fill:#fafafa"></path><path d="M110.9,288.06a15.84,15.84,0,0,1-.55-3,14.4,14.4,0,0,1-.16-3.07,26.81,26.81,0,0,1,.41,3A27.56,27.56,0,0,1,110.9,288.06Z" style="fill:#fafafa"></path><path d="M112.75,288.19a25.16,25.16,0,0,1-.2-6.17,79.25,79.25,0,0,1,.2,6.17Z" style="fill:#fafafa"></path><path d="M116,288.06a35.72,35.72,0,0,1-.2-5.85,35.72,35.72,0,0,1,.2,5.85Z" style="fill:#fafafa"></path><path d="M118.42,288.19a18.69,18.69,0,0,1-.1-3,19.07,19.07,0,0,1,.15-3,18.69,18.69,0,0,1,.1,3A17.74,17.74,0,0,1,118.42,288.19Z" style="fill:#fafafa"></path><path d="M120.67,287.87a19.66,19.66,0,0,1,.18-3.16,20.34,20.34,0,0,1,.43-3.14,22,22,0,0,1-.19,3.16A21.16,21.16,0,0,1,120.67,287.87Z" style="fill:#fafafa"></path><path d="M123.56,287.55a10.5,10.5,0,0,1,.36-2.68,10.09,10.09,0,0,1,.79-2.6c.06,0-.24,1.2-.55,2.65A24.9,24.9,0,0,1,123.56,287.55Z" style="fill:#fafafa"></path><path d="M98.28,260.88v4.5a1.77,1.77,0,0,0,1.77,1.77h30.79a1.77,1.77,0,0,0,1.77-1.77v-4.5Z" style="fill:#FFAB00"></path><g style="opacity:0.4"><polygon points="100.95 267.15 101.2 268.58 129.61 270.61 130.33 267.15 100.95 267.15"></polygon></g><path d="M109.45,260.86c-4.53-2.62-7-8.72-7.13-13.71s1.9-10.21,6-13.07A13.69,13.69,0,0,1,123.2,234,15.48,15.48,0,0,1,130,247.41a17.84,17.84,0,0,1-7.3,13.4" style="fill:#455a64"></path><path d="M116.67,261.35a5.93,5.93,0,0,1-.09-1.15c0-.81,0-1.86-.09-3.11-.06-2.63-.17-6.26-.34-10.27s-.39-7.64-.56-10.26c-.07-1.25-.14-2.3-.18-3.11a6,6,0,0,1,0-1.15,6.07,6.07,0,0,1,.18,1.13c.09.74.2,1.79.32,3.11.24,2.62.5,6.25.68,10.26s.23,7.65.22,10.29c0,1.31,0,2.38,0,3.11A6.65,6.65,0,0,1,116.67,261.35Z" style="fill:#263238"></path><path d="M103.66,246a3.32,3.32,0,0,1-1.61.08c-.88-.08-1.59-.23-1.58-.35a3.32,3.32,0,0,1,1.61-.08C103,245.75,103.67,245.9,103.66,246Z" style="fill:#263238"></path><path d="M103.91,241.54c0,.1-.67-.07-1.39-.39s-1.27-.66-1.22-.77.67.06,1.39.38S104,241.43,103.91,241.54Z" style="fill:#263238"></path><path d="M106.21,238.21c-.06.1-.76-.23-1.48-.84s-1.19-1.22-1.1-1.3.66.39,1.37,1S106.28,238.11,106.21,238.21Z" style="fill:#263238"></path><path d="M108.53,235.07c-.11.05-.44-.48-.75-1.17s-.47-1.29-.36-1.34.44.48.75,1.17S108.64,235,108.53,235.07Z" style="fill:#263238"></path><path d="M112.17,232.84c-.11,0-.47-.5-.71-1.28s-.26-1.43-.14-1.45.32.58.55,1.33S112.28,232.8,112.17,232.84Z" style="fill:#263238"></path><path d="M118.24,230.34c.11,0,0,.51-.15,1.06s-.44,1-.55.92-.05-.51.15-1.06S118.13,230.3,118.24,230.34Z" style="fill:#263238"></path><path d="M122.74,232.27c.08.08-.21.48-.64.88s-.86.66-.94.58.21-.49.65-.89S122.66,232.18,122.74,232.27Z" style="fill:#263238"></path><path d="M126.71,234.83c.06.09-.29.45-.79.79s-1,.53-1,.43.29-.45.79-.79S126.64,234.73,126.71,234.83Z" style="fill:#263238"></path><path d="M129.52,238.64c0,.11-.51.45-1.24.76s-1.36.48-1.41.37.51-.45,1.24-.76S129.47,238.54,129.52,238.64Z" style="fill:#263238"></path><path d="M130.63,242.81c0,.11-.55.28-1.26.37s-1.3.06-1.32-.06.55-.28,1.26-.37S130.61,242.69,130.63,242.81Z" style="fill:#263238"></path><path d="M131.2,247.93c0,.11-.64-.05-1.34-.35s-1.22-.64-1.17-.75.64.06,1.34.36S131.25,247.82,131.2,247.93Z" style="fill:#263238"></path><path d="M130.7,252.33a2.67,2.67,0,0,1-1.6-.6c-.79-.52-1.26-1.14-1.18-1.22s.66.38,1.42.86S130.74,252.21,130.7,252.33Z" style="fill:#263238"></path><path d="M128.41,256.33c-.07.09-.68-.27-1.26-.89s-.89-1.26-.8-1.32.55.43,1.11,1S128.48,256.24,128.41,256.33Z" style="fill:#263238"></path><path d="M106.67,256.8c0,.1-.58.54-1.42,1a3.76,3.76,0,0,1-1.62.6c0-.1.59-.54,1.42-1S106.62,256.69,106.67,256.8Z" style="fill:#263238"></path><path d="M104.69,253.18c0,.1-.47.44-1.14.75s-1.27.47-1.32.36.46-.44,1.14-.75S104.64,253.07,104.69,253.18Z" style="fill:#263238"></path><path d="M103.23,250c0,.12-.62.3-1.41.41s-1.44.11-1.46,0,.61-.3,1.4-.41S103.21,249.86,103.23,250Z" style="fill:#263238"></path><path d="M108,248.2c0,.11-.57.4-1.39.49s-1.48-.05-1.47-.16.65-.17,1.42-.26S108,248.09,108,248.2Z" style="fill:#263238"></path><path d="M112,244.25c0,.11-.45.35-1.11.42s-1.18-.08-1.17-.2.52-.16,1.13-.23S112,244.13,112,244.25Z" style="fill:#263238"></path><path d="M112.75,241.08c0,.11-.57,0-1.18-.19s-1.08-.47-1-.58.57,0,1.18.18S112.79,241,112.75,241.08Z" style="fill:#263238"></path><path d="M114.21,237.87c-.08.08-.45-.16-.7-.61s-.29-.88-.18-.91.31.3.54.7S114.29,237.79,114.21,237.87Z" style="fill:#263238"></path><path d="M112.45,251c0,.11-.43.32-1,.46a3.58,3.58,0,0,1-.86.13l-.08-.25c.15,0,.25,0,.27,0s0,.12-.17.21l-.08-.24a4,4,0,0,1,.82-.29C111.92,250.91,112.42,250.88,112.45,251Z" style="fill:#263238"></path><path d="M113.27,256.62c0,.11-.54.44-1.3.73s-1.41.46-1.46.35.54-.44,1.3-.74S113.23,256.51,113.27,256.62Z" style="fill:#263238"></path><path d="M108.78,254.12c0,.11-.35.34-.87.52s-1,.23-1,.12.35-.35.86-.52S108.74,254,108.78,254.12Z" style="fill:#263238"></path><path d="M109.12,242.68c0,.11-.7,0-1.48-.23s-1.35-.65-1.3-.76.68.09,1.44.36S109.15,242.56,109.12,242.68Z" style="fill:#263238"></path><path d="M120,241.44c.07.09-.31.46-.85.81s-1,.56-1.08.46.31-.46.85-.81S119.93,241.34,120,241.44Z" style="fill:#263238"></path><path d="M120.58,247.08c0,.11-.37.29-.89.4s-1,.1-1,0,.38-.3.89-.4S120.56,247,120.58,247.08Z" style="fill:#263238"></path><path d="M121.27,253.43c0,.1-.63-.06-1.29-.37s-1.15-.64-1.11-.74.63.05,1.29.36S121.32,253.32,121.27,253.43Z" style="fill:#263238"></path><path d="M119.82,259.6c-.09.08-.47-.23-.84-.68s-.6-.88-.51-.95.47.23.84.68S119.91,259.53,119.82,259.6Z" style="fill:#263238"></path><path d="M119.52,237.28c.07.09-.18.4-.6.61s-.82.23-.85.12.28-.3.66-.49S119.45,237.19,119.52,237.28Z" style="fill:#263238"></path><path d="M124.85,243c0,.11-.46.38-1.13.47s-1.22,0-1.22-.14.53-.19,1.16-.28S124.81,242.86,124.85,243Z" style="fill:#263238"></path><path d="M123.79,237.86c0,.11-.44.46-1.14.68s-1.3.22-1.31.11.52-.3,1.18-.52S123.73,237.76,123.79,237.86Z" style="fill:#263238"></path><path d="M126,250.89a3.24,3.24,0,0,1-1.85,0,3.2,3.2,0,0,1-1.73-.65,5.91,5.91,0,0,1,1.81.23A5.67,5.67,0,0,1,126,250.89Z" style="fill:#263238"></path><path d="M124,258.31c-.07.09-.69-.27-1.3-.89s-1-1.24-.89-1.31.59.41,1.19,1S124.1,258.22,124,258.31Z" style="fill:#263238"></path><path d="M115.32,231.82a19.14,19.14,0,0,0-3.71,2.94A18.09,18.09,0,0,0,107,245a22.6,22.6,0,0,0,.28,6.27,48.19,48.19,0,0,0,1.17,5c.41,1.42.78,2.55,1,3.34a7.08,7.08,0,0,1,.36,1.23,7.56,7.56,0,0,1-.51-1.17c-.3-.78-.72-1.9-1.16-3.31a41.92,41.92,0,0,1-1.28-5,23,23,0,0,1-.31-6.39,17.82,17.82,0,0,1,4.83-10.39,13.09,13.09,0,0,1,2.78-2.16,7.57,7.57,0,0,1,.84-.45A1.31,1.31,0,0,1,115.32,231.82Z" style="fill:#263238"></path><path d="M121.11,261.14c-.1-.05,1-1.66,1.9-4.56a25.8,25.8,0,0,0,1.14-11.7,22.05,22.05,0,0,0-1.81-6.25,14.6,14.6,0,0,0-3.07-4.28,11.09,11.09,0,0,0-3-1.91c-.78-.33-1.25-.4-1.25-.44a1.52,1.52,0,0,1,.35,0,5.7,5.7,0,0,1,1,.26,10.33,10.33,0,0,1,3.15,1.83,14.52,14.52,0,0,1,3.24,4.35,21.72,21.72,0,0,1,1.87,6.35,24.75,24.75,0,0,1-1.28,11.86c-.24.73-.54,1.36-.77,1.93s-.5,1-.71,1.4A9.76,9.76,0,0,1,121.11,261.14Z" style="fill:#263238"></path><path d="M393.66,403.88c-7.46,2.61-17.18.28-23.56-4.38s-11-11.32-15-18.09c-1.73-2.89-3.43-5.9-4-9.22s.26-7.07,2.83-9.24c4-3.37,10.15-1.66,14.7.93a50.69,50.69,0,0,1,25,40" style="fill:#FFAB00"></path><path d="M385.65,421.72c-4.47,5.91-12.16,8.54-19.56,8.88s-14.72-1.7-21.64-4.36c-2.51-1-5.26-2.28-6.12-4.83a6.16,6.16,0,0,1,1.31-5.7,12.91,12.91,0,0,1,5-3.4,34.12,34.12,0,0,1,21.78-1.18c7.16,1.86,13.42,6,19.23,10.59" style="fill:#FFAB00"></path><path d="M393.77,372c-6.17.13-10.84-5.28-13.64-10.78a39.93,39.93,0,0,1-3.67-24.93c.56-3.15,1.75-6.55,4.58-8.06s6.59-.53,9,1.66,3.72,5.33,4.68,8.44c3.31,10.72,2.6,23-1,33.67" style="fill:#FFAB00"></path><path d="M414,406.08c-10.52-17.91-12.27-39.81-6.06-59.63,1-3.21,2.91-6.89,6.27-7.1,3.73-.24,6.06,3.91,7.09,7.5,3.61,12.58,2.84,25.95,2,39-.49,8.05-3.25,14.93-9.34,20.22" style="fill:#FFAB00"></path><path d="M425,413.44a43,43,0,0,1,25.53-27.07c2.79-1.05,6.34-1.65,8.43.49s1.41,5.6.1,8.22c-2.12,4.23-5.56,7.62-9,10.88-3.12,3-6.36,6-10.3,7.67s-11.18,2.16-14.78-.19" style="fill:#FFAB00"></path><path d="M359.75,367.45l.18.16.57.44,2.21,1.65,1.6,1.18c.57.44,1.17,1,1.83,1.49,1.3,1.09,2.84,2.26,4.39,3.73l2.48,2.26c.86.79,1.68,1.67,2.58,2.56,1.81,1.74,3.56,3.77,5.45,5.87a116.28,116.28,0,0,1,19.22,31.1c1,2.63,2.07,5.11,2.82,7.51.39,1.19.82,2.33,1.14,3.45s.61,2.19.9,3.22c.63,2,1,3.95,1.38,5.6.18.82.37,1.59.52,2.3s.23,1.37.34,2c.2,1.15.37,2.05.49,2.71,0,.29.1.52.13.7a1,1,0,0,0,.07.24,1.08,1.08,0,0,0,0-.24c0-.19-.06-.42-.1-.71-.09-.67-.23-1.58-.39-2.73l-.3-2c-.13-.72-.31-1.49-.48-2.32-.37-1.66-.7-3.57-1.31-5.63-.28-1-.57-2.12-.88-3.24s-.73-2.28-1.11-3.48c-.73-2.41-1.76-4.9-2.78-7.54a125,125,0,0,0-8.38-16.4,123.16,123.16,0,0,0-10.93-14.83c-1.9-2.1-3.67-4.13-5.5-5.86-.9-.88-1.74-1.77-2.61-2.55l-2.51-2.24c-1.57-1.46-3.13-2.62-4.45-3.69-.67-.52-1.28-1-1.86-1.46l-1.63-1.15L360.56,368l-.6-.4Q359.77,367.44,359.75,367.45Z" style="fill:#263238"></path><path d="M345.82,417.07a3.27,3.27,0,0,0,.72-.12c.47-.08,1.16-.26,2-.41a57.44,57.44,0,0,1,7.62-.93,55.59,55.59,0,0,1,45.12,18.77,58.51,58.51,0,0,1,4.71,6.06c.52.74.88,1.36,1.15,1.75a5.59,5.59,0,0,0,.42.6,3.06,3.06,0,0,0-.34-.65c-.24-.41-.57-1-1.07-1.8a51.72,51.72,0,0,0-4.6-6.19,54.7,54.7,0,0,0-45.41-18.89,50.34,50.34,0,0,0-7.64,1.09c-.89.18-1.57.39-2,.51A5.09,5.09,0,0,0,345.82,417.07Z" style="fill:#263238"></path><path d="M384.67,335.32a1.35,1.35,0,0,0,0,.28c.05.21.1.47.17.81.17.73.4,1.77.69,3.08.61,2.67,1.53,6.53,2.69,11.3,2.32,9.53,5.69,22.65,9.2,37.19,1.74,7.28,3.32,14.23,4.68,20.57s2.47,12.07,3.32,16.9c.45,2.4.79,4.6,1.12,6.52s.58,3.57.78,4.93.37,2.37.49,3.12c0,.33.1.6.14.81a1,1,0,0,0,.06.27,1.47,1.47,0,0,0,0-.28c0-.21-.06-.48-.09-.82-.1-.75-.23-1.8-.4-3.13s-.39-3-.7-4.95-.61-4.12-1.05-6.53c-.8-4.84-1.9-10.58-3.21-16.93s-2.91-13.31-4.65-20.59c-3.51-14.55-6.93-27.66-9.34-37.17-1.19-4.73-2.16-8.56-2.84-11.26-.33-1.3-.6-2.32-.78-3.06-.09-.32-.16-.59-.22-.79A1.1,1.1,0,0,0,384.67,335.32Z" style="fill:#263238"></path><path d="M408.83,439.66a.66.66,0,0,0,.06-.22l.15-.64c.13-.61.3-1.44.52-2.49.44-2.17,1-5.31,1.71-9.21,1.35-7.79,3-18.61,3.93-30.64.48-6,.74-11.76.86-17s0-9.94-.12-13.89c-.05-2-.18-3.76-.27-5.33s-.19-2.92-.29-4-.18-1.91-.23-2.53c0-.27-.06-.48-.08-.66a.74.74,0,0,0,0-.22.72.72,0,0,0,0,.22c0,.18,0,.4,0,.67,0,.62.08,1.47.14,2.54s.15,2.45.21,4,.16,3.35.19,5.32c.11,4,.12,8.65,0,13.87s-.42,11-.89,17c-1,12-2.53,22.83-3.79,30.62-.63,3.9-1.16,7.06-1.55,9.23-.18,1.06-.32,1.9-.43,2.51,0,.26-.07.48-.1.66A.53.53,0,0,0,408.83,439.66Z" style="fill:#263238"></path><path d="M408.05,441.94a3.33,3.33,0,0,0,.27-.62l.7-1.8.49-1.31c.21-.46.43-1,.68-1.51s.49-1.12.77-1.74.62-1.24,1-1.9L413,431l1.28-2.2c.84-1.55,1.93-3.08,3-4.75a114.77,114.77,0,0,1,7.92-10.13,123.86,123.86,0,0,1,9.1-9.1c1.51-1.27,2.89-2.55,4.29-3.62l2-1.58,1.89-1.4c1.2-.9,2.32-1.66,3.31-2.32s1.83-1.24,2.55-1.68l1.63-1a2.88,2.88,0,0,0,.55-.39,3.39,3.39,0,0,0-.6.31l-1.68.95c-.74.41-1.61,1-2.61,1.61s-2.14,1.38-3.35,2.27l-1.92,1.37-2,1.57c-1.41,1.06-2.81,2.33-4.34,3.6a120.53,120.53,0,0,0-9.16,9.11,108.75,108.75,0,0,0-7.93,10.2c-1.05,1.69-2.13,3.24-3,4.8l-1.26,2.23-1,2.11c-.32.68-.67,1.31-.93,1.93l-.74,1.76-.64,1.54c-.16.48-.32.92-.46,1.32-.25.76-.45,1.37-.6,1.84A3.32,3.32,0,0,0,408.05,441.94Z" style="fill:#263238"></path><path d="M363.65,388.21c0,.08,1.28.08,3.33.19a59.31,59.31,0,0,1,15.68,3c1.94.65,3.13,1.11,3.16,1A3.49,3.49,0,0,0,385,392c-.52-.25-1.29-.57-2.26-.94a47.6,47.6,0,0,0-15.78-3c-1,0-1.87,0-2.45.05A3.48,3.48,0,0,0,363.65,388.21Z" style="fill:#263238"></path><path d="M355.72,427a30.25,30.25,0,0,1,4.33-6.53,29.92,29.92,0,0,1,6.19-4.8,7.44,7.44,0,0,0-2.14.94,19.26,19.26,0,0,0-4.42,3.52,18.78,18.78,0,0,0-3.18,4.67A6.85,6.85,0,0,0,355.72,427Z" style="fill:#263238"></path><path d="M382.78,349.86c-.1.1,1.84,2,4,4.63s3.61,4.87,3.74,4.8a29.61,29.61,0,0,0-7.69-9.43Z" style="fill:#263238"></path><path d="M389.13,338.88a18.92,18.92,0,0,0-.95,4.15,17.85,17.85,0,0,0-.47,4.24,18.92,18.92,0,0,0,1-4.15A17.85,17.85,0,0,0,389.13,338.88Z" style="fill:#263238"></path><path d="M408.81,373.33a53.37,53.37,0,0,0,3.08,6.48,54.38,54.38,0,0,0,3.52,6.25,50.15,50.15,0,0,0-3.08-6.48A49.23,49.23,0,0,0,408.81,373.33Z" style="fill:#263238"></path><path d="M420.53,361.63a28.76,28.76,0,0,0-2.61,4.69,29.59,29.59,0,0,0-2.17,4.91,58.57,58.57,0,0,0,4.78-9.6Z" style="fill:#263238"></path><path d="M437.74,401.62c0,.15,2.12-.26,4.73-.44s4.73-.08,4.74-.23a19.18,19.18,0,0,0-9.47.67Z" style="fill:#263238"></path><path d="M426,437l-5.86,30.8a4.32,4.32,0,0,1-4.24,3.51h-17.3a4.31,4.31,0,0,1-4.26-3.61L389.24,437Z" style="fill:#263238"></path><polygon points="424.08 446.99 391 446.99 389.24 436.98 425.99 436.98 424.08 446.99" style="fill:#455a64"></polygon><polygon points="424.08 446.99 423.39 450.64 391.5 450.64 391 446.99 424.08 446.99" style="fill:#fafafa"></polygon></g></g><g id="freepik--Clock--inject-117"><circle cx="103.62" cy="83.48" r="40.07" transform="translate(-28.68 97.72) rotate(-45)" style="fill:#FFAB00"></circle><circle cx="103.47" cy="83.27" r="37.83" transform="translate(-23.03 123.75) rotate(-56.57)" style="fill:#fafafa"></circle><path d="M65.72,80.79s0,.21,0,.62v1.8c0,.39,0,.84,0,1.32s.09,1,.14,1.59L66,88c0,.67.24,1.35.36,2.09a36.08,36.08,0,0,0,3.52,10.29,37.82,37.82,0,0,0,8.87,11.28L80.32,113c.55.41,1.13.79,1.7,1.2s1.13.84,1.76,1.17l1.89,1.07,1,.53,1,.45,2.07.91c.7.28,1.44.48,2.17.73a18.67,18.67,0,0,0,2.24.67,35.63,35.63,0,0,0,4.71.86c.8.08,1.61.21,2.44.25l2.49,0c.42,0,.84,0,1.26,0l1.26-.11c.84-.09,1.7-.13,2.55-.25a41,41,0,0,0,10.13-3c.82-.37,1.61-.83,2.43-1.24.4-.22.82-.4,1.21-.66l1.15-.75a42.23,42.23,0,0,0,4.5-3.34,43.92,43.92,0,0,0,4-4.1l.93-1.1.84-1.18.83-1.2a9.21,9.21,0,0,0,.79-1.23l1.44-2.56,1.2-2.71A40.42,40.42,0,0,0,141,85.74a40.47,40.47,0,0,0-1.16-12c-.28-1-.56-1.9-.83-2.84l-1.1-2.73a9.44,9.44,0,0,0-.62-1.33l-.67-1.29-.68-1.28-.78-1.21a43.16,43.16,0,0,0-3.39-4.59,41,41,0,0,0-4-3.9l-1-.9c-.34-.3-.74-.54-1.11-.81-.75-.51-1.48-1.07-2.24-1.55a41.27,41.27,0,0,0-4.75-2.47,39.73,39.73,0,0,0-4.91-1.8c-.83-.22-1.67-.38-2.5-.57l-1.24-.28c-.41-.08-.83-.1-1.24-.16l-2.48-.29c-.82-.07-1.64,0-2.45-.07A34.24,34.24,0,0,0,99,46a19.49,19.49,0,0,0-2.31.36c-.76.16-1.52.26-2.25.45l-2.16.63-1.07.31-1,.41-2,.8c-.67.26-1.28.64-1.9.94s-1.25.63-1.84,1l-1.71,1.1A37.61,37.61,0,0,0,72.44,62a35.68,35.68,0,0,0-4.84,9.74,19.23,19.23,0,0,0-.63,2c-.15.65-.29,1.26-.41,1.82s-.26,1.08-.35,1.56-.11.92-.16,1.31c-.1.77-.18,1.37-.24,1.79s-.09.6-.09.6,0-.2,0-.61.1-1,.18-1.79c0-.4.09-.84.14-1.32s.21-1,.32-1.57.26-1.18.4-1.83a19.92,19.92,0,0,1,.6-2,36.09,36.09,0,0,1,4.8-9.83A37.76,37.76,0,0,1,82.49,51.61l1.72-1.12c.6-.34,1.23-.65,1.85-1s1.24-.7,1.92-1l2-.82,1-.41L92.11,47l2.19-.64c.74-.2,1.51-.31,2.27-.46a18.12,18.12,0,0,1,2.34-.38,35,35,0,0,1,4.83-.25c.82,0,1.65,0,2.48.06l2.51.29c.42.05.84.08,1.26.16l1.26.27c.83.2,1.69.35,2.53.58a40.62,40.62,0,0,1,5,1.81,40.11,40.11,0,0,1,4.82,2.5c.77.48,1.51,1,2.27,1.56.37.28.78.52,1.13.82l1.06.91a42.06,42.06,0,0,1,4.08,3.94,43,43,0,0,1,3.44,4.65l.8,1.23.68,1.3.68,1.31a9.11,9.11,0,0,1,.63,1.34l1.11,2.77c.28,1,.57,1.91.85,2.88a40.55,40.55,0,0,1,1.17,12.12,40.29,40.29,0,0,1-2.75,11.87c-.4.92-.81,1.83-1.21,2.74s-1,1.74-1.47,2.6a9.13,9.13,0,0,1-.8,1.25l-.84,1.21-.85,1.2-1,1.11a43.84,43.84,0,0,1-4,4.15,42,42,0,0,1-4.56,3.38l-1.17.76c-.39.26-.82.44-1.22.66-.83.42-1.63.88-2.47,1.26a42.2,42.2,0,0,1-10.26,3c-.86.11-1.73.16-2.58.24l-1.28.11c-.43,0-.86,0-1.28,0l-2.52,0c-.83,0-1.65-.18-2.47-.26a35.09,35.09,0,0,1-4.76-.88,21.08,21.08,0,0,1-2.26-.68c-.74-.26-1.49-.46-2.2-.75l-2.08-.93-1-.46-1-.54-1.91-1.08c-.63-.34-1.19-.81-1.77-1.2s-1.16-.8-1.71-1.22l-1.56-1.33a37.78,37.78,0,0,1-8.87-11.43,35.84,35.84,0,0,1-3.47-10.38c-.11-.75-.31-1.44-.34-2.11s-.1-1.28-.14-1.86-.11-1.11-.12-1.6,0-.93,0-1.33c0-.78,0-1.38.05-1.8A5.92,5.92,0,0,1,65.72,80.79Z" style="fill:#263238"></path><path d="M103.37,51.65a10.29,10.29,0,0,1,.25,3.18,10.24,10.24,0,0,1-.25,3.18,10.82,10.82,0,0,1-.24-3.18A10.88,10.88,0,0,1,103.37,51.65Z" style="fill:#263238"></path><path d="M120.61,56.76a10.75,10.75,0,0,1-2,2.39,10.75,10.75,0,0,1-2.39,2,10,10,0,0,1,2-2.39A10,10,0,0,1,120.61,56.76Z" style="fill:#263238"></path><path d="M130.69,67.77a13.75,13.75,0,0,1-2.61,1.74A13.33,13.33,0,0,1,125.34,71a8.42,8.42,0,0,1,2.49-1.93A8.18,8.18,0,0,1,130.69,67.77Z" style="fill:#263238"></path><path d="M136.59,84.11a19.94,19.94,0,0,1-4.33.24,19.94,19.94,0,0,1-4.33-.24,18.85,18.85,0,0,1,4.33-.25A18.85,18.85,0,0,1,136.59,84.11Z" style="fill:#263238"></path><path d="M76.5,83.53a16.82,16.82,0,0,1-4.09.25,16.82,16.82,0,0,1-4.09-.25,17.8,17.8,0,0,1,4.09-.24A17.8,17.8,0,0,1,76.5,83.53Z" style="fill:#263238"></path><path d="M80.75,95.69a17.29,17.29,0,0,1-3.09,2.81,17.65,17.65,0,0,1-3.4,2.42,18.4,18.4,0,0,1,3.09-2.8A18.41,18.41,0,0,1,80.75,95.69Z" style="fill:#263238"></path><path d="M91.24,105.1a29.11,29.11,0,0,1-2.11,3.65,28.42,28.42,0,0,1-2.23,3.57,13.55,13.55,0,0,1,1.81-3.82A13.69,13.69,0,0,1,91.24,105.1Z" style="fill:#263238"></path><path d="M103.37,117.24a20,20,0,0,1-.24-4.34,19.94,19.94,0,0,1,.24-4.33,18.85,18.85,0,0,1,.25,4.33A18.9,18.9,0,0,1,103.37,117.24Z" style="fill:#263238"></path><path d="M122.05,111.46a18.75,18.75,0,0,1-6.48-5.65,40.12,40.12,0,0,1,3.23,2.83A39.15,39.15,0,0,1,122.05,111.46Z" style="fill:#263238"></path><path d="M130.82,102A14.63,14.63,0,0,1,128,99.5a15.7,15.7,0,0,1-2.53-2.87,14.63,14.63,0,0,1,2.87,2.52A15.34,15.34,0,0,1,130.82,102Z" style="fill:#263238"></path><path d="M80.36,71.88a12,12,0,0,1-2.54-2.19,11.48,11.48,0,0,1-2.18-2.53,11.38,11.38,0,0,1,2.53,2.19A11.79,11.79,0,0,1,80.36,71.88Z" style="fill:#263238"></path><path d="M91.17,60.48a11,11,0,0,1-2.48-2.13,11.48,11.48,0,0,1-2.15-2.48A11,11,0,0,1,89,58,11.17,11.17,0,0,1,91.17,60.48Z" style="fill:#263238"></path><path d="M103.47,63.36a7.39,7.39,0,0,1,.1,1.36c0,1,.05,2.21.08,3.69,0,3.12.08,7.43.08,12.19,0,.91,0,1.81,0,2.67v.42l-.37-.19c-3.68-1.86-6.92-3.53-9.23-4.74l-2.71-1.45a5.28,5.28,0,0,1-1-.58,5.12,5.12,0,0,1,1,.41l2.77,1.32c2.35,1.13,5.62,2.73,9.31,4.58l-.37.23c0-.86,0-1.76,0-2.67,0-4.76,0-9.07.08-12.19,0-1.48.06-2.72.08-3.69A6.74,6.74,0,0,1,103.47,63.36Z" style="fill:#263238"></path></g><g id="freepik--Device--inject-117"><path d="M157.66,246.39,176,286.89a6,6,0,0,0,4.9,3.06l84.48-.11h0a3.59,3.59,0,0,0-3.48-3.16l-32.06-.7L213.4,246.6a3.38,3.38,0,0,0-3.1-2.09l-51.16-.39A1.6,1.6,0,0,0,157.66,246.39Z" style="fill:#e0e0e0"></path><path d="M157.66,246.39a1.17,1.17,0,0,1-.15-.47,1.62,1.62,0,0,1,.45-1.36,1.6,1.6,0,0,1,1-.48c.41,0,.84,0,1.31,0h3.26l21.06.08,14.79.08,8.32.05,2.17,0a4.05,4.05,0,0,1,2.23.48,3.65,3.65,0,0,1,1.54,1.75l.87,2.09c4.71,11.27,10,23.81,15.56,37.26l-.22-.15,17.33.37,9,.2,4.58.1,1.16,0a3.86,3.86,0,0,1,3.11,1.77,4,4,0,0,1,.59,1.62l0,.29h-.29l-52.62,0H181.94c-.43,0-.84,0-1.28,0a5,5,0,0,1-1.28-.24,6,6,0,0,1-3.71-3.2q-1-2.19-1.92-4.27c-5-11.13-9-20.12-11.83-26.36-1.37-3.1-2.45-5.51-3.18-7.17-.36-.81-.63-1.43-.82-1.87s-.26-.64-.26-.64.11.21.31.62l.86,1.85,3.28,7.13,12,26.29,1.94,4.26a5.57,5.57,0,0,0,3.49,3,6.94,6.94,0,0,0,2.43.23h7.87l22.93-.06,52.61-.09-.26.29a3.53,3.53,0,0,0-.5-1.4,3.3,3.3,0,0,0-1.65-1.32,3.17,3.17,0,0,0-1.05-.21l-1.15,0-4.58-.11-9-.2-17.32-.38h-.17l-.06-.15c-5.59-13.45-10.81-26-15.5-37.28l-.87-2.1a3.24,3.24,0,0,0-1.35-1.55,3.69,3.69,0,0,0-2-.43l-2.17,0-8.31-.07-14.79-.15-21.06-.23-3.26-.05c-.47,0-.91,0-1.29,0a1.56,1.56,0,0,0-.93.43,1.6,1.6,0,0,0-.47,1.29A2.7,2.7,0,0,0,157.66,246.39Z" style="fill:#263238"></path><path d="M228.24,290.3a1.84,1.84,0,0,1-.24-.44c-.17-.35-.37-.79-.61-1.31l-2.15-4.85c-1.78-4.11-4.21-9.8-6.82-16.12s-4.91-12.06-6.51-16.25c-.79-2.09-1.43-3.79-1.84-5-.18-.55-.33-1-.46-1.37a1.71,1.71,0,0,1-.13-.49,1.73,1.73,0,0,1,.23.45c.15.36.33.8.56,1.33l2,4.92c1.73,4.21,4.06,9.9,6.65,16.18s4.94,12,6.67,16.18c.82,2,1.49,3.68,2,4.91l.52,1.35A1.47,1.47,0,0,1,228.24,290.3Z" style="fill:#455a64"></path><path d="M195.11,266a2.62,2.62,0,1,1-2.61-2.62A2.61,2.61,0,0,1,195.11,266Z" style="fill:#fff"></path></g><g id="freepik--speech-bubble--inject-117"><path d="M314.22,203.33l-6.71-11.83a31.76,31.76,0,1,0-7.6,8.44v0Z" style="fill:#fafafa"></path><path d="M314.22,203.33l-14.35-3.25a.11.11,0,0,1-.09-.15.08.08,0,0,1,0-.05h0l.18.18a31.68,31.68,0,0,1-15.2,6.42,28.52,28.52,0,0,1-5,.26c-.86,0-1.74-.07-2.63-.15l-2.68-.4a32,32,0,0,1-19.82-12.71,31.58,31.58,0,0,1-5.36-12.26,32.24,32.24,0,0,1,.37-14.11,31.24,31.24,0,0,1,6.8-13,31.89,31.89,0,0,1,12.22-8.73,32.36,32.36,0,0,1,14.22-2.18A31.34,31.34,0,0,1,295.94,147a32.15,32.15,0,0,1,15,18.53,34.14,34.14,0,0,1,1.38,10.31,31.47,31.47,0,0,1-4.75,15.71v-.12l6.61,11.89-6.82-11.77a.12.12,0,0,1,0-.13,31.51,31.51,0,0,0,4.6-15.59,34.23,34.23,0,0,0-1.4-10.18,31.86,31.86,0,0,0-14.89-18.23,30.9,30.9,0,0,0-12.86-3.78,31.92,31.92,0,0,0-14,2.16,31.33,31.33,0,0,0-12,8.59,30.82,30.82,0,0,0-6.69,12.83,31.85,31.85,0,0,0-.38,13.89A31.22,31.22,0,0,0,255,193.19a31.6,31.6,0,0,0,19.51,12.59l2.64.41c.88.07,1.75.1,2.6.15a28.86,28.86,0,0,0,5-.23,31.45,31.45,0,0,0,15.09-6.27.15.15,0,0,1,.19,0,.15.15,0,0,1,0,.16v0l-.08-.21Z" style="fill:#263238"></path><path d="M273.31,176.2v3h-1.54v-2.81c0-.86-.38-1.25-1-1.25s-1.17.44-1.17,1.39v2.67H268v-2.81c0-.86-.36-1.25-1-1.25s-1.16.44-1.16,1.39v2.67h-1.54v-5.32h1.47v.61a2.16,2.16,0,0,1,1.67-.69,2,2,0,0,1,1.75.87,2.42,2.42,0,0,1,1.92-.87A2.06,2.06,0,0,1,273.31,176.2Z" style="fill:#263238"></path><path d="M283.69,176.2v3h-1.54v-2.81c0-.86-.39-1.25-1-1.25s-1.18.44-1.18,1.39v2.67h-1.54v-2.81c0-.86-.37-1.25-1-1.25s-1.17.44-1.17,1.39v2.67H274.7v-5.32h1.48v.61a2.15,2.15,0,0,1,1.67-.69,2,2,0,0,1,1.75.87,2.38,2.38,0,0,1,1.91-.87A2.06,2.06,0,0,1,283.69,176.2Z" style="fill:#263238"></path><path d="M294.07,176.2v3h-1.55v-2.81c0-.86-.38-1.25-1-1.25s-1.18.44-1.18,1.39v2.67H288.8v-2.81c0-.86-.37-1.25-1-1.25s-1.17.44-1.17,1.39v2.67h-1.54v-5.32h1.47v.61a2.18,2.18,0,0,1,1.67-.69,2,2,0,0,1,1.75.87,2.42,2.42,0,0,1,1.92-.87A2.06,2.06,0,0,1,294.07,176.2Z" style="fill:#263238"></path><path d="M295.08,178.35a1,1,0,0,1,1.92,0,1,1,0,1,1-1.92,0Z" style="fill:#263238"></path><path d="M297.67,178.35a1,1,0,0,1,1.92,0,1,1,0,1,1-1.92,0Z" style="fill:#263238"></path><path d="M300.26,178.35a1,1,0,0,1,1.92,0,1,1,0,1,1-1.92,0Z" style="fill:#263238"></path></g><g id="freepik--Floor--inject-117"><path d="M471,470.41c0,.15-99.18.26-221.49.26S28,470.56,28,470.41s99.16-.26,221.51-.26S471,470.27,471,470.41Z" style="fill:#263238"></path></g></svg>
