<svg xmlns="http://www.w3.org/2000/svg" viewBox="0 0 750 500"><g id="freepik--background-complete--inject-156"><path d="M185.53,130.1l.56,1a6.76,6.76,0,0,0,2.7,2.68l1,.56-1,.55a6.76,6.76,0,0,0-2.7,2.68l-.56,1-.56-1a6.76,6.76,0,0,0-2.7-2.68l-1-.55,1-.56a6.76,6.76,0,0,0,2.7-2.68Z" style="fill:#ebebeb"></path><path d="M601.34,258.62l.56,1a6.76,6.76,0,0,0,2.7,2.68l1,.55-1,.55a6.76,6.76,0,0,0-2.7,2.68l-.56,1-.56-1a6.76,6.76,0,0,0-2.7-2.68l-1-.55,1-.55a6.76,6.76,0,0,0,2.7-2.68Z" style="fill:#ebebeb"></path><path d="M542.28,389.42l1,1.74a11.53,11.53,0,0,0,4.63,4.63l1.74,1-1.74.95a11.59,11.59,0,0,0-4.63,4.63l-1,1.74-.95-1.74a11.59,11.59,0,0,0-4.63-4.63l-1.74-.95,1.74-1a11.53,11.53,0,0,0,4.63-4.63Z" style="fill:#ebebeb"></path><path d="M279.09,416.18l.56,1a6.85,6.85,0,0,0,2.71,2.68l1,.55-1,.55a6.81,6.81,0,0,0-2.71,2.69l-.56,1-.55-1a6.81,6.81,0,0,0-2.71-2.69l-1-.55,1-.55a6.85,6.85,0,0,0,2.71-2.68Z" style="fill:#ebebeb"></path><circle cx="149.6" cy="227.2" r="42.64" style="fill:#ebebeb"></circle><circle cx="137.1" cy="240.51" r="6.96" style="fill:#f5f5f5"></circle><path d="M134.19,220.44a4,4,0,1,1-4-4.05A4,4,0,0,1,134.19,220.44Z" style="fill:#f5f5f5"></path><path d="M108.23,237.57c.19.74-36.5,35.94-27,43.44s49.24-11.74,83.15-39.13,64.9-60.66,56.42-69.46-50.86,17.26-50.86,17.26l5.06,3.23s25.63-16.44,33.73-10.06-15,31.31-47.61,55.11-64.12,40.52-69,34,18.19-28.28,18.19-28.28Z" style="fill:#f5f5f5"></path><path d="M588.79,50.92c-5.44-3.16-12.47-.36-17.35,3.6s-9,9.13-14.8,11.56c-3.7,1.55-7.93,1.91-11.2,4.22-5.33,3.76-6.27,11.33-5.35,17.79s3.19,12.87,2.4,19.35c-.59,4.74-2.81,9.5-1.61,14.13,1.69,6.48,9.15,9.57,12.78,15.21,2.61,4,3.32,9.49,7.21,12.33,4.51,3.29,10.78,1.37,16.35,1.87,6.85.62,12.71,5,19.22,7.22a31.52,31.52,0,0,0,30.72-6.41c4.13-3.76,7.18-8.58,11.24-12.41,3.48-3.29,7.7-5.85,10.55-9.69s4-8.33,5.17-12.81c1.73-6.54,3.46-13.35,2.2-20-2-10.61-11.06-18.34-15.77-28.06C638.71,65,637.36,60.7,634,58.23c-3.61-2.62-8.5-2.4-12.73-3.83-6.07-2-10.65-7.46-16.85-9a15.18,15.18,0,0,0-15.62,5.58" style="fill:#fafafa"></path><circle cx="597.68" cy="102.03" r="46.21" transform="translate(-6.36 154.59) rotate(-14.66)" style="fill:#ebebeb"></circle><path d="M584.06,109.68a7.54,7.54,0,1,1-1.28-10.58A7.53,7.53,0,0,1,584.06,109.68Z" style="fill:#f5f5f5"></path><path d="M589.07,86a4.39,4.39,0,1,1-.75-6.15A4.39,4.39,0,0,1,589.07,86Z" style="fill:#f5f5f5"></path><circle cx="605.31" cy="320.86" r="31.33" transform="translate(-49.59 522) rotate(-45)" style="fill:#f5f5f5"></circle><path d="M609.61,311.18a5.11,5.11,0,1,1,5,5.23A5.11,5.11,0,0,1,609.61,311.18Z" style="fill:#ebebeb"></path><path d="M616.51,326.1a3,3,0,1,1,2.9,3A3,3,0,0,1,616.51,326.1Z" style="fill:#ebebeb"></path><path d="M529.69,231.16l.95,1.74a11.65,11.65,0,0,0,4.63,4.63l1.74.95-1.74,1a11.65,11.65,0,0,0-4.63,4.63l-.95,1.74-1-1.74a11.65,11.65,0,0,0-4.63-4.63l-1.74-1,1.74-.95a11.65,11.65,0,0,0,4.63-4.63Z" style="fill:#ebebeb"></path></g><g id="freepik--Character--inject-156"><rect x="302.7" y="189.68" width="69.65" height="123.29" rx="23.72" transform="translate(-76.31 174.97) rotate(-26.22)" style="fill:#FFAB00"></rect><rect x="302.7" y="189.45" width="69.65" height="123.29" rx="23.72" transform="translate(-76.21 174.94) rotate(-26.22)" style="opacity:0.4"></rect><path d="M397.93,419.22a3.09,3.09,0,0,1-.75.4l-2.29,1c-1,.44-2.32.87-3.84,1.44l-2.5.74c-.89.28-1.86.51-2.89.73a61.82,61.82,0,0,1-15.23,1.57,58.69,58.69,0,0,1-19.93-3.79A58.22,58.22,0,0,1,339.94,416a52.72,52.72,0,0,1-9.72-8.43,53.67,53.67,0,0,1-12.78-25.08,48,48,0,0,1-.68-15.36,43,43,0,0,1,4.86-15.3,48.24,48.24,0,0,1,10.31-13,46,46,0,0,1,14.63-8.87,41,41,0,0,1,17-2.39,28.27,28.27,0,0,1,8.27,1.9,18.68,18.68,0,0,1,6.95,4.77,15.78,15.78,0,0,1,3.8,7.39,12.34,12.34,0,0,1-1.05,8.12,13.48,13.48,0,0,1-2.32,3.34,17.18,17.18,0,0,1-3,2.6,25.74,25.74,0,0,1-6.95,3.35A41.67,41.67,0,0,1,323,340.47a37.43,37.43,0,0,1-4.09-10A42.23,42.23,0,0,1,320,305.84a39.21,39.21,0,0,1,4.37-8.63c.64-.91,1.18-1.56,1.53-2a3.71,3.71,0,0,1,.56-.65,3.54,3.54,0,0,1-.44.74c-.3.48-.8,1.16-1.39,2.08a41.79,41.79,0,0,0-6.2,23.55,40.94,40.94,0,0,0,1.39,9.3,36.05,36.05,0,0,0,4.07,9.67,39.69,39.69,0,0,0,17.93,15.58,40.6,40.6,0,0,0,12.93,3.42,37.81,37.81,0,0,0,14-1.3,24.1,24.1,0,0,0,6.53-3.18,15.39,15.39,0,0,0,2.76-2.4,11.9,11.9,0,0,0,2.07-3,10.89,10.89,0,0,0,.91-7.16,14.43,14.43,0,0,0-3.46-6.67,17.25,17.25,0,0,0-6.39-4.36A26.83,26.83,0,0,0,363.4,329a39.56,39.56,0,0,0-16.3,2.32A46.15,46.15,0,0,0,323,352.52a41.3,41.3,0,0,0-4.73,14.75,46.56,46.56,0,0,0,.61,14.89,52.55,52.55,0,0,0,12.33,24.51,51.74,51.74,0,0,0,9.43,8.29,57.2,57.2,0,0,0,10.29,5.36,62,62,0,0,0,10.16,2.92,63.83,63.83,0,0,0,24.47-.26c1-.2,2-.4,2.88-.66l2.5-.67c1.52-.51,2.83-.9,3.86-1.28l2.34-.89A4.39,4.39,0,0,1,397.93,419.22Z" style="fill:#263238"></path><path d="M335.11,277c0,.08-1.16.54-3,1.47a38,38,0,0,0-12.4,10c-1.3,1.59-2,2.66-2.08,2.62a3,3,0,0,1,.42-.81,21.28,21.28,0,0,1,1.37-2A32.74,32.74,0,0,1,332,278.15a20.35,20.35,0,0,1,2.29-.91A2.8,2.8,0,0,1,335.11,277Z" style="fill:#263238"></path><path d="M326.14,290.47s.15-.34.67-.71a3.5,3.5,0,0,1,2.59-.57,3.78,3.78,0,0,1,2.86,2.64,4,4,0,0,1-1.72,4.4,3.56,3.56,0,0,1-2.52.55,4.15,4.15,0,0,1-2.16-1,3.57,3.57,0,0,1-1.12-3.72,3.93,3.93,0,0,1,1.49-2.19,1.77,1.77,0,0,1,.89-.39s-.31.17-.76.55a3.9,3.9,0,0,0-1.26,2.12,3.27,3.27,0,0,0,1.07,3.27,3.43,3.43,0,0,0,4.08.4A3.58,3.58,0,0,0,331.8,292a3.31,3.31,0,0,0-4.89-2C326.4,290.23,326.18,290.5,326.14,290.47Z" style="fill:#263238"></path><rect x="302.7" y="189.68" width="69.65" height="123.29" rx="23.72" transform="translate(-76.31 174.97) rotate(-26.22)" style="fill:#FFAB00"></rect><rect x="302.7" y="189.45" width="69.65" height="123.29" rx="23.72" transform="translate(-76.21 174.94) rotate(-26.22)" style="opacity:0.4"></rect><path d="M397.93,419.22a3.09,3.09,0,0,1-.75.4l-2.29,1c-1,.44-2.32.87-3.84,1.44l-2.5.74c-.89.28-1.86.51-2.89.73a61.82,61.82,0,0,1-15.23,1.57,58.69,58.69,0,0,1-19.93-3.79A58.22,58.22,0,0,1,339.94,416a52.72,52.72,0,0,1-9.72-8.43,53.67,53.67,0,0,1-12.78-25.08,48,48,0,0,1-.68-15.36,43,43,0,0,1,4.86-15.3,48.24,48.24,0,0,1,10.31-13,46,46,0,0,1,14.63-8.87,41,41,0,0,1,17-2.39,28.27,28.27,0,0,1,8.27,1.9,18.68,18.68,0,0,1,6.95,4.77,15.78,15.78,0,0,1,3.8,7.39,12.34,12.34,0,0,1-1.05,8.12,13.48,13.48,0,0,1-2.32,3.34,17.18,17.18,0,0,1-3,2.6,25.74,25.74,0,0,1-6.95,3.35A41.67,41.67,0,0,1,323,340.47a37.43,37.43,0,0,1-4.09-10A42.23,42.23,0,0,1,320,305.84a39.21,39.21,0,0,1,4.37-8.63c.64-.91,1.18-1.56,1.53-2a3.71,3.71,0,0,1,.56-.65,3.54,3.54,0,0,1-.44.74c-.3.48-.8,1.16-1.39,2.08a41.79,41.79,0,0,0-6.2,23.55,40.94,40.94,0,0,0,1.39,9.3,36.05,36.05,0,0,0,4.07,9.67,39.69,39.69,0,0,0,17.93,15.58,40.6,40.6,0,0,0,12.93,3.42,37.81,37.81,0,0,0,14-1.3,24.1,24.1,0,0,0,6.53-3.18,15.39,15.39,0,0,0,2.76-2.4,11.9,11.9,0,0,0,2.07-3,10.89,10.89,0,0,0,.91-7.16,14.43,14.43,0,0,0-3.46-6.67,17.25,17.25,0,0,0-6.39-4.36A26.83,26.83,0,0,0,363.4,329a39.56,39.56,0,0,0-16.3,2.32A46.15,46.15,0,0,0,323,352.52a41.3,41.3,0,0,0-4.73,14.75,46.56,46.56,0,0,0,.61,14.89,52.55,52.55,0,0,0,12.33,24.51,51.74,51.74,0,0,0,9.43,8.29,57.2,57.2,0,0,0,10.29,5.36,62,62,0,0,0,10.16,2.92,63.83,63.83,0,0,0,24.47-.26c1-.2,2-.4,2.88-.66l2.5-.67c1.52-.51,2.83-.9,3.86-1.28l2.34-.89A4.39,4.39,0,0,1,397.93,419.22Z" style="fill:#263238"></path><path d="M335.11,277c0,.08-1.16.54-3,1.47a38,38,0,0,0-12.4,10c-1.3,1.59-2,2.66-2.08,2.62a3,3,0,0,1,.42-.81,21.28,21.28,0,0,1,1.37-2A32.74,32.74,0,0,1,332,278.15a20.35,20.35,0,0,1,2.29-.91A2.8,2.8,0,0,1,335.11,277Z" style="fill:#263238"></path><path d="M326.14,290.47s.15-.34.67-.71a3.5,3.5,0,0,1,2.59-.57,3.78,3.78,0,0,1,2.86,2.64,4,4,0,0,1-1.72,4.4,3.56,3.56,0,0,1-2.52.55,4.15,4.15,0,0,1-2.16-1,3.57,3.57,0,0,1-1.12-3.72,3.93,3.93,0,0,1,1.49-2.19,1.77,1.77,0,0,1,.89-.39s-.31.17-.76.55a3.9,3.9,0,0,0-1.26,2.12,3.27,3.27,0,0,0,1.07,3.27,3.43,3.43,0,0,0,4.08.4A3.58,3.58,0,0,0,331.8,292a3.31,3.31,0,0,0-4.89-2C326.4,290.23,326.18,290.5,326.14,290.47Z" style="fill:#263238"></path><path d="M337,195.11c-1.93-3.83-3.63-7.27-3.63-7.27s7.2-4.42,4.07-12.16-11.87-24.87-11.87-24.87l-17-.16-9.7,18.77L317,205.23a11.2,11.2,0,0,0,14.81,5h0A11.2,11.2,0,0,0,337,195.11Z" style="fill:#ffbe9d"></path><path d="M329.94,164.23a1.06,1.06,0,1,1-1.42-.5A1.06,1.06,0,0,1,329.94,164.23Z" style="fill:#263238"></path><path d="M330.38,162.74c-.07.18-1.07-.08-2.13.35s-1.61,1.31-1.78,1.23-.06-.33.17-.73a2.76,2.76,0,0,1,1.35-1.14,2.82,2.82,0,0,1,1.76-.12C330.19,162.46,330.41,162.65,330.38,162.74Z" style="fill:#263238"></path><path d="M318.79,169.56a1.07,1.07,0,0,1-1.93.92,1.07,1.07,0,1,1,1.93-.92Z" style="fill:#263238"></path><path d="M318.88,168.22c-.06.19-1.06-.08-2.12.36s-1.61,1.31-1.78,1.22-.06-.33.17-.72a2.78,2.78,0,0,1,1.35-1.15,2.8,2.8,0,0,1,1.76-.11C318.7,167.94,318.92,168.14,318.88,168.22Z" style="fill:#263238"></path><path d="M326.8,175.19a8.06,8.06,0,0,1,1.6-1c.25-.14.5-.3.46-.52a1.61,1.61,0,0,0-.55-.77l-1.73-1.81c-1.22-1.29-2.31-2.48-3.08-3.36a7.65,7.65,0,0,1-1.18-1.48,7.79,7.79,0,0,1,1.41,1.26c.84.82,2,2,3.18,3.26l1.71,1.84a1.75,1.75,0,0,1,.62,1,.68.68,0,0,1-.26.58,1.7,1.7,0,0,1-.43.26A7.67,7.67,0,0,1,326.8,175.19Z" style="fill:#263238"></path><path d="M323.85,177.81a11.44,11.44,0,0,0,5.83-.67,3.17,3.17,0,0,1-3,2.61C324.05,179.88,323.85,177.81,323.85,177.81Z" style="fill:#fff"></path><path d="M333.34,187.78a20.87,20.87,0,0,1-11.58,1.39s5.08,4.4,12.47.49Z" style="fill:#eb996e"></path><path d="M290.66,181l.14-.08a45.48,45.48,0,0,1-1.35-4.35c-3.39-17.64,9-27.15,11.73-28.45,2.93-1.4,7.28-5.45,18.43-1.26a18.42,18.42,0,0,1,4.76,2.59,18.48,18.48,0,0,1,6.64,5.47c1.55,2.07,2.05,3.61,2,3.65s-.84-1.35-2.47-3.24a19.51,19.51,0,0,0-3.19-3,15.72,15.72,0,0,1,3.35,9l-1.8-.56-12.36,2.41c-.54-3.38-3.59-6.45-5.13-7.82l-.1,0c3.18,12.31-8.67,19.4-8.67,19.4l9.65,21.21C296.11,199.79,290.66,181,290.66,181Z" style="fill:#263238"></path><path d="M307.4,186.88a3.48,3.48,0,0,1-4.19,1.34,5.11,5.11,0,0,1-2.93-3.56,3.86,3.86,0,0,1,.21-2.82,4,4,0,0,1,3.48-1.41Z" style="fill:#ffbe9d"></path><path d="M305.09,186.42c0-.11-.44,0-1-.1a2.17,2.17,0,0,1-1.3-3.53c.39-.48.78-.66.74-.76s-.51-.09-1.1.4a2.52,2.52,0,0,0,1.62,4.39C304.76,186.81,305.14,186.49,305.09,186.42Z" style="fill:#eb996e"></path><path d="M349.89,159.39s-.05-.19-.12-.57-.18-1-.31-1.7c-.07-.38-.14-.79-.23-1.25s-.26-1-.4-1.48a25.78,25.78,0,0,0-1.19-3.63,34.47,34.47,0,0,0-5.12-9.09,36.26,36.26,0,0,0-26.19-14,32,32,0,0,0-4.59,0c-.78.06-1.56.08-2.35.18l-2.35.4c-.4.08-.8.12-1.19.22l-1.17.33c-.79.22-1.58.41-2.37.67a39.34,39.34,0,0,0-4.61,2,40.65,40.65,0,0,0-4.43,2.6c-.7.5-1.37,1.07-2.07,1.6a17.13,17.13,0,0,0-2,1.74,32.91,32.91,0,0,0-6.68,8.49l-.69,1.2-.59,1.26-.58,1.27a9.79,9.79,0,0,0-.52,1.3c-.31.88-.61,1.77-.92,2.67s-.44,1.84-.66,2.76a35.74,35.74,0,0,0,2.65,22.59c.43.85.86,1.69,1.28,2.54s1,1.59,1.51,2.38a10.21,10.21,0,0,0,.81,1.14l.86,1.1.86,1.1.95,1a41.4,41.4,0,0,0,4,3.74,39.46,39.46,0,0,0,4.47,3,17.9,17.9,0,0,0,2.33,1.23c.8.36,1.58.75,2.39,1.07a38.51,38.51,0,0,0,4.91,1.51,40.47,40.47,0,0,0,4.94.84c.82.07,1.64.07,2.45.11l1.22,0c.4,0,.8,0,1.21-.06l2.38-.16c.79-.08,1.56-.24,2.33-.36a32.22,32.22,0,0,0,4.46-1.06,35.69,35.69,0,0,0,14.3-8.46,36.11,36.11,0,0,0,7.94-11.24,34.84,34.84,0,0,0,2.87-10,26.36,26.36,0,0,0,.31-3.8c0-.56.06-1.07.06-1.54l-.07-1.26c0-.75-.07-1.32-.09-1.73s0-.59,0-.59a5.51,5.51,0,0,1,.07.59c0,.4.08,1,.14,1.72,0,.38.06.81.1,1.27s0,1,0,1.54a26.2,26.2,0,0,1-.27,3.83,34.23,34.23,0,0,1-2.81,10.12,36.46,36.46,0,0,1-22.37,20,34.64,34.64,0,0,1-4.52,1.08c-.78.12-1.55.29-2.35.37l-2.41.17c-.41,0-.82.07-1.23.06l-1.23,0c-.82,0-1.65,0-2.49-.1a39.57,39.57,0,0,1-5-.85,36.45,36.45,0,0,1-5-1.51c-.82-.33-1.61-.72-2.42-1.08a19.12,19.12,0,0,1-2.37-1.25,39.19,39.19,0,0,1-4.53-3,40.13,40.13,0,0,1-4.06-3.78l-1-1-.87-1.11-.87-1.11a9.35,9.35,0,0,1-.82-1.16l-1.54-2.42-1.3-2.57a36.19,36.19,0,0,1-2.69-22.91c.23-.94.45-1.88.68-2.81l.93-2.7a8.46,8.46,0,0,1,.53-1.32l.59-1.29.59-1.28.71-1.21a33,33,0,0,1,6.78-8.6,18.72,18.72,0,0,1,2-1.77c.71-.53,1.39-1.1,2.11-1.61a39.33,39.33,0,0,1,9.16-4.6c.8-.27,1.61-.46,2.4-.68l1.19-.33c.39-.1.8-.14,1.2-.22l2.39-.39c.79-.11,1.59-.12,2.37-.19a34.34,34.34,0,0,1,4.65,0,36.44,36.44,0,0,1,26.39,14.27,34.24,34.24,0,0,1,5.08,9.2,26.79,26.79,0,0,1,1.15,3.66c.14.54.29,1,.38,1.49s.14.88.2,1.26c.11.74.2,1.3.26,1.71S349.89,159.39,349.89,159.39Z" style="fill:#263238"></path><path d="M292.35,157.47a5,5,0,0,0,1.12-8c-2.07-2-5.64-1.83-8-.1a11.11,11.11,0,0,0-3.91,7.47,9.59,9.59,0,0,0,.4,4.93,5,5,0,0,0,3.59,3.17,5.39,5.39,0,0,0,4.86-2.14,15.88,15.88,0,0,0,2.44-5" style="fill:#263238"></path><path d="M334.4,143.58c-.07.08-1.38-1.21-3.79-2.9a37.28,37.28,0,0,0-4.43-2.64,39.6,39.6,0,0,0-5.85-2.34,40.69,40.69,0,0,0-6.17-1.31,35.84,35.84,0,0,0-5.15-.26c-2.94.06-4.74.4-4.76.3a5.63,5.63,0,0,1,1.26-.29,13.64,13.64,0,0,1,1.5-.22c.58-.06,1.25-.15,2-.16a32.9,32.9,0,0,1,5.22.16,37.26,37.26,0,0,1,6.26,1.28,36.69,36.69,0,0,1,5.92,2.42,34.1,34.1,0,0,1,4.43,2.76c.61.43,1.11.88,1.56,1.25s.83.72,1.13,1A5.56,5.56,0,0,1,334.4,143.58Z" style="fill:#455a64"></path><path d="M337.62,149c-.15,0-.44-.79-1-1.68s-1.16-1.53-1.06-1.65.89.39,1.5,1.37S337.76,149,337.62,149Z" style="fill:#455a64"></path><path d="M282.71,156.92a7,7,0,0,1-.64,3.43,14.17,14.17,0,0,0-.93,3.57,4.52,4.52,0,0,0,.31,2.07,3,3,0,0,0,1.45,1.58,3.06,3.06,0,0,0,2.15.08,5.61,5.61,0,0,0,1.87-1,8.86,8.86,0,0,0,2.24-2.87,14.27,14.27,0,0,0,1-3.27,2.55,2.55,0,0,1,0,.94,8.33,8.33,0,0,1-.69,2.48,8.76,8.76,0,0,1-2.27,3.09,5.92,5.92,0,0,1-2,1.12,3.55,3.55,0,0,1-2.52-.1,3.37,3.37,0,0,1-1.7-1.85,4.9,4.9,0,0,1-.32-2.3,13.36,13.36,0,0,1,1.06-3.67,15.11,15.11,0,0,0,.79-2.39A8.38,8.38,0,0,1,282.71,156.92Z" style="fill:#263238"></path><path d="M299.4,213.69s44,80.76,51.31,89.73L410.14,277l-36-61.82a39.8,39.8,0,0,0-31.54-19.82l-.42,0C328.05,194.44,297.27,209.75,299.4,213.69Z" style="fill:#FFAB00"></path><path d="M392.13,246.07l-.2.11-.61.29-2.38,1.07L380,251.47l-13.59,5.91-8.21,3.55-2.17.94a2.93,2.93,0,0,1-2.53-.16A6.07,6.07,0,0,1,351.6,260a11.56,11.56,0,0,1-1.3-2.21l0,0c-2.6-4.25-5.26-8.87-7.83-13.72-2-3.82-3.9-7.6-5.64-11.3q-1.29-2.76-2.48-5.46a18.35,18.35,0,0,1-1.58-5.59,8,8,0,0,1,1.42-5.33,16.19,16.19,0,0,1,3.75-3.61,46.79,46.79,0,0,1,20.87-8.48c1.57-.22,2.8-.32,3.63-.36l1,0a1.64,1.64,0,0,1,.33,0l-.32,0-.95.08c-.83.07-2.05.2-3.61.45a47.87,47.87,0,0,0-12.73,3.92,46.71,46.71,0,0,0-7.91,4.71,16.18,16.18,0,0,0-3.64,3.52,7.53,7.53,0,0,0-1.31,5,17.92,17.92,0,0,0,1.56,5.43c.78,1.79,1.62,3.61,2.49,5.45,1.73,3.68,3.61,7.45,5.63,11.27,2.57,4.84,5.21,9.45,7.8,13.69h0v0a8,8,0,0,0,3,3.68,2.39,2.39,0,0,0,2.13.13l2.18-.93,8.21-3.51,13.63-5.8,9-3.79,2.42-1,.62-.24C392.06,246.08,392.13,246.06,392.13,246.07Z" style="fill:#263238"></path><g style="opacity:0.7000000000000001"><path d="M348.12,223.78a2.77,2.77,0,1,1-2.77-2.77A2.77,2.77,0,0,1,348.12,223.78Z" style="fill:#fff"></path></g><g style="opacity:0.7000000000000001"><path d="M353.66,235.67a2.77,2.77,0,1,1-2.77-2.77A2.77,2.77,0,0,1,353.66,235.67Z" style="fill:#fff"></path></g><g style="opacity:0.7000000000000001"><circle cx="357.54" cy="247.24" r="2.77" style="fill:#fff"></circle></g><path d="M365.8,214.34a10.38,10.38,0,0,1-2,1.17c-1.26.66-3,1.53-5,2.42s-3.79,1.65-5.11,2.16a9.07,9.07,0,0,1-2.19.72,10.37,10.37,0,0,1,2.05-1.06l5-2.29,5-2.28A10.49,10.49,0,0,1,365.8,214.34Z" style="fill:#263238"></path><path d="M373,226a12.24,12.24,0,0,1-2.28,1.08l-5.58,2.37-5.57,2.42a12.46,12.46,0,0,1-2.34.92,11.31,11.31,0,0,1,2.19-1.25c1.39-.71,3.33-1.63,5.51-2.57s4.19-1.71,5.66-2.24A12.14,12.14,0,0,1,373,226Z" style="fill:#263238"></path><path d="M377.46,239.05a46.94,46.94,0,0,1-6.39,3.1,49,49,0,0,1-6.6,2.63,46.94,46.94,0,0,1,6.39-3.1A49.6,49.6,0,0,1,377.46,239.05Z" style="fill:#263238"></path><path d="M312.67,204.26a4.06,4.06,0,0,1,1.59-4.37c2.44-2,21.68-6.8,21.68-6.8s5.28-.78,6.64,2.24Z" style="fill:#FFAB00"></path><polygon points="350.71 273.99 396.11 252.89 393.68 248.73 350.71 273.99" style="opacity:0.2"></polygon><g style="opacity:0.2"><path d="M342.12,196.22a3.88,3.88,0,0,1-.92.73,15.59,15.59,0,0,1-2.87,1.41c-1.26.48-2.8.92-4.5,1.42s-3.57,1-5.55,1.55a76.23,76.23,0,0,1-10.29,2c-1.33.16-2.41.23-3.16.26a5.55,5.55,0,0,1-1.17,0,4.69,4.69,0,0,1,1.15-.18c.74-.09,1.82-.22,3.14-.42a102,102,0,0,0,10.2-2.18l5.55-1.51c1.71-.47,3.25-.87,4.51-1.31A23.8,23.8,0,0,0,342.12,196.22Z"></path></g><g style="opacity:0.2"><path d="M319.52,202.68a2.66,2.66,0,0,1-1.17-2.25,2.64,2.64,0,0,1,.77-2.41,12.53,12.53,0,0,0-.25,2.37A13.93,13.93,0,0,0,319.52,202.68Z"></path></g><g style="opacity:0.2"><path d="M326.49,201.87a4.5,4.5,0,0,1-1.71-5.29,22.18,22.18,0,0,0,.44,2.78A18.79,18.79,0,0,0,326.49,201.87Z"></path></g><g style="opacity:0.2"><path d="M333.82,199.09c-.15,0-.44-1.15-1.2-2.41s-1.63-2.1-1.53-2.22,1.19.58,2,1.95A4.08,4.08,0,0,1,333.82,199.09Z"></path></g><path d="M398.88,280.44s92.77,18.19,94.72,28.44-2,100.83-2,100.83l-26.8.54-2.91-78.91L350.71,302.27Z" style="fill:#FFAB00"></path><path d="M398.88,280.44s92.77,18.19,94.72,28.44-2,100.83-2,100.83l-26.8.54-2.91-78.91L350.71,302.27Z" style="opacity:0.2"></path><path d="M492.43,388.53l.11,18.53s15.92-3.22,14.62,3.19c-.54,2.66-41.48,14.76-42.11,14.19l-.71-26.18Z" style="fill:#FFAB00"></path><path d="M492.43,388.53l.11,18.53s15.92-3.22,14.62,3.19c-.54,2.66-41.48,14.76-42.11,14.19l-.71-26.18Z" style="opacity:0.4"></path><path d="M506.21,411.08a4.47,4.47,0,0,0-2.64-2.59,7.23,7.23,0,0,0-2.67-.43,67.26,67.26,0,0,0-15.65,3.27A75.78,75.78,0,0,0,470.67,418c-1.76,1.05-3.16,2-4.12,2.59a11,11,0,0,1-1.51,1,12,12,0,0,1,1.39-1.12c.93-.69,2.3-1.65,4.05-2.75a69.54,69.54,0,0,1,14.61-6.8,61.7,61.7,0,0,1,15.81-3.15,7.13,7.13,0,0,1,2.78.54,4.81,4.81,0,0,1,1.74,1.24,3.45,3.45,0,0,1,.69,1.15A1.24,1.24,0,0,1,506.21,411.08Z" style="fill:#263238"></path><path d="M492.39,393.55a4.89,4.89,0,0,1-1,.58c-.67.35-1.66.82-2.89,1.39-2.46,1.15-5.9,2.64-9.76,4.14s-7.41,2.72-10,3.53c-1.29.41-2.35.73-3.08.93a5.47,5.47,0,0,1-1.15.26,5.32,5.32,0,0,1,1.09-.46l3-1.08c2.56-.9,6.07-2.17,9.93-3.67s7.3-2.93,9.8-4l3-1.24A4.67,4.67,0,0,1,492.39,393.55Z" style="fill:#263238"></path><path d="M475.61,404.12s0-.17.25-.34a1.3,1.3,0,0,1,1.13-.16,1.5,1.5,0,0,1,.71.45,1.55,1.55,0,0,1,.34.9,2,2,0,0,1-3.11,1.7,1.5,1.5,0,0,1-.54-.81,1.52,1.52,0,0,1,.06-.83,1.34,1.34,0,0,1,.77-.85c.26-.08.42,0,.41,0s-.14.06-.32.19a1.22,1.22,0,0,0-.51.76,1.05,1.05,0,0,0,.41,1.15,1.52,1.52,0,0,0,2.35-1.29,1.05,1.05,0,0,0-.69-1,1.24,1.24,0,0,0-.91,0C475.75,404,475.65,404.14,475.61,404.12Z" style="fill:#263238"></path><path d="M469.93,423.6a16.91,16.91,0,0,1,1-5.86,16.91,16.91,0,0,1-1,5.86Z" style="fill:#263238"></path><path d="M474,422.43a13.86,13.86,0,0,1,.48-3.76,13.72,13.72,0,0,1,1-3.67,14.4,14.4,0,0,1-.48,3.77A14.17,14.17,0,0,1,474,422.43Z" style="fill:#263238"></path><path d="M478.46,421.21a32.11,32.11,0,0,1,1.47-8,32.11,32.11,0,0,1-1.47,8Z" style="fill:#263238"></path><path d="M483.54,419.68a36.5,36.5,0,0,1,1.47-8.54,36.5,36.5,0,0,1-1.47,8.54Z" style="fill:#263238"></path><path d="M488.35,418.19a36.5,36.5,0,0,1,1.47-8.54,36.5,36.5,0,0,1-1.47,8.54Z" style="fill:#263238"></path><path d="M493.59,416.27a15.39,15.39,0,0,1,.48-3.9,15.14,15.14,0,0,1,1-3.79,14.81,14.81,0,0,1-.48,3.89A14.65,14.65,0,0,1,493.59,416.27Z" style="fill:#263238"></path><path d="M498.84,414.29a21.32,21.32,0,0,1,1.47-6.5,11,11,0,0,1-.49,3.31A10.76,10.76,0,0,1,498.84,414.29Z" style="fill:#263238"></path><path d="M420.07,408.43c.21.38-3.06,2.55-7.3,4.86s-7.84,3.86-8,3.48,3.07-2.55,7.31-4.86S419.87,408.05,420.07,408.43Z" style="fill:#263238"></path><path d="M466.6,190.12l0-.06a141.68,141.68,0,0,0,13.74-6.54c6-3.62,5.72-4.16,5.17-4.8-1.45-1.69-10.85,6-9.78,3.15s12.58-8,11-9.74c-2.08-2.22-11.77,6-12.64,6.61s-1.81-.6-1-1.13c1.18-.76,13.32-9.07,11.3-11.27-1.12-1.22-3.12,1-3.12,1s-10.79,8.6-11.71,7.53,5.23-6.35,7.44-8,2.29-3.3.78-3.67c-1-.26-7.9,4.57-10,6.23s-7.94,6.32-6.95,1.7,0-8.54-1-9.42-2.59.2-2.27,1.63a17.08,17.08,0,0,1-.09,4.76,11.2,11.2,0,0,1-1.09,3.67c-.66,1.34-1.28,2.44-1.83,3.37a6.6,6.6,0,0,0-.82,4.93c.77,2.47,9.72,11.21,9.72,11.21Z" style="fill:#FFAB00"></path><g style="opacity:0.7000000000000001"><path d="M466.6,190.12l0-.06a141.68,141.68,0,0,0,13.74-6.54c6-3.62,5.72-4.16,5.17-4.8-1.45-1.69-10.85,6-9.78,3.15s12.58-8,11-9.74c-2.08-2.22-11.77,6-12.64,6.61s-1.81-.6-1-1.13c1.18-.76,13.32-9.07,11.3-11.27-1.12-1.22-3.12,1-3.12,1s-10.79,8.6-11.71,7.53,5.23-6.35,7.44-8,2.29-3.3.78-3.67c-1-.26-7.9,4.57-10,6.23s-7.94,6.32-6.95,1.7,0-8.54-1-9.42-2.59.2-2.27,1.63a17.08,17.08,0,0,1-.09,4.76,11.2,11.2,0,0,1-1.09,3.67c-.66,1.34-1.28,2.44-1.83,3.37a6.6,6.6,0,0,0-.82,4.93c.77,2.47,9.72,11.21,9.72,11.21Z" style="fill:#fff"></path></g><path d="M349.66,197.05c2.08,1.55,60.22,3.54,60.22,3.54l37.93-21.37L463,193.73s-44.28,29.79-49.21,30.83-40.88,0-40.88,0Z" style="fill:#FFAB00"></path><path d="M448.48,180.08l13.09,13.85a2.5,2.5,0,0,0,3.23.36l.09-.06a2.51,2.51,0,0,0,.41-3.81l-13.19-13.79a2.49,2.49,0,0,0-3.05-.45h0A2.5,2.5,0,0,0,448.48,180.08Z" style="fill:#FFAB00"></path><path d="M448.48,180.08l13.09,13.85a2.5,2.5,0,0,0,3.23.36l.09-.06a2.51,2.51,0,0,0,.41-3.81l-13.19-13.79a2.49,2.49,0,0,0-3.05-.45h0A2.5,2.5,0,0,0,448.48,180.08Z" style="fill:#fff;opacity:0.5"></path><path d="M413.91,224.53A3.6,3.6,0,0,1,413,224a14.89,14.89,0,0,1-2.06-1.92,16.88,16.88,0,0,1-3.18-17.46,15,15,0,0,1,1.25-2.52,3.36,3.36,0,0,1,.62-.83c.09,0-.76,1.27-1.52,3.48a17.4,17.4,0,0,0,3.11,17.09C412.76,223.61,414,224.45,413.91,224.53Z" style="fill:#263238"></path><path d="M458,189.39a2.83,2.83,0,0,1-.45.38l-1.34,1c-1.17.87-2.88,2.11-5,3.62-4.25,3-10.2,7.1-16.87,11.43S421.52,213.94,417,216.6c-2.24,1.34-4.07,2.4-5.34,3.11l-1.47.81a2.6,2.6,0,0,1-.53.26,2.23,2.23,0,0,1,.48-.35l1.42-.89,5.25-3.25c4.44-2.74,10.55-6.56,17.22-10.89S446.71,197,451,194.1l5.11-3.49,1.39-.93A2.07,2.07,0,0,1,458,189.39Z" style="fill:#263238"></path><path d="M409.7,220.13c0,.14-7.68,0-17.14-.42s-17.13-.79-17.13-.93,7.68,0,17.15.41S409.71,220,409.7,220.13Z" style="fill:#263238"></path><g style="opacity:0.2"><path d="M383.34,224.81a67.8,67.8,0,0,0-9.75-18c-3.86-5.2-13.53-9.29-20-9,9.24,4.17,21.44,16.68,25.87,27.08Z"></path></g><path d="M300.89,211.1c-.37-1.82-36.4,27.38-51.54,39.74a17.9,17.9,0,0,0-6.58,13.88h0a17.92,17.92,0,0,0,17.92,17.92h43.89V260.38H276l36.69-24.17Z" style="fill:#FFAB00"></path><path d="M310.2,280.17v-.07a139.15,139.15,0,0,0,15.14,1.48c7,0,7.05-.62,6.91-1.44-.37-2.2-12.37-.49-10-2.35s14.92-.4,14.44-2.68c-.63-3-13.16-.95-14.24-.85s-1.24-1.46-.27-1.49c1.4,0,16.08-.9,15.49-3.83-.33-1.62-3.19-.76-3.19-.76s-13.68,1.81-13.91.42,7.76-2.75,10.49-3,3.67-1.64,2.56-2.74c-.75-.75-9.13-.16-11.82.16s-10.06,1.33-6.83-2.12,4.41-7.32,4-8.59a1.47,1.47,0,0,0-2.78.23,17.31,17.31,0,0,1-2.54,4,11.17,11.17,0,0,1-2.82,2.58c-1.26.81-2.36,1.44-3.31,1.95a6.63,6.63,0,0,0-3.24,3.8c-.62,2.52,2.55,14.61,2.55,14.61Z" style="fill:#FFAB00"></path><g style="opacity:0.7000000000000001"><path d="M310.2,280.17v-.07a139.15,139.15,0,0,0,15.14,1.48c7,0,7.05-.62,6.91-1.44-.37-2.2-12.37-.49-10-2.35s14.92-.4,14.44-2.68c-.63-3-13.16-.95-14.24-.85s-1.24-1.46-.27-1.49c1.4,0,16.08-.9,15.49-3.83-.33-1.62-3.19-.76-3.19-.76s-13.68,1.81-13.91.42,7.76-2.75,10.49-3,3.67-1.64,2.56-2.74c-.75-.75-9.13-.16-11.82.16s-10.06,1.33-6.83-2.12,4.41-7.32,4-8.59a1.47,1.47,0,0,0-2.78.23,17.31,17.31,0,0,1-2.54,4,11.17,11.17,0,0,1-2.82,2.58c-1.26.81-2.36,1.44-3.31,1.95a6.63,6.63,0,0,0-3.24,3.8c-.62,2.52,2.55,14.61,2.55,14.61Z" style="fill:#fff"></path></g><path d="M244.2,257.18a6.83,6.83,0,0,1,1-1,19.2,19.2,0,0,1,3.17-2.29,20.67,20.67,0,0,1,12.49-2.72,21,21,0,0,1,11.64,5.28,19.81,19.81,0,0,1,2.64,2.89,5.69,5.69,0,0,1,.77,1.21,36.46,36.46,0,0,0-3.65-3.82,21.42,21.42,0,0,0-11.45-5,21.08,21.08,0,0,0-12.26,2.52A36.14,36.14,0,0,0,244.2,257.18Z" style="fill:#263238"></path><path d="M307.54,229.8c.08.11-8,6-18.09,13.26s-18.3,12.95-18.39,12.83,8-6,18.09-13.26S307.45,229.68,307.54,229.8Z" style="fill:#263238"></path><path d="M301.05,272.19a2.33,2.33,0,0,1-.56.1l-1.63.17c-1.41.15-3.46.33-6,.53-5.06.39-12.08.8-19.83,1s-14.78.22-19.86.13c-2.54,0-4.6-.11-6-.17l-1.63-.08a2.41,2.41,0,0,1-.57-.07,2.34,2.34,0,0,1,.57,0h7.65c5.08,0,12.1,0,19.85-.28s14.75-.58,19.82-.88l6-.36,1.64-.08A2.28,2.28,0,0,1,301.05,272.19Z" style="fill:#263238"></path><g style="opacity:0.2"><path d="M279.89,257.91c-.14-3.55-3-6.63-6.31-7.79s-7.83-.11-11.13,1.2c5.26,1.53,10.65,4.49,13.59,9.12Z"></path></g><path d="M301.26,261.13l.49,19.05a2.51,2.51,0,0,0,2.16,2.42l.11,0a2.52,2.52,0,0,0,2.86-2.57l-.6-19.07a2.51,2.51,0,0,0-2-2.37h0A2.51,2.51,0,0,0,301.26,261.13Z" style="fill:#FFAB00"></path><path d="M301.26,261.13l.49,19.05a2.51,2.51,0,0,0,2.16,2.42l.11,0a2.52,2.52,0,0,0,2.86-2.57l-.6-19.07a2.51,2.51,0,0,0-2-2.37h0A2.51,2.51,0,0,0,301.26,261.13Z" style="fill:#fff;opacity:0.5"></path><path d="M309.74,238.8a21.52,21.52,0,0,0,4.77-4.64,19.49,19.49,0,0,0,3-6.51,21.34,21.34,0,0,0,.63-4.2,20.07,20.07,0,0,0-.34-4.54c-.58-3.06-2-5.88-4.32-7.34a11.63,11.63,0,0,0-6.87-1.6,30.72,30.72,0,0,0-4.83.72A13.07,13.07,0,0,1,300,211s.14-.07.43-.17.73-.22,1.29-.37a25.46,25.46,0,0,1,4.86-.9,11.71,11.71,0,0,1,7.15,1.57,9.17,9.17,0,0,1,3,3.22,14.25,14.25,0,0,1,1.59,4.41,20.18,20.18,0,0,1,.34,4.67,21.7,21.7,0,0,1-.67,4.31,19.53,19.53,0,0,1-3.2,6.6,16.56,16.56,0,0,1-3.52,3.48,9.51,9.51,0,0,1-1.14.72A1.76,1.76,0,0,1,309.74,238.8Z" style="fill:#263238"></path><path d="M475.79,273.56,441,312.06l-19.44-13.71,32-38.19L369.1,304.79a17.6,17.6,0,0,1-23-6.31h0a17.61,17.61,0,0,1,7.33-25.22l91.29-43.68a30.87,30.87,0,0,1,38,9.27h0C491.34,250.31,486.79,262.37,475.79,273.56Z" style="fill:#FFAB00"></path><path d="M462.08,249.58s0-.05-.1-.17l-.26-.53a10,10,0,0,0-1.14-1.94,6.94,6.94,0,0,0-2.73-2.3,6.65,6.65,0,0,0-4.71-.22h0l-47.4,24.81-40.91,21.2-12.42,6.38L349,298.51l-.89.43-.31.13s.09-.07.28-.18l.87-.48,3.34-1.79,12.35-6.52,40.84-21.35,47.5-24.6h0a6.83,6.83,0,0,1,4.91.29,7,7,0,0,1,2.76,2.41,10.35,10.35,0,0,1,1.1,2l.22.54C462.07,249.52,462.09,249.58,462.08,249.58Z" style="fill:#263238"></path><path d="M466.28,244.41c.11.09-2.88,4-6.68,8.64s-7,8.42-7.08,8.33,2.88-4,6.68-8.65A109,109,0,0,1,466.28,244.41Z" style="fill:#263238"></path><path d="M458.59,292.62l-18.52,21.3s10.57,12.48,8.81,13.95-31.08-24.68-31.08-24.68L437,278.65Z" style="fill:#FFAB00"></path><path d="M458.59,292.62l-18.52,21.3s10.57,12.48,8.81,13.95-31.08-24.68-31.08-24.68L437,278.65Z" style="opacity:0.4"></path><path d="M453.92,298.36c-.07.13-5.27-2.61-11.62-6.12s-11.44-6.45-11.37-6.57,5.27,2.61,11.62,6.12S454,298.24,453.92,298.36Z" style="fill:#263238"></path><path d="M429.5,298.86s-.1.18-.24.5a2.41,2.41,0,0,0-.13,1.4,2.31,2.31,0,0,0,1.14,1.63,2.17,2.17,0,0,0,2.86-2.65,2.33,2.33,0,0,0-1.53-1.26,2.52,2.52,0,0,0-1.41,0c-.33.11-.49.24-.52.2s.1-.2.44-.38a2.33,2.33,0,0,1,1.57-.2,2.65,2.65,0,0,1,1.89,1.43,2.62,2.62,0,0,1-3.53,3.26,2.64,2.64,0,0,1-1.27-2,2.37,2.37,0,0,1,.31-1.56C429.29,298.94,429.49,298.84,429.5,298.86Z" style="fill:#263238"></path><polyline points="428.92 273.26 452.93 260.58 465.36 245.53 428.92 273.26" style="opacity:0.2"></polyline></g><g id="freepik--Planet--inject-156"><circle cx="466.28" cy="116.02" r="25.23" transform="translate(-2.59 10.93) rotate(-1.34)" style="fill:#455a64"></circle><path d="M474.5,106.36a4.11,4.11,0,1,1,4,4.21A4.11,4.11,0,0,1,474.5,106.36Z" style="fill:#263238"></path><path d="M482.72,116a2.4,2.4,0,1,1,2.34,2.45A2.39,2.39,0,0,1,482.72,116Z" style="fill:#263238"></path><path d="M479.51,123.31a.89.89,0,0,1,0,1.77.89.89,0,0,1,0-1.77Z" style="fill:#263238"></path></g><g id="freepik--Stars--inject-156"><path d="M574.18,169.28l.55,1a6.77,6.77,0,0,0,2.68,2.68l1,.55-1,.56a6.77,6.77,0,0,0-2.68,2.68l-.55,1-.55-1a6.77,6.77,0,0,0-2.68-2.68l-1-.56,1-.55a6.77,6.77,0,0,0,2.68-2.68Z" style="fill:#455a64"></path><path d="M137.82,318.87l.56,1a6.71,6.71,0,0,0,2.68,2.68l1,.55-1,.56a6.71,6.71,0,0,0-2.68,2.68l-.56,1-.55-1a6.77,6.77,0,0,0-2.68-2.68l-1-.56,1-.55a6.77,6.77,0,0,0,2.68-2.68Z" style="fill:#455a64"></path><path d="M257.46,316.51l.28.5a3.39,3.39,0,0,0,1.34,1.34l.51.28-.51.27a3.41,3.41,0,0,0-1.34,1.35l-.28.5-.27-.5a3.41,3.41,0,0,0-1.34-1.35l-.51-.27.51-.28a3.39,3.39,0,0,0,1.34-1.34Z" style="fill:#455a64"></path><path d="M532.76,314.63l.28.51a3.39,3.39,0,0,0,1.34,1.34l.5.27-.5.28a3.32,3.32,0,0,0-1.34,1.34l-.28.5-.27-.5a3.39,3.39,0,0,0-1.34-1.34l-.51-.28.51-.27a3.45,3.45,0,0,0,1.34-1.34Z" style="fill:#455a64"></path><path d="M404.64,164.11l.27.5a3.39,3.39,0,0,0,1.34,1.34l.51.28-.51.27a3.45,3.45,0,0,0-1.34,1.34l-.27.51-.28-.51A3.45,3.45,0,0,0,403,166.5l-.51-.27L403,166a3.39,3.39,0,0,0,1.34-1.34Z" style="fill:#455a64"></path><path d="M255.85,144.93l.27.5a3.41,3.41,0,0,0,1.34,1.35l.51.27-.51.28a3.39,3.39,0,0,0-1.34,1.34l-.27.5-.28-.5a3.32,3.32,0,0,0-1.34-1.34l-.5-.28.5-.27a3.35,3.35,0,0,0,1.34-1.35Z" style="fill:#455a64"></path><path d="M357.54,77.9l1,1.74a11.65,11.65,0,0,0,4.63,4.63l1.74,1-1.74,1a11.65,11.65,0,0,0-4.63,4.63l-1,1.74-1-1.74A11.65,11.65,0,0,0,352,86.17l-1.74-1,1.74-1a11.65,11.65,0,0,0,4.63-4.63Z" style="fill:#455a64"></path><path d="M254.27,389.42l.95,1.74a11.59,11.59,0,0,0,4.63,4.63l1.74,1-1.74.95a11.65,11.65,0,0,0-4.63,4.63l-.95,1.74-1-1.74a11.65,11.65,0,0,0-4.63-4.63l-1.74-.95,1.74-1a11.59,11.59,0,0,0,4.63-4.63Z" style="fill:#455a64"></path></g></svg>