<svg xmlns="http://www.w3.org/2000/svg" xmlns:xlink="http://www.w3.org/1999/xlink" viewBox="0 0 750 500"><defs><clipPath id="freepik--clip-path--inject-58"><path d="M369.09,415.48h0a11.14,11.14,0,0,0-9.69,5.2,11,11,0,0,0,3.21,15.22,10.6,10.6,0,0,0,5.51,1.65h0l54.38.66,2-21.57Z" style="fill:none"></path></clipPath></defs><g id="freepik--background-complete--inject-58"><path d="M127.36,87.89s-21.64,96.89-19.19,94.43,9.5-15.25,9.5-15.25S99.81,236.92,102.27,234s7.38-9.34,7.38-9.34-9.81,30-7.61,27,8.59-10.26,8.59-10.26L84.07,383.48H179L150,256.1s10.33,17.21,9.84,13.28-15.25-48.2-15.25-48.2,11.81,19.18,11.31,16.72S138.18,171,138.18,171s5.9,19.67,7.87,17.7S127.36,87.89,127.36,87.89Z" style="fill:#ebebeb"></path><path d="M380.14,372.44C369.82,364.93,359.88,356.27,354,345s-7.07-25.81-.17-36.54c7.19-11.17,21.43-16.3,28.45-27.57,6.67-10.7,5.38-24.38,8.64-36.55a50.37,50.37,0,0,1,35.54-35c12.07-3.05,25.95-1.83,35.64-9.66,9.16-7.4,11.39-20.5,18.88-29.59a31.28,31.28,0,0,1,51.89,5.45c5.6,10.78,4.49,23.78,1.9,35.65s-6.53,23.66-6.14,35.81c.31,9.78,3.44,19.24,5,28.91s1.24,20.33-4.49,28.27c-8.19,11.36-24.65,13.63-34.12,24-11.38,12.42-9.64,32.91-20.74,45.59-6.78,7.74-17.21,11.17-27.3,13.23s-20.56,3.14-29.85,7.59-16.37,6.76-16.2,17.06" style="fill:#f5f5f5"></path><path d="M570.77,92.63s-21.64,96.9-19.18,94.44,9.49-15.25,9.49-15.25-17.85,69.84-15.39,66.89,7.37-9.34,7.37-9.34-9.81,30-7.61,27.05,8.6-10.26,8.6-10.26L527.49,388.23h94.92l-29-127.39s10.33,17.22,9.84,13.28S588,225.92,588,225.92s11.81,19.18,11.32,16.73-17.71-66.9-17.71-66.9,5.9,19.68,7.87,17.71S570.77,92.63,570.77,92.63Z" style="fill:#ebebeb"></path><path d="M306.75,182.67s-15.05,67.38-13.34,65.67,6.61-10.6,6.61-10.6-12.42,48.56-10.71,46.51,5.13-6.5,5.13-6.5-6.82,20.87-5.29,18.82,6-7.14,6-7.14l-18.47,98.8h66l-20.18-88.59s7.18,12,6.84,9.24-10.61-33.52-10.61-33.52,8.21,13.34,7.87,11.63-12.31-46.52-12.31-46.52,4.1,13.68,5.47,12.32S306.75,182.67,306.75,182.67Z" style="fill:#ebebeb"></path><path d="M332.42,83.12a58.86,58.86,0,0,1,13.7-37.83,59.1,59.1,0,1,0,83.23,83.23,59.09,59.09,0,0,1-96.93-45.4Z" style="fill:#e0e0e0"></path><path d="M540.41,65.09l.92,1.68a3.78,3.78,0,0,0,1.51,1.51l1.68.92-1.68.92a3.76,3.76,0,0,0-1.51,1.5l-.92,1.68-.92-1.68a3.73,3.73,0,0,0-1.5-1.5l-1.68-.92,1.68-.92a3.76,3.76,0,0,0,1.5-1.51Z" style="fill:#ebebeb"></path><path d="M398.31,73.3l.92,1.68a3.82,3.82,0,0,0,1.5,1.51l1.68.92-1.68.92a3.73,3.73,0,0,0-1.5,1.5l-.92,1.68-.92-1.68a3.73,3.73,0,0,0-1.5-1.5l-1.69-.92,1.69-.92a3.82,3.82,0,0,0,1.5-1.51Z" style="fill:#ebebeb"></path><path d="M334,173.71l.56,1a2.26,2.26,0,0,0,.92.92l1,.56-1,.57a2.3,2.3,0,0,0-.92.91l-.56,1-.57-1a2.3,2.3,0,0,0-.92-.91l-1-.57,1-.56a2.26,2.26,0,0,0,.92-.92Z" style="fill:#ebebeb"></path><path d="M567.77,23.5l.56,1a2.46,2.46,0,0,0,.92.92l1,.56-1,.56a2.46,2.46,0,0,0-.92.92l-.56,1-.56-1a2.33,2.33,0,0,0-.92-.92l-1-.56,1-.56a2.33,2.33,0,0,0,.92-.92Z" style="fill:#ebebeb"></path></g><g id="freepik--Forest--inject-58"><path d="M89.89,151.08s-17.23,77.16-15.28,75.21,7.56-12.15,7.56-12.15S68,269.76,69.91,267.41,75.79,260,75.79,260,68,283.86,69.73,281.51s6.84-8.17,6.84-8.17L55.42,386.48H131L107.91,285s8.22,13.71,7.83,10.57-12.14-38.38-12.14-38.38,9.4,15.27,9,13.32-14.1-53.27-14.1-53.27,4.7,15.66,6.26,14.1S89.89,151.08,89.89,151.08Z" style="fill:#263238"></path><path d="M165.58,82.2s-21.64,96.89-19.18,94.43,9.49-15.24,9.49-15.24S138,231.23,140.5,228.28s7.37-9.35,7.37-9.35-9.81,30-7.61,27,8.6-10.26,8.6-10.26L122.3,377.8h94.92l-29-127.39s10.32,17.22,9.83,13.28-15.24-48.2-15.24-48.2,11.8,19.18,11.31,16.72-17.71-66.89-17.71-66.89S182.3,185,184.27,183,165.58,82.2,165.58,82.2Z" style="fill:#455a64"></path><path d="M631,66s-23.63,105.78-20.94,103.1,10.36-16.65,10.36-16.65-19.49,76.25-16.81,73,8.06-10.2,8.06-10.2-10.71,32.76-8.31,29.53,9.38-11.2,9.38-11.2l-29,155.11H687.4L655.72,249.68s11.28,18.79,10.74,14.5-16.65-52.63-16.65-52.63,12.89,20.94,12.35,18.26-19.33-73-19.33-73,6.45,21.48,8.59,19.33S631,66,631,66Z" style="fill:#455a64"></path></g><g id="freepik--Floor--inject-58"><path d="M722.27,388.75c0,.15-31.79.27-71,.27s-71-.12-71-.27,31.79-.26,71-.26S722.27,388.61,722.27,388.75Z" style="fill:#263238"></path><path d="M119.52,386.48c0,.15-21.45.27-47.9.27s-47.89-.12-47.89-.27,21.44-.26,47.89-.26S119.52,386.34,119.52,386.48Z" style="fill:#263238"></path><path d="M716.45,339.5a1.72,1.72,0,0,1-.16.49c-.15.37-.33.82-.56,1.37-.5,1.17-1.2,2.88-2.05,5-1.69,4.25-3.85,10.18-5.8,16.87s-3.29,12.87-4.14,17.36c-.42,2.24-.74,4.07-1,5.33-.1.58-.19,1.06-.26,1.45a1.79,1.79,0,0,1-.12.5,1.86,1.86,0,0,1,0-.52c0-.39.1-.87.16-1.46.15-1.27.41-3.11.79-5.37a161,161,0,0,1,4-17.43,159.13,159.13,0,0,1,6-16.86c.89-2.11,1.65-3.8,2.21-5l.65-1.32A2.38,2.38,0,0,1,716.45,339.5Z" style="fill:#263238"></path><path d="M698.42,369.66a24.4,24.4,0,0,1-.12,2.83,35.4,35.4,0,0,0,2,13.38,24.79,24.79,0,0,1,.95,2.67A11,11,0,0,1,700,386a29.19,29.19,0,0,1-2-13.53A10.72,10.72,0,0,1,698.42,369.66Z" style="fill:#263238"></path><path d="M719.31,367.4c.05.09-1.27.71-3.11,2.12a23.29,23.29,0,0,0-3,2.75,25.71,25.71,0,0,0-2.92,4,24.83,24.83,0,0,0-2,4.54,22.6,22.6,0,0,0-.88,4c-.29,2.3-.16,3.75-.27,3.76a4.29,4.29,0,0,1-.13-1,7.26,7.26,0,0,1,0-1.19,13,13,0,0,1,.07-1.59,20.23,20.23,0,0,1,.79-4.07,21.94,21.94,0,0,1,5-8.74,20.85,20.85,0,0,1,3.11-2.73,13.34,13.34,0,0,1,1.34-.86,6.63,6.63,0,0,1,1-.57A3.34,3.34,0,0,1,719.31,367.4Z" style="fill:#263238"></path><path d="M44.12,386.05a45.82,45.82,0,0,0-.48-4.85c-.08-.37-.16-.75-.24-1.15s-.25-.8-.37-1.22a24.09,24.09,0,0,0-1-2.64,26.6,26.6,0,0,0-3.42-5.44,26.14,26.14,0,0,0-4.75-4.35A20.26,20.26,0,0,0,31.46,365c-.39-.2-.76-.42-1.13-.58l-1.09-.45a48.24,48.24,0,0,0-4.69-1.35,7.18,7.18,0,0,1,1.32.12,9.17,9.17,0,0,1,1.52.3,14.22,14.22,0,0,1,2,.59l1.12.42c.39.15.77.37,1.17.56A22.34,22.34,0,0,1,34.15,366,26.06,26.06,0,0,1,39,370.41,25.8,25.8,0,0,1,42.48,376a21,21,0,0,1,1,2.7c.12.43.27.85.35,1.26s.14.8.21,1.18a13.43,13.43,0,0,1,.22,2,8.26,8.26,0,0,1,0,1.56A5.62,5.62,0,0,1,44.12,386.05Z" style="fill:#263238"></path><path d="M40,329.3a2.22,2.22,0,0,1,.3.52l.77,1.51c.34.66.73,1.48,1.14,2.44s.93,2.05,1.39,3.29,1,2.58,1.51,4.06,1,3.07,1.49,4.74A103.61,103.61,0,0,1,49.09,357a105,105,0,0,1,1.09,11.33c0,1.75.09,3.42,0,5s-.09,3-.18,4.33-.2,2.51-.3,3.55-.22,1.95-.34,2.68l-.27,1.68a3.2,3.2,0,0,1-.12.58,2.48,2.48,0,0,1,0-.6c0-.44.1-1,.17-1.69s.18-1.63.25-2.67.19-2.24.23-3.55.12-2.76.11-4.31,0-3.21-.08-4.95a109.89,109.89,0,0,0-1.13-11.27A108.73,108.73,0,0,0,46.17,346c-.49-1.67-.93-3.27-1.44-4.73s-1-2.83-1.44-4.06-.92-2.34-1.31-3.31-.76-1.8-1.06-2.47-.51-1.15-.68-1.56A2.52,2.52,0,0,1,40,329.3Z" style="fill:#263238"></path></g><g id="freepik--character-2--inject-58"><path d="M488.52,332.7a2.06,2.06,0,0,1-.86-.24,9,9,0,0,1-2.08-1.25c-.81-.63-1.7-1.45-2.68-2.38a8.12,8.12,0,0,1-2.43-3.71,4.37,4.37,0,0,1,0-2.27l.32.3a10.28,10.28,0,0,0-2.74,2.14,3.36,3.36,0,0,1-2.77.93,1.73,1.73,0,0,1-1.38-1.36c-.07-.48.11-.71.12-.69a2.93,2.93,0,0,0,.05.66,1.58,1.58,0,0,0,1.27,1.08,3.1,3.1,0,0,0,2.43-1,10.09,10.09,0,0,1,2.85-2.28l.46-.18L481,323a3.91,3.91,0,0,0,0,2,8,8,0,0,0,2.26,3.52c.95.93,1.82,1.77,2.58,2.42A14.12,14.12,0,0,0,488.52,332.7Z" style="fill:#FFAB00"></path><path d="M483.28,314.22a8.77,8.77,0,0,0-4.52.78q-4.87,2.28-9.57,4.91c-.85.48-1.84,1.3-1.52,2.22a1.46,1.46,0,0,0,1.48.83,4.21,4.21,0,0,0,1.7-.62,1.18,1.18,0,0,0-.78,1.71,1.87,1.87,0,0,0,1.95.79,4.85,4.85,0,0,0,2-1,1.35,1.35,0,0,0,.64,1.92,2.47,2.47,0,0,0,2.21-.29,15.62,15.62,0,0,0,1.79-1.46,12.28,12.28,0,0,1,2.17-1.14,11.46,11.46,0,0,0,3.27,7.06,30.26,30.26,0,0,0,6.43,4.4,65.52,65.52,0,0,0,7.92-10.81c-3.72-3.21-7.12-5.14-10.93-7.77a9,9,0,0,0-4.23-1.54Z" style="fill:#b78876"></path><path d="M493.7,322.22a7,7,0,0,1-1.11-.68l-3-2c-1.26-.81-2.77-1.75-4.48-2.75a13.86,13.86,0,0,0-2.72-1.37,2.81,2.81,0,0,0-.72-.15.78.78,0,0,0-.57.18c-.25.18.24.68.57,1.13l3.73,4.82.09.12-.06.12a5.82,5.82,0,0,0-.36,4,5.75,5.75,0,0,0,1.65,2.71,7.77,7.77,0,0,0,2.48,1.46,2.06,2.06,0,0,1-.77-.16,5.77,5.77,0,0,1-1.9-1.08,5.87,5.87,0,0,1-1.84-2.82,6.21,6.21,0,0,1,.31-4.29l0,.25-3.76-4.8c-.17-.24-.34-.44-.53-.7a1.29,1.29,0,0,1-.2-.49.73.73,0,0,1,.18-.58,1.74,1.74,0,0,1,1.82-.17,14,14,0,0,1,2.81,1.44c1.7,1,3.2,2,4.44,2.86s2.22,1.57,2.89,2.08A6.52,6.52,0,0,1,493.7,322.22Z" style="fill:#aa6550"></path><path d="M480.82,320.52a17.58,17.58,0,0,1-3.39,1.9A21.49,21.49,0,0,1,473.9,324a11.56,11.56,0,0,1,3.31-2A13.66,13.66,0,0,1,480.82,320.52Z" style="fill:#aa6550"></path><path d="M483.42,319.25a19.06,19.06,0,0,1-3.49-.68h.14l-3.16,1.38-4.54,2a13.39,13.39,0,0,1-1.9.78c-.09-.17,2.68-1.7,6.24-3.21,1.16-.5,2.25-1,3.19-1.32l.07,0H480A18.42,18.42,0,0,1,483.42,319.25Z" style="fill:#aa6550"></path><path d="M634.78,418.21l3.13,12h31s-7.21-5.49-21.43-5.28l-1.38-6.7Z" style="fill:#b78876"></path><path d="M548.46,365l17.47-18.29-2,24.54-6.81,15.25,48.57,27.43s5.71-28.24,8.77-47.77c2.48-15.81,3.74-50.23,3.74-50.23L603.93,309l-21.23,2-8.62,2.44a23.27,23.27,0,0,0-9.82,5.63l-27.79,26.67L496.4,320.54l-9.14,15.37,39.58,30.82a16.28,16.28,0,0,0,12.65,3h0A16.24,16.24,0,0,0,548.46,365Z" style="fill:#FFAB00"></path><path d="M617,315.41s10.74,4,13.33,12.39c2.31,7.46,10,49.41,10,49.41l7.62,44.39-16,.61-18.38-75.66Z" style="fill:#FFAB00"></path><path d="M563.56,370.13c0-.12.59-8.51,1.59-19s1.92-18.95,2.05-18.94-.59,8.51-1.59,19S564,371.22,563.56,370.13Z" style="fill:#263238"></path><path d="M598.91,349.26s0,.15-.14.42l-.48,1.15a15.57,15.57,0,0,1-.86,1.79,23.29,23.29,0,0,1-1.28,2.3c-.25.42-.52.85-.8,1.31s-.62.89-1,1.36c-.64,1-1.43,1.89-2.25,2.89a46.71,46.71,0,0,1-6,5.83,47.82,47.82,0,0,1-7,4.56c-1.17.56-2.26,1.13-3.33,1.53-.54.21-1,.44-1.54.62l-1.46.49c-.91.33-1.78.52-2.52.72a18.23,18.23,0,0,1-1.94.43l-1.24.21a1.4,1.4,0,0,1-.43,0,1.7,1.7,0,0,1,.41-.13l1.22-.3a17.77,17.77,0,0,0,1.91-.5c.74-.22,1.59-.43,2.49-.78l1.43-.51c.5-.18,1-.42,1.52-.64,1.06-.42,2.14-1,3.28-1.55a49.4,49.4,0,0,0,7-4.55,50.19,50.19,0,0,0,6-5.74c.81-1,1.61-1.91,2.25-2.84.33-.47.68-.9,1-1.34l.82-1.28c.55-.8.94-1.58,1.33-2.25s.68-1.25.92-1.74l.56-1.12A2.34,2.34,0,0,1,598.91,349.26Z" style="fill:#263238"></path><g style="opacity:0.2"><path d="M569.2,374.43a3.26,3.26,0,0,1-2-3.9,5.64,5.64,0,0,1,3.16-3.45,23.05,23.05,0,0,1,4.63-1.37,38.71,38.71,0,0,0,18.06-10.13c.46-.46,1.11-1,1.68-.65.76.42.29,1.58-.28,2.24a58.24,58.24,0,0,1-25.79,17.3"></path></g><path d="M617.69,364.44a3.92,3.92,0,0,1-.32-.9c-.18-.59-.42-1.45-.71-2.51-.57-2.12-1.31-5.07-2-8.35s-1.33-6.26-1.72-8.42c-.2-1.08-.35-2-.44-2.57a3.81,3.81,0,0,1-.09-1,4,4,0,0,1,.27.93c.16.69.35,1.54.57,2.54.5,2.25,1.15,5.16,1.86,8.38s1.4,6.12,1.91,8.37c.23,1,.42,1.85.57,2.54A3.69,3.69,0,0,1,617.69,364.44Z" style="fill:#263238"></path><path d="M535.88,352.07a14.55,14.55,0,0,1,.15-3.67,14.37,14.37,0,0,1,.6-3.62,14.55,14.55,0,0,1-.15,3.67A15.38,15.38,0,0,1,535.88,352.07Z" style="fill:#263238"></path><path d="M634.59,417.59a6,6,0,0,1,.61,2.22,6.07,6.07,0,0,1,.17,2.31,6,6,0,0,1-.62-2.23A5.67,5.67,0,0,1,634.59,417.59Z" style="fill:#263238"></path><path d="M639.83,417.58a4.91,4.91,0,0,1,.57,2,5,5,0,0,1,.12,2.09,4.83,4.83,0,0,1-.57-2A5.08,5.08,0,0,1,639.83,417.58Z" style="fill:#263238"></path><path d="M644.81,417.08a7.71,7.71,0,0,1,.53,2.28,7.41,7.41,0,0,1,.25,2.32,5,5,0,0,1-.7-2.25A5.25,5.25,0,0,1,644.81,417.08Z" style="fill:#263238"></path><path d="M625.59,320.58c0,.09-1.11,0-2.84.38a13.63,13.63,0,0,0-6.09,3,13.47,13.47,0,0,0-3.8,5.63c-.6,1.66-.68,2.78-.76,2.76a2.14,2.14,0,0,1,0-.78,11.55,11.55,0,0,1,.44-2.09,12.77,12.77,0,0,1,10.14-8.85,11.25,11.25,0,0,1,2.13-.15A2.23,2.23,0,0,1,625.59,320.58Z" style="fill:#263238"></path><path d="M512.82,417.49s-27.35,7.57-28.45,8c-1.65.58-1.37,6.62,1.19,6.52,1.21,0,21,.74,23.51.59s10.05-3.13,10.05-3.13Z" style="fill:#FFAB00"></path><path d="M501.43,427.93a27.77,27.77,0,0,0-1.21-2.94,26.37,26.37,0,0,0-1.93-2.51,6.09,6.09,0,0,1,3.14,5.45Z" style="fill:#263238"></path><path d="M504.28,426.64c-.14,0-.41-1.27-1.14-2.7s-1.59-2.43-1.49-2.52a5.21,5.21,0,0,1,1.9,2.31A5.3,5.3,0,0,1,504.28,426.64Z" style="fill:#263238"></path><path d="M507,425.92a18.58,18.58,0,0,0-.64-2.89,18.27,18.27,0,0,0-1.49-2.56,4.21,4.21,0,0,1,1.92,2.39A4.17,4.17,0,0,1,507,425.92Z" style="fill:#263238"></path><path d="M506.47,422.39a4.92,4.92,0,0,1-.3-2,10.19,10.19,0,0,1,.28-2.23,9.82,9.82,0,0,1,.41-1.27,1.62,1.62,0,0,1,.44-.67.73.73,0,0,1,.94.05,1.17,1.17,0,0,1,.36.77,6,6,0,0,1,0,.72,6.21,6.21,0,0,1-.17,1.34,8,8,0,0,1-.85,2.09,5.69,5.69,0,0,1-1.22,1.65c-.07,0,.39-.68.94-1.8a8.86,8.86,0,0,0,.72-2,6.22,6.22,0,0,0,.13-1.25c0-.42,0-.94-.26-1.15a.28.28,0,0,0-.36,0,1.24,1.24,0,0,0-.3.48,10.8,10.8,0,0,0-.41,1.21,10.41,10.41,0,0,0-.36,2.13C506.42,421.6,506.54,422.38,506.47,422.39Z" style="fill:#263238"></path><path d="M506.5,422.11a3.78,3.78,0,0,1,1.77-.28,7.53,7.53,0,0,1,1.94.23,4.58,4.58,0,0,1,1.11.41,1.16,1.16,0,0,1,.62,1.25,1.35,1.35,0,0,1-1,1,2.55,2.55,0,0,1-1.23,0,4.64,4.64,0,0,1-1.78-.88,4.82,4.82,0,0,1-1.27-1.25,11,11,0,0,1,1.46,1,4.8,4.8,0,0,0,1.68.73,2.15,2.15,0,0,0,1,0,.94.94,0,0,0,.67-.65.71.71,0,0,0-.41-.76,4.25,4.25,0,0,0-1-.39,9.46,9.46,0,0,0-1.85-.32C507.18,422.07,506.51,422.18,506.5,422.11Z" style="fill:#263238"></path><path d="M497.22,428.22a14,14,0,0,0-.54-2.46,13.14,13.14,0,0,0-1.34-2.14c.05-.12,1.19.53,1.77,2A3.15,3.15,0,0,1,497.22,428.22Z" style="fill:#263238"></path><path d="M516.31,429.49a5.64,5.64,0,0,1-1.06.49,23.09,23.09,0,0,1-3,.95,43.62,43.62,0,0,1-10.45,1c-4.1-.05-7.79-.23-10.47-.34l-3.17-.17a6.1,6.1,0,0,1-1.16-.12,6.06,6.06,0,0,1,1.17-.06l3.17,0,10.47.2a49.25,49.25,0,0,0,10.37-.85C514.75,430.08,516.28,429.4,516.31,429.49Z" style="fill:#263238"></path><path d="M517.12,430.11a22.11,22.11,0,0,1-2-.93,9.56,9.56,0,0,0-5.18-.86,8.22,8.22,0,0,0-4.47,2.66,14.41,14.41,0,0,1-1.58,1.61,8.9,8.9,0,0,1,1.34-1.83,10.73,10.73,0,0,1,1.81-1.69,6.54,6.54,0,0,1,2.83-1.2,9,9,0,0,1,5.39,1A7.38,7.38,0,0,1,517.12,430.11Z" style="fill:#263238"></path><path d="M541.86,409.94s25.88,16.95,26.81,17.65c1.39,1.05-.2,6.07-2.62,5.2-1.14-.41-22.86-6.45-25.2-7.36s-8.62-6-8.62-6Z" style="fill:#FFAB00"></path><path d="M549.54,423.35a6.13,6.13,0,0,1,4.65-4.25,28.46,28.46,0,0,0-2.61,1.81A28.12,28.12,0,0,0,549.54,423.35Z" style="fill:#263238"></path><path d="M547.22,421.25a6.86,6.86,0,0,1,4.09-4.18c.07.12-1.07.8-2.19,1.95S547.34,421.31,547.22,421.25Z" style="fill:#263238"></path><path d="M544.89,419.75a5.14,5.14,0,0,1,3.68-4.54,18.1,18.1,0,0,0-2.19,2A18.56,18.56,0,0,0,544.89,419.75Z" style="fill:#263238"></path><path d="M546.42,416.53c-.06,0,.29-.73.59-1.93a10.5,10.5,0,0,0,.3-2.15,10.86,10.86,0,0,0,0-1.27,1.3,1.3,0,0,0-.14-.55.27.27,0,0,0-.36-.08c-.29.12-.45.62-.59,1a6,6,0,0,0-.25,1.23A9.32,9.32,0,0,0,546,415c.19,1.23.43,2,.36,2a5.39,5.39,0,0,1-.67-1.94,7.83,7.83,0,0,1-.17-2.25,6.43,6.43,0,0,1,.24-1.33,5.23,5.23,0,0,1,.26-.68,1.19,1.19,0,0,1,.58-.62.72.72,0,0,1,.91.24,1.6,1.6,0,0,1,.21.77,9.88,9.88,0,0,1,0,1.33,9.76,9.76,0,0,1-.42,2.21A4.56,4.56,0,0,1,546.42,416.53Z" style="fill:#263238"></path><path d="M546.48,416.26c0,.07-.64-.24-1.69-.5a9.41,9.41,0,0,0-1.85-.25,3.74,3.74,0,0,0-1.06.07.71.71,0,0,0-.62.6.89.89,0,0,0,.43.82,2.19,2.19,0,0,0,1,.32,4.8,4.8,0,0,0,1.82-.18,14.23,14.23,0,0,1,1.68-.5,5.83,5.83,0,0,1-3.55,1.1,2.46,2.46,0,0,1-1.17-.37,1.37,1.37,0,0,1-.64-1.23,1.17,1.17,0,0,1,1-1,4,4,0,0,1,1.19-.05,7.63,7.63,0,0,1,1.92.36A3.9,3.9,0,0,1,546.48,416.26Z" style="fill:#263238"></path><path d="M562.75,431.85s-.43-.27-.63-1a3.84,3.84,0,0,1,.48-2.81,10.33,10.33,0,0,1,.87-1.29,4.73,4.73,0,0,1,.88-.94,1.5,1.5,0,0,1,.83-.35c.21,0,.32.05.32.07a2.46,2.46,0,0,0-.94.53,6.28,6.28,0,0,0-.75.94,14.46,14.46,0,0,0-.8,1.26,3.93,3.93,0,0,0-.57,2.53C562.53,431.45,562.81,431.8,562.75,431.85Z" style="fill:#263238"></path><path d="M553.46,424.9a3.92,3.92,0,0,1,3.19-3.82,14.9,14.9,0,0,0-1.93,1.64A14.19,14.19,0,0,0,553.46,424.9Z" style="fill:#263238"></path><path d="M534.89,420.31a8.34,8.34,0,0,1,1.14.78,34.61,34.61,0,0,0,3.19,2,42.51,42.51,0,0,0,5.07,2.25c2,.73,4.16,1.42,6.48,2.1,4.66,1.34,8.88,2.56,11.92,3.48l3.59,1.1a8.2,8.2,0,0,1,1.31.47,8.25,8.25,0,0,1-1.35-.3l-3.64-1c-3.07-.84-7.29-2-12-3.35-2.33-.68-4.53-1.39-6.5-2.14a38.32,38.32,0,0,1-5.08-2.37,26.16,26.16,0,0,1-3.14-2.1A7,7,0,0,1,534.89,420.31Z" style="fill:#263238"></path><path d="M533.93,420.66a7.14,7.14,0,0,1,2.19-.59,9.1,9.1,0,0,1,5.44.67,6.48,6.48,0,0,1,2.33,2,11.08,11.08,0,0,1,1.22,2.16,8.84,8.84,0,0,1,.72,2.15,14.39,14.39,0,0,1-1-2,8.14,8.14,0,0,0-3.45-3.89,9.51,9.51,0,0,0-5.19-.76C534.79,420.54,534,420.73,533.93,420.66Z" style="fill:#263238"></path><path d="M494.08,336.3a10,10,0,0,1-2.69-1.52,9.81,9.81,0,0,1-2.42-1.93,9.61,9.61,0,0,1,2.7,1.52A9.41,9.41,0,0,1,494.08,336.3Z" style="fill:#263238"></path><path d="M496.75,332.11a18.72,18.72,0,0,1-5.11-3.44,9.56,9.56,0,0,1,2.7,1.51A9.41,9.41,0,0,1,496.75,332.11Z" style="fill:#263238"></path><path d="M499.21,328.11a9.92,9.92,0,0,1-2.7-1.52,9.41,9.41,0,0,1-2.41-1.93,9.75,9.75,0,0,1,2.7,1.52A9.41,9.41,0,0,1,499.21,328.11Z" style="fill:#263238"></path><path d="M509.71,417.18s63.48-41.64,66.08-42.51,8.88-5,15.16-3.25,11.92,7.37,14.73,15.6,3,26.64,3,26.64-5,14.52-14.73,17.55a25.47,25.47,0,0,1-2.54.63,30,30,0,0,1-30.66-13.24l-1.42-2.16s-41.52,15.26-42.17,15Z" style="fill:#263238"></path><path d="M488.06,368.61a12.39,12.39,0,0,0-7.79,11.48c-.07,16.68,33.7,35.06,33.7,35.06l44.93-29.77v-3.13S501.06,361.46,488.06,368.61Z" style="fill:#263238"></path><path d="M588.25,405.72l-.35.15-1,.41-4,1.55-15,5.64c-6.35,2.37-14,5.18-22.5,8.29s-18,6.51-28.11,9.93l-.18.07-.09-.18-5-9.47c-.87-1.65-1.73-3.29-2.53-4.83l-.1-.18.18-.11L558,386.25l14.55-9.18,4-2.46,1-.63.36-.21s-.11.09-.34.24l-1,.67-3.9,2.54-14.47,9.29-48.34,30.86.07-.3c.81,1.53,1.67,3.18,2.53,4.83l5,9.47-.27-.11c10.1-3.41,19.56-6.8,28.11-9.88l22.53-8.2,15-5.5,4.05-1.48,1-.37Z" style="fill:#455a64"></path><path d="M536.14,400.42a8.42,8.42,0,0,1-1.17-.8c-.74-.53-1.79-1.32-3.08-2.32-2.57-2-6.07-4.8-9.83-8s-7.09-6.27-9.44-8.51c-1.18-1.13-2.12-2-2.76-2.69a8.9,8.9,0,0,1-1-1,8.15,8.15,0,0,1,1.08.91l2.86,2.58c2.41,2.18,5.75,5.17,9.51,8.4s7.23,6.08,9.74,8.13l3,2.43A7.61,7.61,0,0,1,536.14,400.42Z" style="fill:#455a64"></path><path d="M500.75,374.84a8.89,8.89,0,0,1,4.33.39,9.14,9.14,0,0,1,3.85,2c-.08.12-1.72-.92-4-1.58S500.74,375,500.75,374.84Z" style="fill:#455a64"></path><path d="M504.62,372.21a6.87,6.87,0,0,1,4.06,5c-.13.05-.62-1.35-1.76-2.74S504.55,372.33,504.62,372.21Z" style="fill:#455a64"></path><path d="M485.59,425s.54-.16,1.16.36a4.18,4.18,0,0,1,1.3,2.6,5.15,5.15,0,0,1-.41,2.88c-.32.68-.67,1-.71,1a9,9,0,0,1,.41-1.09,5.88,5.88,0,0,0,.26-2.69,4.51,4.51,0,0,0-1.07-2.43C486.06,425.12,485.58,425.1,485.59,425Z" style="fill:#263238"></path><path d="M506,410.27a3.83,3.83,0,0,1-.71-.43c-.46-.3-1.13-.73-2-1.33-1.69-1.19-4.1-3-6.93-5.35a113,113,0,0,1-9.44-8.9,36.14,36.14,0,0,1-4.8-6,12.48,12.48,0,0,1-1.53-3.81,15.55,15.55,0,0,1-.33-2.08,15.31,15.31,0,0,1,0-2.14,17.12,17.12,0,0,1,2.66-7.83,11.44,11.44,0,0,1,6.36-4.27,35.8,35.8,0,0,1,12.94-1,66.12,66.12,0,0,1,8.64,1.41c1,.22,1.79.41,2.32.55a4.4,4.4,0,0,1,.79.24,6.34,6.34,0,0,1-.82-.14l-2.33-.46a76.4,76.4,0,0,0-8.63-1.25,36.11,36.11,0,0,0-12.77,1.06,11,11,0,0,0-6.09,4.11,16.69,16.69,0,0,0-2.56,7.6,14.09,14.09,0,0,0,0,2.05,14.77,14.77,0,0,0,.32,2,11.77,11.77,0,0,0,1.47,3.67,36.55,36.55,0,0,0,4.7,6,121.64,121.64,0,0,0,9.34,8.95c2.8,2.41,5.16,4.23,6.82,5.46l1.91,1.41A7.49,7.49,0,0,1,506,410.27Z" style="fill:#FFAB00"></path><path d="M508.08,375.93a19,19,0,0,0-6.06-2.51,19.29,19.29,0,0,0-6.55.17,5.16,5.16,0,0,1,1.87-.64,12.71,12.71,0,0,1,9.23,1.71A5,5,0,0,1,508.08,375.93Z" style="fill:#FFAB00"></path><path d="M557.35,386.35c.08.12-10.3,7.09-23.17,15.57s-23.37,15.27-23.44,15.15S521,410,533.91,401.5,557.27,386.24,557.35,386.35Z" style="fill:#FFAB00"></path><path d="M573.15,281c-6.75-7.29-.29-16.46,2.86-18.9s7.33-4,11.08-2.63c2.44-2.91,6.86-3.39,10.53-2.41a10.29,10.29,0,0,1,7.28,8c.45,2.6-.11,5.42,1.08,7.77.85,1.68,2.45,2.81,3.87,4s2.78,2.78,2.88,4.65-1.81,3.84-3.54,3.13a17.85,17.85,0,0,1,2.92,5.09,6,6,0,0,1-.79,5.59c-1.27,1.51-3.83,1.92-5.21.52a6.61,6.61,0,0,1,.24,4.16,3.51,3.51,0,0,1-3.08,2.52,2.42,2.42,0,0,1-2.42-2.76" style="fill:#263238"></path><path d="M602.52,275.66l1.69,34.19A10.19,10.19,0,0,1,594,320.54h0a10.18,10.18,0,0,1-10.17-9.7c-.13-2.57-.24-4.72-.27-5,0,0-8.74-.39-9.8-9-.51-4.15-.86-12.78-1.09-20.59a16.1,16.1,0,0,1,14.34-16.47l.83-.1C596.88,259.27,602.3,266.65,602.52,275.66Z" style="fill:#b78876"></path><path d="M583.57,305.74a20.16,20.16,0,0,0,10.86-4.42s-2,6.47-10.63,6.65Z" style="fill:#aa6550"></path><path d="M575.44,281.67a1.23,1.23,0,0,0,1.32,1.1,1.18,1.18,0,0,0,1.15-1.24,1.24,1.24,0,0,0-1.32-1.11A1.18,1.18,0,0,0,575.44,281.67Z" style="fill:#263238"></path><path d="M575,280.32c.17.14,1-.65,2.35-.79s2.36.41,2.48.23-.12-.35-.58-.61a3.4,3.4,0,0,0-2-.39,3.29,3.29,0,0,0-1.84.83C575.05,280,574.94,280.25,575,280.32Z" style="fill:#263238"></path><path d="M588.41,280.55a1.24,1.24,0,0,0,1.32,1.11,1.2,1.2,0,0,0,1.15-1.25,1.24,1.24,0,0,0-1.32-1.11A1.19,1.19,0,0,0,588.41,280.55Z" style="fill:#263238"></path><path d="M588,279.13c.17.14,1-.65,2.35-.79s2.36.41,2.49.23-.13-.35-.58-.61a3.38,3.38,0,0,0-2-.38,3.16,3.16,0,0,0-1.84.83C588.06,278.76,588,279.07,588,279.13Z" style="fill:#263238"></path><path d="M584.32,289.45a9.63,9.63,0,0,0-2.19-.15c-.34,0-.67,0-.75-.25a1.78,1.78,0,0,1,.12-1c.22-.86.46-1.75.71-2.68a45.21,45.21,0,0,0,1.5-7,45.84,45.84,0,0,0-2.06,6.83c-.23.94-.45,1.83-.67,2.69a2,2,0,0,0,0,1.34.85.85,0,0,0,.61.43,1.94,1.94,0,0,0,.58,0A8.08,8.08,0,0,0,584.32,289.45Z" style="fill:#263238"></path><path d="M588.31,289.94c-.22,0-.06,1.44-1.18,2.6s-2.66,1.16-2.65,1.36.38.24,1,.19a3.57,3.57,0,0,0,2.22-1.06,3.16,3.16,0,0,0,.9-2.17C588.6,290.26,588.41,289.92,588.31,289.94Z" style="fill:#263238"></path><path d="M587.12,274c.17.35,1.47,0,3,.05s2.87.3,3-.05c.08-.16-.18-.48-.72-.77a5.1,5.1,0,0,0-2.32-.53,5,5,0,0,0-2.31.53C587.3,273.51,587.05,273.83,587.12,274Z" style="fill:#263238"></path><path d="M575.09,276.44c.26.27,1.14-.14,2.23-.27s2,0,2.22-.36c.08-.17-.1-.45-.54-.69a3.07,3.07,0,0,0-1.87-.29,3.15,3.15,0,0,0-1.72.8C575.06,276,575,276.3,575.09,276.44Z" style="fill:#263238"></path><path d="M602.52,282.11c.14-.08,5.71-2.4,6.17,3.49s-5.55,5.15-5.58,5S602.52,282.11,602.52,282.11Z" style="fill:#b78876"></path><path d="M604.74,288.2s.11.07.29.13a1,1,0,0,0,.77,0,2.57,2.57,0,0,0,1-2.37,3.36,3.36,0,0,0-.41-1.45,1.17,1.17,0,0,0-.83-.73.53.53,0,0,0-.59.33c-.06.17,0,.29-.05.3s-.13-.09-.1-.34a.64.64,0,0,1,.2-.39.79.79,0,0,1,.56-.19,1.43,1.43,0,0,1,1.14.83,3.51,3.51,0,0,1,.49,1.62,2.68,2.68,0,0,1-1.3,2.66,1.12,1.12,0,0,1-.95-.08C604.76,288.35,604.72,288.22,604.74,288.2Z" style="fill:#aa6550"></path><path d="M582.27,305.27s-.1,0-.29,0a5.16,5.16,0,0,1-.81-.09,7.68,7.68,0,0,1-2.78-1.17,10.45,10.45,0,0,1-3.06-3.27,11.85,11.85,0,0,1-1.12-2.41,17.81,17.81,0,0,1-.6-2.78,86.63,86.63,0,0,1-.74-9.83c0-1.26,0-2.28,0-3a4,4,0,0,1,.06-1.1,5.25,5.25,0,0,1,.14,1.09c.05.81.12,1.8.2,3,.17,2.51.32,6,.88,9.77a11.67,11.67,0,0,0,4.48,8.25A9.8,9.8,0,0,0,582.27,305.27Z" style="fill:#FFAB00"></path><path d="M594.43,259c4.92-.05,7.8,5.74,9.08,10.49s1.64,9.75-.9,14a6,6,0,0,1-2.68,1.71,2.5,2.5,0,0,1-2.41-1.39,7,7,0,0,1,.46-7.93,29,29,0,0,1-4.87-8.54,11.2,11.2,0,0,1-5.59,3.94,3.19,3.19,0,0,1-2.13.07,1.34,1.34,0,0,1-.75-1.78,10.09,10.09,0,0,1-5.1,3.36,5.62,5.62,0,0,1-5.63-1.7,3.94,3.94,0,0,1,.57-5.5S577.35,259.18,594.43,259Z" style="fill:#263238"></path></g><g id="freepik--character-1--inject-58"><path d="M128.71,365.27,324.91,329s32.42,9.62,32.42,40.9-17.19,42.91-26.21,46.52l-196,40.74Z" style="fill:#FFAB00"></path><path d="M132.59,365.27c-12,0-22.71,6.08-30,15.71L110,393.22l-11.46-6a52.07,52.07,0,0,0-1.43,44.93l20.1-8.17L98.54,435.15c7,13.19,19.64,22,34.05,22,22,0,39.9-20.57,39.9-45.94S154.63,365.27,132.59,365.27Z" style="fill:#FFAB00"></path><g style="opacity:0.5"><path d="M132.59,365.27c-12,0-22.71,6.08-30,15.71L110,393.22l-11.46-6a52.07,52.07,0,0,0-1.43,44.93l20.1-8.17L98.54,435.15c7,13.19,19.64,22,34.05,22,22,0,39.9-20.57,39.9-45.94S154.63,365.27,132.59,365.27Z"></path></g><path d="M171.73,408.11s.09-.15.28-.42l.87-1.21a24.94,24.94,0,0,1,4-4.14,24.09,24.09,0,0,1,8-4.17,51.4,51.4,0,0,1,11.87-1.76c2.22-.11,4.55-.19,7-.26l7.56-.25c5.22-.14,10.81-.12,16.67-.43,2.93-.15,5.92-.43,9-.87a57.61,57.61,0,0,0,9.14-2,46.82,46.82,0,0,0,8.9-3.82,76.09,76.09,0,0,0,8.33-5.53c5.42-4.05,10.5-8.36,16.05-11.62a47.61,47.61,0,0,1,8.56-4l2.17-.77,2.18-.66c1.44-.46,2.88-.84,4.3-1.21a206.65,206.65,0,0,1,30.78-5.28,158.11,158.11,0,0,1,21-.88c2.49.14,4.42.24,5.71.44l1.48.19.5.09-.51,0-1.48-.14c-1.29-.17-3.22-.24-5.7-.35a168.33,168.33,0,0,0-21,1,210.61,210.61,0,0,0-30.69,5.38c-1.42.37-2.86.75-4.29,1.21l-2.16.67-2.16.77a46.71,46.71,0,0,0-8.48,3.94c-5.5,3.24-10.56,7.54-16,11.6a78.68,78.68,0,0,1-8.39,5.57,46.9,46.9,0,0,1-9,3.85,57.49,57.49,0,0,1-9.22,2c-3.05.43-6.06.71-9,.85-5.88.3-11.46.27-16.68.39l-7.56.22q-3.64.09-7,.22A51.52,51.52,0,0,0,185,398.44a24.12,24.12,0,0,0-8,4.05,25.34,25.34,0,0,0-4,4.05l-.91,1.18Z" style="fill:#263238"></path><path d="M280.58,394.64a1.18,1.18,0,0,1,.21-.22c.15-.15.37-.37.67-.64a15.06,15.06,0,0,1,3-1.95,15.54,15.54,0,0,1,5.57-1.46,14.59,14.59,0,0,1,7.57,1.5l.18.09-.14.15a34.2,34.2,0,0,1-10.8,7.61,35.11,35.11,0,0,1-15.74,3.1c-.73,0-1.46-.11-2.19-.17a11.36,11.36,0,0,1-2.22-.39,7.46,7.46,0,0,1-2.12-.95,3.66,3.66,0,0,1-1.48-1.88,3.35,3.35,0,0,1,.18-2.41,7.65,7.65,0,0,1,1.35-2,45.37,45.37,0,0,1,3.42-3.37,47.06,47.06,0,0,1,17.48-9.82,49.82,49.82,0,0,1,8.65-1.85,50.41,50.41,0,0,1,8.58-.21c1.4.16,2.8.24,4.16.51a17.28,17.28,0,0,1,4,1.2,8.85,8.85,0,0,1,3.27,2.43,7,7,0,0,1,1.56,3.66,11.38,11.38,0,0,1-2,7.27,20.78,20.78,0,0,1-4.91,5.18,34.86,34.86,0,0,1-11.39,5.72,53.48,53.48,0,0,1-10.34,2c-3.09.3-5.76.38-7.94.42s-3.87,0-5,0l-1.31,0a3.72,3.72,0,0,1-.44,0l.44,0,1.31,0,5-.11c2.18-.07,4.84-.18,7.92-.5a54.44,54.44,0,0,0,10.27-2,34.87,34.87,0,0,0,11.24-5.71,20.25,20.25,0,0,0,4.79-5.09,11,11,0,0,0,1.9-7,6.48,6.48,0,0,0-1.47-3.43,8.45,8.45,0,0,0-3.1-2.29,16.8,16.8,0,0,0-3.85-1.16c-1.34-.26-2.73-.34-4.11-.5a50.53,50.53,0,0,0-8.5.22,48.68,48.68,0,0,0-8.55,1.83,46.57,46.57,0,0,0-20.7,13,7.19,7.19,0,0,0-1.27,1.87,3,3,0,0,0-.17,2.1,3.22,3.22,0,0,0,1.3,1.64,7.37,7.37,0,0,0,2,.89,11.17,11.17,0,0,0,2.14.38c.73.06,1.45.16,2.17.17a35,35,0,0,0,15.57-3,34.24,34.24,0,0,0,10.73-7.48l0,.24a14.32,14.32,0,0,0-7.42-1.53,15.46,15.46,0,0,0-5.51,1.37,14.67,14.67,0,0,0-3,1.87l-.69.6Z" style="fill:#263238"></path><path d="M329.19,333.61h-.46l-1.34,0c-.6,0-1.33-.07-2.19-.06l-3,0a76.87,76.87,0,0,0-18.74,3,75,75,0,0,0-25,12.64A139.88,139.88,0,0,0,266.1,360.4a106.63,106.63,0,0,1-13.56,11.76A37.54,37.54,0,0,1,236,378.83,133.36,133.36,0,0,1,219.29,380c-10.65.17-20.24.05-28.27.49s-14.5,1.33-18.81,2.61a31.77,31.77,0,0,0-4.85,1.79l-1.19.62c-.27.14-.42.2-.42.2s.13-.09.39-.24l1.18-.67a30.33,30.33,0,0,1,4.83-1.89c4.32-1.33,10.81-2.33,18.85-2.77s17.64-.39,28.28-.59a136.12,136.12,0,0,0,16.62-1.15,36.91,36.91,0,0,0,16.36-6.6,106.75,106.75,0,0,0,13.5-11.69,139.68,139.68,0,0,1,12.42-11.2,75.73,75.73,0,0,1,44-15.49h3c.87,0,1.6.07,2.19.1l1.35.08A3.88,3.88,0,0,1,329.19,333.61Z" style="fill:#263238"></path><path d="M358.51,370.38s-.09.16-.29.47l-.88,1.34a25.23,25.23,0,0,1-1.57,2.08,33.31,33.31,0,0,1-2.35,2.68c-3.63,3.95-9.66,8.88-17.5,14.37-3.92,2.76-8.29,5.66-12.92,8.84q-3.48,2.38-7.06,5.09c-2.38,1.83-4.92,3.6-7.62,5.28a80.85,80.85,0,0,1-18,8.34,67.93,67.93,0,0,1-21.05,3.23,115.25,115.25,0,0,1-21.19-2.51c-6.76-1.32-13.22-2.86-19.44-4a109.79,109.79,0,0,0-17.79-2A63,63,0,0,0,195.35,415c-9.35,2-16.36,5.71-20.55,9a34.86,34.86,0,0,0-2.68,2.32c-.72.73-1.29,1.38-1.76,1.91s-.75,1-1,1.27l-.34.42a5.3,5.3,0,0,1,.3-.45l.94-1.31c.46-.53,1-1.2,1.74-1.94a32.24,32.24,0,0,1,2.66-2.37c4.18-3.34,11.21-7.08,20.59-9.17a65,65,0,0,1,7.43-1.23,67.56,67.56,0,0,1,8.15-.32,111.5,111.5,0,0,1,17.87,2c6.23,1.14,12.7,2.66,19.45,4a115.44,115.44,0,0,0,21.09,2.49,67.56,67.56,0,0,0,20.9-3.2,80.69,80.69,0,0,0,17.93-8.27q4-2.49,7.59-5.23c2.39-1.81,4.77-3.5,7.09-5.08,4.65-3.18,9-6.06,13-8.79,7.85-5.45,13.9-10.32,17.56-14.22.93-1,1.74-1.83,2.37-2.64a24.81,24.81,0,0,0,1.61-2.05l.92-1.31C358.39,370.53,358.51,370.38,358.51,370.38Z" style="fill:#263238"></path><path d="M241.64,344.11l-.15.21-.49.59c-.45.5-1.05,1.3-1.94,2.2a53.09,53.09,0,0,1-8.17,7.1,64.6,64.6,0,0,1-14.18,7.47,107.06,107.06,0,0,1-19,5.09c-3.43.63-6.81,1.06-10.08,1.37s-6.45.48-9.46.57c-6,.18-11.48,0-16-.19s-8.24-.48-10.79-.68l-2.92-.26-.76-.08a1,1,0,0,1-.26,0h.26l.76,0,2.94.16c2.54.15,6.23.36,10.78.53s10,.29,16,.08c3-.09,6.17-.27,9.43-.59s6.63-.74,10-1.37a109,109,0,0,0,18.89-5,65,65,0,0,0,14.14-7.33,56.27,56.27,0,0,0,8.23-6.94c.91-.88,1.53-1.66,2-2.14l.53-.56C241.57,344.16,241.63,344.1,241.64,344.11Z" style="fill:#263238"></path><path d="M260.44,431.41h-.28l-.79,0-3.06-.23c-2.66-.2-6.5-.5-11.26-.71a124.28,124.28,0,0,0-16.68.29,67.57,67.57,0,0,0-19.79,4.68c-6.7,2.79-12.71,6.29-18.62,8.57a51.55,51.55,0,0,1-8.59,2.57,49.51,49.51,0,0,1-7.75.95,48.62,48.62,0,0,1-11.26-.78c-1.31-.25-2.32-.48-3-.67l-.77-.22-.26-.08a.78.78,0,0,1,.27,0l.78.16c.68.16,1.7.36,3,.58a50.5,50.5,0,0,0,11.21.63,51.49,51.49,0,0,0,7.69-1,52.44,52.44,0,0,0,8.5-2.59c5.86-2.29,11.86-5.8,18.6-8.6a67.14,67.14,0,0,1,19.93-4.68,120.64,120.64,0,0,1,16.75-.19c4.76.26,8.6.61,11.25.87l3.06.32.79.09A1.45,1.45,0,0,1,260.44,431.41Z" style="fill:#263238"></path><path d="M125.25,391.14l.31,0,.9-.06c.79,0,2-.1,3.46-.06a19.29,19.29,0,0,1,5.42.83,13.12,13.12,0,0,1,6.07,3.95,18.63,18.63,0,0,1,3.68,8,35.9,35.9,0,0,1,.76,10.08,29.4,29.4,0,0,1-2.69,10.83,19.78,19.78,0,0,1-3.32,4.93,15.08,15.08,0,0,1-5.05,3.47,12.15,12.15,0,0,1-3,.79,11.26,11.26,0,0,1-3.07-.07,11.11,11.11,0,0,1-5.31-2.69c-2.93-2.64-4.81-5.95-6.68-9a28.58,28.58,0,0,1-2.32-4.67,15.73,15.73,0,0,1-1-4.85,10.78,10.78,0,0,1,.77-4.55,12.36,12.36,0,0,1,2.43-3.49,30.47,30.47,0,0,0,2.51-2.87,13.91,13.91,0,0,0,1.6-3,29.31,29.31,0,0,1,2.3-5,5.83,5.83,0,0,1,2.55-2.32,3.07,3.07,0,0,1,.88-.21h.31a3.85,3.85,0,0,0-1.15.29,6,6,0,0,0-2.43,2.33,30.07,30.07,0,0,0-2.2,5,14.69,14.69,0,0,1-1.6,3.05,34.48,34.48,0,0,1-2.51,2.91,12.15,12.15,0,0,0-2.34,3.41,10.44,10.44,0,0,0-.72,4.39,19.4,19.4,0,0,0,3.28,9.3c1.87,3,3.76,6.27,6.61,8.83a10.47,10.47,0,0,0,5.07,2.56,10.64,10.64,0,0,0,2.93.07,11.55,11.55,0,0,0,2.88-.76,14.42,14.42,0,0,0,4.88-3.35,19,19,0,0,0,3.25-4.8,29.12,29.12,0,0,0,2.67-10.65,35.49,35.49,0,0,0-.71-10,18.42,18.42,0,0,0-3.54-7.85,13.06,13.06,0,0,0-5.89-3.91,19.75,19.75,0,0,0-5.35-.9c-1.49-.07-2.66,0-3.45,0h-1.21Z" style="fill:#263238"></path><path d="M130.12,401.67a1.94,1.94,0,0,1,.45-.36,4.4,4.4,0,0,1,1.56-.54,5.29,5.29,0,0,1,2.6.32,5.85,5.85,0,0,1,2.68,2.19,8.82,8.82,0,0,1,1.44,4,17.08,17.08,0,0,1-.22,4.8,23.36,23.36,0,0,1-1.3,5.14,7.84,7.84,0,0,1-3.81,4.24,5.18,5.18,0,0,1-2.92.48,5.24,5.24,0,0,1-2.62-1.21,11.33,11.33,0,0,1-2.92-4.46,13.74,13.74,0,0,1-.78-8.84,9.41,9.41,0,0,1,3.34-5,7.72,7.72,0,0,1,1.43-.82,2.12,2.12,0,0,1,.54-.17,12.23,12.23,0,0,0-1.85,1.15,9.37,9.37,0,0,0-3.13,4.91,13.65,13.65,0,0,0,.87,8.58,11,11,0,0,0,2.81,4.26,4.78,4.78,0,0,0,2.38,1.09,4.64,4.64,0,0,0,2.65-.44,7.34,7.34,0,0,0,3.56-4,22.83,22.83,0,0,0,1.31-5,17.12,17.12,0,0,0,.25-4.68,8.39,8.39,0,0,0-1.32-3.8,5.54,5.54,0,0,0-2.49-2.13,5.12,5.12,0,0,0-2.47-.39A5,5,0,0,0,130.12,401.67Z" style="fill:#263238"></path><path d="M110.19,390.54a3,3,0,0,1,0-.44,7.55,7.55,0,0,1,0-1.31,12.29,12.29,0,0,1,1.22-4.88,16.46,16.46,0,0,1,5-6.14,17.23,17.23,0,0,1,4.36-2.43,19.47,19.47,0,0,1,5.49-1.13,27.33,27.33,0,0,1,12.52,2.38,40.64,40.64,0,0,1,12.11,8.27A42.48,42.48,0,0,1,160,398.22a40.64,40.64,0,0,1,3.3,17c-.25,12-5.55,23.27-13.72,29.78a25.79,25.79,0,0,1-13.36,5.86,20.71,20.71,0,0,1-6.66-.38,24.25,24.25,0,0,1-5.78-2.16,34.35,34.35,0,0,1-8.39-6.39,61.64,61.64,0,0,1-5.14-6.09c-1.32-1.75-2.28-3.14-2.94-4.09l-.74-1.08c-.16-.24-.24-.38-.24-.38l.28.35.78,1.05c.68.93,1.68,2.31,3,4a63.57,63.57,0,0,0,5.19,6,33.7,33.7,0,0,0,8.35,6.28,23.85,23.85,0,0,0,5.7,2.1,20.28,20.28,0,0,0,6.54.34,25.43,25.43,0,0,0,13.12-5.8c8-6.44,13.27-17.59,13.51-29.44a40.22,40.22,0,0,0-3.26-16.85,41.91,41.91,0,0,0-9-13.23A40,40,0,0,0,138.59,377a27.08,27.08,0,0,0-12.34-2.42,19.25,19.25,0,0,0-5.4,1.09,17.08,17.08,0,0,0-4.31,2.35,16.31,16.31,0,0,0-5,6,12.61,12.61,0,0,0-1.3,4.8C110.15,389.93,110.22,390.54,110.19,390.54Z" style="fill:#263238"></path><path d="M102.53,430.67a1.38,1.38,0,0,1-.28-.34,10.57,10.57,0,0,1-.7-1,20.58,20.58,0,0,1-2-4.19A30.64,30.64,0,0,1,98.67,410a62.4,62.4,0,0,1,4.79-14.45c.8-1.77,1.48-3.19,2-4.17l.57-1.11c.14-.26.21-.39.23-.38a11.34,11.34,0,0,1-.62,1.57c-.46,1.08-1.08,2.5-1.83,4.23a67.91,67.91,0,0,0-4.61,14.4A31.43,31.43,0,0,0,99.91,425,30.71,30.71,0,0,0,102.53,430.67Z" style="fill:#263238"></path><g style="opacity:0.30000000000000004"><path d="M197.43,352.64c-.48,4.69,1.58,9.31,4.28,13.18s6.08,7.24,8.78,11.11c5.48,7.84,7.95,17.36,9.69,26.77s2.86,19,6.07,28c.76,2.16,1.83,4.47,3.92,5.41,1.62.73,3.49.45,5.25.16l11.22-1.84c3.27-.53,6.8-1.2,9-3.64,3-3.27,2.54-8.33,1.89-12.73l-3.63-24.35c-.49-3.28-1-6.73.16-9.85s4.45-5.73,7.65-4.87a6.86,6.86,0,0,1,4.44,4.93,20.46,20.46,0,0,1,.3,6.9l-2.19,30.72c-.13,1.83-.14,3.95,1.25,5.14a3.82,3.82,0,0,0,4.05.31,7.88,7.88,0,0,0,3-3c2.64-4.17,3.35-9.23,4.23-14.1a156.57,156.57,0,0,1,11.72-37.3c1.48-3.24,3.1-6.48,3.75-10s.22-7.41-2.05-10.17c-2.39-2.91-6.3-4-10-5l-19.14-5c-6.06-1.57-12.21-3.16-18.48-3.07-13.86.21-26.31,8.55-40,10.8"></path></g><path d="M237.29,203.52l-5.11,40.7,20.35,2.69c.63-2.31,2.4-11.38,2.4-11.38s8.6.49,10.49-7.82c.92-4,2.13-12.51,3.13-20.17a15.76,15.76,0,0,0-13.22-17.63h0A15.77,15.77,0,0,0,237.29,203.52Z" style="fill:#ffbe9d"></path><path d="M255,235.41a19.81,19.81,0,0,1-10.2-5.41s1.29,6.54,9.75,7.57Z" style="fill:#eb996e"></path><path d="M265.27,213a1.22,1.22,0,0,1-1.4,1,1.18,1.18,0,0,1-1-1.34,1.22,1.22,0,0,1,1.41-.95A1.15,1.15,0,0,1,265.27,213Z" style="fill:#263238"></path><path d="M265.87,211.36c-.18.12-.93-.74-2.21-1s-2.36.17-2.46,0,.15-.33.62-.54a3.38,3.38,0,0,1,2-.18,3.19,3.19,0,0,1,1.73,1C265.89,211,266,211.3,265.87,211.36Z" style="fill:#263238"></path><path d="M252.69,210.64a1.22,1.22,0,0,1-1.4,1,1.17,1.17,0,0,1-1-1.34,1.21,1.21,0,0,1,1.4-.95A1.16,1.16,0,0,1,252.69,210.64Z" style="fill:#263238"></path><path d="M253.25,208.9c-.18.12-.94-.74-2.22-1s-2.36.17-2.46,0,.15-.34.63-.55a3.29,3.29,0,0,1,2-.17,3.19,3.19,0,0,1,1.72,1C253.26,208.54,253.33,208.85,253.25,208.9Z" style="fill:#263238"></path><path d="M255.86,219.38a9,9,0,0,1,2.16.07c.33,0,.65,0,.75-.17a1.64,1.64,0,0,0,0-1c-.13-.86-.28-1.76-.43-2.7a42.92,42.92,0,0,1-.77-7,44.37,44.37,0,0,1,1.33,6.89q.21,1.41.39,2.7a1.91,1.91,0,0,1-.11,1.32.81.81,0,0,1-.64.36,2,2,0,0,1-.57,0A8.15,8.15,0,0,1,255.86,219.38Z" style="fill:#263238"></path><path d="M251.9,219.46c.21,0-.08,1.42.89,2.66s2.49,1.41,2.46,1.61-.38.19-1,.08a3.53,3.53,0,0,1-2.07-1.26,3,3,0,0,1-.66-2.21C251.58,219.74,251.81,219.43,251.9,219.46Z" style="fill:#263238"></path><path d="M254.65,204c-.2.32-1.44-.12-3-.26s-2.84,0-3-.35c-.05-.17.23-.45.79-.68a5.24,5.24,0,0,1,4.54.46C254.52,203.47,254.74,203.8,254.65,204Z" style="fill:#263238"></path><path d="M266.2,207.55c-.29.24-1.11-.25-2.16-.49s-2-.22-2.14-.57c-.06-.17.14-.43.59-.62a3.13,3.13,0,0,1,1.86-.1,3.07,3.07,0,0,1,1.61,1C266.27,207.11,266.33,207.43,266.2,207.55Z" style="fill:#263238"></path><path d="M248.29,196.33l-.06,0a6.69,6.69,0,0,0-3.34,3.71l-.06.16c-.83,2.31-1.29,4.74-2.15,7a11,11,0,0,1-4.3,5.8c-.86.51-2.24.7-2.66-.21a2.14,2.14,0,0,1-.06-1.15c.78-5.83.31-11.26,1.6-17.25a5.15,5.15,0,0,1,3-3.66c1.45-.63,3.18-1.24,4.43-.28s2.51,4,3.35,5.3" style="fill:#263238"></path><path d="M239.29,207.89c-.13-.09-5.36-2.92-6.39,2.82s4.93,5.59,5,5.42S239.29,207.89,239.29,207.89Z" style="fill:#ffbe9d"></path><path d="M236.51,213.65s-.11,0-.3.09a1,1,0,0,1-.75-.12,2.51,2.51,0,0,1-.74-2.42,3.39,3.39,0,0,1,.54-1.38,1.17,1.17,0,0,1,.89-.63.52.52,0,0,1,.54.38c.05.18,0,.28,0,.3s.14-.07.14-.32a.68.68,0,0,0-.69-.64,1.41,1.41,0,0,0-1.2.69,3.5,3.5,0,0,0-.64,1.54,2.63,2.63,0,0,0,1,2.74,1.06,1.06,0,0,0,.94,0C236.47,213.78,236.53,213.66,236.51,213.65Z" style="fill:#eb996e"></path><path d="M244.29,191.35c-.91-2.58,3.63-5,6.63-5.31s6.41,1.88,9,3.41c1.64,1,3.22,2.15,5.1,2.47a12.78,12.78,0,0,0,3.8-.14,9.35,9.35,0,0,1,3.8.06,3.53,3.53,0,0,1,2.59,2.54,2.21,2.21,0,0,1-2.06,2.6,2.86,2.86,0,1,1-.37,5.34c.94-.44,2,.84,1.65,1.83a3,3,0,0,1-2.41,1.73c-2.59.54-5.29-.39-7.57-1.74s-4.28-3.13-6.53-4.54-6-3.88-8.61-3.54c-1.94.25-3.66,2.15-4.57,1.45a3.53,3.53,0,0,1-1.25-2.94,10.36,10.36,0,0,1,.8-3.22" style="fill:#263238"></path><path d="M273.87,197s-.39.36-1.14.89a8.05,8.05,0,0,1-3.6,1.36,7.38,7.38,0,0,1-5.38-1.39c-1.75-1.28-3-3.37-4.59-5.41a12.14,12.14,0,0,0-5.74-4.45,6.74,6.74,0,0,0-5.85.72,5.11,5.11,0,0,0-2.08,3.41,4.2,4.2,0,0,0,0,1.1q.09.36.12.36a8.89,8.89,0,0,1,.08-1.43,5,5,0,0,1,2.09-3.1,6.39,6.39,0,0,1,5.46-.55,11.78,11.78,0,0,1,5.44,4.29c1.53,2,2.86,4.15,4.74,5.49a7.9,7.9,0,0,0,9.42-.22,5.91,5.91,0,0,0,.79-.76A1.08,1.08,0,0,0,273.87,197Z" style="fill:#455a64"></path><path d="M237.9,207.33s.28-.1.59-.51a3.83,3.83,0,0,0,.72-2c.27-1.86-.93-4.17-.59-6.75A5.91,5.91,0,0,1,240,194.8a4.45,4.45,0,0,1,2.51-1.37,3.79,3.79,0,0,1,2,.15c.44.17.66.33.69.29s-.16-.25-.6-.5a3.63,3.63,0,0,0-2.11-.34,4.69,4.69,0,0,0-2.84,1.42,6.17,6.17,0,0,0-1.53,3.55,10.49,10.49,0,0,0,.32,3.82,11.35,11.35,0,0,1,.44,3A4.51,4.51,0,0,1,237.9,207.33Z" style="fill:#455a64"></path><path d="M256.49,439.65l4.56,22.88,8.83,17.06a2.38,2.38,0,0,1-1.17,3.29h0a2.34,2.34,0,0,1-2.18-.15c-4.22-2.55-19.7-12-19.94-13.73-.28-2-7.39-26.9-7.39-26.9Z" style="fill:#FFAB00"></path><g style="opacity:0.6000000000000001"><path d="M268.71,482.88l-22.46-15.41.21,1a3.59,3.59,0,0,0,1.35,2.09c1.82,1.38,6.94,5.07,18.65,12.23a2.4,2.4,0,0,0,2.25.13Z" style="fill:#fff"></path></g><g style="opacity:0.6000000000000001"><path d="M249.28,459.08a1.43,1.43,0,0,1,.8,1.75,1.39,1.39,0,0,1-1.74.81,1.54,1.54,0,0,1-.83-1.87,1.44,1.44,0,0,1,1.9-.63" style="fill:#fff"></path></g><path d="M261.28,474.09a7.46,7.46,0,0,1,1.6-2.22,7.15,7.15,0,0,1,2.51-1.08c0-.06-.32-.18-.87-.13a3.72,3.72,0,0,0-2,.81,3.82,3.82,0,0,0-1.22,1.74C261.18,473.74,261.22,474.08,261.28,474.09Z" style="fill:#263238"></path><path d="M263.59,476.78c.13.07.69-.83,1.79-1.43a19.63,19.63,0,0,1,2.16-.79,2.68,2.68,0,0,0-2.41.34C263.88,475.59,263.45,476.74,263.59,476.78Z" style="fill:#263238"></path><path d="M257.39,470.86a12.26,12.26,0,0,1,5.83-3.94,6.54,6.54,0,0,0-5.83,3.94Z" style="fill:#263238"></path><path d="M255.42,464c.09.12,1.23-.69,2.86-1.11s3-.32,3-.47a5.88,5.88,0,0,0-5.88,1.58Z" style="fill:#263238"></path><path d="M253.91,457.33a12.15,12.15,0,0,1,2.94-1.23,11.63,11.63,0,0,1,3.19.09c0-.06-.28-.29-.88-.48a5.22,5.22,0,0,0-4.6.87C254.08,457,253.87,457.29,253.91,457.33Z" style="fill:#263238"></path><path d="M256.53,454.84a2,2,0,0,0-.16-.87,6.07,6.07,0,0,0-1.19-2.1,2.74,2.74,0,0,0-1.42-1,1,1,0,0,0-1,.45,1.6,1.6,0,0,0-.13,1.11,3.37,3.37,0,0,0,3.57,2.4A3.91,3.91,0,0,0,259.5,452a1.35,1.35,0,0,0-.18-1.11.94.94,0,0,0-1.07-.28,3.35,3.35,0,0,0-1.33,1.12,7,7,0,0,0-1.16,2.11,2,2,0,0,0-.17.87,10.49,10.49,0,0,1,1.61-2.75,3.08,3.08,0,0,1,1.18-.94.49.49,0,0,1,.58.14.91.91,0,0,1,.08.74,3.48,3.48,0,0,1-2.9,2.43,2.92,2.92,0,0,1-3.06-2,1.11,1.11,0,0,1,.06-.77.52.52,0,0,1,.55-.26,2.5,2.5,0,0,1,1.22.84A9.22,9.22,0,0,1,256.53,454.84Z" style="fill:#263238"></path><g style="opacity:0.30000000000000004"><polygon points="240.53 446.78 257.38 444.1 256.74 440.93 240.07 445.18 240.53 446.78"></polygon></g><path d="M289.15,432l-3.91,17.84s16.81,9.95,16.41,13.32l-34.84-6.33,4.94-28Z" style="fill:#FFAB00"></path><g style="opacity:0.6000000000000001"><path d="M274.74,446.32a1.44,1.44,0,0,0-1.28,1.44,1.39,1.39,0,0,0,1.42,1.28,1.52,1.52,0,0,0,1.35-1.53,1.44,1.44,0,0,0-1.63-1.17" style="fill:#fff"></path></g><g style="opacity:0.6000000000000001"><path d="M266.81,456.78l.6-2.81,33.19,7.12s1.43,1,1,2Z" style="fill:#fff"></path></g><path d="M285.84,449.71c0,.17-.9.09-1.84.49s-1.51,1-1.66.93.29-1,1.43-1.49S285.9,449.56,285.84,449.71Z" style="fill:#263238"></path><path d="M289.22,451.89c0,.17-.78.32-1.49.94s-1,1.35-1.18,1.31-.1-1,.79-1.77S289.24,451.72,289.22,451.89Z" style="fill:#263238"></path><path d="M290.5,456.64c-.16,0-.24-.89.36-1.74s1.47-1.08,1.52-.92-.54.56-1,1.27S290.67,456.65,290.5,456.64Z" style="fill:#263238"></path><path d="M286.28,445.55c-.1.14-.84-.24-1.81-.35s-1.78.06-1.85-.1.77-.64,1.92-.49S286.38,445.43,286.28,445.55Z" style="fill:#263238"></path><g style="opacity:0.30000000000000004"><polygon points="288.37 435.49 287.68 438.66 270.58 435.4 271.08 432.51 288.37 435.49"></polygon></g><path d="M287,441.94a3.39,3.39,0,0,1-1.75-.33,7.85,7.85,0,0,1-2.62-1.61,2.05,2.05,0,0,1-.46-.5.76.76,0,0,1,.09-.92.94.94,0,0,1,.82-.25,2.12,2.12,0,0,1,.63.2,7.1,7.1,0,0,1,1,.57,6.62,6.62,0,0,1,1.42,1.35,3,3,0,0,1,.77,1.61c-.09,0-.39-.57-1.1-1.33a6.67,6.67,0,0,0-1.39-1.16,6.52,6.52,0,0,0-.95-.49c-.35-.17-.67-.23-.79-.08s-.05.08,0,.2a1.61,1.61,0,0,0,.34.37,10.19,10.19,0,0,0,.82.7,10.42,10.42,0,0,0,1.57,1A12.28,12.28,0,0,1,287,441.94Z" style="fill:#263238"></path><path d="M286.73,442.14a2.87,2.87,0,0,1-.15-1.77,6,6,0,0,1,.58-1.87,6.31,6.31,0,0,1,.64-1,1.47,1.47,0,0,1,1.27-.67.81.81,0,0,1,.64.62,2.32,2.32,0,0,1,.07.67,3.68,3.68,0,0,1-.22,1.17,4.06,4.06,0,0,1-1.07,1.67c-.84.78-1.59.85-1.59.79s.61-.31,1.29-1.09a4.18,4.18,0,0,0,.85-1.54,3.62,3.62,0,0,0,.15-1c0-.38-.07-.7-.22-.69s-.52.19-.71.46a5.48,5.48,0,0,0-.61.87,6.14,6.14,0,0,0-.65,1.68C286.76,441.46,286.83,442.13,286.73,442.14Z" style="fill:#263238"></path><path d="M245.89,318.55l56.05,11.34a19,19,0,0,1,14.15,24.78l-22,81.8L266,433.84l17-77-59.77-14.16Z" style="fill:#263238"></path><path d="M202.88,331.37a21.56,21.56,0,0,0-2.64,19,7,7,0,0,0,.25.66c.62,1.23,18.69,13.23,18.69,13.23l15.75,82.2L260.37,440l-6.21-74.83a42.94,42.94,0,0,0-11.24-25.59l-8.07-8.76-29.54-3Z" style="fill:#263238"></path><path d="M291.08,340.45c.06.05-.65,1-1.69,2.56a47.78,47.78,0,0,0-3.61,6.42,51.09,51.09,0,0,0-3,8.32l-.22.79,0-.81a7.73,7.73,0,0,1,0-1.58,6.81,6.81,0,0,1,.26,1.56l-.25,0a38,38,0,0,1,2.81-8.47,39.07,39.07,0,0,1,3.77-6.41c.56-.77,1-1.37,1.4-1.77S291.05,340.43,291.08,340.45Z" style="fill:#455a64"></path><path d="M284,341.81a21.26,21.26,0,0,1-.56,2.46,39.69,39.69,0,0,0-.91,6,37.68,37.68,0,0,0,.09,6.06,22.36,22.36,0,0,1,.22,2.52,9.18,9.18,0,0,1-.57-2.48,28.84,28.84,0,0,1-.23-6.13,29.75,29.75,0,0,1,1.06-6.05A10,10,0,0,1,284,341.81Z" style="fill:#455a64"></path><path d="M255.85,385.51a1.86,1.86,0,0,1-.09-.55c0-.41-.1-.94-.16-1.59l-.53-5.84a155,155,0,0,0-2.65-19.14,37.66,37.66,0,0,0-3.65-9.91,47.89,47.89,0,0,0-5-7.07c-1.56-1.92-2.88-3.43-3.76-4.5-.41-.51-.75-.91-1-1.24a2.36,2.36,0,0,1-.33-.45,2.4,2.4,0,0,1,.4.39c.29.3.64.69,1.08,1.17.93,1,2.29,2.51,3.89,4.41a45.4,45.4,0,0,1,5.13,7.06,37.22,37.22,0,0,1,3.73,10,136.84,136.84,0,0,1,2.52,19.22c.2,2.47.29,4.48.37,5.86,0,.65.05,1.18.07,1.6A2.11,2.11,0,0,1,255.85,385.51Z" style="fill:#455a64"></path><path d="M234.93,446.49a2.29,2.29,0,0,1-.07-.25l-.17-.73c-.14-.68-.33-1.62-.58-2.81-.49-2.5-1.19-6-2.05-10.39-1.69-8.82-4-20.93-6.56-34.31s-4.82-25.51-6.49-34.33c-.83-4.36-1.5-7.9-2-10.4-.24-1.19-.42-2.14-.56-2.82s-.21-1-.21-1a21.9,21.9,0,0,1,.95,3.77c.53,2.44,1.26,6,2.14,10.37,1.74,8.77,4.08,20.89,6.62,34.3s4.77,25.51,6.42,34.33c.79,4.37,1.44,7.92,1.9,10.42.21,1.2.37,2.15.49,2.84l.12.73A1,1,0,0,1,234.93,446.49Z" style="fill:#455a64"></path><path d="M304.64,385.33a2.45,2.45,0,0,1,.1-.57c.11-.42.24-.95.4-1.61.38-1.46.9-3.47,1.54-5.92s1.47-5.47,2.35-8.75,1.91-6.91,2.76-10.74a51,51,0,0,0,1.41-10.94,16.47,16.47,0,0,0-.64-4.72,13.4,13.4,0,0,0-1.84-3.71,30,30,0,0,0-4.09-4.48l-1.22-1.13a3,3,0,0,1-.41-.41s.17.1.47.34.74.59,1.29,1.06a26.91,26.91,0,0,1,4.24,4.42A13.66,13.66,0,0,1,313,342a16.64,16.64,0,0,1,.71,4.84,49.87,49.87,0,0,1-1.39,11.05c-.85,3.85-1.89,7.46-2.81,10.74s-1.74,6.23-2.44,8.73-1.28,4.43-1.7,5.88c-.19.65-.35,1.17-.48,1.59A2.41,2.41,0,0,1,304.64,385.33Z" style="fill:#FFAB00"></path><path d="M259.69,274.63c0,1,6.2,44.65,11.24,47.67s42.17-1.44,42.17-1.44l-2.55-16.47-28.43-1-3.41-36.66a15.08,15.08,0,0,0-7.33-11.58h0Z" style="fill:#FFAB00"></path><path d="M208.8,237c7.7-1.91,16.17-2.06,24.92-1.57L253,240.66l19.73,15.54-18.51,49.67,1.18,14.6-19.71,11.25-30.37-3.92-2.62-66.34Z" style="fill:#FFAB00"></path><path d="M231,237c0-.2.07-.39.11-.59a3.83,3.83,0,0,0-.13-.74Z" style="fill:#FFAB00"></path><path d="M256.26,238a1.76,1.76,0,0,0-2-.67,7.86,7.86,0,0,0-2,1,11.7,11.7,0,0,1-9.82.53,18.54,18.54,0,0,1-7.82-6.07,4,4,0,0,0-1-1,1.27,1.27,0,0,0-1.4,0,1.68,1.68,0,0,0-.45,1c-.22,1.2-.43,2.41-.65,3.62-.63,3-2.68,6.15-1.42,9,.67,1.52,2.34,2.37,3.94,3a35.1,35.1,0,0,0,16.72,2,5.28,5.28,0,0,0,3.32-1.29c1-1.06.88-2.62,1-4a13.92,13.92,0,0,1,1.3-5C256.22,239.42,256.6,238.64,256.26,238Z" style="fill:#FFAB00"></path><path d="M231.43,233.41a3.49,3.49,0,0,1,0,1.41,6.59,6.59,0,0,1-1.06,3.25c-.8,1.1-1.69,1.86-2.15,2.56s-.59,1.2-.67,1.18-.07-.59.38-1.37a32.7,32.7,0,0,1,2-2.65,7.83,7.83,0,0,0,1.12-3A5,5,0,0,1,231.43,233.41Z" style="fill:#263238"></path><path d="M252.52,242.54a3,3,0,0,1-.65.66,12,12,0,0,1-2.12,1.37,12.49,12.49,0,0,1-15.25-3.09,10.72,10.72,0,0,1-1.41-2.09,2.73,2.73,0,0,1-.35-.85,25.91,25.91,0,0,0,2,2.71,12.67,12.67,0,0,0,14.84,3A23.78,23.78,0,0,0,252.52,242.54Z" style="fill:#263238"></path><g style="opacity:0.30000000000000004"><path d="M233.31,239.59s.53,6.36,6.89,7.32a14,14,0,0,0,10.9-3.3s-5.24,3.28-10.8,1.49S233.31,239.59,233.31,239.59Z"></path><path d="M242.06,247.08a13.64,13.64,0,0,1-1.87-.14,7.74,7.74,0,0,1-5.84-4,9.34,9.34,0,0,1-1.06-3.31v-.16l.06.15a7.52,7.52,0,0,0,1.4,2.08,12.7,12.7,0,0,0,13,3.34,14.35,14.35,0,0,0,3.31-1.41l0,0a14.23,14.23,0,0,1-9.06,3.45Zm-8.7-7.34a9.48,9.48,0,0,0,1,3.14,7.68,7.68,0,0,0,5.81,4A13.21,13.21,0,0,0,248,245.6a14.07,14.07,0,0,0,2.88-1.84,15.6,15.6,0,0,1-3.11,1.29,12.7,12.7,0,0,1-13.08-3.36A7.73,7.73,0,0,1,233.36,239.74Z" style="fill:#263238"></path></g><path d="M245.69,245.67a5.51,5.51,0,0,0,1.63-5.87c.05,0,.3.27.5.87a4.31,4.31,0,0,1-1.25,4.51C246.09,245.59,245.72,245.72,245.69,245.67Z" style="fill:#263238"></path><path d="M251.92,238.6A3.22,3.22,0,0,1,252,243a15.33,15.33,0,0,0,.35-2.21A16.78,16.78,0,0,0,251.92,238.6Z" style="fill:#263238"></path><path d="M240.73,238.35c.11.09-.77,1.24-1.3,2.91s-.53,3.12-.67,3.12a5,5,0,0,1,.2-3.27A5,5,0,0,1,240.73,238.35Z" style="fill:#263238"></path><path d="M266.2,269.42c.13,0-1.51,5.9-3.66,13.09s-4,13-4.13,13,1.51-5.9,3.66-13.1S266.07,269.38,266.2,269.42Z" style="fill:#263238"></path><path d="M275.15,313.4a4.2,4.2,0,0,1-.26-1.94A8.45,8.45,0,0,1,280,304a4.19,4.19,0,0,1,1.91-.47c0,.08-.71.25-1.76.78a9.38,9.38,0,0,0-3.4,3,9.27,9.27,0,0,0-1.52,4.24C275.12,312.65,275.23,313.39,275.15,313.4Z" style="fill:#263238"></path><path d="M236.69,235.49a6.9,6.9,0,0,0-2.39,4.59c-.06,0-.18-.3-.18-.81a4.2,4.2,0,0,1,.49-2,4.36,4.36,0,0,1,1.31-1.51C236.35,235.52,236.66,235.44,236.69,235.49Z" style="fill:#263238"></path><g style="opacity:0.2"><path d="M271.94,323.51a14.67,14.67,0,0,0,10.23-8.06,9.76,9.76,0,0,1,1.63-2.93,7.48,7.48,0,0,1,4.09-1.73l19.38-3.91c-.06-.89-.11-1.72-.17-2.61l-18.39-.57-13.85,5.46-2.92,13.54"></path></g><g style="opacity:0.30000000000000004"><polygon points="202.89 266.38 208.89 262.97 203.44 280.47 202.89 266.38"></polygon></g><path d="M318.46,286.59c-.29-1.69,1.39-3.16,3.07-3.52s3.44,0,5.15-.16c4.76-.44,8.49-4.61,13.23-5.27a10,10,0,0,1,10,5.3,11,11,0,0,1-1.12,11.37,12.11,12.11,0,0,1-10.61,4.53c-1.92-.18-3.89-.8-5.74-.23a18.15,18.15,0,0,0-3.1,1.66,6.59,6.59,0,0,1-4.2.81,4.05,4.05,0,0,1-3.17-2.66" style="fill:#263238"></path><path d="M218.49,285.91c-7.24-3.43-13.61-4.92-21.6-4.31a54.07,54.07,0,0,0-8.42,1.31c-13.31,3.22-27.79,16.44-25.5,33.87,1.5,11.45,11.48,33.26,33.46,34.84a34.92,34.92,0,0,0,18-3.74,120.38,120.38,0,0,0,11.6-6.64,21.59,21.59,0,0,1,12.66-3.44c6.62.29,16.15-1,23.16-4.73,13-6.87,15.25-16.62,12.47-27.4-2.22-8.62-4.43-19.53-16.68-24.87-6.68-2.91-15.75-3.17-27.17,4.28A13.72,13.72,0,0,1,218.49,285.91Z" style="fill:#263238"></path><path d="M215,290.22a23.45,23.45,0,0,1-8.4-2.54,32.81,32.81,0,0,0-22.06-2.78c-13.3,3.19-24.72,17-22.47,34.16,1.46,11,6.32,31,27.48,33.19a35.58,35.58,0,0,0,19.25-3.63,124,124,0,0,0,11.83-6.7,20.74,20.74,0,0,1,12.09-3.25c6.61.29,16.87-.14,23.48-4.7,10.42-7.16,13.94-16.25,10.75-26.44-2.62-8.35-4.05-19.33-14.84-24.91-6.45-3.33-15.57-1.78-27,5.57A16,16,0,0,1,215,290.22Z" style="fill:#455a64"></path><circle cx="222.22" cy="315.65" r="13.22" transform="translate(-140.33 448.21) rotate(-74.94)" style="fill:#263238"></circle><path d="M208.42,312.68l125.56-29a6.19,6.19,0,0,1,7.44,4.67h0a6.19,6.19,0,0,1-4.68,7.39l-125.19,28.2C208.8,320.34,207.56,316.62,208.42,312.68Z" style="fill:#455a64"></path><path d="M218.85,328.18a2.91,2.91,0,0,1-.95-.17,11.09,11.09,0,0,1-2.42-1,12.4,12.4,0,0,1-5.85-14.94,11.36,11.36,0,0,1,1.11-2.37,3.39,3.39,0,0,1,.58-.77,24.86,24.86,0,0,0-1.36,3.24,12.56,12.56,0,0,0,5.69,14.54A24.35,24.35,0,0,0,218.85,328.18Z" style="fill:#263238"></path><path d="M342.77,294.11c0,.13-29.15,6.83-65.17,15s-65.25,14.62-65.28,14.48,29.14-6.83,65.17-15S342.74,294,342.77,294.11Z" style="fill:#263238"></path><path d="M286.15,294.29c0,.14-17.09,4.24-38.23,9.16s-38.31,8.81-38.34,8.68,17.08-4.23,38.23-9.16S286.12,294.16,286.15,294.29Z" style="fill:#263238"></path><path d="M235,318.06a33.24,33.24,0,0,1-1.72-5.45A34,34,0,0,1,232,307a33.65,33.65,0,0,1,1.72,5.45A34.24,34.24,0,0,1,235,318.06Z" style="fill:#263238"></path><path d="M226.12,320.18a32.77,32.77,0,0,1-1.71-5.44,31.87,31.87,0,0,1-1.24-5.58,67.2,67.2,0,0,1,3,11Z" style="fill:#263238"></path><path d="M217.26,322.3a33.32,33.32,0,0,1-1.72-5.44,34.23,34.23,0,0,1-1.24-5.58,33.65,33.65,0,0,1,1.72,5.45A34.24,34.24,0,0,1,217.26,322.3Z" style="fill:#263238"></path><path d="M243.73,316.28a33.32,33.32,0,0,1-1.72-5.44,34.24,34.24,0,0,1-1.24-5.57,65.47,65.47,0,0,1,3,11Z" style="fill:#263238"></path><path d="M252.47,314.51a33.1,33.1,0,0,1-1.71-5.45,31.87,31.87,0,0,1-1.24-5.57,33.85,33.85,0,0,1,1.71,5.45A32.8,32.8,0,0,1,252.47,314.51Z" style="fill:#263238"></path><path d="M261.17,312.35a32.2,32.2,0,0,1-1.72-5.44,33,33,0,0,1-1.24-5.58,33.65,33.65,0,0,1,1.72,5.45A34.24,34.24,0,0,1,261.17,312.35Z" style="fill:#263238"></path><path d="M269.87,310.25a33.65,33.65,0,0,1-1.72-5.45,32.8,32.8,0,0,1-1.24-5.57,33.24,33.24,0,0,1,1.72,5.45A34,34,0,0,1,269.87,310.25Z" style="fill:#263238"></path><path d="M278.57,308.18a68.59,68.59,0,0,1-3-11,32.2,32.2,0,0,1,1.72,5.44A33,33,0,0,1,278.57,308.18Z" style="fill:#263238"></path><path d="M288,306a33.93,33.93,0,0,1-1.71-5.44A33,33,0,0,1,285,295a32.77,32.77,0,0,1,1.71,5.44A31.87,31.87,0,0,1,288,306Z" style="fill:#263238"></path><path d="M297.34,303.85a65.24,65.24,0,0,1-3-11,65.92,65.92,0,0,1,3,11Z" style="fill:#263238"></path><path d="M306.72,301.69a33.32,33.32,0,0,1-1.72-5.44,34.23,34.23,0,0,1-1.24-5.58,34.08,34.08,0,0,1,1.72,5.45A33,33,0,0,1,306.72,301.69Z" style="fill:#263238"></path><path d="M316.1,299.53a32.77,32.77,0,0,1-1.71-5.44,31.87,31.87,0,0,1-1.24-5.58,67.2,67.2,0,0,1,3,11Z" style="fill:#263238"></path><path d="M325.49,297.37a32.52,32.52,0,0,1-1.72-5.45,32.8,32.8,0,0,1-1.24-5.57,32.7,32.7,0,0,1,1.71,5.45A33.47,33.47,0,0,1,325.49,297.37Z" style="fill:#263238"></path><path d="M334.87,295.21a65.92,65.92,0,0,1-3-11,33.32,33.32,0,0,1,1.72,5.44A34.23,34.23,0,0,1,334.87,295.21Z" style="fill:#263238"></path><path d="M326.2,280.42a1.27,1.27,0,1,1-1.42-1.1A1.27,1.27,0,0,1,326.2,280.42Z" style="fill:#263238"></path><path d="M330.19,279a1.28,1.28,0,0,1-2.53.32,1.28,1.28,0,1,1,2.53-.32Z" style="fill:#263238"></path><path d="M334.57,277.53a1.27,1.27,0,1,1-1.42-1.11A1.28,1.28,0,0,1,334.57,277.53Z" style="fill:#263238"></path><path d="M326.11,284.08c-.13,0-.5-.71-.82-1.67s-.48-1.78-.35-1.83.49.71.82,1.67S326.24,284,326.11,284.08Z" style="fill:#263238"></path><path d="M330.27,283.15c-.12,0-.49-.71-.81-1.67s-.48-1.78-.35-1.82.49.7.81,1.66S330.4,283.11,330.27,283.15Z" style="fill:#263238"></path><path d="M334.59,281.48c-.13,0-.49-.71-.82-1.67s-.48-1.78-.35-1.82.5.7.82,1.66S334.72,281.44,334.59,281.48Z" style="fill:#263238"></path><path d="M337.92,301a1.28,1.28,0,0,1,1.33-1.22,1.27,1.27,0,1,1-1.33,1.22Z" style="fill:#263238"></path><path d="M333.76,301.66a1.28,1.28,0,0,1,2.55.1,1.28,1.28,0,0,1-2.55-.1Z" style="fill:#263238"></path><path d="M329.2,302.44a1.27,1.27,0,1,1,1.22,1.32A1.27,1.27,0,0,1,329.2,302.44Z" style="fill:#263238"></path><path d="M338.62,297.36c.13,0,.37.78.53,1.78s.18,1.84.05,1.86-.37-.78-.53-1.78S338.48,297.38,338.62,297.36Z" style="fill:#263238"></path><path d="M334.36,297.59c.13,0,.37.78.53,1.78s.18,1.84.05,1.86-.38-.77-.54-1.78S334.22,297.61,334.36,297.59Z" style="fill:#263238"></path><path d="M329.82,298.53c.14,0,.38.78.54,1.78s.18,1.84,0,1.86-.37-.78-.53-1.78A3.75,3.75,0,0,1,329.82,298.53Z" style="fill:#263238"></path><path d="M220.15,290.06s-.13.21-.41.59l-1.25,1.64-4.62,6a56.62,56.62,0,0,1-7.46,8.42,35,35,0,0,1-12,6.61c-4.66,1.57-9.35,2-13.5,2.71a40.72,40.72,0,0,0-5.82,1.38,20.93,20.93,0,0,0-4.71,2.18,14.83,14.83,0,0,0-5.22,5.32,12.07,12.07,0,0,0-.81,1.89c-.14.44-.23.68-.23.68s0-.25.17-.7a11.94,11.94,0,0,1,.76-1.92,14.87,14.87,0,0,1,5.21-5.45,21.79,21.79,0,0,1,4.75-2.24,41.42,41.42,0,0,1,5.85-1.41c4.17-.73,8.83-1.16,13.46-2.72a34.89,34.89,0,0,0,12-6.54,57.17,57.17,0,0,0,7.46-8.34l4.7-5.95,1.29-1.61C220,290.24,220.15,290.06,220.15,290.06Z" style="fill:#e0e0e0"></path><path d="M209.76,289.13a5.46,5.46,0,0,1-.51.25,14,14,0,0,0-1.44.75,20.26,20.26,0,0,0-4.54,3.82c-1.73,1.85-3.44,4.33-5.48,7a34.09,34.09,0,0,1-3.51,3.92,22.08,22.08,0,0,1-4.61,3.26,30.39,30.39,0,0,1-10.4,3.16,52.31,52.31,0,0,1-8.89.3c-2.52-.11-4.56-.3-6-.44l-1.62-.16c-.37,0-.56-.08-.56-.08l.56,0,1.63.11c1.41.1,3.45.25,6,.34a54.34,54.34,0,0,0,8.84-.35,30.65,30.65,0,0,0,10.3-3.16,21.52,21.52,0,0,0,4.55-3.22,32.79,32.79,0,0,0,3.49-3.87c2.05-2.63,3.79-5.11,5.54-6.95a19.72,19.72,0,0,1,4.65-3.78A10.24,10.24,0,0,1,209.76,289.13Z" style="fill:#e0e0e0"></path><path d="M184,295.17a7.53,7.53,0,0,1-2.09,1.23,10.41,10.41,0,0,1-6.55.51,4.48,4.48,0,0,1-2-.92,1,1,0,0,1-.28-1.19,2.45,2.45,0,0,1,.9-.88,16.31,16.31,0,0,1,4.72-2.36,16.52,16.52,0,0,1,5.77-.75,12.07,12.07,0,0,1,3.06.5A6.2,6.2,0,0,1,190.2,293a4.44,4.44,0,0,1,1.17,3,3.73,3.73,0,0,1-1.43,2.75,13.55,13.55,0,0,1-5.42,2.12,37.9,37.9,0,0,1-9.78,1,25.29,25.29,0,0,1-6.54-1.08,14.6,14.6,0,0,1-2.27-.88s.21.06.59.21,1,.34,1.71.56a26.52,26.52,0,0,0,6.52,1,38.09,38.09,0,0,0,9.71-1.08c1.77-.45,3.75-.83,5.3-2.08a3.39,3.39,0,0,0,1.31-2.53,4.1,4.1,0,0,0-1.09-2.77,5.93,5.93,0,0,0-2.6-1.6,11.82,11.82,0,0,0-3-.49,16.51,16.51,0,0,0-10.34,3,2.29,2.29,0,0,0-.82.78.8.8,0,0,0,.22.93,4.37,4.37,0,0,0,1.92.88,10.45,10.45,0,0,0,6.45-.41,11.33,11.33,0,0,0,1.61-.8C183.78,295.27,184,295.17,184,295.17Z" style="fill:#e0e0e0"></path><path d="M267.94,317.09l-1.08,0a20.12,20.12,0,0,0-3.09.36,25.53,25.53,0,0,0-4.7,1.4,41.12,41.12,0,0,0-5.81,2.93c-2.08,1.23-4.26,2.75-6.62,4.34a69.33,69.33,0,0,1-7.78,4.7,28.2,28.2,0,0,1-9.62,2.86,43,43,0,0,1-10.78-.25c-7.34-1-14.09-3.12-20.41-4.09a48.42,48.42,0,0,0-9-.7,29.86,29.86,0,0,0-7.77,1.19,22.53,22.53,0,0,0-9.79,5.63,20,20,0,0,0-2,2.41c-.38.6-.6.9-.6.9s.18-.32.55-.93a17.32,17.32,0,0,1,1.93-2.46,22.34,22.34,0,0,1,9.81-5.75,30.2,30.2,0,0,1,7.82-1.24,48.79,48.79,0,0,1,9.07.68c6.35,1,13.11,3,20.41,4.07a43.39,43.39,0,0,0,10.71.26,28.19,28.19,0,0,0,9.53-2.83,67.77,67.77,0,0,0,7.76-4.66c2.37-1.58,4.56-3.08,6.65-4.3a41.81,41.81,0,0,1,5.85-2.92,26.45,26.45,0,0,1,4.75-1.36,19.85,19.85,0,0,1,3.1-.3Z" style="fill:#e0e0e0"></path><path d="M182.65,346.45l.49,0,1.41.08,5.17.39,3.57.27a30,30,0,0,0,4.09.19,5.29,5.29,0,0,0,2.08-.53,2.61,2.61,0,0,0,1.37-1.64,3.73,3.73,0,0,0-1.94-3.93,12,12,0,0,0-4.61-1.25,29.79,29.79,0,0,0-16.83,3.08c-.55.27-1,.51-1.24.66l-.44.23a2,2,0,0,1,.4-.28c.28-.17.68-.43,1.22-.71a27.41,27.41,0,0,1,4.78-2,28.78,28.78,0,0,1,7.58-1.37,28.25,28.25,0,0,1,4.56.15,12.08,12.08,0,0,1,4.74,1.28,4,4,0,0,1,2.06,4.26,2.93,2.93,0,0,1-1.52,1.81,5.41,5.41,0,0,1-2.19.55,31.77,31.77,0,0,1-4.13-.21l-3.57-.32-5.16-.47-1.41-.15A2.25,2.25,0,0,1,182.65,346.45Z" style="fill:#e0e0e0"></path><path d="M264.23,325.22s-.06.1-.2.26l-.62.69c-.27.3-.61.66-1,1.06s-.88.86-1.44,1.33a38.62,38.62,0,0,1-4,3.09,41.94,41.94,0,0,1-5.45,3,43.6,43.6,0,0,1-5.86,2.11,38.51,38.51,0,0,1-5,1c-.71.12-1.37.15-1.94.2a14.33,14.33,0,0,1-1.48.08h-1.25a1.19,1.19,0,0,1,.32-.05l.93-.07c.4,0,.89-.05,1.46-.12s1.22-.12,1.93-.25a40.8,40.8,0,0,0,5-1.05,44.07,44.07,0,0,0,5.81-2.12,45,45,0,0,0,5.43-3,41.4,41.4,0,0,0,4.05-3c.56-.45,1-.91,1.45-1.29s.78-.73,1.06-1l.67-.65A1.73,1.73,0,0,1,264.23,325.22Z" style="fill:#e0e0e0"></path><path d="M262.1,294.06s-.12.15-.37.41a13.31,13.31,0,0,1-1.18,1.07,16.92,16.92,0,0,1-5.14,2.76,27.94,27.94,0,0,1-8.55,1.34,92.32,92.32,0,0,1-10.58-.77,48.87,48.87,0,0,0-10.54-.22,22.27,22.27,0,0,0-8.18,2.52,14.82,14.82,0,0,0-4.43,3.68c-.84,1.09-1.16,1.79-1.2,1.76a5.08,5.08,0,0,1,.25-.49,11.41,11.41,0,0,1,.86-1.34,14.45,14.45,0,0,1,4.42-3.79,22.09,22.09,0,0,1,8.24-2.61,48.16,48.16,0,0,1,10.61.2,100.17,100.17,0,0,0,10.54.79,28.33,28.33,0,0,0,8.49-1.27,17.33,17.33,0,0,0,5.14-2.65C261.57,294.61,262.07,294,262.1,294.06Z" style="fill:#e0e0e0"></path><path d="M243.66,286.89a2.18,2.18,0,0,0,.16.4,1.44,1.44,0,0,0,1,.63,1.55,1.55,0,0,0,1.64-.69,2.42,2.42,0,0,0-.08-2.41,4.61,4.61,0,0,0-2.45-1.82,7.93,7.93,0,0,0-3.5-.61,3.44,3.44,0,0,0-1.76.65,3.56,3.56,0,0,0-1.2,1.55,4.32,4.32,0,0,0,.39,4,6.31,6.31,0,0,0,3.3,2.52,10.28,10.28,0,0,0,3.93.47,17.31,17.31,0,0,0,6.51-1.76,18,18,0,0,0,3.79-2.55c.4-.37.71-.65.91-.86a3.13,3.13,0,0,1,.32-.3,1.84,1.84,0,0,1-.28.34c-.18.22-.48.52-.87.9a17.12,17.12,0,0,1-3.78,2.65,16.91,16.91,0,0,1-6.58,1.85,10.48,10.48,0,0,1-4-.46,6.62,6.62,0,0,1-3.46-2.64,4.58,4.58,0,0,1-.4-4.28,3.89,3.89,0,0,1,1.29-1.67,3.79,3.79,0,0,1,1.9-.69,8,8,0,0,1,3.62.66,4.8,4.8,0,0,1,2.54,1.93,2.62,2.62,0,0,1,0,2.61,1.67,1.67,0,0,1-1.8.71,1.48,1.48,0,0,1-1-.71A.86.86,0,0,1,243.66,286.89Z" style="fill:#e0e0e0"></path><path d="M210.14,322.46a2.5,2.5,0,0,1-.48,0l-1.37-.1c-.59-.05-1.32-.11-2.16-.14s-1.81-.1-2.88-.08c-2.12,0-4.66.05-7.46.28a81.91,81.91,0,0,0-9,1.37,79.19,79.19,0,0,0-8.81,2.47c-2.65.94-5,1.9-6.92,2.81-1,.42-1.83.88-2.58,1.25s-1.4.72-1.92,1l-1.21.65a2.73,2.73,0,0,1-.43.21,2.14,2.14,0,0,1,.4-.26l1.18-.7c.51-.31,1.14-.68,1.9-1.06s1.59-.86,2.57-1.3a70.15,70.15,0,0,1,6.92-2.88,77.5,77.5,0,0,1,8.84-2.5,75.41,75.41,0,0,1,9.08-1.35,69,69,0,0,1,7.49-.22c1.07,0,2,.08,2.88.13s1.57.11,2.16.18l1.37.16Z" style="fill:#e0e0e0"></path><path d="M252.57,316.26a2.69,2.69,0,0,1-.64.32c-.42.19-1.05.45-1.82.74a55.09,55.09,0,0,1-12.56,3.08c-.82.1-1.49.16-2,.19a3.06,3.06,0,0,1-.72,0,4,4,0,0,1,.71-.13l1.93-.28c1.64-.25,3.88-.65,6.33-1.25s4.63-1.28,6.19-1.82l1.85-.64A4.44,4.44,0,0,1,252.57,316.26Z" style="fill:#e0e0e0"></path><path d="M349,282.56a2.17,2.17,0,0,1,.4.68,10.12,10.12,0,0,1,.65,2,11.26,11.26,0,0,1-.74,7,11.38,11.38,0,0,1-4.75,5.14,9.7,9.7,0,0,1-2,.84,2.12,2.12,0,0,1-.77.15c0-.09,1.06-.36,2.55-1.29a11.4,11.4,0,0,0,5.33-11.72C349.42,283.6,348.91,282.6,349,282.56Z" style="fill:#FFAB00"></path><path d="M275.53,309.41s0,.13.06.37.07.59.08,1.05a21.67,21.67,0,0,1-.22,3.89A24.3,24.3,0,0,1,260.16,334a22.37,22.37,0,0,1-3.74,1.1c-.45.1-.81.13-1.05.17s-.36,0-.37,0a42.37,42.37,0,0,0,5-1.61,24.89,24.89,0,0,0,15.09-19A45.06,45.06,0,0,0,275.53,309.41Z" style="fill:#FFAB00"></path><path d="M399.7,291a3.81,3.81,0,1,1-.24.21" style="fill:#FFAB00"></path><path d="M393.8,321.11a2.84,2.84,0,1,1-.18.16" style="fill:#FFAB00"></path><path d="M378.87,303.05a2.13,2.13,0,1,1-.14.12" style="fill:#FFAB00"></path><path d="M212.32,304.17s5.32,2.77,6.79,2.92,6.62,0,6.62,0,.67,1.42-2.53,2.26c-.81.22-2.45.63-3.73,1a1.1,1.1,0,0,0-.56,1.79c1.72,2,4.75,5.36,5.17,5.46.59.15,3.27-2.59,3.76-3.14.73-.82,3.08-.27,1.39,2.32-1.5,2.28-4.75,5.33-5.79,4.4l-3.9-3.41s5.07,6.13,5.46,8-1.73,2.17-3,.82c-.62-.67-6.06-7-6.06-7s7.32,10,4.67,10.21c-1.55.1-6.2-7.23-6.2-7.23l2.39,5.62a1.13,1.13,0,0,1-1.88,1.21,35.25,35.25,0,0,1-2.89-4.22c-.84-1.35-8.73-11.79-8.73-11.79Z" style="fill:#ffbe9d"></path><path d="M170.19,297l31.54,18L214,302.43l-31.12-24.7,26-14.76L208.8,237l-38.11,20.48a22.55,22.55,0,0,0-11.54,16h0A22.53,22.53,0,0,0,170.19,297Z" style="fill:#FFAB00"></path><path d="M176,272.51a15.17,15.17,0,0,1,4,2.2,14.87,14.87,0,0,1,3.47,3,37.38,37.38,0,0,1-3.75-2.56A38.24,38.24,0,0,1,176,272.51Z" style="fill:#263238"></path><path d="M180.76,268.16a11.32,11.32,0,0,1,2.85,9.58,30.32,30.32,0,0,0-.79-5A31,31,0,0,0,180.76,268.16Z" style="fill:#263238"></path><path d="M313.46,321.17a10.93,10.93,0,0,1-.77-2.38c-.4-1.49-.87-3.57-1.27-5.88s-.64-4.44-.76-6a10.41,10.41,0,0,1-.07-2.49,14.16,14.16,0,0,1,.41,2.45c.21,1.53.51,3.62.91,5.93s.81,4.39,1.12,5.89A15.22,15.22,0,0,1,313.46,321.17Z" style="fill:#263238"></path><path d="M312.87,292c0,2.58.84,9.58.84,9.58l-3,4,2.07,13.37,13.5-14.47a6.76,6.76,0,0,0,1.76-3.55c.72-4.42,2.3-14.5,1.82-15.08-.76-.9-2.1.28-2.6,2.5-.26,1.17-2.39,7.76-2.39,7.76s-1.27-9.18-2.12-10.23c-1.33-1.64-2,1.15-1.91,3.13.15,2.46.17,5.39.17,7.08a.2.2,0,0,1-.39.06c-.87-3-3.07-9.93-4.38-9.32s-.71,3.57-.39,5c1.33,5.77.49,5.82.49,5.82L314.29,291a.65.65,0,0,0-.78-.43C312.82,290.74,312.86,291.43,312.87,292Z" style="fill:#ffbe9d"></path><path d="M320.56,295.58c.06,0,.28.41.53,1.16a7.66,7.66,0,0,1,.38,3.08,4.66,4.66,0,0,1-1.3,2.83c-.59.57-1.1.7-1.12.65s.39-.3.86-.88a5.06,5.06,0,0,0,1.07-2.66,9.61,9.61,0,0,0-.23-2.93A4,4,0,0,1,320.56,295.58Z" style="fill:#eb996e"></path><path d="M324.58,294.59c.06,0,.29.42.54,1.16a7.7,7.7,0,0,1,.37,3.08,4.67,4.67,0,0,1-1.3,2.84c-.59.57-1.1.69-1.12.64s.4-.3.87-.88a5,5,0,0,0,1.06-2.65,9.68,9.68,0,0,0-.22-2.94A4.18,4.18,0,0,1,324.58,294.59Z" style="fill:#eb996e"></path><path d="M328.12,302.65c.1.09-2.92,3.46-6.75,7.51a98,98,0,0,1-7.11,7.17c-.09-.09,2.93-3.45,6.76-7.51S328,302.56,328.12,302.65Z" style="fill:#FFAB00"></path><path d="M329.67,289.34a7.41,7.41,0,0,1,0,2c-.07,1.25-.21,3-.44,4.85s-.51,3.59-.75,4.82a7.78,7.78,0,0,1-.5,2c-.13,0,.3-3.07.76-6.84S329.53,289.33,329.67,289.34Z" style="fill:#FFAB00"></path><path d="M193.11,352a5.82,5.82,0,0,1-.78,0,21.27,21.27,0,0,1-2.21-.12,27.73,27.73,0,0,1-7.88-2,32.59,32.59,0,0,1-10.08-6.6A33.8,33.8,0,0,1,162,323.6a37.87,37.87,0,0,1-.35-7.14A40.82,40.82,0,0,1,164,304.62a34.46,34.46,0,0,1,3.57-7.31,18.85,18.85,0,0,1,1.26-1.81,3.49,3.49,0,0,1,.48-.6,3.61,3.61,0,0,1-.4.65c-.27.43-.71,1-1.18,1.86a37.85,37.85,0,0,0-3.41,7.33,42,42,0,0,0-2.22,11.74,38.7,38.7,0,0,0,.37,7,34.74,34.74,0,0,0,2,7.31,34.13,34.13,0,0,0,8.08,12.08,32.52,32.52,0,0,0,9.9,6.61,28.89,28.89,0,0,0,7.77,2.15C192,351.91,193.11,351.92,193.11,352Z" style="fill:#263238"></path></g><g id="freepik--Stars--inject-58"><path d="M259.18,140.54l.56,1a2.39,2.39,0,0,0,.92.92l1,.56-1,.56a2.54,2.54,0,0,0-.92.92l-.56,1-.56-1a2.39,2.39,0,0,0-.92-.92l-1-.56,1-.56a2.26,2.26,0,0,0,.92-.92Z" style="fill:#263238"></path><path d="M406.89,63.42l.57,1a2.26,2.26,0,0,0,.92.92l1,.56-1,.57a2.26,2.26,0,0,0-.92.92l-.57,1-.56-1a2.26,2.26,0,0,0-.92-.92l-1-.57,1-.56a2.26,2.26,0,0,0,.92-.92Z" style="fill:#263238"></path><path d="M481.37,159.43l.57,1a2.26,2.26,0,0,0,.92.92l1,.57-1,.56a2.26,2.26,0,0,0-.92.92l-.57,1-.56-1a2.26,2.26,0,0,0-.92-.92l-1-.56,1-.57a2.26,2.26,0,0,0,.92-.92Z" style="fill:#263238"></path></g><g id="freepik--Fire--inject-58"><path d="M370,415.94c-10.43-15.62-8.91-38.19,3.52-52.27,2.15-2.44,4.88-4.77,8.13-4.9s6.67,3.06,5.56,6.13c-.8,2.19-3.46,3.41-3.93,5.7-.55,2.65,2.57,5,5.23,4.46s4.57-2.91,5.57-5.43,1.31-5.25,2.2-7.81,2.53-5.09,5.1-5.95c2.23-.74,4.69-.09,7-.47,4.35-.73,7.36-5,8.07-9.39s-.38-8.77-1.36-13.07-1.84-8.8-.73-13.07c1.65-6.33,7.71-11,14.19-11.87s13.15,1.64,18.12,5.9,8.39,10.09,10.68,16.22a58.43,58.43,0,0,1-17.63,65.64c-3.77,3.1-8,5.76-11.13,9.47s-5.21,8.86-3.68,13.5" style="fill:#FFAB00"></path><g style="opacity:0.7000000000000001"><path d="M370,415.94c-10.43-15.62-8.91-38.19,3.52-52.27,2.15-2.44,4.88-4.77,8.13-4.9s6.67,3.06,5.56,6.13c-.8,2.19-3.46,3.41-3.93,5.7-.55,2.65,2.57,5,5.23,4.46s4.57-2.91,5.57-5.43,1.31-5.25,2.2-7.81,2.53-5.09,5.1-5.95c2.23-.74,4.69-.09,7-.47,4.35-.73,7.36-5,8.07-9.39s-.38-8.77-1.36-13.07-1.84-8.8-.73-13.07c1.65-6.33,7.71-11,14.19-11.87s13.15,1.64,18.12,5.9,8.39,10.09,10.68,16.22a58.43,58.43,0,0,1-17.63,65.64c-3.77,3.1-8,5.76-11.13,9.47s-5.21,8.86-3.68,13.5" style="fill:#fff"></path></g><path d="M381.78,417.63c-2.24-3.79-4.54-7.74-5-12.12s1.55-9.34,5.67-10.9c2.78-1.05,6-.41,8.77-1.36,4-1.36,6.26-5.47,8.55-9a56.9,56.9,0,0,1,14.5-15.29,17.09,17.09,0,0,1,6.72-3.29,7.21,7.21,0,0,1,6.86,2.15c2.47,3,1,7.71-1.5,10.76s-5.83,5.44-7.54,9c-2,4.23-1.31,9.19-1.1,13.89s-.47,10-4.25,12.83c-1.56,1.14-3.47,1.71-5.08,2.79s-2.94,3-2.36,4.86" style="fill:#FFAB00"></path><path d="M435.08,353.25a4.51,4.51,0,1,0,.37-.39" style="fill:#FFAB00"></path><g style="clip-path:url(#freepik--clip-path--inject-58)"><path d="M369.09,415.48h0a11.14,11.14,0,0,0-9.69,5.2,11,11,0,0,0,3.21,15.22,10.6,10.6,0,0,0,5.51,1.65h0l54.38.66,3.39-21.39Z" style="fill:#263238"></path><path d="M357.78,424.89a7.13,7.13,0,0,1,2-1.21,15,15,0,0,1,6.28-1,31,31,0,0,1,9.24,1.89c1.69.55,3.45,1.14,5.31,1.6a19.09,19.09,0,0,0,5.83.63c4-.27,7.56-2.26,11.1-2.87a18.26,18.26,0,0,1,9.37,1,44.52,44.52,0,0,1,5.8,2.62c.66.35,1.17.64,1.51.84a2.22,2.22,0,0,1,.51.32,2.18,2.18,0,0,1-.56-.23l-1.55-.75a51.19,51.19,0,0,0-5.83-2.45,18,18,0,0,0-9.16-.84,41.06,41.06,0,0,0-5.29,1.56,22.66,22.66,0,0,1-5.87,1.35,19.72,19.72,0,0,1-6-.65c-1.88-.48-3.65-1.09-5.33-1.65a31.63,31.63,0,0,0-9.11-2,15.44,15.44,0,0,0-6.19.83A21.81,21.81,0,0,0,357.78,424.89Z" style="fill:#455a64"></path><path d="M395.54,430.59a2.27,2.27,0,0,1,.35-.2,4.59,4.59,0,0,1,1.13-.31,4.93,4.93,0,0,1,4.1,1.39l.15.15-.2.1a11.39,11.39,0,0,1-9.34.51,7,7,0,0,1-1.32-.65,1.73,1.73,0,0,1-.87-1.39,1.69,1.69,0,0,1,1-1.33c.47-.24.93-.48,1.42-.68a15.59,15.59,0,0,1,12,.06,8,8,0,0,1,2.34,1.42,2.65,2.65,0,0,1,.88,2.53,3.85,3.85,0,0,1-1.44,2.09,6.77,6.77,0,0,1-2.1,1.08,11.32,11.32,0,0,1-4.13.53,21.23,21.23,0,0,1-5.85-1.27c-.67-.23-1.18-.42-1.53-.56a1.84,1.84,0,0,1-.51-.23,2.36,2.36,0,0,1,.55.13l1.55.47a23,23,0,0,0,5.8,1.09,11.36,11.36,0,0,0,4-.56,6.77,6.77,0,0,0,1.95-1,3.42,3.42,0,0,0,1.26-1.84A2.2,2.2,0,0,0,406,430a7.51,7.51,0,0,0-2.2-1.31,15.2,15.2,0,0,0-11.59-.06,14.39,14.39,0,0,0-1.37.65c-.42.23-.78.54-.78.91a1.35,1.35,0,0,0,.66,1,7,7,0,0,0,1.22.61,11.23,11.23,0,0,0,9-.36l-.05.25a4.76,4.76,0,0,0-3.84-1.43A8.49,8.49,0,0,0,395.54,430.59Z" style="fill:#455a64"></path><path d="M424,419.73s-.81-.3-2.3-.78a36.11,36.11,0,0,0-6.43-1.5,30.86,30.86,0,0,0-9.74.15c-3.62.63-7.33,2.44-11.43,3.7s-8.36,1.85-12,.75-6.54-2.7-9.13-3.76A29,29,0,0,0,369.4,417a15.73,15.73,0,0,0-2.79-.47l-1,0c-.3,0-.55.05-.76.06a2.75,2.75,0,0,1-.63,0,2.91,2.91,0,0,1,.62-.13c.21,0,.46-.08.76-.1l1.05,0a14.66,14.66,0,0,1,2.85.39,26.68,26.68,0,0,1,3.61,1.2c2.62,1,5.57,2.66,9.12,3.64s7.69.51,11.72-.79,7.78-3.05,11.51-3.67a30.23,30.23,0,0,1,9.87,0,32.73,32.73,0,0,1,6.45,1.67c.73.27,1.3.51,1.67.69A3.13,3.13,0,0,1,424,419.73Z" style="fill:#455a64"></path><path d="M417.75,430.78a3.1,3.1,0,0,1-.48.45c-.32.29-.81.69-1.45,1.2a42.68,42.68,0,0,1-5.78,3.78,31,31,0,0,1-9.69,3.36,23.14,23.14,0,0,1-12.43-1.3c-4.17-1.7-7.63-4.2-11-6.07a25.54,25.54,0,0,0-9.44-3.53,13.71,13.71,0,0,0-6.7.76,16.6,16.6,0,0,0-2.23,1.16,7.19,7.19,0,0,1,2.15-1.34,13.33,13.33,0,0,1,6.82-.95,25.33,25.33,0,0,1,9.63,3.48c3.38,1.86,6.85,4.35,10.94,6a22.72,22.72,0,0,0,12.16,1.31,31.46,31.46,0,0,0,9.59-3.2,46.85,46.85,0,0,0,5.83-3.63l1.5-1.11A3.61,3.61,0,0,1,417.75,430.78Z" style="fill:#455a64"></path></g><path d="M429.2,418.25a10.86,10.86,0,1,1-14.8,3.45A10.75,10.75,0,0,1,429.2,418.25Z" style="fill:#455a64"></path><path d="M429.2,418.25a21.87,21.87,0,0,0-2.43-1,10.72,10.72,0,0,0-11,3,10.83,10.83,0,0,0-2.58,4.92,10.6,10.6,0,0,0,.4,6.08A10.17,10.17,0,0,0,424,437.9a9.78,9.78,0,0,0,3.06-.72,10.09,10.09,0,0,0,2.62-1.5,10.91,10.91,0,0,0,3.36-4.42A10.75,10.75,0,0,0,431.15,420a22.27,22.27,0,0,0-1.95-1.76,8.13,8.13,0,0,1,2.1,1.63,10.61,10.61,0,0,1,2.92,6.56,11,11,0,0,1-.76,5,11.21,11.21,0,0,1-3.47,4.63,10.07,10.07,0,0,1-2.72,1.59,10.48,10.48,0,0,1-3.21.77,10.64,10.64,0,0,1-10.94-7,10.4,10.4,0,0,1-.67-3.22,11,11,0,0,1,.28-3.15,11.29,11.29,0,0,1,2.73-5.1,11,11,0,0,1,4.19-2.8,10.51,10.51,0,0,1,7.18-.14A8.12,8.12,0,0,1,429.2,418.25Z" style="fill:#263238"></path><path d="M423.56,418.82a1.37,1.37,0,0,1,.49.13c.31.11.77.29,1.35.54s1.26.6,2,1.05a8.6,8.6,0,0,1,2.36,1.95,6.3,6.3,0,0,1,1.44,3.44,10,10,0,0,1-.53,4.24,7.94,7.94,0,0,1-2.69,3.88,6.69,6.69,0,0,1-4.93,1.11,11.44,11.44,0,0,1-4.76-1.75,6.07,6.07,0,0,1-2.75-3.82,8.85,8.85,0,0,1,.33-4.26,14.55,14.55,0,0,1,1.5-3.4,6.57,6.57,0,0,1,4.2-3.18,4.44,4.44,0,0,1,1.46-.06,1.34,1.34,0,0,1,.49.13,6.37,6.37,0,0,0-1.9.13,6.55,6.55,0,0,0-3.94,3.17,14.49,14.49,0,0,0-1.39,3.33,8.41,8.41,0,0,0-.28,4,5.57,5.57,0,0,0,2.56,3.5,11.23,11.23,0,0,0,4.54,1.66,6.25,6.25,0,0,0,4.57-1,7.55,7.55,0,0,0,2.54-3.63,9.8,9.8,0,0,0,.55-4,5.93,5.93,0,0,0-1.29-3.25,8.71,8.71,0,0,0-2.23-1.93c-.75-.47-1.43-.83-2-1.12C424.19,419.11,423.55,418.86,423.56,418.82Z" style="fill:#263238"></path><path d="M424.61,421.75s.09-.08.31-.05a1.42,1.42,0,0,1,.73.51,4.51,4.51,0,0,1,.71,1.22l.74,1.66c.27.62.6,1.27.87,2a3.67,3.67,0,0,1,.07,2.64,3.5,3.5,0,0,1-2.23,1.89,5.38,5.38,0,0,1-3.1-.1,7.45,7.45,0,0,1-2.75-1.43,2.91,2.91,0,0,1-.83-1.3,3.46,3.46,0,0,1-.07-1.46,16.15,16.15,0,0,1,.63-2.49,7.15,7.15,0,0,1,1-2,3.38,3.38,0,0,1,2.82-1.5,2,2,0,0,1,.87.22.7.7,0,0,1,.25.19,3.84,3.84,0,0,0-1.12-.21,3.25,3.25,0,0,0-2.52,1.51,12.39,12.39,0,0,0-1.44,4.38,2.51,2.51,0,0,0,.77,2.32,7.3,7.3,0,0,0,2.56,1.31,4.84,4.84,0,0,0,2.81.11,3.08,3.08,0,0,0,1.93-1.59,3.28,3.28,0,0,0,0-2.31c-.24-.73-.55-1.41-.79-2s-.48-1.17-.68-1.69a4.78,4.78,0,0,0-.59-1.2,1.57,1.57,0,0,0-.61-.54C424.72,421.75,424.61,421.77,424.61,421.75Z" style="fill:#263238"></path></g></svg>
