<svg xmlns="http://www.w3.org/2000/svg" viewBox="0 0 500 500">
	<style>
		@keyframes bob {
			0% {
				transform: rotate(0deg);
			}
			25% {
				transform: translateY(5%);
			}
			50% {
				transform: rotate(0deg);
			}
			75% {
				transform: translateY(-5%);
			}
			100% {
				transform: rotate(0deg);
			}
		}

		#freepik--Character--inject-11 {
			transform-origin: center;
			animation: 10s bob linear infinite;
		}
	</style>
	<g id="freepik--background-complete--inject-11">
		<path
			d="M312.79,60.17c.58-4.28-5.45-7.79-10-8.16-2.16-.17-4.41.16-6.46-.56-4.44-1.55-6.21-7.28-10.54-9.11-3.24-1.37-7-.15-10.11,1.43s-6.25,3.57-9.75,3.8c-3.06.19-6.37-.94-9,.55-2,1.11-3,3.4-4.86,4.76s-4.14,1.6-6.36,1.72-4.53.14-6.56,1.07-3.7,3.07-3.28,5.26Z"
			style="fill: #fafafa"
		></path>
		<path
			d="M452.17,169.42c.86-6.25-8-11.4-14.6-11.93-3.16-.26-6.45.23-9.44-.82-6.5-2.26-9.09-10.65-15.43-13.32-4.73-2-10.19-.22-14.78,2.09s-9.13,5.22-14.26,5.55c-4.46.28-9.31-1.37-13.21.81-2.91,1.62-4.43,5-7.12,6.95s-6,2.35-9.3,2.52-6.62.21-9.59,1.57-5.41,4.49-4.8,7.69Z"
			style="fill: #ebebeb"
		></path>
		<path
			d="M136.68,84.34c.75-5.44-6.93-9.92-12.7-10.38-2.75-.22-5.61.2-8.22-.71-5.64-2-7.9-9.27-13.41-11.59-4.12-1.74-8.87-.19-12.86,1.82S81.55,68,77.08,68.3c-3.88.25-8.09-1.19-11.49.71-2.53,1.41-3.86,4.33-6.19,6s-5.26,2-8.09,2.19-5.76.19-8.34,1.37-4.71,3.9-4.18,6.69Z"
			style="fill: #f5f5f5"
		></path>
		<path
			d="M441.93,47.24l.92,1.68a3.86,3.86,0,0,0,1.5,1.5l1.69.92-1.69.92a3.86,3.86,0,0,0-1.5,1.5l-.92,1.68L441,53.76a3.86,3.86,0,0,0-1.5-1.5l-1.68-.92,1.68-.92a3.86,3.86,0,0,0,1.5-1.5Z"
			style="fill: #ebebeb"
		></path>
		<path
			d="M303,78l.57,1a2.26,2.26,0,0,0,.92.92l1,.56-1,.56a2.39,2.39,0,0,0-.92.92l-.57,1-.56-1a2.39,2.39,0,0,0-.92-.92l-1-.56,1-.56a2.26,2.26,0,0,0,.92-.92Z"
			style="fill: #ebebeb"
		></path>
		<rect x="385.57" y="229" width="60.94" height="159.52" style="fill: #ebebeb"></rect>
		<rect x="416.04" y="229" width="30.47" height="159.52" style="fill: #e0e0e0"></rect>
		<rect x="392.53" y="210.03" width="21.52" height="18.96" style="fill: #ebebeb"></rect>
		<rect x="408.92" y="210.03" width="5.13" height="18.96" style="fill: #e0e0e0"></rect>
		<rect x="380.49" y="227.89" width="67.81" height="1.11" style="fill: #e0e0e0"></rect>
		<rect x="397.6" y="237.27" width="5.16" height="10.88" style="fill: #fff"></rect>
		<path
			d="M416,252.41c0,.12-6.82.21-15.23.21s-15.24-.09-15.24-.21,6.82-.21,15.24-.21S416,252.3,416,252.41Z"
			style="fill: #e0e0e0"
		></path>
		<rect x="428.34" y="237.27" width="5.16" height="10.88" style="fill: #f5f5f5"></rect>
		<path
			d="M446.78,252.41c0,.12-6.82.21-15.24.21s-15.23-.09-15.23-.21,6.82-.21,15.23-.21S446.78,252.3,446.78,252.41Z"
			style="fill: #ebebeb"
		></path>
		<rect x="428.34" y="258.86" width="5.16" height="10.88" style="fill: #f5f5f5"></rect>
		<path
			d="M446.78,274c0,.11-6.82.21-15.24.21s-15.23-.1-15.23-.21,6.82-.21,15.23-.21S446.78,273.89,446.78,274Z"
			style="fill: #ebebeb"
		></path>
		<rect x="428.34" y="281.11" width="5.16" height="10.88" style="fill: #f5f5f5"></rect>
		<path
			d="M446.78,296.26c0,.11-6.82.2-15.24.2s-15.23-.09-15.23-.2,6.82-.21,15.23-.21S446.78,296.14,446.78,296.26Z"
			style="fill: #ebebeb"
		></path>
		<rect x="428.34" y="303.36" width="5.16" height="10.88" style="fill: #f5f5f5"></rect>
		<path
			d="M446.78,318.5c0,.12-6.82.21-15.24.21s-15.23-.09-15.23-.21,6.82-.2,15.23-.2S446.78,318.39,446.78,318.5Z"
			style="fill: #ebebeb"
		></path>
		<rect x="428.34" y="324.97" width="5.16" height="10.88" style="fill: #f5f5f5"></rect>
		<path
			d="M446.78,340.11c0,.12-6.82.21-15.24.21s-15.23-.09-15.23-.21,6.82-.2,15.23-.2S446.78,340,446.78,340.11Z"
			style="fill: #ebebeb"
		></path>
		<rect x="428.34" y="346.67" width="5.16" height="10.88" style="fill: #f5f5f5"></rect>
		<rect x="428.34" y="368.65" width="5.16" height="10.88" style="fill: #f5f5f5"></rect>
		<path
			d="M446.78,361.81c0,.12-6.82.21-15.24.21s-15.23-.09-15.23-.21,6.82-.21,15.23-.21S446.78,361.7,446.78,361.81Z"
			style="fill: #ebebeb"
		></path>
		<rect x="397.6" y="259.19" width="5.16" height="10.88" style="fill: #fff"></rect>
		<path
			d="M416,274.34c0,.11-6.82.21-15.23.21s-15.24-.1-15.24-.21,6.82-.21,15.24-.21S416,274.22,416,274.34Z"
			style="fill: #e0e0e0"
		></path>
		<rect x="397.6" y="281.12" width="5.16" height="10.88" style="fill: #fff"></rect>
		<path
			d="M416,296.26c0,.12-6.82.21-15.23.21s-15.24-.09-15.24-.21,6.82-.2,15.24-.2S416,296.15,416,296.26Z"
			style="fill: #e0e0e0"
		></path>
		<rect x="397.6" y="303.04" width="5.16" height="10.88" style="fill: #fff"></rect>
		<path
			d="M416,318.19c0,.11-6.82.21-15.23.21s-15.24-.1-15.24-.21,6.82-.21,15.24-.21S416,318.07,416,318.19Z"
			style="fill: #e0e0e0"
		></path>
		<rect x="397.6" y="324.97" width="5.16" height="10.88" style="fill: #fff"></rect>
		<path
			d="M416,340.11c0,.12-6.82.21-15.23.21s-15.24-.09-15.24-.21,6.82-.2,15.24-.2S416,340,416,340.11Z"
			style="fill: #e0e0e0"
		></path>
		<rect x="397.6" y="346.89" width="5.16" height="10.88" style="fill: #fff"></rect>
		<path
			d="M416,362c0,.11-6.82.21-15.23.21s-15.24-.1-15.24-.21,6.82-.21,15.24-.21S416,361.93,416,362Z"
			style="fill: #e0e0e0"
		></path>
		<rect x="397.6" y="368.82" width="5.16" height="10.88" style="fill: #fff"></rect>
		<rect x="71.87" y="222.48" width="69.17" height="219.21" style="fill: #f5f5f5"></rect>
		<rect x="106.45" y="222.48" width="34.58" height="218.61" style="fill: #ebebeb"></rect>
		<rect x="79.76" y="200.96" width="24.43" height="21.52" style="fill: #f5f5f5"></rect>
		<rect x="98.37" y="200.96" width="5.82" height="21.52" style="fill: #ebebeb"></rect>
		<polyline
			points="66.1 222.48 66.1 221.22 143.06 221.22 143.06 222.48"
			style="fill: #e0e0e0"
		></polyline>
		<rect x="85.52" y="231.86" width="5.85" height="12.35" style="fill: #fafafa"></rect>
		<path
			d="M106.45,249.06c0,.13-7.74.23-17.29.23s-17.29-.1-17.29-.23,7.74-.24,17.29-.24S106.45,248.92,106.45,249.06Z"
			style="fill: #e0e0e0"
		></path>
		<rect x="120.41" y="231.86" width="5.85" height="12.35" style="fill: #e0e0e0"></rect>
		<path
			d="M141.34,249.06c0,.13-7.75.23-17.3.23s-17.29-.1-17.29-.23,7.74-.24,17.29-.24S141.34,248.92,141.34,249.06Z"
			style="fill: #e0e0e0"
		></path>
		<rect x="120.41" y="256.38" width="5.85" height="12.35" style="fill: #e0e0e0"></rect>
		<path
			d="M141.34,273.57c0,.13-7.75.23-17.3.23s-17.29-.1-17.29-.23,7.74-.24,17.29-.24S141.34,273.44,141.34,273.57Z"
			style="fill: #e0e0e0"
		></path>
		<rect x="120.41" y="281.63" width="5.85" height="12.35" style="fill: #e0e0e0"></rect>
		<path
			d="M141.34,298.82c0,.13-7.75.23-17.3.23s-17.29-.1-17.29-.23,7.74-.24,17.29-.24S141.34,298.69,141.34,298.82Z"
			style="fill: #e0e0e0"
		></path>
		<rect x="120.41" y="306.88" width="5.85" height="12.35" style="fill: #e0e0e0"></rect>
		<path
			d="M141.34,324.07c0,.13-7.75.23-17.3.23s-17.29-.1-17.29-.23,7.74-.24,17.29-.24S141.34,323.94,141.34,324.07Z"
			style="fill: #e0e0e0"
		></path>
		<rect x="120.41" y="331.4" width="5.85" height="12.35" style="fill: #e0e0e0"></rect>
		<path
			d="M141.34,348.59c0,.13-7.75.24-17.3.24s-17.29-.11-17.29-.24,7.74-.23,17.29-.23S141.34,348.46,141.34,348.59Z"
			style="fill: #e0e0e0"
		></path>
		<rect x="120.41" y="356.03" width="5.85" height="12.35" style="fill: #e0e0e0"></rect>
		<rect x="120.41" y="380.98" width="5.85" height="12.35" style="fill: #e0e0e0"></rect>
		<path
			d="M141.34,373.22c0,.13-7.75.24-17.3.24s-17.29-.11-17.29-.24S114.49,373,124,373,141.34,373.09,141.34,373.22Z"
			style="fill: #e0e0e0"
		></path>
		<rect x="85.52" y="256.75" width="5.85" height="12.35" style="fill: #fafafa"></rect>
		<path
			d="M106.45,273.94c0,.13-7.74.24-17.29.24s-17.29-.11-17.29-.24,7.74-.24,17.29-.24S106.45,273.81,106.45,273.94Z"
			style="fill: #e0e0e0"
		></path>
		<rect x="85.52" y="281.63" width="5.85" height="12.35" style="fill: #fafafa"></rect>
		<path
			d="M106.45,298.82c0,.13-7.74.24-17.29.24s-17.29-.11-17.29-.24,7.74-.23,17.29-.23S106.45,298.69,106.45,298.82Z"
			style="fill: #e0e0e0"
		></path>
		<rect x="85.52" y="306.52" width="5.85" height="12.35" style="fill: #fafafa"></rect>
		<path
			d="M106.45,323.71c0,.13-7.74.23-17.29.23s-17.29-.1-17.29-.23,7.74-.24,17.29-.24S106.45,323.58,106.45,323.71Z"
			style="fill: #e0e0e0"
		></path>
		<rect x="85.52" y="331.4" width="5.85" height="12.35" style="fill: #fafafa"></rect>
		<path
			d="M106.45,348.59c0,.13-7.74.24-17.29.24s-17.29-.11-17.29-.24,7.74-.23,17.29-.23S106.45,348.46,106.45,348.59Z"
			style="fill: #e0e0e0"
		></path>
		<rect x="85.52" y="356.29" width="5.85" height="12.35" style="fill: #fafafa"></rect>
		<path
			d="M106.45,373.48c0,.13-7.74.23-17.29.23s-17.29-.1-17.29-.23,7.74-.24,17.29-.24S106.45,373.35,106.45,373.48Z"
			style="fill: #e0e0e0"
		></path>
		<rect x="85.52" y="381.17" width="5.85" height="12.35" style="fill: #fafafa"></rect>
		<rect x="348.4" y="288.25" width="102.14" height="193.85" style="fill: #e0e0e0"></rect>
		<rect x="402.65" y="288.25" width="47.89" height="193.85" style="fill: #ebebeb"></rect>
		<rect x="369.82" y="306.49" width="9.18" height="22.31" style="fill: #f5f5f5"></rect>
		<rect x="369.82" y="393.82" width="9.18" height="22.31" style="fill: #f5f5f5"></rect>
		<path
			d="M402.65,337.56c0,.2-12.14.35-27.12.35s-27.13-.15-27.13-.35,12.15-.34,27.13-.34S402.65,337.37,402.65,337.56Z"
			style="fill: #f5f5f5"
		></path>
		<rect x="369.82" y="350.49" width="9.18" height="22.31" style="fill: #f5f5f5"></rect>
		<path
			d="M402.65,381.56c0,.19-12.14.35-27.12.35s-27.13-.16-27.13-.35,12.15-.35,27.13-.35S402.65,381.37,402.65,381.56Z"
			style="fill: #f5f5f5"
		></path>
		<rect x="412.82" y="306.49" width="9.18" height="22.31" style="fill: #e0e0e0"></rect>
		<rect x="432.75" y="306.49" width="9.18" height="22.31" style="fill: #e0e0e0"></rect>
		<rect x="412.82" y="348.83" width="9.18" height="22.31" style="fill: #e0e0e0"></rect>
		<rect x="432.75" y="348.83" width="9.18" height="22.31" style="fill: #e0e0e0"></rect>
		<rect x="412.82" y="391.17" width="9.18" height="22.31" style="fill: #e0e0e0"></rect>
		<rect x="432.75" y="391.17" width="9.18" height="22.31" style="fill: #e0e0e0"></rect>
		<rect x="340.73" y="283.57" width="117.5" height="4.86" style="fill: #e0e0e0"></rect>
		<path
			d="M451.26,288.88c0,.19-22.83.35-51,.35s-51-.16-51-.35,22.82-.35,51-.35S451.26,288.69,451.26,288.88Z"
			style="fill: #ebebeb"
		></path>
		<rect x="132.63" y="349.21" width="100.98" height="133.19" style="fill: #ebebeb"></rect>
		<rect x="186.26" y="349.21" width="47.35" height="133.19" style="fill: #e0e0e0"></rect>
		<rect x="153.8" y="367.24" width="9.08" height="22.06" style="fill: #f5f5f5"></rect>
		<rect x="153.8" y="453.57" width="9.08" height="22.06" style="fill: #f5f5f5"></rect>
		<path
			d="M186.26,398c0,.24-12,.44-26.81.44s-26.82-.2-26.82-.44,12-.45,26.82-.45S186.26,397.71,186.26,398Z"
			style="fill: #f5f5f5"
		></path>
		<rect x="153.8" y="410.73" width="9.08" height="22.06" style="fill: #f5f5f5"></rect>
		<path
			d="M186.26,441.45c0,.25-12,.45-26.81.45s-26.82-.2-26.82-.45,12-.45,26.82-.45S186.26,441.2,186.26,441.45Z"
			style="fill: #f5f5f5"
		></path>
		<rect x="196.31" y="367.24" width="9.08" height="22.06" style="fill: #f5f5f5"></rect>
		<rect x="216.01" y="367.24" width="9.08" height="22.06" style="fill: #f5f5f5"></rect>
		<rect x="196.31" y="409.1" width="9.08" height="22.06" style="fill: #f5f5f5"></rect>
		<rect x="216.01" y="409.1" width="9.08" height="22.06" style="fill: #f5f5f5"></rect>
		<rect x="196.31" y="450.95" width="9.08" height="22.06" style="fill: #f5f5f5"></rect>
		<rect x="216.01" y="450.95" width="9.08" height="22.06" style="fill: #f5f5f5"></rect>
		<rect x="125.04" y="344.57" width="116.16" height="4.8" style="fill: #e0e0e0"></rect>
		<path
			d="M234.31,349.83c0,.24-22.57.45-50.4.45s-50.41-.21-50.41-.45,22.56-.45,50.41-.45S234.31,349.58,234.31,349.83Z"
			style="fill: #ebebeb"
		></path>
		<polygon
			points="130.5 482.42 28.71 482.42 28.27 321.56 130.06 321.56 130.5 482.42"
			style="fill: #ebebeb"
		></polygon>
		<rect x="79.16" y="321.56" width="50.89" height="160.86" style="fill: #e0e0e0"></rect>
		<rect x="39.89" y="289.89" width="35.94" height="31.67" style="fill: #ebebeb"></rect>
		<rect x="67.27" y="289.89" width="8.57" height="31.67" style="fill: #e0e0e0"></rect>
		<rect x="19.79" y="319.71" width="113.24" height="1.85" style="fill: #e0e0e0"></rect>
		<rect x="48.36" y="335.37" width="8.62" height="18.17" style="fill: #fff"></rect>
		<path
			d="M79.16,360.66c0,.19-11.39.35-25.44.35s-25.45-.16-25.45-.35,11.39-.34,25.45-.34S79.16,360.47,79.16,360.66Z"
			style="fill: #e0e0e0"
		></path>
		<rect x="99.7" y="335.37" width="8.62" height="18.17" style="fill: #f5f5f5"></rect>
		<path
			d="M130.5,360.66c0,.19-11.4.35-25.45.35s-25.44-.16-25.44-.35,11.39-.34,25.44-.34S130.5,360.47,130.5,360.66Z"
			style="fill: #ebebeb"
		></path>
		<rect x="99.7" y="371.43" width="8.62" height="18.17" style="fill: #f5f5f5"></rect>
		<path
			d="M130.5,396.73c0,.19-11.4.35-25.45.35s-25.44-.16-25.44-.35,11.39-.35,25.44-.35S130.5,396.54,130.5,396.73Z"
			style="fill: #ebebeb"
		></path>
		<rect x="99.7" y="408.59" width="8.62" height="18.17" style="fill: #f5f5f5"></rect>
		<path
			d="M130.5,433.89c0,.19-11.4.34-25.45.34s-25.44-.15-25.44-.34,11.39-.35,25.44-.35S130.5,433.7,130.5,433.89Z"
			style="fill: #ebebeb"
		></path>
		<rect x="99.7" y="445.75" width="8.62" height="18.17" style="fill: #f5f5f5"></rect>
		<path
			d="M130.5,471c0,.19-11.4.35-25.45.35s-25.44-.16-25.44-.35,11.39-.34,25.44-.34S130.5,470.85,130.5,471Z"
			style="fill: #ebebeb"
		></path>
		<rect x="48.36" y="371.99" width="8.62" height="18.17" style="fill: #fff"></rect>
		<path
			d="M79.16,397.28c0,.19-11.39.35-25.44.35s-25.45-.16-25.45-.35,11.39-.35,25.45-.35S79.16,397.09,79.16,397.28Z"
			style="fill: #e0e0e0"
		></path>
		<rect x="48.36" y="408.6" width="8.62" height="18.17" style="fill: #fff"></rect>
		<path
			d="M79.16,433.9c0,.19-11.39.35-25.44.35s-25.45-.16-25.45-.35,11.39-.35,25.45-.35S79.16,433.71,79.16,433.9Z"
			style="fill: #e0e0e0"
		></path>
		<rect x="48.36" y="445.22" width="8.62" height="18.17" style="fill: #fff"></rect>
		<path
			d="M79.16,470.52c0,.19-11.39.34-25.44.34s-25.45-.15-25.45-.34,11.39-.35,25.45-.35S79.16,470.33,79.16,470.52Z"
			style="fill: #e0e0e0"
		></path>
	</g>
	<g id="freepik--space-ship--inject-11">
		<polygon
			points="179.04 174.78 148.78 482.63 432.56 482.63 268.96 160.06 179.04 174.78"
			style="fill: #ff8f00"
		></polygon>
		<polygon
			points="179.04 174.78 148.78 482.63 432.56 482.63 268.96 160.06 179.04 174.78"
			style="fill: #fff; opacity: 0.9"
		></polygon>
		<polygon
			points="189.84 191.36 179.04 482.63 393.26 482.63 263.45 177.07 189.84 191.36"
			style="fill: #ff8f00"
		></polygon>
		<polygon
			points="189.84 191.36 179.04 482.63 393.26 482.63 263.45 177.07 189.84 191.36"
			style="fill: #fff; opacity: 0.8"
		></polygon>
		<path
			d="M199.7,257.28c-.14,0,.35-13,1.11-28.92s1.49-28.91,1.64-28.9-.36,12.95-1.12,28.92S199.84,257.28,199.7,257.28Z"
			style="fill: #ff8f00"
		></path>
		<path
			d="M229.11,244.7c-.15,0-1.9-9.64-3.93-21.58s-3.56-21.65-3.42-21.68,1.9,9.64,3.93,21.59S229.25,244.68,229.11,244.7Z"
			style="fill: #ff8f00"
		></path>
		<path
			d="M257,225.82c-.13.05-3-7.06-6.5-15.88s-6.16-16-6-16.07,3,7.06,6.5,15.88S257.1,225.77,257,225.82Z"
			style="fill: #ff8f00"
		></path>
		<path
			d="M171,180.41l-.35,10.9s63.22,2.21,112.21-22.49l-4.3-10.76Z"
			style="fill: #ff8f00"
		></path>
		<path
			d="M182.6,185.65a1.78,1.78,0,1,1-1.78-1.78A1.77,1.77,0,0,1,182.6,185.65Z"
			style="fill: #fff"
		></path>
		<circle cx="206.75" cy="183.98" r="1.78" style="fill: #fff"></circle>
		<path
			d="M194.84,185.08a1.78,1.78,0,1,1-1.86-1.69A1.78,1.78,0,0,1,194.84,185.08Z"
			style="fill: #fff"
		></path>
		<path
			d="M222.36,182.2a1.78,1.78,0,1,1-1.78-1.78A1.78,1.78,0,0,1,222.36,182.2Z"
			style="fill: #fff"
		></path>
		<path
			d="M254.08,175.36a1.79,1.79,0,1,1-1.78-1.78A1.79,1.79,0,0,1,254.08,175.36Z"
			style="fill: #fff"
		></path>
		<path
			d="M269,170.84a1.78,1.78,0,1,1-1.78-1.79A1.78,1.78,0,0,1,269,170.84Z"
			style="fill: #fff"
		></path>
		<path
			d="M237.91,179.48a1.79,1.79,0,1,1-1.78-1.79A1.78,1.78,0,0,1,237.91,179.48Z"
			style="fill: #fff"
		></path>
		<path
			d="M69.07,157.71c-.49,3.81,51.79,37.65,163.79,16.32,96.24-18.32,138.57-68.3,138.57-68.3Z"
			style="fill: #ff8f00"
		></path>
		<path
			d="M69.07,157.71c-.49,3.81,51.79,37.65,163.79,16.32,96.24-18.32,138.57-68.3,138.57-68.3Z"
			style="opacity: 0.2"
		></path>
		<ellipse
			cx="219.26"
			cy="130.64"
			rx="153.85"
			ry="20.48"
			transform="translate(-18.4 37.57) rotate(-9.4)"
			style="fill: #ff8f00"
		></ellipse>
		<path
			d="M148.76,133.62s-12.53-68.52,54.9-85.28,82,55.06,82,55.06S245.32,142.35,148.76,133.62Z"
			style="fill: #ebebeb"
		></path>
		<path
			d="M176.89,68.1c.27.31-1.89,2.42-5,6.12-.76.93-1.6,1.94-2.43,3.09s-1.7,2.36-2.61,3.66A74.15,74.15,0,0,0,158,99.46c-.45,1.51-.92,3-1.24,4.32s-.65,2.65-.9,3.82c-1,4.71-1.27,7.72-1.68,7.71s-.66-3.06-.13-8c.14-1.23.31-2.58.61-4s.64-3,1.05-4.54a63.6,63.6,0,0,1,3.75-10,65,65,0,0,1,5.47-9.17c1-1.31,1.92-2.56,2.9-3.65s1.87-2.1,2.75-3C174.08,69.49,176.7,67.86,176.89,68.1Z"
			style="fill: #fff"
		></path>
		<path
			d="M359.41,105.77a3.53,3.53,0,0,1-.37.56,12.47,12.47,0,0,1-1.27,1.44,25.27,25.27,0,0,1-5.82,4,159.32,159.32,0,0,1-21.22,9.35,157.88,157.88,0,0,1-22.35,6.2c-2.91.58-5.28,1-6.92,1.2l-1.9.25a5.34,5.34,0,0,1-.66.06,2.42,2.42,0,0,1,.65-.16l1.87-.35c1.63-.29,4-.73,6.89-1.36a176.12,176.12,0,0,0,22.25-6.33,176.09,176.09,0,0,0,21.22-9.19,26.57,26.57,0,0,0,5.85-3.77C358.85,106.51,359.36,105.73,359.41,105.77Z"
			style="fill: #fff"
		></path>
		<path
			d="M206.53,178.42a4.93,4.93,0,0,1-1-.47,22.13,22.13,0,0,1-2.57-1.58,30.53,30.53,0,0,1-3.47-2.84A31.06,31.06,0,0,1,193,164.7a30.11,30.11,0,0,1-1.67-4.17,23.8,23.8,0,0,1-.75-2.92,5.29,5.29,0,0,1-.14-1.1c.1,0,.39,1.52,1.24,3.91a33.55,33.55,0,0,0,1.75,4.06,36.23,36.23,0,0,0,2.84,4.61,36.87,36.87,0,0,0,3.55,4.09,33.72,33.72,0,0,0,3.36,2.89C205.19,177.59,206.58,178.33,206.53,178.42Z"
			style="fill: #263238"
		></path>
		<path
			d="M200,163.2c0,.07-.23.22-.27.6a.71.71,0,0,0,.15.56.58.58,0,0,0,.62.09.55.55,0,0,0,.38-.5.71.71,0,0,0-.28-.51c-.29-.24-.58-.16-.6-.24s.28-.32.8-.07a1,1,0,0,1,.56.79,1.06,1.06,0,0,1-1.84.75,1,1,0,0,1-.15-1C199.57,163.17,200,163.13,200,163.2Z"
			style="fill: #263238"
		></path>
		<path
			d="M205.38,170.63c0,.07-.23.22-.27.6a.75.75,0,0,0,.15.56.58.58,0,0,0,.62.09.55.55,0,0,0,.38-.5.74.74,0,0,0-.27-.51c-.3-.24-.59-.17-.61-.24s.28-.32.8-.07a1,1,0,0,1,.56.79,1.06,1.06,0,0,1-1.84.75,1.06,1.06,0,0,1-.15-1C205,170.6,205.38,170.56,205.38,170.63Z"
			style="fill: #263238"
		></path>
		<path
			d="M67.75,155.06a5.9,5.9,0,0,1,.78-.36l2.26-.94c2-.81,4.84-1.92,8.41-3.23,7.14-2.63,17.13-5.93,28.36-8.9s21.56-5,29.07-6.24c3.76-.62,6.8-1.07,8.91-1.33l2.44-.3a5.35,5.35,0,0,1,.85-.07,4.64,4.64,0,0,1-.84.17l-2.42.4c-2.1.32-5.13.83-8.88,1.49-7.48,1.33-17.78,3.43-29,6.38s-21.21,6.21-28.38,8.75c-3.58,1.26-6.47,2.32-8.46,3.07l-2.3.85A4.2,4.2,0,0,1,67.75,155.06Z"
			style="fill: #263238"
		></path>
		<path
			d="M290.67,136.87a7.87,7.87,0,0,1-1.36-.63l-3.65-1.85c-3.09-1.55-7.37-3.66-12.17-5.82s-9.22-4-12.43-5.25l-3.8-1.51a7.8,7.8,0,0,1-1.38-.61,8.85,8.85,0,0,1,1.45.42c.92.3,2.24.76,3.87,1.35,3.24,1.19,7.69,3,12.5,5.13s9.08,4.32,12.13,6c1.52.82,2.74,1.5,3.57,2A8.74,8.74,0,0,1,290.67,136.87Z"
			style="fill: #263238"
		></path>
		<path
			d="M261.32,127.1c.06.05-.21.33-.13.84a1,1,0,0,0,.41.7.93.93,0,0,0,1.36-.8,1,1,0,0,0-.41-.7c-.41-.32-.78-.22-.8-.3s.38-.33,1,0a1.35,1.35,0,0,1,.69,1,1.3,1.3,0,0,1-.67,1.29,1.33,1.33,0,0,1-1.46,0,1.36,1.36,0,0,1-.49-1.07C260.84,127.26,261.3,127,261.32,127.1Z"
			style="fill: #263238"
		></path>
		<path
			d="M132.34,138.28c.06.06-.2.33-.13.85a1,1,0,0,0,.41.69.84.84,0,0,0,.91,0A.82.82,0,0,0,134,139a1,1,0,0,0-.41-.69c-.41-.32-.78-.22-.8-.3s.38-.34,1,0a1.24,1.24,0,0,1,0,2.23,1.28,1.28,0,0,1-1.45,0,1.31,1.31,0,0,1-.49-1.06C131.87,138.45,132.33,138.22,132.34,138.28Z"
			style="fill: #263238"
		></path>
		<path
			d="M109,144c.06.06-.2.34-.13.85a1.09,1.09,0,0,0,.41.7.88.88,0,0,0,.91,0,.84.84,0,0,0,.45-.79,1,1,0,0,0-.41-.69c-.41-.32-.78-.22-.8-.3s.38-.33,1,0a1.24,1.24,0,0,1,0,2.23,1.28,1.28,0,0,1-1.45,0,1.3,1.3,0,0,1-.49-1.06C108.51,144.21,109,144,109,144Z"
			style="fill: #263238"
		></path>
		<path
			d="M82.43,151.38c.06.06-.2.34-.13.85a1.07,1.07,0,0,0,.41.7.88.88,0,0,0,.91,0,.87.87,0,0,0,.46-.78,1.06,1.06,0,0,0-.41-.7c-.41-.32-.79-.22-.81-.3s.38-.33,1,0a1.32,1.32,0,0,1,.69.95,1.36,1.36,0,0,1-2.12,1.24,1.33,1.33,0,0,1-.49-1.06C82,151.55,82.42,151.32,82.43,151.38Z"
			style="fill: #263238"
		></path>
		<path
			d="M273,133.14c.06.05-.21.33-.13.84a1,1,0,0,0,.41.7.93.93,0,0,0,1.36-.8,1,1,0,0,0-.41-.7c-.41-.32-.78-.22-.8-.3s.38-.33,1,0a1.35,1.35,0,0,1,.69.95,1.3,1.3,0,0,1-.67,1.29,1.31,1.31,0,0,1-1.45,0,1.34,1.34,0,0,1-.5-1.07C272.52,133.3,273,133.07,273,133.14Z"
			style="fill: #263238"
		></path>
		<path
			d="M235.9,127.86s1.52-6.86,3.29-7.89,5-1.35,5.82-.12c.64,1,1.39,5.14.19,4.29a10.62,10.62,0,0,1-2-2.53l-2.26.87-1.53,4.32Z"
			style="fill: #455a64"
		></path>
		<polygon
			points="241.97 124.36 242.41 125.86 243.35 125.54 242.82 123.81 241.97 124.36"
			style="fill: #263238"
		></polygon>
		<circle cx="241.87" cy="122.61" r="1.83" style="fill: #ff8f00"></circle>
		<path
			d="M216,67.66a17.58,17.58,0,0,0-21.19,16l0,.47a15.2,15.2,0,0,0,.55,5.07,25,25,0,0,0,4.33,8.43c5.68,7.17,8.26,7.13,9.25,11.49s1.75,5.22-.29,7.36a13,13,0,0,0-4.64,1.78c-1.57,1.23-2.89,2.15-2.48,7.34s.57,8.39.57,8.39a139.77,139.77,0,0,0,26.89-4.2l-2.58-12.91a3.58,3.58,0,0,0-2.91-2.14c-2.12-.13-5.3.34-5.62-.77s.11-1.53.11-1.53,3.93,1.06,6.24-.35,4.86-3.24,5.11-5.17,1-8.49.63-8.74,3.26-3.9,2.57-11.24S225.81,70.37,219,68.4C218,68.11,217,67.86,216,67.66Z"
			style="fill: #455a64"
		></path>
		<path
			d="M206,85.68s13.46-5.87,13.27,10.51C219.22,96.19,204.52,99.8,206,85.68Z"
			style="fill: #263238"
		></path>
		<path
			d="M225.19,95.14S217.67,81.8,228.14,82C228.14,82,234.93,91.49,225.19,95.14Z"
			style="fill: #263238"
		></path>
		<g style="opacity: 0.2">
			<path
				d="M202.78,73.48a2.25,2.25,0,0,0-2,2,2.26,2.26,0,0,0,4.33,1,2.29,2.29,0,0,0-.89-2.76,2.21,2.21,0,0,0-1.89-.18"
				style="fill: #fff"
			></path>
		</g>
		<path
			d="M208.52,88.66a1,1,0,0,0-.9.76,1,1,0,0,0,.63,1,.92.92,0,0,0,.86-1.61.94.94,0,0,0-.78-.15"
			style="fill: #455a64"
		></path>
		<path
			d="M209.3,92.05a.46.46,0,0,0-.45.38.5.5,0,0,0,.32.53.49.49,0,0,0,.57-.23.48.48,0,0,0-.14-.59.46.46,0,0,0-.39-.08"
			style="fill: #455a64"
		></path>
		<g style="opacity: 0.2">
			<path d="M200.05,79.05a.88.88,0,1,0,.62-.06" style="fill: #fff"></path>
		</g>
		<path
			d="M215.23,98.21a1.73,1.73,0,0,1-.65.12,8.43,8.43,0,0,1-1.82-.06,9.74,9.74,0,0,1-8.27-7.74,8.48,8.48,0,0,1-.18-1.8,1.69,1.69,0,0,1,.08-.67c.08,0,0,1,.4,2.4a10,10,0,0,0,8,7.51C214.28,98.24,215.23,98.13,215.23,98.21Z"
			style="fill: #263238"
		></path>
		<path
			d="M218.21,87.35a14.08,14.08,0,0,0-4.15-3,14.44,14.44,0,0,0-5-.91,3.58,3.58,0,0,1,1.52-.23,9.37,9.37,0,0,1,6.74,2.85A3.57,3.57,0,0,1,218.21,87.35Z"
			style="fill: #263238"
		></path>
		<path
			d="M222.68,88.55a3.42,3.42,0,0,1-.39-1.24,7.69,7.69,0,0,1-.09-3.16A4.11,4.11,0,0,1,224,81.5a1.73,1.73,0,0,1,1.27-.36c0,.08-.49.14-1.1.61a4.32,4.32,0,0,0-1.5,2.49,9.55,9.55,0,0,0,0,3A4.37,4.37,0,0,1,222.68,88.55Z"
			style="fill: #263238"
		></path>
		<path
			d="M230,93a4.09,4.09,0,0,1-4.34,2.8,12.55,12.55,0,0,0,2.43-1A12.37,12.37,0,0,0,230,93Z"
			style="fill: #263238"
		></path>
		<path
			d="M221.6,112.52a3.37,3.37,0,0,1-1.49.22,8.85,8.85,0,0,1-6.52-2.91,3.34,3.34,0,0,1-.83-1.26,14.56,14.56,0,0,1,1.05,1,10.07,10.07,0,0,0,6.31,2.82A10.84,10.84,0,0,1,221.6,112.52Z"
			style="fill: #263238"
		></path>
		<path
			d="M207.91,133.41a18.62,18.62,0,0,1-.69-4,18.87,18.87,0,0,1-.26-4,18.44,18.44,0,0,1,.69,4A18.94,18.94,0,0,1,207.91,133.41Z"
			style="fill: #263238"
		></path>
		<path
			d="M216.12,129.32a8.21,8.21,0,0,1-3.66.9,4.07,4.07,0,0,1-2.67-.47c-.6-.44-.66-1-.6-1s.21.39.77.7a4.38,4.38,0,0,0,2.47.29C214.47,129.66,216.08,129.2,216.12,129.32Z"
			style="fill: #263238"
		></path>
		<path
			d="M224.55,130.78a13.17,13.17,0,0,1-.9-3.27,14.09,14.09,0,0,1-.48-3.37,12.92,12.92,0,0,1,.91,3.28A13.1,13.1,0,0,1,224.55,130.78Z"
			style="fill: #263238"
		></path>
		<path
			d="M223.51,125.45a2.61,2.61,0,0,1-1.24,2,2.65,2.65,0,0,1-2.22.66,13.43,13.43,0,0,0,2-1C223,126.35,223.39,125.4,223.51,125.45Z"
			style="fill: #263238"
		></path>
		<path
			d="M224.87,65.75a12.47,12.47,0,0,0-2.45,1.87,12.86,12.86,0,0,0-1.59,2.64c-.05,0-.05-.38.12-1A5.62,5.62,0,0,1,224,66C224.49,65.74,224.85,65.7,224.87,65.75Z"
			style="fill: #455a64"
		></path>
		<path
			d="M225.78,64.73a1.15,1.15,0,0,0-1.44.62,1,1,0,0,0,1.39,1.28,1.13,1.13,0,0,0,.32-1.77.65.65,0,0,0-.64-.21"
			style="fill: #455a64"
		></path>
		<path
			d="M220.87,64.67a13.5,13.5,0,0,0-2.45,1.87,13.47,13.47,0,0,0-1.59,2.64c-.05,0-.05-.37.12-.94a5.49,5.49,0,0,1,3-3.34C220.49,64.67,220.85,64.62,220.87,64.67Z"
			style="fill: #455a64"
		></path>
		<path
			d="M221.78,63.66a1.15,1.15,0,0,0-1.44.62,1,1,0,0,0,1.39,1.28,1.13,1.13,0,0,0,.31-1.77.63.63,0,0,0-.63-.21"
			style="fill: #455a64"
		></path>
		<path
			d="M222.43,102.52c0,.14-.72.08-1.52-.13s-1.43-.5-1.39-.64.72-.08,1.52.13S222.46,102.38,222.43,102.52Z"
			style="fill: #263238"
		></path>
	</g>
	<g id="freepik--Character--inject-11">
		<path
			d="M259.72,332.33c.17.54.36,1.18.55,1.95a5.92,5.92,0,0,1,.13,2,9.37,9.37,0,0,1-.5,2.47c-.34.7.36,1.44,1,1.1s1.59-2.24,1.62-4.73,2.47.58,3.38,1.68,3.88,4.39,4.44,4.38c.83,0,1-.9,0-2s-3.51-4.53-2.9-5,5.15,5.24,5.15,5.24.77,1.37,1.49.88c1.3-.91-4-6.59-4.5-7.12-.36-.37.28-.89.64-.47s4.41,5.78,5.74,4.87c1-.69-4.3-4.72-4.52-6.29s3.72,3.46,4.67,2.76c.35-.26.58-.51-2.11-3.07-1.3-1.25-6.29-5-6.29-5l-13.87-44.55-12.11,6.4Z"
			style="fill: #ffbe9d"
		></path>
		<path
			d="M226.1,328.37l18.82-2.14-8.52-13-4.81.12a8.57,8.57,0,0,0-7.54,4.91h0a8.61,8.61,0,0,0-.71,5Z"
			style="fill: #ff8f00"
		></path>
		<path
			d="M226.1,328.37l18.82-2.14-8.52-13-4.81.12a8.57,8.57,0,0,0-7.54,4.91h0a8.61,8.61,0,0,0-.71,5Z"
			style="opacity: 0.4"
		></path>
		<path
			d="M305.86,351.87c.17.54.36,1.19.55,1.95a6,6,0,0,1,.13,2,9,9,0,0,1-.51,2.46c-.33.7.36,1.44,1,1.1s1.59-2.24,1.61-4.73,2.48.58,3.39,1.68,3.88,4.39,4.44,4.38c.82,0,1-.9,0-2s-3.51-4.52-2.91-5,5.16,5.25,5.16,5.25.77,1.37,1.49.87c1.3-.9-4-6.59-4.51-7.12-.36-.37.29-.88.65-.47s4.41,5.78,5.74,4.88c1-.7-4.31-4.72-4.53-6.3s3.73,3.47,4.68,2.76c.35-.26.58-.5-2.11-3.07-1.3-1.25-6.29-5-6.29-5L300,301l-12.11,6.39Z"
			style="fill: #ffbe9d"
		></path>
		<path
			d="M263.71,415.81,281,424.05l-10.14,21.56c-2-1.09-.89-14.19-.89-14.19l-11.29-4.83Z"
			style="fill: #ff8f00"
		></path>
		<g style="opacity: 0.6000000000000001">
			<path
				d="M272.16,424.31a1,1,0,0,1,1.29-.13.94.94,0,0,1,.15,1.28,1,1,0,0,1-1.37.13,1,1,0,0,1,0-1.34"
				style="fill: #fff"
			></path>
		</g>
		<path
			d="M281,424.05l-1.77-.76-9.06,21s0,1.15.69,1.36Z"
			style="fill: #fff; opacity: 0.6000000000000001"
		></path>
		<path
			d="M269.69,431.72c.1,0,.4-.46,1-.82s1.16-.43,1.16-.54-.68-.25-1.37.2S269.58,431.69,269.69,431.72Z"
			style="fill: #263238"
		></path>
		<path
			d="M269.56,434.42c.09.07.48-.3,1.1-.45s1.13,0,1.17-.14-.52-.45-1.27-.25S269.46,434.37,269.56,434.42Z"
			style="fill: #263238"
		></path>
		<path
			d="M271.66,437c.07-.09-.39-.48-1.09-.48s-1.17.38-1.1.46.52-.07,1.1-.06S271.6,437.07,271.66,437Z"
			style="fill: #263238"
		></path>
		<path
			d="M267.24,430.33c.11,0,.19-.55.52-1.12s.72-1,.66-1-.65.17-1,.85S267.13,430.34,267.24,430.33Z"
			style="fill: #263238"
		></path>
		<path
			d="M264.92,428.61s.3-.36.5-1.08a5.25,5.25,0,0,0,.19-1.29,6.74,6.74,0,0,0,0-.77,1.76,1.76,0,0,0-.1-.45.5.5,0,0,0-.54-.31.63.63,0,0,0-.46.35,1.6,1.6,0,0,0-.13.43,4.24,4.24,0,0,0-.09.78,4.46,4.46,0,0,0,.19,1.3c.23.72.54,1.07.58,1.05s-.16-.43-.3-1.12a4.59,4.59,0,0,1-.09-1.22,3.57,3.57,0,0,1,.1-.71c0-.26.13-.45.26-.46s.07,0,.11.08a1.23,1.23,0,0,1,.08.33,5.94,5.94,0,0,1,.05.72,6.5,6.5,0,0,1-.09,1.23A7.47,7.47,0,0,0,264.92,428.61Z"
			style="fill: #263238"
		></path>
		<path
			d="M265.14,428.55s-.25-.42-.91-.78a4.27,4.27,0,0,0-1.25-.41,4.12,4.12,0,0,0-.79,0,1,1,0,0,0-.87.43.58.58,0,0,0,.09.6,1.46,1.46,0,0,0,.34.29,3,3,0,0,0,.73.35,2.78,2.78,0,0,0,1.33.06c.76-.16,1.09-.54,1.06-.56a10.12,10.12,0,0,1-1.1.28,2.76,2.76,0,0,1-1.17-.14,2.4,2.4,0,0,1-.62-.31c-.21-.14-.36-.32-.29-.39a.66.66,0,0,1,.53-.21,4.21,4.21,0,0,1,.71,0,4.43,4.43,0,0,1,1.17.3C264.75,428.3,265.09,428.6,265.14,428.55Z"
			style="fill: #263238"
		></path>
		<path
			d="M249.17,445.41l6.74,15.45,1.8,13.76a1.74,1.74,0,0,0,2.06,1.47h0a1.74,1.74,0,0,0,1.23-1c1.45-3.26,6.71-15.27,6.15-16.37-.64-1.28-6-16.77-6-16.77Z"
			style="fill: #ff8f00"
		></path>
		<path
			d="M259.77,476.09l7-18.41.27.66a2.57,2.57,0,0,1,.07,1.79c-.51,1.57-2,5.87-6,14.95a1.74,1.74,0,0,1-1.28,1Z"
			style="fill: #fff; opacity: 0.6000000000000001"
		></path>
		<g style="opacity: 0.6000000000000001">
			<path
				d="M261.46,454a1.05,1.05,0,0,0,.25,1.37,1,1,0,0,0,1.36-.23,1.09,1.09,0,0,0-.27-1.45,1,1,0,0,0-1.39.4"
				style="fill: #fff"
			></path>
		</g>
		<path
			d="M260.54,467.81a5.25,5.25,0,0,0-1.86-.65,5.16,5.16,0,0,0-1.94.39s.12-.24.46-.44a2.72,2.72,0,0,1,1.5-.32,2.64,2.64,0,0,1,1.44.53C260.46,467.56,260.58,467.78,260.54,467.81Z"
			style="fill: #263238"
		></path>
		<path
			d="M260.29,470.35a15.41,15.41,0,0,0-1.66-.1,12.28,12.28,0,0,0-1.6.43c-.08-.07.53-.7,1.56-.8A2,2,0,0,1,260.29,470.35Z"
			style="fill: #263238"
		></path>
		<path
			d="M261.52,464.29A16.64,16.64,0,0,0,259,464a16.93,16.93,0,0,0-2.54.41,3.87,3.87,0,0,1,2.53-.78A3.83,3.83,0,0,1,261.52,464.29Z"
			style="fill: #263238"
		></path>
		<path
			d="M259.86,459.42c0,.11-1,.1-2.15.52s-1.92,1.05-2,1a3.29,3.29,0,0,1,1.86-1.32A3.33,3.33,0,0,1,259.86,459.42Z"
			style="fill: #263238"
		></path>
		<path
			d="M258,454.83a5.52,5.52,0,0,0-4.11,1.85s.05-.29.32-.64a3.59,3.59,0,0,1,1.38-1.06,3.75,3.75,0,0,1,1.71-.33C257.75,454.68,258,454.79,258,454.83Z"
			style="fill: #263238"
		></path>
		<path
			d="M255.41,454.43a1.36,1.36,0,0,1-.26-.58,4.34,4.34,0,0,1-.16-1.74,1.94,1.94,0,0,1,.42-1.18.69.69,0,0,1,.78-.16,1.15,1.15,0,0,1,.54.61,2.44,2.44,0,0,1-1.13,2.9,2.83,2.83,0,0,1-3.13-.32,1,1,0,0,1-.35-.74.67.67,0,0,1,.52-.6,2.41,2.41,0,0,1,1.25.11,4.87,4.87,0,0,1,1.56.78c.33.25.47.42.46.44a7.73,7.73,0,0,0-2.09-1,2.37,2.37,0,0,0-1.09-.07.37.37,0,0,0-.29.33.69.69,0,0,0,.26.47,2.51,2.51,0,0,0,2.72.24,2.1,2.1,0,0,0,1-2.44.76.76,0,0,0-.35-.44.37.37,0,0,0-.43.08,1.69,1.69,0,0,0-.38,1A6.7,6.7,0,0,0,255.41,454.43Z"
			style="fill: #263238"
		></path>
		<path
			d="M274.58,418.05,255.14,404l8.79-64.43L245.46,327.9l-17.09-4.59s-7.71,14.73-11.24,24.21c-7.5,20.15-12.53,27.29-11.94,42.11.19,4.69,17.06,17,27.74,23.84a34.93,34.93,0,0,0,.45,3.9c3.15,17,13.76,39.77,13.76,39.77l17.57-7.45-4.93-19.3,5.69,3.59Zm-41.34-43.16,2.67-10.28c-.71,6.57-1.39,13.43-1.94,20A20.53,20.53,0,0,1,233.24,374.89Z"
			style="fill: #263238"
		></path>
		<path
			d="M247.14,457.14s0-.1-.12-.28l-.33-.83-1.23-3.2c-1.06-2.78-2.57-6.81-4.38-11.82s-3.94-11-6.07-17.68c-.53-1.68-1-3.4-1.53-5.19-.21-.9-.48-1.79-.61-2.74,0-.23-.08-.47-.11-.71l-.06-.7c0-.48-.07-.95-.11-1.43q-.21-2.87-.3-5.84c0-1,0-2,0-3s0-2,.08-3c.57-8.12,1.52-15.79,2.32-22.78s1.56-13.28,2.19-18.57,1.06-9.56,1.33-12.52c.14-1.48.23-2.64.29-3.42,0-.37.06-.67.08-.88a1.61,1.61,0,0,1,0-.31,1.23,1.23,0,0,1,0,.31c0,.22,0,.51,0,.89,0,.78-.11,1.93-.23,3.42-.23,3-.63,7.25-1.21,12.54S235.77,371,235,378s-1.72,14.68-2.29,22.77c-.09,1-.08,2-.08,3s0,2,0,3c.06,2,.16,3.92.29,5.82,0,.48.07,1,.11,1.43l.06.7c0,.23.07.46.11.69a27,27,0,0,0,.59,2.7c.47,1.78,1,3.5,1.51,5.18,2.12,6.7,4.23,12.68,6,17.69s3.25,9,4.26,11.86c.5,1.39.89,2.47,1.17,3.22l.29.85A.94.94,0,0,1,247.14,457.14Z"
			style="fill: #455a64"
		></path>
		<path
			d="M237.82,340s-.17-.11-.44-.38a4.56,4.56,0,0,1-.79-1.38,14.66,14.66,0,0,1-.68-5.16,44.61,44.61,0,0,1,.43-5.17,12.32,12.32,0,0,1,.37-2.12,13.16,13.16,0,0,1-.11,2.15c-.11,1.31-.28,3.13-.32,5.14a16.89,16.89,0,0,0,.55,5.07,5.53,5.53,0,0,0,.67,1.38C237.72,339.82,237.84,340,237.82,340Z"
			style="fill: #455a64"
		></path>
		<path
			d="M230.91,324.37a4.41,4.41,0,0,1,.09,1.81,8.34,8.34,0,0,1-5,6.82,4.28,4.28,0,0,1-1.76.47c0-.06.66-.21,1.65-.7a8.82,8.82,0,0,0,4.85-6.62C230.91,325.06,230.85,324.37,230.91,324.37Z"
			style="fill: #455a64"
		></path>
		<path
			d="M260.54,363a.76.76,0,0,1,0,.2c0,.15,0,.34-.07.57-.07.53-.17,1.27-.29,2.2-.28,1.94-.68,4.69-1.16,8.09-1,6.84-2.41,16.25-3.95,26.64a48.88,48.88,0,0,0,.48,14.71,51.3,51.3,0,0,0,1.59,6.25c.61,1.93,1.17,3.73,1.68,5.38,1,3.27,1.84,5.93,2.41,7.8.27.91.49,1.62.64,2.13l.16.55a.76.76,0,0,1,0,.2.82.82,0,0,1-.08-.18c-.05-.15-.11-.33-.19-.55l-.7-2.1-2.53-7.77c-.52-1.64-1.1-3.44-1.72-5.37a51.22,51.22,0,0,1-1.63-6.28,48.23,48.23,0,0,1-.51-14.81c1.52-10.43,3-19.82,4.05-26.64.53-3.38,1-6.13,1.27-8.06.16-.93.28-1.67.37-2.2,0-.23.08-.41.1-.56A.91.91,0,0,1,260.54,363Z"
			style="fill: #455a64"
		></path>
		<path
			d="M225.51,328.31a2.08,2.08,0,0,1-.18.48l-.61,1.35c-.54,1.16-1.31,2.85-2.22,4.95-1.84,4.19-4.25,10-6.79,16.56s-4.77,12.44-6.39,16.73l-1.93,5.07c-.22.55-.41,1-.55,1.37a1.91,1.91,0,0,1-.23.47,2.59,2.59,0,0,1,.13-.51c.12-.37.27-.84.46-1.4.44-1.29,1-3,1.78-5.13,1.53-4.32,3.69-10.27,6.24-16.79s5-12.36,6.95-16.52c1-2.09,1.77-3.76,2.37-4.89l.7-1.31C225.4,328.45,225.49,328.3,225.51,328.31Z"
			style="fill: #fff"
		></path>
		<path
			d="M239.42,342.83a2.91,2.91,0,0,1,0,.95c0,.62-.12,1.5-.23,2.59-.24,2.17-.67,5.17-1.22,8.46s-1,6.27-1.37,8.43a29.53,29.53,0,0,1-.6,3.49,3.32,3.32,0,0,1,0-.95c0-.62.12-1.5.24-2.59.23-2.18.66-5.17,1.21-8.46s1-6.27,1.37-8.43A29.53,29.53,0,0,1,239.42,342.83Z"
			style="fill: #fff"
		></path>
		<polyline
			points="228.37 323.19 231.69 315.5 238.3 326.12 229.09 323.48"
			style="fill: #ffbe9d"
		></polyline>
		<path
			d="M302,302.23l-7.63-18.81c-.89-3-2.72-3.53-4.22-5.32l-20.3-12.38c-14.88-6.69-23.8,13.75-23.8,13.75L231.3,310.29C215,315.08,226,327.86,226,327.86s-4.13-7.78.28-10.38c4.62-2.73,9.37,5,13.93,12.41,5.39,8.7,23.67,14.86,23.67,14.86,2.23-2.21,1.9-10.19,3.74-14.41C268.19,329,282,299.83,282,299.83L286.53,312s6.6-7.23,9.72-8.31A35.43,35.43,0,0,1,302,302.23Z"
			style="fill: #ff8f00"
		></path>
		<path
			d="M240.1,293.29l4.24-8.05h0l21-20.77-8.1-.7A12.5,12.5,0,0,0,246,269.28l-.87,1.31a20.8,20.8,0,0,0-3.37,9Z"
			style="fill: #ff8f00"
		></path>
		<path
			d="M249.74,272.82a2,2,0,0,1-.17.39L249,274.3c-.51,1-1.2,2.33-2,4-1.7,3.37-4,8.07-6.44,13.28s-4.71,9.93-6.4,13.31c-.84,1.69-1.53,3.05-2,4-.24.44-.43.79-.58,1.08a1.7,1.7,0,0,1-.23.36,2.56,2.56,0,0,1,.16-.4l.52-1.1,1.93-4,6.29-13.35c2.47-5.21,4.78-9.9,6.55-13.24.88-1.67,1.61-3,2.14-3.93l.61-1.05A1.49,1.49,0,0,1,249.74,272.82Z"
			style="fill: #263238"
		></path>
		<path
			d="M288.52,280.43c0,.07-.78.46-1.89,1.34a12.78,12.78,0,0,0-1.78,1.72,14.24,14.24,0,0,0-1.71,2.52,14.39,14.39,0,0,0-1.11,2.83,14.14,14.14,0,0,0-.42,2.45c-.1,1.41,0,2.3,0,2.3s-.08-.21-.14-.61a4.63,4.63,0,0,1-.07-.73,7.72,7.72,0,0,1,0-1,12,12,0,0,1,.35-2.52,14.1,14.1,0,0,1,1.11-2.92,13.6,13.6,0,0,1,1.78-2.56,12.33,12.33,0,0,1,1.88-1.71,8.15,8.15,0,0,1,.82-.54,3.87,3.87,0,0,1,.65-.35A2.45,2.45,0,0,1,288.52,280.43Z"
			style="fill: #263238"
		></path>
		<path
			d="M259.51,330.35l-.32.12a9.78,9.78,0,0,1-1,.26,11.93,11.93,0,0,1-3.64.19,12.09,12.09,0,0,1-5.12-1.71,16.19,16.19,0,0,1-4.69-4.65c-1.36-1.92-2.43-3.89-3.49-5.6a28.85,28.85,0,0,0-3.17-4.32,14.25,14.25,0,0,0-2.75-2.32c-.72-.46-1.16-.64-1.14-.67a6.76,6.76,0,0,1,1.2.57,13,13,0,0,1,2.85,2.27,27.44,27.44,0,0,1,3.25,4.31c1.09,1.72,2.16,3.68,3.5,5.58a16.42,16.42,0,0,0,4.59,4.59,12.27,12.27,0,0,0,5,1.73,13,13,0,0,0,3.59-.09C259.05,330.46,259.5,330.32,259.51,330.35Z"
			style="fill: #263238"
		></path>
		<path
			d="M251.86,301.6s.3.4.87,1a8.83,8.83,0,0,0,2.89,2.22,10.35,10.35,0,0,0,5.29.89,11.92,11.92,0,0,0,6.2-2.13,10.87,10.87,0,0,0,3.91-5.21,10.5,10.5,0,0,0-.94-8.78c-.44-.75-.75-1.13-.72-1.15a4.17,4.17,0,0,1,.89,1,9.76,9.76,0,0,1,1.5,3.46,10.58,10.58,0,0,1-.27,5.58,11.19,11.19,0,0,1-4.07,5.48,12.09,12.09,0,0,1-6.47,2.19,10.46,10.46,0,0,1-5.48-1,8.38,8.38,0,0,1-2.89-2.42,5,5,0,0,1-.55-.86A1.06,1.06,0,0,1,251.86,301.6Z"
			style="fill: #fff"
		></path>
		<path
			d="M268.4,289.41a14.82,14.82,0,0,0-3.9-2.36,11.17,11.17,0,0,0-10.42,1.38,9.72,9.72,0,0,0-2.24,2.14,9.9,9.9,0,0,0-1.46,2.49,10.25,10.25,0,0,0-.78,4.81,11,11,0,0,0,.77,3.23,10,10,0,0,1,.48,1.15,4.31,4.31,0,0,1-.67-1.06,9.81,9.81,0,0,1-.94-3.29,10.3,10.3,0,0,1,.69-5,10.56,10.56,0,0,1,1.51-2.62,10.24,10.24,0,0,1,2.34-2.25,11.4,11.4,0,0,1,10.85-1.3,10.43,10.43,0,0,1,2.91,1.8,6.82,6.82,0,0,1,.66.65C268.34,289.31,268.41,289.4,268.4,289.41Z"
			style="fill: #fff"
		></path>
		<path
			d="M257.52,299.68a51.6,51.6,0,0,1,4.31-5.87,50.84,50.84,0,0,1,4.71-5.55,49.31,49.31,0,0,1-4.3,5.87A51.27,51.27,0,0,1,257.52,299.68Z"
			style="fill: #fff"
		></path>
		<path
			d="M262.3,305.85a30.24,30.24,0,0,1-2-7.77,16.9,16.9,0,0,1,1.27,3.82A16.57,16.57,0,0,1,262.3,305.85Z"
			style="fill: #fff"
		></path>
		<path
			d="M260.66,297.69a6.5,6.5,0,0,1-.3-1.82l.24.15c-1.13.44-2.75,1-4.56,1.62a41.44,41.44,0,0,1-6.41,1.88,41.85,41.85,0,0,1,6.25-2.37c1.8-.61,3.45-1.13,4.61-1.47l.23-.06v.22A6.57,6.57,0,0,1,260.66,297.69Z"
			style="fill: #fff"
		></path>
		<path
			d="M255.73,300.53c.12.07-.22.88-.85,1.76s-1.28,1.47-1.39,1.37.35-.82,1-1.67S255.61,300.45,255.73,300.53Z"
			style="fill: #fff"
		></path>
		<path
			d="M275.21,283a2,2,0,0,1-.34.27c-.22.18-.58.4-1,.76a27.71,27.71,0,0,0-3.3,3.15c-1.31,1.43-2.73,3.24-4.37,5.21a31.86,31.86,0,0,1-6,5.83,27.67,27.67,0,0,1-7.5,3.64,49.36,49.36,0,0,1-6.63,1.58c-1.91.34-3.46.54-4.54.68l-1.24.15a2.31,2.31,0,0,1-.43,0,1.34,1.34,0,0,1,.42-.1l1.23-.2c1.07-.17,2.62-.41,4.52-.77a53,53,0,0,0,6.58-1.65,27.7,27.7,0,0,0,7.41-3.62,32.51,32.51,0,0,0,5.93-5.75c1.65-2,3.09-3.76,4.42-5.18a26.13,26.13,0,0,1,3.39-3.1,11.08,11.08,0,0,1,1-.71Z"
			style="fill: #263238"
		></path>
		<path
			d="M266.66,264.66a1.55,1.55,0,0,1-.45,0l-1.29-.15c-1.12-.14-2.73-.41-4.73-.58a20.59,20.59,0,0,0-3.26,0,19.58,19.58,0,0,0-3.67.65A13.69,13.69,0,0,0,246.2,269a19.1,19.1,0,0,0-3.62,7.67c-.56,2.58-.85,5-1.12,7s-.42,3.53-.57,4.73a11.77,11.77,0,0,1-.24,1.73,1.54,1.54,0,0,1,0-.45c0-.3,0-.73.06-1.3.07-1.12.19-2.75.4-4.75a70.81,70.81,0,0,1,1-7,19.17,19.17,0,0,1,3.67-7.89,14,14,0,0,1,7.34-4.61,19.6,19.6,0,0,1,3.77-.62,19.93,19.93,0,0,1,3.33.1c2,.22,3.61.54,4.72.74A11.46,11.46,0,0,1,266.66,264.66Z"
			style="fill: #fff"
		></path>
		<path
			d="M289.54,280.75a14.29,14.29,0,0,0-6.42,7.15,9.27,9.27,0,0,1,6.42-7.15Z"
			style="fill: #fff"
		></path>
		<g style="opacity: 0.2">
			<path
				d="M244.13,303.51a5.66,5.66,0,0,1,2.8-3.89,13,13,0,0,1,4.69-1.49,44.36,44.36,0,0,0,4.88-.82,13.92,13.92,0,0,0,7-4.42,8.21,8.21,0,0,1,2.32-2.27,1.2,1.2,0,0,1,.76-.16.56.56,0,0,1,.47.55,1,1,0,0,1-.19.39c-5.19,7.28-14.12,11.42-22.72,12.11"
			></path>
		</g>
		<g style="opacity: 0.2">
			<path
				d="M281.54,291.72A50.17,50.17,0,0,0,286.62,311c.4-1.79,3.11-2.44,3.26-4.27a3.4,3.4,0,0,0-.38-1.61q-3.47-8.46-6.94-16.92a.53.53,0,0,0-.22-.3c-.31-.15-.52.33-.54.67-.05,1.22-.1,2.44-.16,3.66"
			></path>
		</g>
		<path
			d="M231.3,310.29c0,.09-1.13.28-2.79,1.1a10.66,10.66,0,0,0-5,4.87,9.28,9.28,0,0,0-.24,6.94,16.7,16.7,0,0,0,1.36,2.66s-.25-.17-.58-.58a7.67,7.67,0,0,1-1.12-1.95A9.29,9.29,0,0,1,223,316a10.52,10.52,0,0,1,5.36-5,10.87,10.87,0,0,1,2.13-.68A2.17,2.17,0,0,1,231.3,310.29Z"
			style="fill: #fff"
		></path>
		<path
			d="M249.37,329.86a4.43,4.43,0,0,1-2.41-1.18,18.76,18.76,0,0,1-4.16-4.95c-1.29-2.18-2.27-4.21-3.25-5.51s-1.75-2-1.69-2a1.85,1.85,0,0,1,.6.4,8.69,8.69,0,0,1,1.38,1.4,46.37,46.37,0,0,1,3.4,5.47,22.4,22.4,0,0,0,3.95,4.94A12.24,12.24,0,0,0,249.37,329.86Z"
			style="fill: #fff"
		></path>
		<path
			d="M293.1,250.88l-12.75,22A7.92,7.92,0,0,1,270,276h0a7.91,7.91,0,0,1-3.38-11c1.2-2.09,2.2-3.81,2.2-3.81s-5.1-3.55-2.47-9.1c2.35-4.95,10.81-18.86,12.61-21.8l9.95,4.87A11.36,11.36,0,0,1,293.1,250.88Z"
			style="fill: #ffbe9d"
		></path>
		<path
			d="M268.88,261.09a14.23,14.23,0,0,0,8.19,1.47s-3.64,3.14-8.9-.05Z"
			style="fill: #eb996e"
		></path>
		<path
			d="M274.61,243.85A.88.88,0,0,0,275,245a.83.83,0,0,0,1.16-.31.88.88,0,0,0-.37-1.17A.85.85,0,0,0,274.61,243.85Z"
			style="fill: #263238"
		></path>
		<path
			d="M273.86,241.73c.05.15.86,0,1.71.42s1.26,1.14,1.4,1.09.06-.26-.11-.59a2.4,2.4,0,0,0-1.06-1,2.3,2.3,0,0,0-1.42-.2C274,241.52,273.84,241.66,273.86,241.73Z"
			style="fill: #263238"
		></path>
		<path
			d="M283,248a.89.89,0,0,0,.38,1.17.83.83,0,0,0,1.15-.31.87.87,0,0,0-.37-1.17A.83.83,0,0,0,283,248Z"
			style="fill: #263238"
		></path>
		<path
			d="M282.29,245.72c0,.15.86,0,1.71.42s1.26,1.14,1.4,1.09.06-.26-.11-.59a2.4,2.4,0,0,0-1.06-1,2.3,2.3,0,0,0-1.42-.2C282.45,245.51,282.27,245.65,282.29,245.72Z"
			style="fill: #263238"
		></path>
		<path
			d="M275.51,251.61a5.63,5.63,0,0,0-1.25-.92c-.21-.13-.39-.28-.36-.44a1.25,1.25,0,0,1,.46-.57l1.45-1.34a31.87,31.87,0,0,0,3.54-3.6,30.64,30.64,0,0,0-3.83,3.31l-1.42,1.36a1.38,1.38,0,0,0-.53.79.6.6,0,0,0,.2.49,1.61,1.61,0,0,0,.35.23A6.32,6.32,0,0,0,275.51,251.61Z"
			style="fill: #263238"
		></path>
		<path
			d="M283.69,243.06c0,.27.87.58,1.81,1.18s1.61,1.27,1.84,1.13.07-.35-.14-.73a3.76,3.76,0,0,0-1.19-1.21,3.64,3.64,0,0,0-1.59-.55C284,242.84,283.71,242.93,283.69,243.06Z"
			style="fill: #263238"
		></path>
		<path
			d="M275.64,239.13c.05.27.73.35,1.44.69s1.23.76,1.47.62.11-.3-.06-.61a2.23,2.23,0,0,0-1-.89,2.18,2.18,0,0,0-1.33-.17C275.8,238.85,275.62,239,275.64,239.13Z"
			style="fill: #263238"
		></path>
		<path
			d="M289.22,254.11c.11,0,4.33.74,2.37,4.45s-5.29,1-5.24.86S289.22,254.11,289.22,254.11Z"
			style="fill: #ffbe9d"
		></path>
		<path
			d="M288.23,258.62s0,.08.13.18a.7.7,0,0,0,.47.27,1.83,1.83,0,0,0,1.5-1,2.44,2.44,0,0,0,.31-1,.84.84,0,0,0-.22-.75.38.38,0,0,0-.48,0c-.1.07-.12.16-.14.16s-.05-.11.06-.25a.51.51,0,0,1,.27-.15.57.57,0,0,1,.41.09,1,1,0,0,1,.37.94,2.5,2.5,0,0,1-.32,1.15,1.9,1.9,0,0,1-1.79,1.1.76.76,0,0,1-.54-.41C288.19,258.71,288.22,258.62,288.23,258.62Z"
			style="fill: #eb996e"
		></path>
		<path
			d="M291.38,255a2.23,2.23,0,0,0-2.27,0c-.51.42-.86,1-1.37,1.43a1.48,1.48,0,0,1-1.81.21,1.3,1.3,0,0,1-.37-1.24,3.54,3.54,0,0,1,.59-1.22c1.08-1.65,2.31-3.22,3.24-5a10.08,10.08,0,0,0,1.4-5.67,5.51,5.51,0,0,0-3.2-4.63c-1.22-.48-2.59-.4-3.83-.8a5.17,5.17,0,0,1-3.21-3.15,8.83,8.83,0,0,0-.46-.87c0-.09.52-.83,1-1,3.35-1,7.8.43,10.48,2.69a12.26,12.26,0,0,1,4.39,9.32c-.08,3.5-2.42,7.28-4.55,9.82"
			style="fill: #263238"
		></path>
		<path
			d="M291.43,254.64c1.1-1.75,2.85-3,4.2-4.55s2.33-3.81,1.47-5.69c-.3-.64-.79-1.19-1-1.85a8.73,8.73,0,0,1-.29-2.11,7.34,7.34,0,0,0-3.43-5.36c-1.3-.78-2.82-1.14-4.14-1.89-2.09-1.19-3.58-3.32-5.79-4.28a2.84,2.84,0,0,0-2.31-.15,1.4,1.4,0,0,0-.65,2,1.21,1.21,0,0,0-1.64-.87,1.82,1.82,0,0,0-1,1.76,3.9,3.9,0,0,0,.75,2,10.08,10.08,0,0,0,5.6,4.15l5.15-.23,4.11,3.27,2.95,5.07-5.91,7.16Z"
			style="fill: #263238"
		></path>
		<path
			d="M273.41,255.09a.92.92,0,0,0,.91.32,1.42,1.42,0,0,0,.78-.65,1.68,1.68,0,0,0,.22-1.09,1.21,1.21,0,0,0-.65-.88,1,1,0,0,0-1.05.19A1.34,1.34,0,0,0,273.41,255.09Z"
			style="fill: #eb996e"
		></path>
		<path
			d="M273.61,252.86s.27-.34.88-.22a1.23,1.23,0,0,1,.83.63,1.49,1.49,0,0,1,.07,1.26,1.43,1.43,0,0,1-1.91.89c-.55-.31-.53-.79-.49-.76s.11.36.58.56a1.23,1.23,0,0,0,1.53-.8,1.18,1.18,0,0,0-.66-1.57A1.81,1.81,0,0,0,273.61,252.86Z"
			style="fill: #263238"
		></path>
		<path
			d="M282.42,228.91a3.42,3.42,0,0,0-1.09-.27,2.32,2.32,0,0,0-1.26.31,1.3,1.3,0,0,0-.61,1.44l.22.89-.51-.76a1.36,1.36,0,0,0-2-.09,1.05,1.05,0,0,0-.14,1.15,7.93,7.93,0,0,1,.42,1.54v0l0,.06c-.72,1.39-1.5,2.91-2.48,4.47s-2,3.15-3,4.85c-.75,1.22-1.49,2.41-2.23,3.54s-1.48,2.2-2.1,3.26a11.51,11.51,0,0,0-1.9,6.1,6.68,6.68,0,0,0,1.39,4,9.62,9.62,0,0,0,1.17,1.11s-.14,0-.38-.18a4.63,4.63,0,0,1-.94-.79,6.71,6.71,0,0,1-1.61-4.16,11.6,11.6,0,0,1,1.86-6.35c.62-1.08,1.36-2.17,2.09-3.3s1.46-2.32,2.21-3.54c1-1.69,2.05-3.34,3.06-4.85s1.77-3,2.51-4.39l0,.11a7.85,7.85,0,0,0-.39-1.45,2.32,2.32,0,0,1-.09-.8,1.2,1.2,0,0,1,.37-.74,1.71,1.71,0,0,1,2.51.18l-.28.13a1.55,1.55,0,0,1,.79-1.72,2.54,2.54,0,0,1,1.4-.28,2.24,2.24,0,0,1,.84.26C282.35,228.83,282.43,228.9,282.42,228.91Z"
			style="fill: #fff"
		></path>
	</g>
	<g id="freepik--Trees--inject-11">
		<polygon
			points="387.81 437.5 401.9 378.45 424 433.31 417.52 431.4 433.52 464.17 424.38 461.12 435.43 482.45 385.91 482.45 390.1 462.64 385.91 468.36 395.07 433.8 387.81 437.5"
			style="fill: #fff"
		></polygon>
		<polygon
			points="123.64 456.22 133.87 413.37 149.9 453.18 145.2 451.8 156.82 475.58 150.18 473.37 158.2 482.45 122.25 482.45 125.3 474.47 122.25 478.62 128.9 453.53 123.64 456.22"
			style="fill: #fff"
		></polygon>
		<polygon
			points="21.72 437.5 35.81 378.45 57.91 433.31 51.43 431.4 67.43 464.17 58.29 461.12 69.33 482.45 19.81 482.45 24 462.64 19.81 468.36 28.97 433.8 21.72 437.5"
			style="fill: #fff"
		></polygon>
		<polygon
			points="86.03 437.5 100.13 378.45 122.22 433.31 115.75 431.4 131.75 464.17 122.6 461.12 133.65 482.45 84.13 482.45 88.32 462.64 84.13 468.36 93.29 433.8 86.03 437.5"
			style="fill: #fff"
		></polygon>
		<polygon
			points="147.56 464.51 153.19 440.96 162 462.84 159.42 462.08 165.8 475.15 162.16 473.94 166.56 482.45 146.81 482.45 148.48 474.55 146.81 476.83 150.46 463.04 147.56 464.51"
			style="fill: #455a64"
		></polygon>
		<polygon
			points="65.26 447.44 76.24 401.44 93.45 444.17 88.4 442.69 100.86 468.21 93.74 465.83 102.35 482.45 63.77 482.45 67.04 467.02 63.77 471.47 70.91 444.55 65.26 447.44"
			style="fill: #455a64"
		></polygon>
		<polygon
			points="423.43 421.43 442.56 341.28 472.55 415.74 463.76 413.16 485.48 457.63 473.07 453.49 488.06 482.45 420.84 482.45 426.53 455.56 420.84 463.32 433.27 416.4 423.43 421.43"
			style="fill: #fff"
		></polygon>
		<polygon
			points="413.34 447.44 424.32 401.44 441.53 444.17 436.49 442.69 448.95 468.21 441.83 465.83 450.44 482.45 411.86 482.45 415.12 467.02 411.86 471.47 419 444.55 413.34 447.44"
			style="fill: #455a64"
		></polygon>
	</g>
	<g id="freepik--Moon--inject-11">
		<path
			d="M364.09,48.71a23.8,23.8,0,0,1,5.54-15.3,23.9,23.9,0,1,0,33.66,33.66,23.9,23.9,0,0,1-39.2-18.36Z"
			style="fill: #263238"
		></path>
	</g>
	<g id="freepik--Stars--inject-11">
		<path
			d="M144,40.78l.37.67a1.45,1.45,0,0,0,.6.6l.67.37-.67.36a1.45,1.45,0,0,0-.6.6l-.37.67-.37-.67a1.57,1.57,0,0,0-.6-.6l-.67-.36.67-.37a1.57,1.57,0,0,0,.6-.6Z"
			style="fill: #455a64"
		></path>
		<path
			d="M145.68,208.21l.36.67a1.57,1.57,0,0,0,.6.6l.68.37-.68.36a1.57,1.57,0,0,0-.6.6l-.36.68-.37-.68a1.57,1.57,0,0,0-.6-.6l-.67-.36.67-.37a1.57,1.57,0,0,0,.6-.6Z"
			style="fill: #455a64"
		></path>
		<path
			d="M347.65,221.43l.36.68a1.57,1.57,0,0,0,.6.6l.67.36-.67.37a1.57,1.57,0,0,0-.6.6l-.36.67-.37-.67a1.57,1.57,0,0,0-.6-.6l-.67-.37.67-.36a1.57,1.57,0,0,0,.6-.6Z"
			style="fill: #455a64"
		></path>
		<path
			d="M467.14,139.87l.37.68a1.57,1.57,0,0,0,.6.6l.67.36-.67.37a1.57,1.57,0,0,0-.6.6l-.37.67-.36-.67a1.57,1.57,0,0,0-.6-.6l-.67-.37.67-.36a1.57,1.57,0,0,0,.6-.6Z"
			style="fill: #455a64"
		></path>
		<path
			d="M56.51,104.46l.92,1.68a3.76,3.76,0,0,0,1.5,1.51l1.68.92-1.68.92a3.67,3.67,0,0,0-1.5,1.5l-.92,1.68L55.59,111a3.7,3.7,0,0,0-1.51-1.5l-1.68-.92,1.68-.92a3.78,3.78,0,0,0,1.51-1.51Z"
			style="fill: #455a64"
		></path>
		<path
			d="M406.76,111.2l.92,1.69a3.8,3.8,0,0,0,1.5,1.5l1.68.92-1.68.92a3.73,3.73,0,0,0-1.5,1.5l-.92,1.68-.92-1.68a3.8,3.8,0,0,0-1.5-1.5l-1.69-.92,1.69-.92a3.86,3.86,0,0,0,1.5-1.5Z"
			style="fill: #455a64"
		></path>
	</g>
</svg>
